<svg width="610" height="521" viewBox="0 0 610 521" fill="none" xmlns="http://www.w3.org/2000/svg">
<path d="M437.086 415.137H317.371V500.996H437.086V415.137Z" fill="#829A90"/>
<path d="M593.93 440.46H160.525C151.87 440.46 144.855 433.442 144.855 424.79V154.738C144.855 146.082 151.873 139.068 160.525 139.068H593.93C602.585 139.068 609.6 146.086 609.6 154.738V424.793C609.603 433.446 602.585 440.46 593.93 440.46Z" fill="#A1B3A7"/>
<path d="M580.855 415.137H173.599C166.902 415.137 161.473 409.708 161.473 403.011V165.121C161.473 158.424 166.902 152.995 173.599 152.995H580.855C587.552 152.995 592.981 158.424 592.981 165.121V403.011C592.981 409.708 587.552 415.137 580.855 415.137Z" fill="#C5DDBA"/>
<path d="M507.127 520.478H247.323C246.016 520.478 244.957 519.419 244.957 518.112V503.366C244.957 502.059 246.016 501 247.323 501H507.127C508.434 501 509.493 502.059 509.493 503.366V518.112C509.493 519.419 508.434 520.478 507.127 520.478Z" fill="#A1B3A7"/>
<path d="M577.557 401.922H335.674C333.852 401.922 332.371 400.444 332.371 398.618V350.894C332.371 349.072 333.849 347.591 335.674 347.591H577.557C579.38 347.591 580.861 349.068 580.861 350.894V398.618C580.861 400.444 579.383 401.922 577.557 401.922Z" fill="white"/>
<path d="M549.08 219.072H515.203C516.942 215.257 521.364 213.208 525.27 214.734C525.34 210.932 529.002 207.584 532.797 207.852C536.591 208.12 539.741 211.953 539.274 215.727C541.278 214.396 543.895 213.866 546.149 214.699C548.407 215.532 549.313 216.678 549.08 219.072Z" fill="white"/>
<path d="M412.065 207.839H357.57C360.382 205.494 362.654 203.926 366.285 204.379C368.575 198.57 373.439 192.905 379.683 192.978C385.14 193.044 389.963 198.313 389.544 203.752C390.367 202.491 392.025 201.842 393.482 202.215C394.939 202.588 396.088 203.951 396.203 205.449C398.58 204.355 401.05 203.24 403.667 203.25C406.284 203.268 411.396 205.313 412.065 207.839Z" fill="white"/>
<path d="M569.581 359.734H471.216C470.686 359.734 470.254 359.305 470.254 358.772V354.949C470.254 354.42 470.683 353.988 471.216 353.988H569.581C570.11 353.988 570.543 354.416 570.543 354.949V358.772C570.543 359.302 570.11 359.734 569.581 359.734Z" fill="#D8E8D2"/>
<path d="M569.581 369.033H471.216C470.686 369.033 470.254 368.604 470.254 368.071V364.248C470.254 363.719 470.683 363.287 471.216 363.287H569.581C570.11 363.287 570.543 363.715 570.543 364.248V368.071C570.543 368.604 570.11 369.033 569.581 369.033Z" fill="#D8E8D2"/>
<path d="M569.581 378.337H471.216C470.686 378.337 470.254 377.908 470.254 377.375V373.553C470.254 373.023 470.683 372.591 471.216 372.591H569.581C570.11 372.591 570.543 373.019 570.543 373.553V377.375C570.543 377.908 570.11 378.337 569.581 378.337Z" fill="#D8E8D2"/>
<path d="M569.581 387.636H471.216C470.686 387.636 470.254 387.207 470.254 386.674V382.851C470.254 382.322 470.683 381.89 471.216 381.89H569.581C570.11 381.89 570.543 382.318 570.543 382.851V386.674C570.543 387.204 570.11 387.636 569.581 387.636Z" fill="#D8E8D2"/>
<path d="M519.721 396.94H470.937C470.561 396.94 470.258 396.637 470.258 396.26V391.873C470.258 391.497 470.561 391.194 470.937 391.194H519.721C520.097 391.194 520.4 391.497 520.4 391.873V396.26C520.4 396.637 520.097 396.94 519.721 396.94Z" fill="#D8E8D2"/>
<path d="M360.028 367.981L361.833 371.64C361.927 371.831 362.111 371.964 362.321 371.995L366.359 372.581C366.892 372.657 367.105 373.312 366.718 373.689L363.798 376.536C363.645 376.685 363.575 376.901 363.61 377.11L364.3 381.132C364.39 381.661 363.833 382.069 363.355 381.818L359.745 379.919C359.557 379.818 359.331 379.818 359.139 379.919L355.529 381.818C355.052 382.069 354.494 381.665 354.585 381.132L355.275 377.11C355.31 376.898 355.24 376.685 355.087 376.536L352.167 373.689C351.78 373.312 351.992 372.657 352.525 372.581L356.564 371.995C356.777 371.964 356.958 371.831 357.052 371.64L358.857 367.981C359.101 367.497 359.791 367.497 360.028 367.981Z" fill="#6AA74D" fill-opacity="0.93"/>
<path d="M381.36 367.981L383.165 371.64C383.259 371.831 383.443 371.964 383.653 371.995L387.691 372.581C388.224 372.657 388.437 373.312 388.05 373.689L385.13 376.536C384.977 376.685 384.907 376.901 384.942 377.11L385.632 381.132C385.722 381.661 385.165 382.069 384.687 381.818L381.077 379.919C380.889 379.818 380.663 379.818 380.471 379.919L376.861 381.818C376.384 382.069 375.826 381.665 375.917 381.132L376.607 377.11C376.642 376.898 376.572 376.685 376.419 376.536L373.499 373.689C373.112 373.312 373.324 372.657 373.858 372.581L377.896 371.995C378.109 371.964 378.29 371.831 378.384 371.64L380.189 367.981C380.433 367.497 381.119 367.497 381.36 367.981Z" fill="#6AA74D" fill-opacity="0.93"/>
<path d="M402.696 367.981L404.501 371.64C404.595 371.831 404.779 371.964 404.989 371.995L409.027 372.581C409.56 372.657 409.773 373.312 409.386 373.689L406.466 376.536C406.313 376.685 406.243 376.901 406.278 377.11L406.968 381.132C407.058 381.661 406.501 382.069 406.023 381.818L402.413 379.919C402.225 379.818 401.999 379.818 401.807 379.919L398.197 381.818C397.72 382.069 397.162 381.665 397.253 381.132L397.943 377.11C397.978 376.898 397.908 376.685 397.755 376.536L394.835 373.689C394.448 373.312 394.66 372.657 395.193 372.581L399.232 371.995C399.445 371.964 399.626 371.831 399.72 371.64L401.525 367.981C401.769 367.497 402.459 367.497 402.696 367.981Z" fill="#6AA74D" fill-opacity="0.93"/>
<path d="M424.032 367.981L425.837 371.64C425.931 371.831 426.115 371.964 426.324 371.995L430.363 372.581C430.896 372.657 431.109 373.312 430.722 373.689L427.802 376.536C427.649 376.685 427.579 376.901 427.614 377.11L428.304 381.132C428.394 381.661 427.837 382.069 427.359 381.818L423.749 379.919C423.561 379.818 423.335 379.818 423.143 379.919L419.533 381.818C419.056 382.069 418.498 381.665 418.589 381.132L419.279 377.11C419.314 376.898 419.244 376.685 419.091 376.536L416.17 373.689C415.784 373.312 415.996 372.657 416.529 372.581L420.568 371.995C420.781 371.964 420.962 371.831 421.056 371.64L422.861 367.981C423.105 367.497 423.795 367.497 424.032 367.981Z" fill="#6AA74D" fill-opacity="0.93"/>
<path d="M445.368 367.981L447.173 371.64C447.267 371.831 447.451 371.964 447.66 371.995L451.699 372.581C452.232 372.657 452.445 373.312 452.058 373.689L449.138 376.536C448.984 376.685 448.915 376.901 448.95 377.11L449.64 381.132C449.73 381.661 449.173 382.069 448.695 381.818L445.085 379.919C444.897 379.818 444.671 379.818 444.479 379.919L440.869 381.818C440.392 382.069 439.834 381.665 439.925 381.132L440.615 377.11C440.649 376.898 440.58 376.685 440.426 376.536L437.506 373.689C437.12 373.312 437.332 372.657 437.865 372.581L441.904 371.995C442.116 371.964 442.298 371.831 442.392 371.64L444.197 367.981C444.441 367.497 445.127 367.497 445.368 367.981Z" fill="#D8E8D2"/>
<path d="M380.594 337.521H342.738C342.913 334.785 345.477 332.695 348.213 332.848C346.962 329.447 349.934 325.489 353.523 325.004C357.112 324.52 360.663 326.854 362.464 329.998C362.283 327.74 365.255 325.949 367.168 327.168C364.099 324.353 364.527 318.826 367.709 316.14C370.89 313.453 375.981 313.704 379.239 316.296L380.594 337.521Z" fill="#6AA74D" fill-opacity="0.93"/>
<path d="M532.505 322.405C534.843 319.496 539.143 318.353 542.62 319.719C543.227 319.956 543.822 320.276 544.223 320.789C544.645 321.329 544.805 322.026 544.906 322.705C545.167 324.454 545.122 326.249 544.774 327.984C545.903 326.245 548.54 325.918 550.304 327.012C552.063 328.106 552.955 330.273 552.945 332.347C554.332 330.186 557.538 329.639 559.785 330.883C562.033 332.127 563.263 334.796 563.2 337.364H528.992C529.152 332.423 529.407 326.259 532.505 322.405Z" fill="#6AA74D" fill-opacity="0.93"/>
<path d="M493.107 224.373L443.184 269.463H542.148L493.107 224.373Z" fill="white"/>
<path d="M493.104 224.373H420.58L370.504 269.463H443.181L493.104 224.373Z" fill="#6AA74D" fill-opacity="0.93"/>
<path d="M481.723 269.465H480.747H443.184V337.449H480.747H481.723H535.754V269.465H481.723Z" fill="white"/>
<path d="M443.183 269.465H373.848V337.449H443.183V269.465Z" fill="#D8E8D2"/>
<path d="M492.67 285.384C492.13 285.384 491.596 285.419 491.07 285.478C498.102 286.272 503.566 292.234 503.566 299.479V337.446H506.765V299.479C506.761 291.694 500.454 285.384 492.67 285.384Z" fill="#6AA74D" fill-opacity="0.93"/>
<path d="M491.07 285.474C484.038 286.268 478.574 292.23 478.574 299.475V337.442H503.565V299.475C503.565 292.23 498.098 286.268 491.07 285.474Z" fill="#D8E8D2"/>
<path d="M394.761 293.095C394.531 293.074 394.294 293.06 394.057 293.06C390.001 293.06 386.715 296.346 386.715 300.402V313.201H388.123V300.402C388.119 296.586 391.036 293.45 394.761 293.095Z" fill="#6AA74D" fill-opacity="0.93"/>
<path d="M394.759 293.093C391.034 293.449 388.121 296.585 388.121 300.4V313.199H401.401V300.4C401.397 296.585 398.484 293.449 394.759 293.093Z" fill="#D8E8D2"/>
<path d="M419.995 293.095C419.765 293.074 419.528 293.06 419.291 293.06C415.235 293.06 411.949 296.346 411.949 300.402V313.201H413.357V300.402C413.354 296.586 416.27 293.45 419.995 293.095Z" fill="#6AA74D" fill-opacity="0.93"/>
<path d="M419.993 293.093C416.269 293.449 413.355 296.585 413.355 300.4V313.199H426.635V300.4C426.632 296.585 423.718 293.449 419.993 293.093Z" fill="#D8E8D2"/>
<path d="M535.758 269.465L489.473 227.665L493.111 224.375L542.152 269.465H535.758Z" fill="#D8E8D2"/>
<path d="M500.318 313.273C500.318 314.259 499.52 315.057 498.534 315.057C497.548 315.057 496.75 314.259 496.75 313.273C496.75 312.287 497.548 311.489 498.534 311.489C499.52 311.489 500.318 312.287 500.318 313.273Z" fill="#6AA74D" fill-opacity="0.93"/>
<path d="M387.706 326.072H382.34V328.421H387.706V326.072Z" fill="white"/>
<path d="M394.436 326.072H389.07V328.421H394.436V326.072Z" fill="white"/>
<path d="M411.214 316.725H405.848V319.073H411.214V316.725Z" fill="white"/>
<path d="M434.503 283.134H429.137V285.482H434.503V283.134Z" fill="white"/>
<path d="M458.808 317.899H453.441V320.248H458.808V317.899Z" fill="#D8E8D2"/>
<path d="M465.245 317.899H459.879V320.248H465.245V317.899Z" fill="#D8E8D2"/>
<path d="M452.745 328.962H447.379V331.31H452.745V328.962Z" fill="#D8E8D2"/>
<path d="M471.464 289.197H466.098V291.546H471.464V289.197Z" fill="#D8E8D2"/>
<path d="M452.249 300.16H446.883V302.509H452.249V300.16Z" fill="#D8E8D2"/>
<path d="M445.882 300.16H443.199V302.509H445.882V300.16Z" fill="#D8E8D2"/>
<path d="M524.714 280.788H519.348V283.136H524.714V280.788Z" fill="#D8E8D2"/>
<path d="M531.147 280.788H525.781V283.136H531.147V280.788Z" fill="#D8E8D2"/>
<path d="M516.554 310.32H511.188V312.669H516.554V310.32Z" fill="#D8E8D2"/>
<path d="M523.085 303.457H517.719V305.806H523.085V303.457Z" fill="#D8E8D2"/>
<path d="M492.163 265.879H486.797V268.228H492.163V265.879Z" fill="#D8E8D2"/>
<path d="M465.245 265.879H459.879V268.228H465.245V265.879Z" fill="#D8E8D2"/>
<path d="M472.589 265.879H467.223V268.228H472.589V265.879Z" fill="#D8E8D2"/>
<path d="M513.87 257.575H508.504V259.923H513.87V257.575Z" fill="#D8E8D2"/>
<path d="M482.198 250.617H476.832V252.965H482.198V250.617Z" fill="#D8E8D2"/>
<path d="M529.62 310.174H524.254V312.523H529.62V310.174Z" fill="#D8E8D2"/>
<path d="M532.3 313.274H526.934V315.623H532.3V313.274Z" fill="#D8E8D2"/>
<path d="M515.202 325.788H509.836V328.137H515.202V325.788Z" fill="#D8E8D2"/>
<path d="M476.827 317.899H471.461V320.248H476.827V317.899Z" fill="#D8E8D2"/>
<path d="M437.183 326.072H431.816V328.421H437.183V326.072Z" fill="white"/>
<path d="M437.183 322.058H431.816V324.406H437.183V322.058Z" fill="white"/>
<path d="M430.437 326.072H425.07V328.421H430.437V326.072Z" fill="white"/>
<path d="M427.753 283.134H422.387V285.482H427.753V283.134Z" fill="white"/>
<path d="M402.112 276.896H396.746V279.245H402.112V276.896Z" fill="white"/>
<path d="M390.026 283.134H384.66V285.482H390.026V283.134Z" fill="white"/>
<path d="M421.343 283.134H415.977V285.482H421.343V283.134Z" fill="white"/>
<path d="M383.46 283.134H378.094V285.482H383.46V283.134Z" fill="white"/>
<path d="M577.837 337.959H335.397C333.449 337.959 331.863 336.373 331.863 334.425V187.165C331.863 185.217 333.449 183.632 335.397 183.632H577.837C579.785 183.632 581.371 185.217 581.371 187.165V334.429C581.371 336.373 579.785 337.959 577.837 337.959ZM335.397 184.649C334.01 184.649 332.881 185.778 332.881 187.165V334.429C332.881 335.816 334.01 336.945 335.397 336.945H577.837C579.224 336.945 580.353 335.816 580.353 334.429V187.165C580.353 185.778 579.224 184.649 577.837 184.649H335.397Z" fill="white"/>
<path d="M352.012 293.292H251.089C249.288 293.292 247.824 291.832 247.824 290.027V231.557C247.824 229.755 249.284 228.292 251.089 228.292H352.012C353.814 228.292 355.277 229.752 355.277 231.557V290.031C355.277 291.832 353.817 293.292 352.012 293.292Z" fill="white"/>
<path d="M289.852 261.544H252.881C252.554 261.544 252.289 261.279 252.289 260.952V234.811C252.289 234.483 252.554 234.218 252.881 234.218H289.852C290.18 234.218 290.445 234.483 290.445 234.811V260.952C290.445 261.279 290.18 261.544 289.852 261.544Z" fill="#D8E8D2"/>
<mask id="mask0_2580_5621" style="mask-type:luminance" maskUnits="userSpaceOnUse" x="252" y="234" width="39" height="28">
<path d="M289.856 261.545H252.885C252.558 261.545 252.293 261.28 252.293 260.953V234.812C252.293 234.484 252.558 234.219 252.885 234.219H289.856C290.184 234.219 290.449 234.484 290.449 234.812V260.953C290.449 261.28 290.184 261.545 289.856 261.545Z" fill="white"/>
</mask>
<g mask="url(#mask0_2580_5621)">
<path d="M249.886 259.547L264.075 245.909C264.734 245.275 265.783 245.292 266.424 245.947L277.899 257.708L283.871 252.62C284.516 252.073 285.467 252.094 286.087 252.669L292.628 258.76V263.628H249.883V259.547H249.886Z" fill="#D8E8D2"/>
</g>
<mask id="mask1_2580_5621" style="mask-type:luminance" maskUnits="userSpaceOnUse" x="252" y="228" width="47" height="47">
<path d="M297.84 247.809L271.698 273.952C271.466 274.183 271.092 274.183 270.86 273.952L252.376 255.467C252.144 255.236 252.144 254.861 252.376 254.629L278.518 228.487C278.75 228.256 279.124 228.256 279.356 228.487L297.84 246.972C298.072 247.203 298.072 247.578 297.84 247.809Z" fill="white"/>
</mask>
<g mask="url(#mask1_2580_5621)">
<path d="M279.284 247.042C280.4 245.927 280.4 244.117 279.284 243.002C278.168 241.886 276.359 241.886 275.243 243.002C274.127 244.117 274.127 245.927 275.243 247.042C276.359 248.158 278.168 248.158 279.284 247.042Z" fill="#D8E8D2"/>
</g>
<path d="M350.075 238.233H295.87C295.65 238.233 295.473 238.055 295.473 237.835V234.612C295.473 234.393 295.65 234.215 295.87 234.215H350.079C350.298 234.215 350.476 234.393 350.476 234.612V237.835C350.473 238.055 350.295 238.233 350.075 238.233Z" fill="#D8E8D2"/>
<path d="M350.075 246.004H295.87C295.65 246.004 295.473 245.826 295.473 245.606V242.383C295.473 242.164 295.65 241.986 295.87 241.986H350.079C350.298 241.986 350.476 242.164 350.476 242.383V245.606C350.473 245.826 350.295 246.004 350.075 246.004Z" fill="#D8E8D2"/>
<path d="M350.075 253.772H295.87C295.65 253.772 295.473 253.594 295.473 253.374V250.151C295.473 249.932 295.65 249.754 295.87 249.754H350.079C350.298 249.754 350.476 249.932 350.476 250.151V253.374C350.473 253.594 350.295 253.772 350.075 253.772Z" fill="#D8E8D2"/>
<path d="M350.075 261.543H295.87C295.65 261.543 295.473 261.365 295.473 261.145V257.922C295.473 257.703 295.65 257.525 295.87 257.525H350.079C350.298 257.525 350.476 257.703 350.476 257.922V261.145C350.473 261.365 350.295 261.543 350.075 261.543Z" fill="#D8E8D2"/>
<path d="M349.964 268.21H252.801C252.519 268.21 252.289 267.98 252.289 267.698V264.998C252.289 264.715 252.519 264.485 252.801 264.485H349.964C350.247 264.485 350.477 264.715 350.477 264.998V267.698C350.473 267.984 350.247 268.21 349.964 268.21Z" fill="#D8E8D2"/>
<path d="M349.964 274.912H252.801C252.519 274.912 252.289 274.682 252.289 274.4V271.699C252.289 271.417 252.519 271.187 252.801 271.187H349.964C350.247 271.187 350.477 271.417 350.477 271.699V274.4C350.473 274.682 350.247 274.912 349.964 274.912Z" fill="#D8E8D2"/>
<path d="M349.964 281.617H252.801C252.519 281.617 252.289 281.387 252.289 281.104V278.404C252.289 278.122 252.519 277.892 252.801 277.892H349.964C350.247 277.892 350.477 278.122 350.477 278.404V281.104C350.473 281.387 350.247 281.617 349.964 281.617Z" fill="#D8E8D2"/>
<path d="M315.004 288.318H252.7C252.474 288.318 252.289 288.134 252.289 287.907V285.004C252.289 284.778 252.474 284.593 252.7 284.593H315.004C315.23 284.593 315.415 284.778 315.415 285.004V287.907C315.412 288.134 315.23 288.318 315.004 288.318Z" fill="#D8E8D2"/>
<path d="M9.0632 380.626C7.33487 379.09 15.5793 366.608 15.8511 365.437C16.1264 364.267 1.28221 378.686 0.69332 376.449C0.104432 374.211 12.1366 362.827 12.4746 361.855C12.8126 360.88 0.546975 368.371 0.0138402 366.984C-0.519295 365.598 14.5235 353.158 15.1855 351.893C15.8476 350.632 4.4183 353.074 4.0803 351.921C3.05236 348.384 24.329 343.119 24.329 343.119L23.8342 343.809C26.6044 339.85 32.096 333.728 32.096 333.728C32.096 333.728 44.4836 343.147 45.1944 343.976C45.7171 344.586 38.9362 349.698 34.7304 352.527C33.7721 357.872 27.0957 362.65 26.3814 363.66C25.667 364.671 23.1965 380.895 21.7469 380.762C19.8409 380.592 22.1616 366.671 20.503 367.605C19.2415 368.316 10.0215 381.477 9.0632 380.626Z" fill="#FFD194"/>
<path d="M15.1872 351.895C15.1872 351.895 18.8529 355.387 20.9471 355.634C23.0413 355.881 29.6654 352.94 29.6654 352.94C29.6654 352.94 23.4177 357.387 21.1457 356.808C18.8738 356.23 14.668 352.505 14.668 352.505L15.1872 351.895Z" fill="#D1913C"/>
<path d="M297.328 415.149C297.328 408.341 230.313 312.192 230.313 312.192C229.466 310.404 228.515 308.989 227.445 308.017L164.368 311.373C164.368 311.373 151.284 340.563 162.02 365.728C172.755 390.893 173.428 415.149 173.428 415.149H235.108C235.108 415.149 235.292 412.571 235.536 408.215C239.578 412.424 242.279 415.149 242.279 415.149H297.328Z" fill="#647970"/>
<mask id="mask2_2580_5621" style="mask-type:luminance" maskUnits="userSpaceOnUse" x="157" y="308" width="141" height="108">
<path d="M297.328 415.149C297.328 408.341 230.313 312.192 230.313 312.192C229.466 310.404 228.515 308.989 227.445 308.017L164.368 311.373C164.368 311.373 151.284 340.563 162.02 365.728C172.755 390.893 173.428 415.149 173.428 415.149H235.108C235.108 415.149 235.292 412.571 235.536 408.215C239.578 412.424 242.279 415.149 242.279 415.149H297.328Z" fill="white"/>
</mask>
<g mask="url(#mask2_2580_5621)">
<path d="M178.031 330.12C178.031 330.12 177.997 353.599 167.188 361.582L168.884 364.046C168.884 364.046 183.067 356.383 181.523 329.953L178.031 330.12Z" fill="#4F5754"/>
</g>
<mask id="mask3_2580_5621" style="mask-type:luminance" maskUnits="userSpaceOnUse" x="157" y="308" width="141" height="108">
<path d="M297.328 415.149C297.328 408.341 230.313 312.192 230.313 312.192C229.466 310.404 228.515 308.989 227.445 308.017L164.368 311.373C164.368 311.373 151.284 340.563 162.02 365.728C172.755 390.893 173.428 415.149 173.428 415.149H235.108C235.108 415.149 235.292 412.571 235.536 408.215C239.578 412.424 242.279 415.149 242.279 415.149H297.328Z" fill="white"/>
</mask>
<g mask="url(#mask3_2580_5621)">
<path d="M210.292 415.495C210.288 415.495 210.288 415.495 210.285 415.495C210.093 415.492 209.94 415.335 209.943 415.14C210.57 377.04 194.761 322.702 194.601 322.155C194.545 321.97 194.653 321.778 194.838 321.723C195.022 321.667 195.217 321.775 195.27 321.96C195.43 322.503 211.271 376.942 210.64 415.15C210.637 415.345 210.48 415.495 210.292 415.495Z" fill="#4F5754"/>
</g>
<mask id="mask4_2580_5621" style="mask-type:luminance" maskUnits="userSpaceOnUse" x="157" y="308" width="141" height="108">
<path d="M297.328 415.149C297.328 408.341 230.313 312.192 230.313 312.192C229.466 310.404 228.515 308.989 227.445 308.017L164.368 311.373C164.368 311.373 151.284 340.563 162.02 365.728C172.755 390.893 173.428 415.149 173.428 415.149H235.108C235.108 415.149 235.292 412.571 235.536 408.215C239.578 412.424 242.279 415.149 242.279 415.149H297.328Z" fill="white"/>
</mask>
<g mask="url(#mask4_2580_5621)">
<path d="M278.696 419.731C278.567 419.731 278.442 419.658 278.383 419.536C265.18 392.5 222.787 318.666 222.358 317.923C222.264 317.756 222.32 317.544 222.487 317.446C222.654 317.352 222.867 317.408 222.964 317.575C223.389 318.317 265.796 392.172 279.01 419.229C279.093 419.404 279.024 419.609 278.849 419.696C278.801 419.721 278.748 419.731 278.696 419.731Z" fill="#4F5754"/>
</g>
<path d="M235.532 408.216C235.532 408.216 227.556 364.986 224.824 343.257L252.296 415.15H242.275L235.532 408.216Z" fill="#4F5754"/>
<path d="M385.775 125.666C384.517 123.725 370.927 129.969 369.729 130.063C368.53 130.154 385.04 117.679 382.921 116.759C380.799 115.836 367.718 125.997 366.704 126.181C365.69 126.366 374.962 115.383 373.669 114.648C372.38 113.909 357.794 126.885 356.445 127.345C355.097 127.805 359.254 116.881 358.163 116.376C354.825 114.822 346.382 135.05 346.382 135.05L347.138 134.666C342.803 136.802 335.918 141.297 335.918 141.297C335.918 141.297 343.344 154.974 344.051 155.803C344.574 156.413 350.658 150.49 354.093 146.761C359.522 146.629 365.261 140.757 366.366 140.203C367.471 139.649 383.883 139.681 383.973 138.224C384.095 136.314 369.983 136.489 371.157 134.994C372.056 133.847 386.468 126.739 385.775 125.666Z" fill="#FFD194"/>
<path d="M356.444 127.339C356.444 127.339 359.336 131.493 359.263 133.601C359.187 135.709 355.273 141.807 355.273 141.807C355.273 141.807 360.619 136.312 360.392 133.977C360.166 131.642 357.124 126.921 357.124 126.921L356.444 127.339Z" fill="#D1913C"/>
<path d="M161.428 164.789C161.428 164.789 124.157 197.47 126.398 218.51C128.635 239.549 159.815 306.275 163.167 316.286C165.711 323.879 221.613 326.402 229.07 312.523C236.527 298.644 229.812 205.526 219.965 190.306C210.114 175.085 189.956 170.162 189.956 170.162L161.428 164.789Z" fill="#647970"/>
<path d="M176.684 164.786C177.767 165.591 256.65 171.884 262.849 170.034C269.048 168.184 333.697 125.23 337.241 127.888C340.785 130.544 354.953 155.451 354.068 159.601C353.183 163.755 285.875 209.364 275.69 209.807C265.505 210.249 213.916 213.35 209.71 211.577C205.504 209.807 176.684 164.786 176.684 164.786Z" fill="#647970"/>
<mask id="mask5_2580_5621" style="mask-type:luminance" maskUnits="userSpaceOnUse" x="176" y="127" width="179" height="86">
<path d="M176.68 164.785C177.763 165.59 256.646 171.883 262.845 170.033C269.044 168.182 333.693 125.228 337.237 127.887C340.781 130.542 354.949 155.45 354.064 159.6C353.179 163.753 285.871 209.363 275.686 209.805C265.501 210.248 213.912 213.349 209.706 211.575C205.5 209.805 176.68 164.785 176.68 164.785Z" fill="white"/>
</mask>
<g mask="url(#mask5_2580_5621)">
<path d="M268.935 173.545C263.269 173.545 213.555 171.504 213.054 171.486C212.862 171.479 212.712 171.315 212.719 171.124C212.726 170.932 212.89 170.786 213.081 170.789C213.583 170.81 263.283 172.849 268.932 172.849C273.381 172.849 318.83 145.031 342.243 130.323C342.407 130.222 342.623 130.271 342.724 130.431C342.825 130.595 342.776 130.808 342.616 130.912C339.846 132.654 274.695 173.545 268.935 173.545Z" fill="#4F5754"/>
</g>
<path d="M156.328 101.836C158.914 96.9715 170.65 89.6923 181.337 89.3648C187.361 89.1801 192.877 92.7378 195.386 98.219C201.066 110.62 213.412 140.121 204.767 144.957C200.916 147.111 195.85 147.194 190.745 146.184C191.536 154.317 191.731 173.182 191.581 175.747C191.369 179.346 166.259 172.827 161.6 169.436C156.941 166.046 169.447 135.479 169.447 135.479C166.057 130.601 152.736 108.603 156.328 101.836Z" fill="#FFD194"/>
<mask id="mask6_2580_5621" style="mask-type:luminance" maskUnits="userSpaceOnUse" x="155" y="89" width="53" height="88">
<path d="M156.32 101.84C158.906 96.9755 170.642 89.6962 181.329 89.3687C187.354 89.184 192.87 92.7417 195.379 98.2229C201.058 110.624 213.404 140.125 204.759 144.961C200.909 147.115 195.842 147.198 190.737 146.188C191.528 154.321 191.723 173.186 191.573 175.751C191.361 179.35 166.251 172.83 161.592 169.44C156.934 166.05 169.44 135.483 169.44 135.483C166.049 130.605 152.728 108.607 156.32 101.84Z" fill="white"/>
</mask>
<g mask="url(#mask6_2580_5621)">
<path d="M198.8 100.12C198.8 100.12 191.447 103.835 185.597 101.939C185.597 101.939 177.387 108.076 166.857 104.957C166.857 104.957 171.244 115.285 169.683 117.707C169.683 117.707 161.4 102.1 162.508 100.755C163.616 99.4096 191.859 91.8203 193.472 92.214C195.082 92.6078 198.8 100.12 198.8 100.12Z" fill="#D1913C"/>
</g>
<path d="M200.534 127.774C200.534 127.774 194.042 131.381 186.352 127.774C186.352 127.774 190.725 133.768 195.404 133.465C201.576 133.06 200.534 127.774 200.534 127.774Z" fill="white"/>
<path d="M186.926 105.115C186.926 105.115 201.763 117.332 199.718 119.538C197.672 121.74 189.006 120.05 189.006 120.05C189.354 121.099 190.288 121.845 191.389 121.953C194.578 122.263 200.704 122.618 201.345 119.98C202.47 115.335 186.926 105.115 186.926 105.115Z" fill="#D1913C"/>
<path d="M190.743 146.18C190.743 146.18 184.68 144.364 180.742 141.28C180.742 141.28 182.359 153.682 191.335 156.508L190.743 146.18Z" fill="#D1913C"/>
<path d="M193.559 80.2435C195.065 79.9926 196.396 79.6058 197.305 79.0378C201.863 76.1909 184.548 70.8352 167.575 78.0133C157.271 82.369 145.082 95.3559 149.821 99.8336C146.03 103.322 142.521 114.692 148.766 121.528C155.749 129.17 168.07 135.63 169.446 135.48C170.823 135.331 169.729 124.306 169.729 124.306C159.693 124.999 161.47 114.462 162.976 114.117C164.481 113.768 169.112 119.096 169.69 117.706C170.133 116.64 166.498 107.35 164.774 103.064C167.624 104.14 173.241 105.283 180.743 102.046C184.691 100.342 185.339 99.2342 184.538 98.5094C187.336 98.276 190.953 97.4153 195.479 95.328C202.212 92.2233 199.149 90.8086 194.58 90.1639C197.507 89.7458 200.992 88.8224 204.933 87.0139C213.324 83.1635 202.895 81.0832 193.559 80.2435Z" fill="#647970"/>
<path d="M132.24 198.961C132.24 198.961 88.4119 259.91 84.3036 263.335C80.1953 266.76 20.6166 322.914 22.669 327.708C24.7249 332.503 45.2419 354.633 55.0683 352.449C64.8912 350.264 112.863 300.055 115.347 297.327C117.832 294.598 157.723 241.532 159.667 234.434C161.612 227.336 143.374 202.115 132.24 198.961Z" fill="#647970"/>
<mask id="mask7_2580_5621" style="mask-type:luminance" maskUnits="userSpaceOnUse" x="22" y="198" width="138" height="155">
<path d="M132.24 198.965C132.24 198.965 88.4119 259.913 84.3036 263.338C80.1953 266.764 20.6166 322.917 22.669 327.712C24.7249 332.506 45.2419 354.637 55.0683 352.452C64.8912 350.267 112.863 300.058 115.347 297.33C117.832 294.602 157.723 241.536 159.667 234.437C161.612 227.339 143.374 202.118 132.24 198.965Z" fill="white"/>
</mask>
<g mask="url(#mask7_2580_5621)">
<path d="M25.6449 337.803C25.5543 337.803 25.4637 337.768 25.394 337.699C25.2616 337.559 25.2651 337.34 25.401 337.207C26.0213 336.608 87.3109 277.176 90.9104 271.025C94.5378 264.83 134.857 200.875 135.265 200.23C135.366 200.066 135.582 200.017 135.746 200.122C135.91 200.223 135.959 200.439 135.854 200.603C135.446 201.247 95.1337 265.192 91.5133 271.377C87.8649 277.611 28.4151 335.256 25.8854 337.709C25.8192 337.772 25.732 337.803 25.6449 337.803Z" fill="#4F5754"/>
</g>
<path d="M140.91 263.082L159.664 234.432C159.664 234.432 157.866 274.567 146.75 277.282L140.91 263.082Z" fill="#4F5754"/>
<path d="M226.261 212.008C226.261 212.008 223.808 194.833 219.961 190.306C219.961 190.306 262.201 209.401 275.693 209.809C275.693 209.806 235.22 213.329 226.261 212.008Z" fill="#4F5754"/>
<path d="M191.588 175.741C191.588 175.741 193.811 195.763 186.936 193.829C180.061 191.895 155.16 180.323 159.808 166.249L191.588 175.741Z" fill="white"/>
<path d="M191.587 175.741C191.587 175.741 201.368 184.745 204.254 183.362C207.139 181.978 199.184 167.002 199.184 167.002L191.34 166.249L191.587 175.741Z" fill="white"/>
<path d="M191.59 175.739C191.59 175.739 189.224 179.962 190.855 182.412C192.485 184.861 195.865 186.14 196.918 185.443C197.967 184.743 200.531 181.99 199.249 180.101C197.967 178.216 191.59 175.739 191.59 175.739Z" fill="#D1913C"/>
<path d="M195.406 184.043C195.406 184.043 192.786 253.378 199.936 264.306C207.086 275.233 215.965 279.335 215.965 279.335C215.965 279.335 223.14 265.33 221.429 258.501C219.721 251.671 198.096 183.51 198.096 183.51L195.406 184.043Z" fill="#D1913C"/>
<path d="M163.164 316.288C163.164 316.288 172.669 331.16 215.453 322.466C215.453 322.466 229.467 320.044 230.314 312.197L230.858 306.343C230.858 306.343 204.145 323.999 161.223 311.301L163.164 316.288Z" fill="white"/>
<path d="M218.158 311.999C218.158 311.999 220.353 321.191 219.06 321.564C217.771 321.933 211.342 323.985 210.411 323.41C209.481 322.835 208.021 314.664 208.453 314.03C208.885 313.392 216.105 312.159 218.158 311.999Z" fill="#D1913C"/>
<path d="M352.184 64.3218C352.184 64.3218 360.864 155.286 362.749 155.85H371.903C372.373 155.85 372.739 155.45 372.697 154.983C371.843 145.554 364.251 62.4402 362.48 62.1963C360.602 61.9349 352.184 64.3218 352.184 64.3218Z" fill="#647970"/>
<mask id="mask8_2580_5621" style="mask-type:luminance" maskUnits="userSpaceOnUse" x="352" y="62" width="21" height="94">
<path d="M352.184 64.3209C352.184 64.3209 360.864 155.285 362.749 155.849H371.903C372.373 155.849 372.739 155.449 372.697 154.982C371.843 145.553 364.251 62.4392 362.48 62.1953C360.602 61.9339 352.184 64.3209 352.184 64.3209Z" fill="white"/>
</mask>
<g mask="url(#mask8_2580_5621)">
<path d="M357.841 62.1715C357.74 62.4259 357.841 131.573 368.201 158.725C370.034 163.53 360.406 158.331 360.406 158.331C360.406 158.331 348.053 64.2936 352.186 62.175C356.315 60.0529 357.841 62.1715 357.841 62.1715Z" fill="#4F5754"/>
</g>
<path d="M254.877 21.1039C254.877 21.1039 437.966 -1.52472 444.095 0.0816504C450.224 1.68802 460.539 69.1035 454.12 76.1039C450.378 80.1878 266.331 99.9312 262.951 98.4259C259.568 96.9241 246.351 28.3448 254.877 21.1039Z" fill="#FFD194"/>
<path d="M159.662 234.779C159.505 234.779 159.366 234.675 159.324 234.518C155.519 219.643 148.327 210.858 142.964 206.109C137.152 200.962 132.176 199.31 132.127 199.293C131.942 199.234 131.845 199.038 131.904 198.854C131.963 198.673 132.158 198.571 132.343 198.631C132.549 198.697 137.483 200.331 143.4 205.561C148.846 210.377 156.146 219.28 160.003 234.347C160.052 234.535 159.937 234.724 159.752 234.772C159.718 234.776 159.69 234.779 159.662 234.779Z" fill="#4F5754"/>
<path d="M221.768 193.848C221.611 193.848 221.468 193.743 221.43 193.583C217.241 176.847 209.966 168.156 209.892 168.069C209.767 167.923 209.784 167.703 209.931 167.578C210.077 167.453 210.297 167.47 210.422 167.616C210.495 167.703 217.876 176.505 222.106 193.412C222.151 193.601 222.04 193.789 221.851 193.834C221.823 193.844 221.796 193.848 221.768 193.848Z" fill="#4F5754"/>
<path d="M56.3398 347.252C57.5522 347.252 58.535 346.27 58.535 345.057C58.535 343.845 57.5522 342.862 56.3398 342.862C55.1274 342.862 54.1445 343.845 54.1445 345.057C54.1445 346.27 55.1274 347.252 56.3398 347.252Z" fill="#4F5754"/>
<path d="M64.8749 340.355C64.8749 341.568 63.8923 342.55 62.6796 342.55C61.467 342.55 60.4844 341.568 60.4844 340.355C60.4844 339.142 61.467 338.16 62.6796 338.16C63.8923 338.163 64.8749 339.146 64.8749 340.355Z" fill="#4F5754"/>
<path d="M69.1015 337.874C70.3139 337.874 71.2968 336.891 71.2968 335.679C71.2968 334.466 70.3139 333.483 69.1015 333.483C67.8891 333.483 66.9062 334.466 66.9062 335.679C66.9062 336.891 67.8891 337.874 69.1015 337.874Z" fill="#4F5754"/>
<path d="M335.109 168.076C335.109 169.289 334.127 170.271 332.914 170.271C331.701 170.271 330.719 169.289 330.719 168.076C330.719 166.863 331.701 165.881 332.914 165.881C334.127 165.881 335.109 166.863 335.109 168.076Z" fill="#4F5754"/>
<path d="M341.449 163.374C341.449 164.587 340.466 165.569 339.254 165.569C338.041 165.569 337.059 164.587 337.059 163.374C337.059 162.161 338.041 161.179 339.254 161.179C340.466 161.179 341.449 162.165 341.449 163.374Z" fill="#4F5754"/>
<path d="M347.871 158.698C347.871 159.91 346.888 160.893 345.676 160.893C344.463 160.893 343.48 159.91 343.48 158.698C343.48 157.485 344.463 156.502 345.676 156.502C346.888 156.502 347.871 157.485 347.871 158.698Z" fill="#4F5754"/>
<path opacity="0.36" d="M558.884 178.205C581.62 155.469 581.62 118.606 558.884 95.8704C536.148 73.1344 499.286 73.1344 476.55 95.8704C453.814 118.606 453.814 155.469 476.55 178.205C499.286 200.941 536.148 200.941 558.884 178.205Z" fill="#6AA74D" fill-opacity="0.93"/>
<path d="M514.368 190.299C546.522 190.299 572.588 164.233 572.588 132.08C572.588 99.9257 546.522 73.8599 514.368 73.8599C482.214 73.8599 456.148 99.9257 456.148 132.08C456.148 164.233 482.214 190.299 514.368 190.299Z" fill="#D8E8D2"/>
<path d="M514.228 120.939C514.228 120.939 551.105 154.537 545.721 160.645C540.337 166.754 532.128 170.27 530.229 168.06C528.33 165.851 501.164 125.678 501.164 125.678L514.228 120.939Z" fill="#647970"/>
<mask id="mask9_2580_5621" style="mask-type:luminance" maskUnits="userSpaceOnUse" x="501" y="120" width="46" height="49">
<path d="M514.232 120.934C514.232 120.934 551.108 154.532 545.725 160.64C540.341 166.748 532.132 170.264 530.233 168.055C528.333 165.846 501.168 125.673 501.168 125.673L514.232 120.934Z" fill="white"/>
</mask>
<g mask="url(#mask9_2580_5621)">
<path d="M527.13 130.468C527.13 130.468 504.121 138.461 502.78 136.698C501.438 134.935 497.379 127.938 497.379 127.938C497.379 127.938 520.746 114.843 522.199 116.944C523.656 119.045 527.13 130.468 527.13 130.468Z" fill="#4F5754"/>
</g>
<path d="M477.701 129.47C476.289 127.117 476.607 124.114 478.478 122.107C493.346 106.172 555.845 39.523 560.664 40.0248C566.138 40.5928 601.987 96.0911 599.722 105.151C597.712 113.193 504.835 128.936 483.98 132.376C481.488 132.787 479 131.633 477.701 129.47Z" fill="#FFD194"/>
<mask id="mask10_2580_5621" style="mask-type:luminance" maskUnits="userSpaceOnUse" x="476" y="40" width="124" height="93">
<path d="M477.697 129.47C476.286 127.118 476.603 124.114 478.474 122.107C493.342 106.172 555.841 39.5235 560.66 40.0253C566.134 40.5933 601.984 96.0916 599.719 105.151C597.708 113.194 504.831 128.937 483.976 132.376C481.484 132.787 478.997 131.634 477.697 129.47Z" fill="white"/>
</mask>
<g mask="url(#mask10_2580_5621)">
<path d="M491.778 101.147C491.778 101.147 490.862 119.755 509.978 135.77C509.978 135.77 474.93 140.774 472.812 137.237C470.69 133.7 467.118 130.825 468.205 127.794C469.296 124.762 491.778 101.147 491.778 101.147Z" fill="#647970"/>
</g>
<mask id="mask11_2580_5621" style="mask-type:luminance" maskUnits="userSpaceOnUse" x="476" y="40" width="124" height="93">
<path d="M477.697 129.47C476.286 127.118 476.603 124.114 478.474 122.107C493.342 106.172 555.841 39.5235 560.66 40.0253C566.134 40.5933 601.984 96.0916 599.719 105.151C597.708 113.194 504.831 128.937 483.976 132.376C481.484 132.787 478.997 131.634 477.697 129.47Z" fill="white"/>
</mask>
<g mask="url(#mask11_2580_5621)">
<path opacity="0.24" d="M595.705 85.9927C595.705 85.9927 570.408 86.6965 551.211 104.342C532.015 121.988 487.145 126.041 487.145 126.041L492.18 134.487C492.18 134.487 583.297 123.748 595.517 117.486C607.734 111.221 602.281 92.4565 595.705 85.9927Z" fill="#4F5754"/>
</g>
<path d="M599.689 105.954C603.577 103.622 597.882 86.9787 586.968 68.7796C576.054 50.5804 564.054 37.7174 560.166 40.0493C556.277 42.3811 561.973 59.0248 572.886 77.224C583.8 95.4231 595.8 108.286 599.689 105.954Z" fill="#647970"/>
<mask id="mask12_2580_5621" style="mask-type:luminance" maskUnits="userSpaceOnUse" x="558" y="39" width="43" height="68">
<path d="M599.689 105.961C603.577 103.629 597.882 86.9851 586.968 68.7859C576.054 50.5868 564.054 37.7238 560.166 40.0556C556.277 42.3875 561.973 59.0312 572.886 77.2303C583.8 95.4295 595.8 108.292 599.689 105.961Z" fill="white"/>
</mask>
<g mask="url(#mask12_2580_5621)">
<path d="M567.957 74.219C567.957 74.219 578.728 62.1834 583.376 69.7901C588.025 77.3969 588.575 80.3309 572.686 85.7284L567.957 74.219Z" fill="white"/>
</g>
<mask id="mask13_2580_5621" style="mask-type:luminance" maskUnits="userSpaceOnUse" x="558" y="39" width="43" height="68">
<path d="M599.689 105.961C603.577 103.629 597.882 86.9851 586.968 68.7859C576.054 50.5868 564.054 37.7238 560.166 40.0556C556.277 42.3875 561.973 59.0312 572.886 77.2303C583.8 95.4295 595.8 108.292 599.689 105.961Z" fill="white"/>
</mask>
<g mask="url(#mask13_2580_5621)">
<path d="M564.933 40.359C564.933 40.359 561.281 43.171 564.908 52.7988C568.045 61.1269 589.37 102.478 602.785 104.095C602.785 104.095 601.625 109.991 597.858 110.37C594.091 110.75 578.55 97.7564 573.749 88.1844C568.947 78.6123 553.476 52.4225 552.751 47.6905C552.026 42.9585 561.358 36.4598 564.933 40.359Z" fill="#4F5754"/>
</g>
<path d="M303.417 42.421C303.542 43.853 303.435 45.3123 303.098 46.799C302.776 48.2844 302.257 49.6921 301.542 51.0222C300.841 52.351 299.962 53.5568 298.905 54.6397C297.848 55.7226 296.661 56.5762 295.345 57.2007C295.537 58.3937 295.742 59.5782 295.96 60.7542C296.179 61.9302 296.442 63.1097 296.749 64.2927C296.811 64.5059 296.874 64.7263 296.937 64.9539C297.015 65.1803 297.065 65.4165 297.086 65.6624C297.119 66.0385 297.047 66.2998 296.87 66.4463C296.694 66.5928 296.432 66.6811 296.085 66.7113C295.839 66.7327 295.54 66.7295 295.187 66.7018C294.835 66.6742 294.531 66.6131 294.275 66.5188C293.972 66.3848 293.763 66.2427 293.648 66.0924C293.546 65.9263 293.461 65.7006 293.392 65.4151C293.04 64.2069 292.781 62.9907 292.616 61.7662C292.466 60.5405 292.294 59.3167 292.1 58.0948C291.809 58.091 291.564 58.0394 291.366 57.94C291.166 57.8262 291.053 57.6174 291.027 57.3136C291.002 57.0244 291.055 56.7137 291.186 56.3816C291.332 56.0483 291.506 55.7855 291.708 55.593C291.344 52.914 291.054 50.2503 290.839 47.6021C290.638 44.9526 290.406 42.2839 290.143 39.596C290.073 39.6312 290.01 39.6586 289.953 39.6781C289.897 39.6976 289.832 39.7105 289.76 39.7168C289.601 39.7306 289.467 39.7057 289.36 39.6422C289.251 39.5642 289.156 39.4705 289.073 39.3611C289.005 39.2504 288.951 39.1312 288.911 39.0036C288.869 38.8614 288.844 38.7325 288.834 38.6168C288.796 38.1829 288.877 37.8625 289.078 37.6556C289.277 37.4342 289.558 37.2276 289.92 37.0358C289.907 36.8767 289.891 36.6959 289.873 36.4934C289.869 36.2752 289.881 36.0774 289.909 35.9001C289.951 35.707 290.024 35.5476 290.13 35.4218C290.234 35.2816 290.402 35.2014 290.634 35.1813C291.01 35.1486 291.378 35.1895 291.737 35.304C292.097 35.4184 292.379 35.6417 292.583 35.9738C293.081 35.843 293.566 35.7207 294.037 35.6069C294.508 35.4931 294.997 35.4142 295.503 35.3702C296.646 35.2709 297.683 35.3775 298.613 35.6901C299.543 35.9883 300.349 36.4575 301.031 37.0977C301.712 37.7235 302.252 38.4926 302.652 39.4052C303.067 40.3164 303.322 41.3217 303.417 42.421ZM300.129 42.3133C300.071 41.6479 299.93 41.0335 299.706 40.47C299.481 39.8921 299.177 39.4084 298.793 39.0191C298.408 38.6154 297.938 38.3138 297.381 38.1144C296.825 37.915 296.185 37.8468 295.461 37.9096C295.071 37.9436 294.676 38.0071 294.276 38.1001C293.89 38.1919 293.514 38.312 293.148 38.4604C293.378 41.1074 293.621 43.7314 293.876 46.3325C294.146 48.9323 294.474 51.5344 294.861 54.1386C295.745 53.5808 296.533 52.8419 297.226 51.9219C297.918 51.0019 298.495 50.0045 298.955 48.9297C299.414 47.8405 299.747 46.7259 299.954 45.5857C300.16 44.4311 300.218 43.3403 300.129 42.3133Z" fill="#647970"/>
<path d="M312.896 56.1563C313.005 57.4147 313.006 58.6826 312.899 59.9598C312.804 61.2213 312.48 62.4373 311.926 63.6076C311.752 63.9579 311.549 64.3034 311.317 64.6443C311.083 64.9707 310.817 65.2706 310.52 65.5442C310.239 65.8309 309.917 66.063 309.553 66.2403C309.206 66.4309 308.829 66.5437 308.424 66.5789C307.788 66.6342 307.218 66.5307 306.714 66.2685C306.226 66.0194 305.788 65.6713 305.399 65.2241C305.024 64.7613 304.694 64.2361 304.41 63.6487C304.139 63.0456 303.91 62.4315 303.725 61.8064C303.552 61.1655 303.411 60.5439 303.3 59.9414C303.204 59.3377 303.136 58.8044 303.096 58.3415C303.05 57.8208 303.023 57.2476 303.012 56.6218C303.001 55.9961 303.018 55.3534 303.063 54.6937C303.122 54.0327 303.211 53.3765 303.329 52.725C303.462 52.0722 303.649 51.4584 303.89 50.8836C304.131 50.2944 304.434 49.7652 304.802 49.296C305.168 48.8124 305.607 48.4172 306.12 48.1103L306.122 48.132C306.563 47.8459 307.015 47.6827 307.478 47.6425C307.767 47.6174 307.997 47.663 308.168 47.7793C308.337 47.8812 308.427 48.0774 308.437 48.368C309.245 48.4435 309.922 48.7709 310.468 49.3501C311.014 49.9293 311.453 50.6199 311.785 51.4217C312.132 52.2223 312.386 53.0527 312.548 53.9131C312.725 54.7721 312.841 55.5199 312.896 56.1563ZM307.521 51.1583C307.275 51.1797 307.036 51.1058 306.802 50.9366C306.564 51.3799 306.375 51.8846 306.234 52.4506C306.093 53.0021 305.989 53.5722 305.924 54.1608C305.872 54.7337 305.849 55.3114 305.856 55.8937C305.863 56.4761 305.888 57.0204 305.932 57.5266C305.969 57.9461 306.038 58.4866 306.139 59.1482C306.239 59.7953 306.376 60.4466 306.549 61.1019C306.737 61.7559 306.965 62.3628 307.232 62.9225C307.514 63.481 307.847 63.8819 308.233 64.1253C308.659 63.826 308.992 63.3817 309.232 62.7924C309.485 62.1875 309.669 61.5375 309.784 60.8426C309.898 60.1477 309.954 59.4506 309.952 58.7513C309.964 58.0507 309.948 57.4545 309.906 56.9627C309.874 56.6011 309.812 56.1329 309.718 55.5581C309.624 54.9833 309.501 54.4038 309.348 53.8195C309.194 53.2208 309.001 52.6693 308.767 52.1649C308.549 51.6593 308.29 51.2882 307.993 51.0517C307.867 51.1064 307.709 51.142 307.521 51.1583Z" fill="#647970"/>
<path d="M321.204 48.3733C321.219 48.5469 321.167 48.6972 321.047 48.8242C320.941 48.95 320.805 49.0638 320.639 49.1657C320.472 49.2531 320.296 49.3194 320.11 49.3647C319.939 49.4087 319.796 49.4358 319.68 49.4458C319.506 49.4609 319.339 49.4609 319.177 49.4458C319.014 49.4162 318.851 49.3867 318.688 49.3571C318.526 49.3275 318.371 49.3046 318.223 49.2882C318.075 49.2574 317.921 49.2489 317.762 49.2627C317.545 49.2816 317.331 49.3366 317.121 49.4278C316.91 49.5189 316.723 49.6372 316.561 49.7824C316.399 49.9277 316.268 50.0994 316.169 50.2975C316.084 50.4943 316.051 50.7084 316.072 50.9399C316.102 51.287 316.204 51.6279 316.379 51.9625C316.553 52.2826 316.77 52.6061 317.032 52.9332C317.308 53.2589 317.613 53.5894 317.949 53.9247C318.297 54.2441 318.661 54.5696 319.039 54.901C319.499 55.3275 319.959 55.7611 320.42 56.202C320.895 56.6416 321.322 57.1073 321.7 57.5991C322.092 58.0896 322.422 58.6148 322.69 59.1745C322.957 59.7342 323.118 60.3323 323.173 60.9687C323.221 61.5184 323.17 62.0183 323.02 62.4686C322.884 62.9176 322.663 63.3085 322.356 63.6411C322.065 63.9725 321.694 64.2379 321.245 64.4373C320.812 64.6498 320.328 64.7793 319.792 64.8258C319.648 64.8384 319.421 64.829 319.112 64.7975C318.818 64.7648 318.478 64.7141 318.093 64.6456C317.707 64.5625 317.306 64.4735 316.89 64.3786C316.488 64.2823 316.114 64.1763 315.769 64.0606C315.437 63.9291 315.156 63.8005 314.927 63.6747C314.71 63.5332 314.597 63.3974 314.585 63.2672C314.57 63.0936 314.635 62.9131 314.779 62.7257C314.921 62.5239 315.095 62.3412 315.299 62.1777C315.503 61.9997 315.715 61.8501 315.938 61.7287C316.175 61.6061 316.373 61.5379 316.532 61.524C316.749 61.5052 316.978 61.5363 317.218 61.6174C317.473 61.6973 317.729 61.7917 317.986 61.9005C318.273 62.0212 318.56 62.1275 318.844 62.2194C319.144 62.3099 319.445 62.342 319.749 62.3156C319.98 62.2955 320.104 62.2047 320.119 62.043C320.148 61.8802 320.154 61.6975 320.137 61.495C320.093 60.9887 319.965 60.5189 319.752 60.0856C319.538 59.6378 319.275 59.2089 318.962 58.7989C318.65 58.3888 318.295 57.997 317.898 57.6234C317.5 57.2354 317.103 56.8546 316.706 56.481C316.295 56.1087 315.891 55.7357 315.494 55.3622C315.112 54.9873 314.765 54.6021 314.454 54.2065C314.141 53.7965 313.879 53.3748 313.666 52.9415C313.468 52.5069 313.347 52.0365 313.303 51.5303C313.249 50.9083 313.338 50.3395 313.57 49.8238C313.801 49.2937 314.117 48.8289 314.52 48.4296C314.937 48.029 315.412 47.7108 315.945 47.475C316.492 47.2235 317.047 47.0732 317.611 47.0242C317.799 47.0079 318.092 47.0261 318.49 47.079C318.887 47.1173 319.28 47.1925 319.669 47.3045C320.057 47.4164 320.405 47.5611 320.712 47.7385C321.019 47.9158 321.183 48.1274 321.204 48.3733Z" fill="#647970"/>
<path d="M329.287 63.1481C329.301 63.3072 329.277 63.4478 329.214 63.5698C329.151 63.6773 329.064 63.765 328.953 63.833C328.857 63.8996 328.744 63.9458 328.615 63.9716C328.502 64.0106 328.388 64.0351 328.272 64.0452C328.113 64.059 327.923 64.0536 327.702 64.0291C327.497 64.0178 327.29 63.9848 327.081 63.93C326.873 63.8753 326.677 63.8049 326.495 63.7187C326.326 63.6168 326.191 63.4901 326.09 63.3385C325.991 63.2014 325.888 62.9407 325.782 62.5565C325.689 62.1565 325.598 61.698 325.509 61.1811C325.419 60.6497 325.334 60.0887 325.254 59.4982C325.172 58.8932 325.093 58.3171 325.016 57.77C324.954 57.2216 324.896 56.7311 324.844 56.2984C324.805 55.85 324.776 55.5173 324.758 55.3004C324.67 54.2878 324.599 53.3102 324.546 52.3675C324.507 51.4091 324.465 50.429 324.422 49.4272C324.35 49.4335 324.278 49.447 324.207 49.4677C324.136 49.4885 324.064 49.502 323.992 49.5083C323.806 49.5536 323.613 49.5922 323.412 49.6243C323.225 49.6551 323.03 49.6793 322.828 49.6969C322.582 49.7183 322.361 49.6937 322.166 49.6233C321.97 49.5528 321.859 49.3657 321.833 49.062C321.801 48.7004 321.856 48.4042 321.996 48.1734C322.136 47.9426 322.324 47.7587 322.56 47.6216C322.795 47.47 323.055 47.36 323.34 47.2914C323.624 47.2084 323.903 47.1405 324.175 47.0877C324.218 47.084 324.247 47.0814 324.262 47.0802C324.275 47.0645 324.303 47.0547 324.347 47.0509C324.346 46.8761 324.342 46.6651 324.335 46.418C324.327 46.1564 324.317 45.873 324.305 45.568C324.278 45.0894 324.256 44.5813 324.238 44.0436C324.219 43.4914 324.203 42.9682 324.189 42.4739C324.174 41.9651 324.172 41.5208 324.183 41.141C324.192 40.7467 324.212 40.4681 324.241 40.3052C324.297 40.1109 324.364 39.9521 324.44 39.8288C324.532 39.7043 324.707 39.6308 324.968 39.6081C325.546 39.5578 326.011 39.7069 326.362 40.0553C326.713 40.4037 326.912 40.8528 326.96 41.4024C327.015 42.0389 327.049 42.6772 327.061 43.3174C327.087 43.9563 327.114 44.6025 327.142 45.2559L327.173 46.3681C327.531 46.2933 327.887 46.1968 328.241 46.0786C328.582 45.9761 328.923 45.8808 329.265 45.7928C329.622 45.7035 329.966 45.6444 330.299 45.6155C330.588 45.5904 330.819 45.6504 330.992 45.7957C331.164 45.9265 331.263 46.1366 331.288 46.4259C331.315 46.7441 331.284 47.0601 331.195 47.3739C331.106 47.6877 330.923 47.9367 330.648 48.121L330.67 48.1191C330.614 48.1531 330.445 48.2115 330.16 48.2945C329.875 48.3631 329.546 48.4354 329.174 48.5115C328.816 48.5863 328.458 48.6611 328.1 48.7359C327.757 48.8095 327.499 48.861 327.327 48.8906L327.305 48.8925C327.346 49.705 327.394 50.5096 327.449 51.3064C327.502 52.0888 327.564 52.885 327.635 53.695C327.732 54.8087 327.864 55.9923 328.031 57.2457C328.211 58.4833 328.43 59.6593 328.687 60.7737L328.946 61.735C329.025 61.9759 329.097 62.2174 329.162 62.4595C329.225 62.6871 329.267 62.9167 329.287 63.1481Z" fill="#647970"/>
<path d="M351.888 38.2086C352.012 39.6406 351.906 41.0999 351.568 42.5866C351.246 44.072 350.727 45.4797 350.012 46.8098C349.311 48.1386 348.432 49.3444 347.375 50.4273C346.318 51.5102 345.131 52.3638 343.816 52.9883C344.007 54.1813 344.212 55.3658 344.431 56.5418C344.649 57.7178 344.912 58.8973 345.219 60.0803C345.281 60.2935 345.344 60.5139 345.408 60.7415C345.486 60.9679 345.535 61.2041 345.557 61.45C345.589 61.8261 345.517 62.0874 345.341 62.2339C345.164 62.3804 344.902 62.4687 344.555 62.4989C344.309 62.5203 344.01 62.5171 343.658 62.4894C343.305 62.4618 343.001 62.4007 342.745 62.3064C342.442 62.1724 342.233 62.0303 342.118 61.88C342.016 61.7139 341.931 61.4882 341.863 61.2027C341.51 59.9945 341.251 58.7783 341.086 57.5538C340.936 56.3281 340.764 55.1043 340.571 53.8824C340.279 53.8786 340.034 53.827 339.836 53.7276C339.636 53.6138 339.524 53.405 339.497 53.1012C339.472 52.812 339.525 52.5013 339.657 52.1692C339.802 51.8359 339.976 51.5731 340.178 51.3806C339.814 48.7016 339.525 46.0379 339.309 43.3897C339.108 40.7402 338.876 38.0715 338.613 35.3836C338.543 35.4188 338.48 35.4462 338.424 35.4657C338.367 35.4852 338.302 35.4981 338.23 35.5044C338.071 35.5182 337.938 35.4933 337.83 35.4298C337.721 35.3518 337.626 35.2581 337.543 35.1487C337.476 35.038 337.421 34.9188 337.381 34.7912C337.34 34.649 337.314 34.5201 337.304 34.4044C337.266 33.9705 337.348 33.6501 337.548 33.4432C337.748 33.2218 338.028 33.0152 338.391 32.8234C338.377 32.6643 338.361 32.4835 338.344 32.281C338.339 32.0628 338.351 31.865 338.379 31.6877C338.421 31.4946 338.494 31.3352 338.6 31.2094C338.705 31.0692 338.872 30.989 339.104 30.9689C339.48 30.9362 339.848 30.9771 340.208 31.0916C340.567 31.2061 340.849 31.4293 341.053 31.7614C341.551 31.6306 342.036 31.5083 342.507 31.3945C342.978 31.2807 343.467 31.2018 343.973 31.1578C345.116 31.0585 346.153 31.1651 347.083 31.4777C348.013 31.7759 348.819 32.2451 349.501 32.8853C350.182 33.5111 350.723 34.2802 351.123 35.1928C351.537 36.104 351.792 37.1093 351.888 38.2086ZM348.599 38.1009C348.541 37.4355 348.4 36.8211 348.177 36.2576C347.951 35.6797 347.647 35.196 347.263 34.8067C346.879 34.403 346.408 34.1014 345.851 33.902C345.295 33.7026 344.655 33.6344 343.932 33.6972C343.541 33.7312 343.146 33.7947 342.746 33.8877C342.36 33.9795 341.985 34.0996 341.619 34.248C341.849 36.895 342.091 39.519 342.347 42.1201C342.616 44.7199 342.944 47.322 343.331 49.9262C344.215 49.3684 345.004 48.6295 345.696 47.7095C346.388 46.7895 346.965 45.7921 347.425 44.7173C347.884 43.6281 348.217 42.5135 348.424 41.3733C348.63 40.2187 348.688 39.1279 348.599 38.1009Z" fill="#647970"/>
<path d="M355.704 61.7486C355.487 61.7674 355.246 61.7592 354.98 61.724C354.73 61.6875 354.483 61.6143 354.24 61.5042C354.012 61.3929 353.81 61.2501 353.634 61.0759C353.472 60.886 353.379 60.6536 353.355 60.3788C353.32 59.9737 353.3 59.5747 353.295 59.1817C353.303 58.7729 353.312 58.3713 353.321 57.977L353.323 57.9987L353.327 56.5337C353.325 56.0093 353.312 55.4348 353.287 54.8103C353.261 54.1858 353.228 53.5547 353.188 52.917C353.16 52.2636 353.126 51.6253 353.087 51.0021C353.047 50.3788 353.005 49.8069 352.96 49.2861C352.933 48.9824 352.899 48.6793 352.859 48.3768C352.831 48.0586 352.803 47.7403 352.776 47.4221C352.737 47.1486 352.704 46.8454 352.675 46.5128C352.645 46.1656 352.617 45.8474 352.592 45.5581C352.565 45.2544 352.58 45.0053 352.636 44.811C352.705 44.6009 352.928 44.4796 353.304 44.4469C353.637 44.418 353.991 44.4746 354.368 44.6168C354.759 44.7576 355.041 44.9809 355.213 45.2866L355.192 45.2884C355.278 45.4413 355.351 45.6972 355.411 46.0563C355.485 46.3997 355.541 46.7082 355.579 46.9817C355.792 46.5843 356.033 46.1626 356.3 45.7168C356.582 45.2696 356.888 44.8568 357.22 44.4782C357.55 44.0852 357.908 43.7554 358.292 43.4887C358.677 43.2221 359.101 43.0687 359.564 43.0284C360.172 42.9756 360.648 43.0873 360.992 43.3634C361.337 43.6395 361.602 44.0027 361.786 44.453C361.97 44.8888 362.092 45.3664 362.151 45.8859C362.21 46.3909 362.257 46.8531 362.294 47.2726L362.309 47.4462C362.324 47.6198 362.332 47.794 362.332 47.9688C362.346 48.1279 362.331 48.2823 362.285 48.432C362.253 48.5659 362.176 48.6819 362.053 48.78C361.945 48.8769 361.782 48.9347 361.566 48.9536C361.334 48.9737 361.086 48.9661 360.82 48.9309C360.554 48.8812 360.299 48.8013 360.056 48.6913C359.828 48.5799 359.626 48.4372 359.451 48.263C359.274 48.0743 359.167 47.8504 359.13 47.5913C359.12 47.4756 359.11 47.3599 359.1 47.2441C359.09 47.1284 359.087 47.0121 359.091 46.8951C359.085 46.8228 359.077 46.736 359.069 46.6348C359.073 46.5178 359.071 46.4087 359.062 46.3074C358.639 46.8105 358.277 47.4177 357.974 48.1289C357.686 48.8389 357.431 49.5898 357.208 50.3816C357 51.1721 356.829 51.9666 356.694 52.7653C356.558 53.5495 356.445 54.2589 356.354 54.8935L356.36 54.9585C356.356 55.4107 356.365 55.8544 356.388 56.2896C356.411 56.7248 356.436 57.1744 356.462 57.6385C356.492 58.1605 356.517 58.6904 356.534 59.228C356.566 59.7645 356.575 60.2883 356.562 60.7996C356.556 61.077 356.488 61.2942 356.356 61.4515C356.239 61.6219 356.022 61.7209 355.704 61.7486Z" fill="#647970"/>
<path d="M373.039 50.9295C373.148 52.1879 373.149 53.4557 373.042 54.733C372.947 55.9945 372.623 57.2104 372.069 58.3808C371.895 58.731 371.692 59.0766 371.46 59.4174C371.226 59.7438 370.96 60.0438 370.663 60.3173C370.382 60.6041 370.06 60.8361 369.696 61.0135C369.349 61.204 368.972 61.3169 368.567 61.3521C367.931 61.4074 367.361 61.3039 366.857 61.0416C366.369 60.7926 365.931 60.4445 365.542 59.9973C365.167 59.5344 364.837 59.0093 364.553 58.4219C364.282 57.8188 364.053 57.2047 363.868 56.5795C363.696 55.9387 363.554 55.317 363.443 54.7146C363.347 54.1108 363.279 53.5775 363.239 53.1147C363.194 52.594 363.166 52.0207 363.155 51.395C363.144 50.7692 363.161 50.1265 363.206 49.4668C363.265 48.8059 363.354 48.1496 363.472 47.4981C363.605 46.8453 363.792 46.2316 364.033 45.6568C364.274 45.0675 364.577 44.5383 364.945 44.0692C365.311 43.5856 365.75 43.1904 366.263 42.8835L366.265 42.9052C366.706 42.6191 367.158 42.4559 367.621 42.4157C367.91 42.3905 368.14 42.4361 368.311 42.5525C368.48 42.6544 368.57 42.8506 368.58 43.1411C369.388 43.2166 370.065 43.544 370.611 44.1232C371.157 44.7025 371.596 45.393 371.928 46.1949C372.275 46.9954 372.529 47.8259 372.691 48.6862C372.868 49.5453 372.984 50.293 373.039 50.9295ZM367.664 45.9315C367.418 45.9528 367.179 45.8789 366.945 45.7097C366.707 46.1531 366.518 46.6578 366.378 47.2238C366.236 47.7753 366.132 48.3454 366.067 48.934C366.015 49.5069 365.992 50.0845 365.999 50.6669C366.006 51.2492 366.031 51.7935 366.075 52.2998C366.112 52.7193 366.181 53.2598 366.282 53.9214C366.382 54.5685 366.519 55.2197 366.692 55.875C366.88 56.5291 367.108 57.136 367.375 57.6957C367.657 58.2541 367.99 58.6551 368.376 58.8985C368.802 58.5991 369.135 58.1548 369.375 57.5656C369.628 56.9606 369.812 56.3107 369.927 55.6158C370.041 54.9209 370.097 54.2237 370.095 53.5244C370.107 52.8238 370.091 52.2277 370.049 51.7359C370.017 51.3743 369.955 50.9061 369.861 50.3312C369.767 49.7564 369.644 49.1769 369.491 48.5927C369.337 47.994 369.144 47.4424 368.91 46.9381C368.692 46.4324 368.433 46.0614 368.136 45.8249C368.01 45.8796 367.852 45.9151 367.664 45.9315Z" fill="#647970"/>
<path d="M377.9 53.7861C377.96 54.4804 378.008 55.1175 378.044 55.6973C378.094 56.2759 378.164 56.911 378.253 57.6028L378.62 57.2868L378.845 57.1142C379.505 56.4885 380.06 55.748 380.51 54.8928C380.974 54.0218 381.339 53.1083 381.605 52.1524C381.872 51.1966 382.043 50.2271 382.118 49.2442C382.206 48.2455 382.212 47.305 382.135 46.4227C382.12 46.2491 382.092 46.0111 382.051 45.7086C382.023 45.3904 381.967 45.0819 381.883 44.7832C381.799 44.4845 381.689 44.2316 381.555 44.0247C381.419 43.8034 381.243 43.7021 381.026 43.721C380.679 43.7511 380.342 43.9917 380.017 44.4426C379.692 44.8934 379.396 45.422 379.128 46.0282C378.874 46.6332 378.65 47.2429 378.456 47.8573C378.26 48.4573 378.119 48.9286 378.032 49.2713C378.033 49.2858 378.027 49.2937 378.012 49.2949C378.012 49.2949 378.013 49.3022 378.014 49.3166L378.016 49.3383C377.947 49.5484 377.872 49.7735 377.791 50.0137C377.724 50.2527 377.685 50.4747 377.674 50.6797C377.662 50.8847 377.661 51.118 377.669 51.3797C377.676 51.6268 377.691 51.8878 377.715 52.1626C377.728 52.3073 377.74 52.4519 377.753 52.5966C377.779 52.7255 377.797 52.8478 377.807 52.9635C377.82 53.1226 377.834 53.2745 377.846 53.4191C377.872 53.5481 377.89 53.6704 377.9 53.7861ZM380.817 73.5131C380.844 73.8313 380.776 74.0558 380.613 74.1866C380.449 74.3174 380.223 74.3954 379.934 74.4205C379.587 74.4507 379.198 74.4262 378.769 74.3469C378.34 74.2821 377.991 74.1157 377.72 73.8478C377.639 73.7529 377.54 73.4626 377.425 72.9771C377.325 72.4904 377.217 71.9168 377.101 71.2565C376.987 70.6106 376.877 69.9352 376.772 69.2302C376.668 68.5397 376.571 67.9287 376.481 67.3973L376.295 66.2549C375.852 63.1746 375.496 60.0868 375.227 56.9914C375.07 55.1833 374.945 53.4089 374.852 51.6682C374.772 49.9117 374.691 48.1335 374.607 46.3337L374.496 44.048C374.476 43.8165 374.456 43.5923 374.437 43.3754C374.432 43.1427 374.441 42.916 374.466 42.6952C374.522 42.5009 374.596 42.3487 374.688 42.2387C374.794 42.1129 374.97 42.0393 375.216 42.018C375.838 41.9639 376.31 42.1124 376.632 42.4633C376.952 42.7998 377.158 43.2337 377.248 43.7651C377.655 43.0884 378.161 42.5344 378.765 42.103C379.383 41.6704 380.111 41.4176 380.95 41.3447C381.659 41.2831 382.266 41.3907 382.771 41.6674C383.29 41.9429 383.717 42.3212 384.05 42.8023C384.382 43.269 384.633 43.8082 384.803 44.4202C384.986 45.0163 385.103 45.611 385.154 46.204C385.254 47.3467 385.252 48.4982 385.149 49.6585C385.044 50.8043 384.822 51.9312 384.481 53.0393C384.153 54.1317 383.705 55.1835 383.137 56.1947C382.568 57.1914 381.874 58.097 381.056 58.9114C380.949 59.0227 380.821 59.1431 380.672 59.2726C380.523 59.4022 380.366 59.5251 380.201 59.6414C380.037 59.7578 379.863 59.8603 379.682 59.9489C379.514 60.0364 379.358 60.0863 379.214 60.0989C379.055 60.1127 378.914 60.0885 378.792 60.0263C378.67 59.964 378.561 59.886 378.466 59.7923C378.581 60.7878 378.707 61.8189 378.844 62.8855C378.995 63.9508 379.153 65.0155 379.318 66.0796C379.485 67.1582 379.664 68.221 379.858 69.2681C380.065 70.3139 380.291 71.3217 380.536 72.2915C380.595 72.4757 380.648 72.6679 380.695 72.8679C380.757 73.0811 380.798 73.2961 380.817 73.5131Z" fill="#647970"/>
<path d="M395.598 53.9313C395.635 54.3652 395.551 54.8243 395.346 55.3085C395.155 55.7915 394.888 56.2446 394.546 56.6678C394.202 57.0766 393.795 57.4253 393.325 57.7139C392.869 58.0013 392.402 58.1657 391.925 58.2072C391.245 58.2663 390.648 58.187 390.134 57.9694C389.618 57.7373 389.16 57.4128 388.759 56.9958C388.358 56.5644 388.016 56.0695 387.734 55.511C387.467 54.9513 387.242 54.3733 387.059 53.7771C386.874 53.1665 386.727 52.5599 386.616 51.9574C386.519 51.3392 386.448 50.777 386.404 50.2707C386.366 49.8368 386.344 49.3214 386.335 48.7246C386.342 48.1266 386.375 47.5043 386.435 46.8578C386.51 46.21 386.629 45.5658 386.792 44.9249C386.955 44.2841 387.174 43.704 387.45 43.1845C387.74 42.6638 388.096 42.2321 388.518 41.8894C388.954 41.5454 389.469 41.3476 390.062 41.2961C390.525 41.2559 390.945 41.3141 391.323 41.4707C391.716 41.626 392.049 41.8521 392.322 42.149C392.609 42.4301 392.835 42.7675 393 43.1612C393.18 43.5536 393.289 43.9668 393.327 44.4008C393.376 44.9649 393.299 45.5909 393.096 46.2789C392.894 46.9669 392.61 47.6401 392.244 48.2985C391.893 48.9557 391.48 49.56 391.003 50.1115C390.539 50.6473 390.066 51.0674 389.582 51.3718C389.634 51.6296 389.725 52.0079 389.856 52.5066C389.985 52.9908 390.144 53.4726 390.331 53.9518C390.533 54.4298 390.751 54.8407 390.985 55.1848C391.233 55.5275 391.502 55.6863 391.791 55.6612C391.936 55.6486 392.055 55.5945 392.149 55.4989C392.257 55.4021 392.348 55.2776 392.422 55.1254C392.497 54.9732 392.555 54.8078 392.598 54.6292C392.655 54.4494 392.706 54.2774 392.75 54.1132L392.854 53.7982C392.879 53.7523 392.891 53.7221 392.889 53.7076C392.903 53.6919 392.915 53.6689 392.927 53.6387C393.012 53.4419 393.091 53.2602 393.164 53.0935C393.251 52.9256 393.377 52.7762 393.54 52.6454L393.519 52.6473C393.571 52.5844 393.627 52.5505 393.685 52.5455C393.756 52.5247 393.82 52.5118 393.878 52.5068C394.037 52.493 394.215 52.5285 394.412 52.6134C394.609 52.6983 394.794 52.8134 394.967 52.9587C395.138 53.0895 395.283 53.2445 395.401 53.4238C395.517 53.5886 395.583 53.7577 395.598 53.9313ZM390.47 44.7364C390.458 44.5918 390.437 44.4406 390.409 44.2827C390.381 44.1248 390.333 43.9906 390.265 43.8799C390.083 44.1434 389.928 44.4556 389.799 44.8166C389.684 45.1618 389.592 45.5269 389.523 45.9118C389.453 46.2822 389.398 46.6586 389.359 47.0409C389.334 47.422 389.32 47.773 389.319 48.0937C389.656 47.6126 389.945 47.0774 390.185 46.4882C390.424 45.8845 390.519 45.3006 390.47 44.7364Z" fill="#647970"/>
<path d="M399.01 57.9849C398.793 58.0038 398.552 57.9956 398.287 57.9604C398.036 57.9239 397.789 57.8506 397.546 57.7406C397.318 57.6292 397.116 57.4865 396.941 57.3123C396.779 57.1223 396.685 56.8899 396.662 56.6151C396.626 56.2101 396.606 55.8111 396.601 55.418C396.609 55.0093 396.618 54.6077 396.628 54.2134L396.63 54.2351L396.634 52.7701C396.632 52.2456 396.618 51.6711 396.593 51.0467C396.568 50.4222 396.535 49.7911 396.494 49.1534C396.466 48.5 396.433 47.8617 396.393 47.2384C396.354 46.6152 396.311 46.0432 396.266 45.5225C396.24 45.2188 396.206 44.9156 396.165 44.6131C396.137 44.2949 396.11 43.9767 396.082 43.6585C396.044 43.3849 396.01 43.0818 395.981 42.7491C395.951 42.402 395.923 42.0838 395.898 41.7945C395.872 41.4907 395.887 41.2417 395.943 41.0474C396.012 40.8373 396.234 40.716 396.611 40.6833C396.943 40.6544 397.298 40.711 397.675 40.8531C398.066 40.994 398.347 41.2173 398.52 41.5229L398.498 41.5248C398.584 41.6776 398.657 41.9336 398.718 42.2927C398.791 42.6361 398.847 42.9445 398.886 43.2181C399.099 42.8207 399.339 42.399 399.606 41.9531C399.888 41.506 400.195 41.0932 400.526 40.7146C400.856 40.3216 401.214 39.9917 401.599 39.7251C401.984 39.4585 402.408 39.305 402.871 39.2648C403.478 39.212 403.954 39.3237 404.299 39.5998C404.643 39.8759 404.908 40.2391 405.093 40.6893C405.277 41.1252 405.398 41.6028 405.458 42.1223C405.516 42.6273 405.564 43.0895 405.6 43.509L405.615 43.6825C405.63 43.8561 405.638 44.0303 405.639 44.2052C405.653 44.3643 405.637 44.5187 405.592 44.6683C405.56 44.8023 405.482 44.9183 405.36 45.0164C405.251 45.1132 405.089 45.1711 404.872 45.1899C404.641 45.2101 404.392 45.2025 404.127 45.1673C403.86 45.1176 403.605 45.0377 403.363 44.9276C403.134 44.8163 402.932 44.6735 402.757 44.4993C402.58 44.3107 402.473 44.0868 402.436 43.8277C402.426 43.712 402.416 43.5962 402.406 43.4805C402.396 43.3648 402.393 43.2485 402.398 43.1315C402.391 43.0592 402.384 42.9724 402.375 42.8711C402.379 42.7542 402.377 42.645 402.368 42.5438C401.946 43.0469 401.583 43.6541 401.281 44.3653C400.993 45.0753 400.737 45.8262 400.515 46.6179C400.306 47.4084 400.135 48.203 400 49.0017C399.865 49.7859 399.751 50.4953 399.661 51.1298L399.666 51.1949C399.662 51.6471 399.671 52.0908 399.695 52.5259C399.718 52.9611 399.742 53.4108 399.768 53.8749C399.799 54.3969 399.823 54.9267 399.841 55.4644C399.873 56.0009 399.882 56.5247 399.868 57.036C399.863 57.3133 399.794 57.5306 399.662 57.6878C399.546 57.8583 399.329 57.9573 399.01 57.9849Z" fill="#647970"/>
<path d="M412.428 55.9226C412.442 56.0817 412.418 56.2222 412.356 56.3442C412.292 56.4518 412.205 56.5395 412.094 56.6074C411.998 56.674 411.886 56.7203 411.757 56.746C411.644 56.785 411.529 56.8096 411.413 56.8196C411.254 56.8334 411.064 56.8281 410.844 56.8035C410.639 56.7922 410.432 56.7592 410.223 56.7045C410.014 56.6497 409.819 56.5793 409.636 56.4931C409.467 56.3912 409.332 56.2645 409.231 56.1129C409.132 55.9758 409.029 55.7152 408.923 55.3309C408.83 54.9309 408.739 54.4725 408.65 53.9555C408.561 53.4241 408.475 52.8631 408.395 52.2726C408.313 51.6676 408.234 51.0916 408.157 50.5444C408.095 49.996 408.038 49.5055 407.986 49.0728C407.947 48.6244 407.918 48.2918 407.899 48.0748C407.811 47.0623 407.741 46.0847 407.688 45.142C407.648 44.1836 407.607 43.2034 407.563 42.2016C407.491 42.2079 407.419 42.2214 407.348 42.2422C407.277 42.2629 407.206 42.2764 407.133 42.2827C406.948 42.328 406.754 42.3667 406.553 42.3987C406.366 42.4295 406.172 42.4537 405.969 42.4713C405.723 42.4927 405.503 42.4682 405.307 42.3977C405.111 42.3273 405 42.1402 404.974 41.8364C404.943 41.4748 404.997 41.1786 405.137 40.9478C405.277 40.717 405.466 40.5331 405.701 40.396C405.936 40.2445 406.196 40.1344 406.482 40.0659C406.766 39.9829 407.044 39.915 407.316 39.8622C407.36 39.8584 407.389 39.8559 407.403 39.8546C407.416 39.8389 407.445 39.8291 407.488 39.8254C407.487 39.6505 407.484 39.4396 407.477 39.1924C407.469 38.9308 407.459 38.6475 407.447 38.3425C407.42 37.8639 407.397 37.3557 407.38 36.818C407.361 36.2659 407.345 35.7427 407.331 35.2483C407.316 34.7396 407.314 34.2953 407.324 33.9154C407.334 33.5211 407.353 33.2425 407.383 33.0796C407.439 32.8853 407.505 32.7265 407.582 32.6033C407.673 32.4788 407.849 32.4052 408.109 32.3826C408.688 32.3323 409.152 32.4813 409.503 32.8298C409.854 33.1782 410.054 33.6272 410.101 34.1769C410.157 34.8133 410.19 35.4516 410.202 36.0918C410.229 36.7308 410.256 37.377 410.283 38.0304L410.314 39.1425C410.672 39.0677 411.028 38.9712 411.382 38.853C411.723 38.7505 412.065 38.6552 412.407 38.5672C412.763 38.4779 413.108 38.4188 413.441 38.3899C413.73 38.3648 413.961 38.4249 414.134 38.5701C414.306 38.701 414.404 38.911 414.429 39.2003C414.457 39.5185 414.426 39.8345 414.337 40.1483C414.247 40.4621 414.065 40.7112 413.789 40.8954L413.811 40.8935C413.756 40.9275 413.586 40.986 413.302 41.069C413.016 41.1375 412.687 41.2098 412.315 41.2859C411.957 41.3607 411.599 41.4355 411.241 41.5103C410.898 41.5839 410.64 41.6355 410.468 41.665L410.446 41.6669C410.488 42.4794 410.536 43.2841 410.59 44.0809C410.644 44.8632 410.706 45.6594 410.776 46.4694C410.873 47.5832 411.005 48.7667 411.172 50.0201C411.353 51.2577 411.571 52.4338 411.829 53.5482L412.087 54.5094C412.166 54.7503 412.238 54.9918 412.303 55.2339C412.366 55.4616 412.408 55.6911 412.428 55.9226Z" fill="#647970"/>
<path d="M424.927 56.8693C424.979 57.4624 425.011 58.0862 425.025 58.7409C425.038 59.3956 425.022 60.0527 424.977 60.7124C424.934 61.3866 424.853 62.0494 424.735 62.701C424.616 63.3525 424.451 63.9644 424.238 64.5367C423.875 65.3844 423.387 66.1409 422.774 66.8062C422.177 67.4848 421.507 68.0677 420.762 68.5551C420.017 69.0424 419.213 69.4329 418.35 69.7265C417.486 70.0202 416.606 70.206 415.71 70.2839C415.579 70.2952 415.427 70.3012 415.252 70.3018C415.063 70.3037 414.879 70.2833 414.7 70.2405C414.523 70.2122 414.371 70.1452 414.246 70.0395C414.12 69.9339 414.048 69.7798 414.03 69.5773C414.023 69.4905 414.037 69.4018 414.073 69.3113C414.07 69.2823 414.075 69.2528 414.087 69.2226C414.086 69.2081 414.085 69.1937 414.083 69.1792C414.159 68.8811 414.255 68.6396 414.37 68.4547C414.485 68.2699 414.625 68.1192 414.79 68.0029C414.941 67.9023 415.131 67.8202 415.359 67.7567C415.573 67.7089 415.824 67.658 416.111 67.604C417.033 67.4801 417.889 67.1871 418.679 66.7249L418.681 66.7466C419.581 66.202 420.269 65.5593 420.743 64.8185C421.234 64.0909 421.58 63.2957 421.782 62.4329C422 61.5833 422.105 60.6925 422.096 59.7605C422.088 58.8285 422.043 57.8924 421.962 56.9522C421.943 56.7352 421.929 56.5761 421.92 56.4749C421.911 56.3736 421.903 56.2796 421.896 56.1928C421.889 56.1205 421.882 56.0337 421.873 55.9325C421.864 55.8312 421.843 55.6727 421.81 55.457C421.338 55.8915 420.827 56.1327 420.277 56.1805C419.64 56.2358 419.083 56.1093 418.604 55.8012C418.139 55.4773 417.73 55.0465 417.377 54.5087C417.038 53.9553 416.75 53.3245 416.513 52.6164C416.29 51.8925 416.102 51.1583 415.95 50.4137C415.811 49.6534 415.696 48.9128 415.604 48.1921C415.527 47.4702 415.464 46.8271 415.415 46.263L415.335 45.3518C415.269 44.5852 415.203 43.833 415.139 43.0953C415.09 42.3564 415.054 41.6162 415.034 40.8747L415.005 40.5493C414.99 40.3757 414.975 40.2021 414.96 40.0286C414.945 39.855 414.945 39.6874 414.96 39.5258C414.998 39.2893 415.063 39.1161 415.155 39.006C415.262 38.8947 415.439 38.8284 415.685 38.807C415.8 38.7969 415.91 38.7947 416.012 38.8004C416.129 38.8048 416.247 38.8164 416.365 38.8353C416.65 38.9272 416.877 39.0312 417.048 39.1476C417.217 39.2495 417.345 39.3841 417.433 39.5514C417.533 39.7029 417.6 39.8866 417.634 40.1023C417.681 40.3167 417.718 40.5686 417.743 40.8579L417.996 43.7652C418.026 44.1124 418.063 44.5463 418.109 45.067C418.167 45.572 418.237 46.127 418.319 46.732C418.401 47.337 418.492 47.9631 418.592 48.6102C418.691 49.2573 418.811 49.8809 418.951 50.4808C419.09 51.0808 419.24 51.6289 419.4 52.1251C419.56 52.6213 419.741 53.0282 419.943 53.3458C420.154 52.759 420.321 52.0814 420.444 51.3129C420.566 50.53 420.646 49.6995 420.687 48.8216C420.74 47.9279 420.756 47.0158 420.733 46.085C420.725 45.153 420.697 44.2446 420.649 43.3597C420.616 42.4736 420.565 41.64 420.497 40.859C420.443 40.0622 420.39 39.3672 420.338 38.7742C420.326 38.6296 420.312 38.4777 420.299 38.3186C420.298 38.1437 420.321 37.9887 420.367 37.8535C420.413 37.7038 420.482 37.5812 420.576 37.4856C420.684 37.3888 420.847 37.3309 421.064 37.3121C421.165 37.3033 421.275 37.3083 421.393 37.3272C421.526 37.3448 421.637 37.3643 421.726 37.3857C421.755 37.3832 421.784 37.3879 421.814 37.3998C421.858 37.3961 421.894 37.3929 421.923 37.3904C422.132 37.4451 422.333 37.5005 422.528 37.5565C422.722 37.6125 422.889 37.6926 423.029 37.797C423.183 37.8857 423.303 38.0137 423.391 38.181C423.493 38.347 423.555 38.5675 423.579 38.8423C423.608 39.175 423.634 39.5589 423.658 39.9941C423.694 40.4136 423.718 40.856 423.729 41.3213C423.755 41.7855 423.773 42.243 423.783 42.6939C423.792 43.1303 423.797 43.5234 423.798 43.8731L423.777 44.64C423.766 44.845 423.762 45.0494 423.765 45.2531C423.768 45.4569 423.777 45.6456 423.792 45.8191C423.873 46.7449 423.96 47.67 424.055 48.5944C424.149 49.5044 424.25 50.421 424.36 51.3442C424.469 52.2674 424.571 53.1913 424.666 54.1157C424.76 55.0257 424.847 55.9436 424.927 56.8693Z" fill="#647970"/>
</svg>
