<svg width="680" height="502" viewBox="0 0 680 502" fill="none" xmlns="http://www.w3.org/2000/svg">
<path d="M190.604 0.373742C137.468 3.34151 85.5907 24.0177 48.7431 63.7189C2.91793 113.093 -8.99296 190.04 6.31573 253.916C15.9039 293.933 36.8084 331.49 68.4239 358.226C82.4212 370.063 98.0962 380.065 115.117 386.953C183.54 414.654 269.192 403.863 339.234 388.485C400.681 374.997 460.828 355.372 518.03 329.135C571.53 304.597 625.865 275.405 657.568 223.665C696.176 160.657 685.234 67.7432 610.214 38.1079C553.869 15.8523 500.452 45.7397 455.649 78.3454C447.191 84.5012 438.691 91.1349 428.594 93.8717C402.056 101.066 369.238 61.5979 349.064 47.9377C319.63 28.0048 287.545 12.0617 252.526 4.89707C232.238 0.753339 211.325 -0.783635 190.604 0.373742Z" fill="#D8E8D2" fill-opacity="0.53"/>
<path d="M128.044 445.863C112.523 430.764 101.161 412.103 95.7383 391.14C100.37 390.559 104.135 394.044 107.522 397.256C119.366 408.49 130.56 420.409 141.03 432.936C121.543 403.601 116.81 367.494 113.08 332.472C123.521 335.886 130.9 347.054 136.424 356.549C148.609 377.493 160.671 398.934 166.423 422.472C160.201 383.429 166.827 346.547 184.559 311.209C202.443 344.789 213.833 385.295 210.701 423.21C214.42 392.908 228.967 363.392 251.405 342.687C257.036 369.19 253.229 400.365 238.722 423.249C246.054 403.202 261.49 387.878 281.479 380.387C283.31 401.206 277.566 430.549 263.338 445.858H128.044V445.863Z" fill="#A3C891"/>
<path d="M317.407 446.094H428.461H474.234H517.005C544.599 427.828 594.187 401.062 607.037 370.566C578.127 374.317 547.955 390.398 532.434 415.078C536.347 407.18 540.777 400.316 544.69 392.419C557.217 367.134 570.054 340.48 568.923 312.286C551.425 320.879 537.531 335.805 526.167 351.645C514.261 368.238 503.77 385.843 494.841 404.21C497.742 371.835 499.43 339.408 498.825 306.908C498.618 295.844 498.177 284.594 494.636 274.111C466.498 310.478 450.372 356.566 448.965 402.527C451.638 360.089 443.73 318.742 425.475 280.336C419.5 290.66 413.41 303.04 408.398 313.863C389.875 353.867 306.983 403.255 317.407 446.094Z" fill="#A3C891"/>
<path d="M358.258 365.615H267.059V431.023H358.258V365.615Z" fill="#647970"/>
<path d="M477.739 384.905H147.57C140.976 384.905 135.633 379.559 135.633 372.968V167.241C135.633 160.647 140.979 155.304 147.57 155.304H477.739C484.332 155.304 489.676 160.65 489.676 167.241V372.97C489.679 379.561 484.332 384.905 477.739 384.905Z" fill="#A1B3A7"/>
<path d="M467.779 365.614H157.531C152.429 365.614 148.293 361.478 148.293 356.376V175.151C148.293 170.049 152.429 165.914 157.531 165.914H467.779C472.881 165.914 477.017 170.049 477.017 175.151V356.376C477.017 361.478 472.881 365.614 467.779 365.614Z" fill="#C5DDBA"/>
<path d="M411.612 445.863H213.693C212.698 445.863 211.891 445.056 211.891 444.06V432.826C211.891 431.831 212.698 431.024 213.693 431.024H411.612C412.608 431.024 413.415 431.831 413.415 432.826V444.06C413.415 445.056 412.608 445.863 411.612 445.863Z" fill="#A1B3A7"/>
<path d="M465.268 355.547H281.001C279.613 355.547 278.484 354.422 278.484 353.031V316.674C278.484 315.286 279.61 314.158 281.001 314.158H465.268C466.656 314.158 467.784 315.283 467.784 316.674V353.031C467.784 354.422 466.659 355.547 465.268 355.547Z" fill="white"/>
<path d="M443.573 216.251H417.766C419.09 213.344 422.459 211.783 425.435 212.946C425.488 210.05 428.278 207.499 431.168 207.703C434.059 207.908 436.459 210.828 436.103 213.703C437.629 212.689 439.623 212.285 441.341 212.92C443.061 213.554 443.751 214.427 443.573 216.251Z" fill="white"/>
<path d="M339.194 207.694H297.68C299.822 205.908 301.553 204.713 304.319 205.058C306.063 200.633 309.768 196.317 314.525 196.373C318.682 196.423 322.356 200.437 322.038 204.58C322.664 203.619 323.928 203.126 325.037 203.41C326.147 203.694 327.023 204.732 327.111 205.873C328.921 205.04 330.803 204.19 332.796 204.198C334.79 204.211 338.684 205.77 339.194 207.694Z" fill="white"/>
<path d="M459.191 323.408H384.256C383.853 323.408 383.523 323.081 383.523 322.675V319.763C383.523 319.359 383.85 319.03 384.256 319.03H459.191C459.594 319.03 459.924 319.357 459.924 319.763V322.675C459.924 323.078 459.594 323.408 459.191 323.408Z" fill="#D8E8D2"/>
<path d="M459.191 330.492H384.256C383.853 330.492 383.523 330.166 383.523 329.759V326.847C383.523 326.444 383.85 326.115 384.256 326.115H459.191C459.594 326.115 459.924 326.441 459.924 326.847V329.759C459.924 330.166 459.594 330.492 459.191 330.492Z" fill="#D8E8D2"/>
<path d="M459.191 337.579H384.256C383.853 337.579 383.523 337.252 383.523 336.846V333.934C383.523 333.531 383.85 333.202 384.256 333.202H459.191C459.594 333.202 459.924 333.528 459.924 333.934V336.846C459.924 337.252 459.594 337.579 459.191 337.579Z" fill="#D8E8D2"/>
<path d="M459.191 344.664H384.256C383.853 344.664 383.523 344.337 383.523 343.931V341.019C383.523 340.616 383.85 340.286 384.256 340.286H459.191C459.594 340.286 459.924 340.613 459.924 341.019V343.931C459.924 344.335 459.594 344.664 459.191 344.664Z" fill="#D8E8D2"/>
<path d="M421.208 351.75H384.045C383.758 351.75 383.527 351.519 383.527 351.233V347.891C383.527 347.604 383.758 347.373 384.045 347.373H421.208C421.495 347.373 421.726 347.604 421.726 347.891V351.233C421.726 351.519 421.495 351.75 421.208 351.75Z" fill="#D8E8D2"/>
<path d="M299.553 329.69L300.928 332.477C301 332.623 301.141 332.724 301.3 332.748L304.377 333.194C304.783 333.252 304.945 333.751 304.65 334.038L302.426 336.207C302.309 336.321 302.256 336.485 302.282 336.645L302.808 339.708C302.877 340.112 302.452 340.422 302.088 340.231L299.338 338.784C299.195 338.707 299.022 338.707 298.876 338.784L296.126 340.231C295.763 340.422 295.338 340.114 295.407 339.708L295.933 336.645C295.959 336.483 295.906 336.321 295.789 336.207L293.565 334.038C293.27 333.751 293.432 333.252 293.838 333.194L296.915 332.748C297.077 332.724 297.215 332.623 297.286 332.477L298.661 329.69C298.847 329.321 299.373 329.321 299.553 329.69Z" fill="#6AA74D" fill-opacity="0.93"/>
<path d="M315.807 329.69L317.182 332.477C317.254 332.623 317.395 332.724 317.554 332.748L320.631 333.194C321.037 333.252 321.199 333.751 320.904 334.038L318.68 336.207C318.563 336.321 318.51 336.485 318.536 336.645L319.062 339.708C319.131 340.112 318.706 340.422 318.342 340.231L315.592 338.784C315.449 338.707 315.276 338.707 315.13 338.784L312.38 340.231C312.017 340.422 311.592 340.114 311.661 339.708L312.187 336.645C312.213 336.483 312.16 336.321 312.043 336.207L309.819 334.038C309.524 333.751 309.686 333.252 310.092 333.194L313.169 332.748C313.331 332.724 313.469 332.623 313.54 332.477L314.915 329.69C315.101 329.321 315.624 329.321 315.807 329.69Z" fill="#6AA74D" fill-opacity="0.93"/>
<path d="M332.057 329.69L333.432 332.477C333.504 332.623 333.645 332.724 333.804 332.748L336.881 333.194C337.287 333.252 337.449 333.751 337.154 334.038L334.93 336.207C334.813 336.321 334.76 336.485 334.786 336.645L335.312 339.708C335.381 340.112 334.956 340.422 334.592 340.231L331.842 338.784C331.699 338.707 331.526 338.707 331.38 338.784L328.63 340.231C328.267 340.422 327.842 340.114 327.911 339.708L328.437 336.645C328.463 336.483 328.41 336.321 328.293 336.207L326.069 334.038C325.774 333.751 325.936 333.252 326.342 333.194L329.419 332.748C329.581 332.724 329.719 332.623 329.79 332.477L331.165 329.69C331.351 329.321 331.877 329.321 332.057 329.69Z" fill="#6AA74D" fill-opacity="0.93"/>
<path d="M348.311 329.69L349.686 332.477C349.758 332.623 349.899 332.724 350.058 332.748L353.135 333.194C353.541 333.252 353.703 333.751 353.408 334.038L351.183 336.207C351.067 336.321 351.014 336.485 351.04 336.645L351.566 339.708C351.635 340.112 351.21 340.422 350.846 340.231L348.096 338.784C347.953 338.707 347.78 338.707 347.634 338.784L344.884 340.231C344.521 340.422 344.096 340.114 344.165 339.708L344.69 336.645C344.717 336.483 344.664 336.321 344.547 336.207L342.323 334.038C342.028 333.751 342.19 333.252 342.596 333.194L345.673 332.748C345.835 332.724 345.973 332.623 346.044 332.477L347.419 329.69C347.605 329.321 348.131 329.321 348.311 329.69Z" fill="#6AA74D" fill-opacity="0.93"/>
<path d="M364.565 329.69L365.94 332.477C366.012 332.623 366.152 332.724 366.312 332.748L369.388 333.194C369.795 333.252 369.956 333.751 369.662 334.038L367.437 336.207C367.32 336.321 367.267 336.485 367.294 336.645L367.82 339.708C367.889 340.112 367.464 340.422 367.1 340.231L364.35 338.784C364.207 338.707 364.034 338.707 363.888 338.784L361.138 340.231C360.774 340.422 360.35 340.114 360.419 339.708L360.944 336.645C360.971 336.483 360.918 336.321 360.801 336.207L358.576 334.038C358.282 333.751 358.444 333.252 358.85 333.194L361.927 332.748C362.088 332.724 362.226 332.623 362.298 332.477L363.673 329.69C363.859 329.321 364.382 329.321 364.565 329.69Z" fill="#D8E8D2"/>
<path d="M315.218 306.485H286.379C286.512 304.401 288.465 302.808 290.549 302.925C289.596 300.334 291.861 297.319 294.595 296.95C297.329 296.581 300.034 298.359 301.406 300.754C301.268 299.034 303.532 297.669 304.99 298.598C302.651 296.453 302.978 292.243 305.401 290.197C307.825 288.15 311.703 288.341 314.185 290.316L315.218 306.485Z" fill="#6AA74D" fill-opacity="0.93"/>
<path d="M430.945 294.971C432.727 292.754 436.002 291.884 438.651 292.924C439.113 293.105 439.567 293.349 439.873 293.739C440.194 294.151 440.316 294.682 440.393 295.199C440.592 296.532 440.557 297.899 440.292 299.221C441.152 297.896 443.161 297.647 444.505 298.48C445.845 299.314 446.525 300.965 446.517 302.544C447.573 300.899 450.015 300.482 451.728 301.429C453.44 302.377 454.377 304.411 454.329 306.367H428.27C428.392 302.603 428.585 297.907 430.945 294.971Z" fill="#6AA74D" fill-opacity="0.93"/>
<path d="M400.938 220.289L362.906 254.639H438.298L400.938 220.289Z" fill="white"/>
<path d="M400.936 220.289H345.687L307.539 254.639H362.905L400.936 220.289Z" fill="#6AA74D" fill-opacity="0.93"/>
<path d="M392.265 254.64H391.522H362.906V306.43H391.522H392.265H433.427V254.64H392.265Z" fill="white"/>
<path d="M362.906 254.64H310.086V306.43H362.906V254.64Z" fill="#D8E8D2"/>
<path d="M400.605 266.769C400.194 266.769 399.788 266.795 399.387 266.84C404.744 267.445 408.906 271.987 408.906 277.506V306.43H411.343V277.506C411.34 271.576 406.535 266.769 400.605 266.769Z" fill="#6AA74D" fill-opacity="0.93"/>
<path d="M399.386 266.837C394.03 267.443 389.867 271.985 389.867 277.503V306.427H408.906V277.503C408.906 271.985 404.741 267.443 399.386 266.837Z" fill="#D8E8D2"/>
<path d="M326.016 272.643C325.841 272.627 325.66 272.616 325.48 272.616C322.39 272.616 319.887 275.119 319.887 278.209V287.959H320.959V278.209C320.957 275.303 323.178 272.914 326.016 272.643Z" fill="#6AA74D" fill-opacity="0.93"/>
<path d="M326.014 272.642C323.176 272.913 320.957 275.302 320.957 278.209V287.959H331.073V278.209C331.071 275.302 328.852 272.913 326.014 272.642Z" fill="#D8E8D2"/>
<path d="M345.239 272.643C345.063 272.627 344.883 272.616 344.702 272.616C341.613 272.616 339.109 275.119 339.109 278.209V287.959H340.182V278.209C340.179 275.303 342.401 272.914 345.239 272.643Z" fill="#6AA74D" fill-opacity="0.93"/>
<path d="M345.237 272.642C342.399 272.913 340.18 275.302 340.18 278.209V287.959H350.296V278.209C350.293 275.302 348.074 272.913 345.237 272.642Z" fill="#D8E8D2"/>
<path d="M433.428 254.641L398.168 222.797L400.939 220.291L438.299 254.641H433.428Z" fill="#D8E8D2"/>
<path d="M406.429 288.014C406.429 288.765 405.821 289.373 405.07 289.373C404.319 289.373 403.711 288.765 403.711 288.014C403.711 287.263 404.319 286.655 405.07 286.655C405.821 286.655 406.429 287.263 406.429 288.014Z" fill="#6AA74D" fill-opacity="0.93"/>
<path d="M320.643 297.764H316.555V299.553H320.643V297.764Z" fill="white"/>
<path d="M325.768 297.764H321.68V299.553H325.768V297.764Z" fill="white"/>
<path d="M338.549 290.643H334.461V292.432H338.549V290.643Z" fill="white"/>
<path d="M356.291 265.052H352.203V266.841H356.291V265.052Z" fill="white"/>
<path d="M374.811 291.536H370.723V293.325H374.811V291.536Z" fill="#D8E8D2"/>
<path d="M379.713 291.536H375.625V293.325H379.713V291.536Z" fill="#D8E8D2"/>
<path d="M370.186 299.966H366.098V301.755H370.186V299.966Z" fill="#D8E8D2"/>
<path d="M384.451 269.671H380.363V271.461H384.451V269.671Z" fill="#D8E8D2"/>
<path d="M369.811 278.023H365.723V279.813H369.811V278.023Z" fill="#D8E8D2"/>
<path d="M364.958 278.023H362.914V279.813H364.958V278.023Z" fill="#D8E8D2"/>
<path d="M425.014 263.265H420.926V265.054H425.014V263.265Z" fill="#D8E8D2"/>
<path d="M429.916 263.265H425.828V265.054H429.916V263.265Z" fill="#D8E8D2"/>
<path d="M418.799 285.764H414.711V287.553H418.799V285.764Z" fill="#D8E8D2"/>
<path d="M423.772 280.536H419.684V282.325H423.772V280.536Z" fill="#D8E8D2"/>
<path d="M400.217 251.908H396.129V253.697H400.217V251.908Z" fill="#D8E8D2"/>
<path d="M379.713 251.908H375.625V253.697H379.713V251.908Z" fill="#D8E8D2"/>
<path d="M385.307 251.908H381.219V253.697H385.307V251.908Z" fill="#D8E8D2"/>
<path d="M416.752 245.581H412.664V247.37H416.752V245.581Z" fill="#D8E8D2"/>
<path d="M392.623 240.282H388.535V242.071H392.623V240.282Z" fill="#D8E8D2"/>
<path d="M428.752 285.652H424.664V287.441H428.752V285.652Z" fill="#D8E8D2"/>
<path d="M430.795 288.014H426.707V289.803H430.795V288.014Z" fill="#D8E8D2"/>
<path d="M417.768 297.546H413.68V299.335H417.768V297.546Z" fill="#D8E8D2"/>
<path d="M388.537 291.536H384.449V293.325H388.537V291.536Z" fill="#D8E8D2"/>
<path d="M358.334 297.764H354.246V299.553H358.334V297.764Z" fill="white"/>
<path d="M358.334 294.705H354.246V296.494H358.334V294.705Z" fill="white"/>
<path d="M353.193 297.764H349.105V299.553H353.193V297.764Z" fill="white"/>
<path d="M351.15 265.052H347.062V266.841H351.15V265.052Z" fill="white"/>
<path d="M331.615 260.301H327.527V262.09H331.615V260.301Z" fill="white"/>
<path d="M322.412 265.052H318.324V266.841H322.412V265.052Z" fill="white"/>
<path d="M346.264 265.052H342.176V266.841H346.264V265.052Z" fill="white"/>
<path d="M317.408 265.052H313.32V266.841H317.408V265.052Z" fill="white"/>
<path d="M465.481 306.82H280.789C279.305 306.82 278.098 305.612 278.098 304.128V191.945C278.098 190.461 279.305 189.253 280.789 189.253H465.481C466.965 189.253 468.173 190.461 468.173 191.945V304.131C468.173 305.612 466.965 306.82 465.481 306.82ZM280.789 190.028C279.733 190.028 278.873 190.888 278.873 191.945V304.131C278.873 305.187 279.733 306.047 280.789 306.047H465.481C466.538 306.047 467.398 305.187 467.398 304.131V191.945C467.398 190.888 466.538 190.028 465.481 190.028H280.789Z" fill="white"/>
<path d="M293.445 272.791H216.562C215.189 272.791 214.074 271.679 214.074 270.304V225.761C214.074 224.388 215.186 223.273 216.562 223.273H293.445C294.817 223.273 295.932 224.386 295.932 225.761V270.306C295.932 271.679 294.82 272.791 293.445 272.791Z" fill="white"/>
<path d="M246.092 248.604H217.928C217.678 248.604 217.477 248.403 217.477 248.153V228.239C217.477 227.989 217.678 227.788 217.928 227.788H246.092C246.342 227.788 246.544 227.989 246.544 228.239V248.153C246.544 248.403 246.342 248.604 246.092 248.604Z" fill="#D8E8D2"/>
<mask id="mask0_2580_5329" style="mask-type:luminance" maskUnits="userSpaceOnUse" x="217" y="227" width="30" height="22">
<path d="M246.096 248.607H217.932C217.682 248.607 217.48 248.405 217.48 248.156V228.241C217.48 227.992 217.682 227.79 217.932 227.79H246.096C246.346 227.79 246.548 227.992 246.548 228.241V248.156C246.548 248.405 246.346 248.607 246.096 248.607Z" fill="white"/>
</mask>
<g mask="url(#mask0_2580_5329)">
<path d="M215.647 247.084L226.456 236.694C226.958 236.211 227.757 236.224 228.246 236.723L236.987 245.682L241.537 241.807C242.028 241.39 242.753 241.406 243.225 241.844L248.208 246.484V250.193H215.645V247.084H215.647Z" fill="#D8E8D2"/>
</g>
<mask id="mask1_2580_5329" style="mask-type:luminance" maskUnits="userSpaceOnUse" x="217" y="223" width="36" height="36">
<path d="M252.177 238.143L232.261 258.058C232.085 258.234 231.8 258.234 231.623 258.058L217.542 243.976C217.365 243.8 217.365 243.515 217.542 243.338L237.457 223.423C237.633 223.247 237.919 223.247 238.095 223.423L252.177 237.504C252.353 237.681 252.353 237.966 252.177 238.143Z" fill="white"/>
</mask>
<g mask="url(#mask1_2580_5329)">
<path d="M238.039 237.558C238.889 236.708 238.889 235.33 238.039 234.48C237.189 233.63 235.811 233.63 234.961 234.48C234.111 235.33 234.111 236.708 234.961 237.558C235.811 238.408 237.189 238.408 238.039 237.558Z" fill="#D8E8D2"/>
</g>
<path d="M291.972 230.847H250.678C250.51 230.847 250.375 230.711 250.375 230.544V228.089C250.375 227.922 250.51 227.786 250.678 227.786H291.974C292.141 227.786 292.277 227.922 292.277 228.089V230.544C292.274 230.711 292.139 230.847 291.972 230.847Z" fill="#D8E8D2"/>
<path d="M291.972 236.766H250.678C250.51 236.766 250.375 236.63 250.375 236.463V234.008C250.375 233.84 250.51 233.705 250.678 233.705H291.974C292.141 233.705 292.277 233.84 292.277 234.008V236.463C292.274 236.63 292.139 236.766 291.972 236.766Z" fill="#D8E8D2"/>
<path d="M291.972 242.685H250.678C250.51 242.685 250.375 242.549 250.375 242.382V239.927C250.375 239.759 250.51 239.624 250.678 239.624H291.974C292.141 239.624 292.277 239.759 292.277 239.927V242.382C292.274 242.549 292.139 242.685 291.972 242.685Z" fill="#D8E8D2"/>
<path d="M291.972 248.604H250.678C250.51 248.604 250.375 248.468 250.375 248.301V245.846C250.375 245.678 250.51 245.543 250.678 245.543H291.974C292.141 245.543 292.277 245.678 292.277 245.846V248.301C292.274 248.468 292.139 248.604 291.972 248.604Z" fill="#D8E8D2"/>
<path d="M291.886 253.684H217.867C217.652 253.684 217.477 253.509 217.477 253.294V251.237C217.477 251.022 217.652 250.847 217.867 250.847H291.886C292.101 250.847 292.276 251.022 292.276 251.237V253.294C292.273 253.512 292.101 253.684 291.886 253.684Z" fill="#D8E8D2"/>
<path d="M291.886 258.789H217.867C217.652 258.789 217.477 258.614 217.477 258.399V256.342C217.477 256.127 217.652 255.952 217.867 255.952H291.886C292.101 255.952 292.276 256.127 292.276 256.342V258.399C292.273 258.614 292.101 258.789 291.886 258.789Z" fill="#D8E8D2"/>
<path d="M291.886 263.897H217.867C217.652 263.897 217.477 263.722 217.477 263.507V261.449C217.477 261.234 217.652 261.059 217.867 261.059H291.886C292.101 261.059 292.276 261.234 292.276 261.449V263.507C292.273 263.722 292.101 263.897 291.886 263.897Z" fill="#D8E8D2"/>
<path d="M265.253 269.002H217.79C217.617 269.002 217.477 268.862 217.477 268.689V266.478C217.477 266.305 217.617 266.165 217.79 266.165H265.253C265.425 266.165 265.566 266.305 265.566 266.478V268.689C265.563 268.862 265.425 269.002 265.253 269.002Z" fill="#D8E8D2"/>
<path d="M32.1817 339.324C30.8651 338.153 37.1457 328.645 37.3527 327.753C37.5624 326.861 26.2541 337.845 25.8055 336.141C25.3569 334.437 34.523 325.765 34.7805 325.024C35.038 324.281 25.694 329.988 25.2879 328.932C24.8817 327.875 36.3414 318.398 36.8457 317.435C37.3501 316.474 28.6432 318.335 28.3857 317.456C27.6026 314.762 43.8112 310.751 43.8112 310.751L43.4343 311.276C45.5446 308.261 49.7282 303.597 49.7282 303.597C49.7282 303.597 59.1651 310.772 59.7066 311.404C60.1048 311.868 54.939 315.762 51.735 317.918C51.005 321.99 45.9189 325.629 45.3747 326.399C44.8306 327.169 42.9485 339.528 41.8442 339.428C40.3922 339.297 42.1601 328.693 40.8965 329.404C39.9356 329.946 32.9117 339.972 32.1817 339.324Z" fill="#FFD194"/>
<path d="M36.8447 317.436C36.8447 317.436 39.6373 320.095 41.2327 320.284C42.8281 320.472 47.8743 318.232 47.8743 318.232C47.8743 318.232 43.1148 321.619 41.384 321.178C39.6532 320.738 36.4492 317.9 36.4492 317.9L36.8447 317.436Z" fill="#D1913C"/>
<path d="M251.785 365.624C251.785 360.437 200.733 287.19 200.733 287.19C200.088 285.829 199.364 284.751 198.549 284.01L150.496 286.567C150.496 286.567 140.529 308.804 148.707 327.975C156.886 347.146 157.398 365.624 157.398 365.624H204.386C204.386 365.624 204.527 363.66 204.712 360.341C207.792 363.548 209.849 365.624 209.849 365.624H251.785Z" fill="#647970"/>
<mask id="mask2_2580_5329" style="mask-type:luminance" maskUnits="userSpaceOnUse" x="145" y="284" width="107" height="82">
<path d="M251.785 365.624C251.785 360.437 200.733 287.191 200.733 287.191C200.088 285.829 199.364 284.751 198.549 284.011L150.496 286.567C150.496 286.567 140.529 308.804 148.707 327.975C156.886 347.146 157.398 365.624 157.398 365.624H204.386C204.386 365.624 204.527 363.66 204.712 360.342C207.792 363.549 209.849 365.624 209.849 365.624H251.785Z" fill="white"/>
</mask>
<g mask="url(#mask2_2580_5329)">
<path d="M160.905 300.85C160.905 300.85 160.879 318.736 152.645 324.818L153.937 326.695C153.937 326.695 164.741 320.857 163.565 300.723L160.905 300.85Z" fill="#4F5754"/>
</g>
<mask id="mask3_2580_5329" style="mask-type:luminance" maskUnits="userSpaceOnUse" x="145" y="284" width="107" height="82">
<path d="M251.785 365.624C251.785 360.437 200.733 287.191 200.733 287.191C200.088 285.829 199.364 284.751 198.549 284.011L150.496 286.567C150.496 286.567 140.529 308.804 148.707 327.975C156.886 347.146 157.398 365.624 157.398 365.624H204.386C204.386 365.624 204.527 363.66 204.712 360.342C207.792 363.549 209.849 365.624 209.849 365.624H251.785Z" fill="white"/>
</mask>
<g mask="url(#mask3_2580_5329)">
<path d="M185.48 365.888C185.478 365.888 185.478 365.888 185.475 365.888C185.329 365.886 185.212 365.766 185.215 365.618C185.693 336.593 173.649 295.198 173.527 294.781C173.484 294.641 173.567 294.495 173.707 294.452C173.848 294.41 173.997 294.492 174.037 294.633C174.159 295.047 186.226 336.519 185.746 365.625C185.743 365.774 185.624 365.888 185.48 365.888Z" fill="#4F5754"/>
</g>
<mask id="mask4_2580_5329" style="mask-type:luminance" maskUnits="userSpaceOnUse" x="145" y="284" width="107" height="82">
<path d="M251.785 365.624C251.785 360.437 200.733 287.191 200.733 287.191C200.088 285.829 199.364 284.751 198.549 284.011L150.496 286.567C150.496 286.567 140.529 308.804 148.707 327.975C156.886 347.146 157.398 365.624 157.398 365.624H204.386C204.386 365.624 204.527 363.66 204.712 360.342C207.792 363.549 209.849 365.624 209.849 365.624H251.785Z" fill="white"/>
</mask>
<g mask="url(#mask4_2580_5329)">
<path d="M237.594 369.116C237.496 369.116 237.4 369.06 237.355 368.967C227.297 348.37 195.002 292.123 194.675 291.558C194.604 291.431 194.646 291.269 194.774 291.194C194.901 291.123 195.063 291.165 195.137 291.293C195.461 291.858 227.767 348.121 237.833 368.733C237.896 368.866 237.843 369.023 237.711 369.089C237.673 369.108 237.634 369.116 237.594 369.116Z" fill="#4F5754"/>
</g>
<path d="M204.708 360.341C204.708 360.341 198.632 327.409 196.551 310.855L217.479 365.623H209.845L204.708 360.341Z" fill="#4F5754"/>
<path d="M319.165 145.095C318.206 143.616 307.854 148.373 306.941 148.445C306.027 148.514 318.605 139.01 316.991 138.31C315.374 137.606 305.409 145.347 304.636 145.487C303.864 145.628 310.928 137.261 309.943 136.701C308.961 136.138 297.849 146.024 296.821 146.374C295.794 146.724 298.961 138.402 298.13 138.018C295.587 136.834 289.155 152.243 289.155 152.243L289.731 151.951C286.429 153.578 281.184 157.003 281.184 157.003C281.184 157.003 286.84 167.422 287.379 168.054C287.777 168.518 292.412 164.005 295.03 161.165C299.165 161.064 303.537 156.591 304.379 156.169C305.22 155.747 317.723 155.771 317.792 154.661C317.885 153.207 307.134 153.339 308.029 152.201C308.714 151.327 319.693 145.912 319.165 145.095Z" fill="#FFD194"/>
<path d="M296.818 146.369C296.818 146.369 299.021 149.533 298.965 151.139C298.907 152.745 295.926 157.39 295.926 157.39C295.926 157.39 299.998 153.204 299.825 151.426C299.653 149.647 297.335 146.05 297.335 146.05L296.818 146.369Z" fill="#D1913C"/>
<path d="M148.252 174.898C148.252 174.898 119.859 199.795 121.566 215.823C123.27 231.851 147.023 282.683 149.577 290.309C151.515 296.093 194.101 298.015 199.782 287.442C205.463 276.869 200.347 205.932 192.846 194.337C185.341 182.742 169.985 178.991 169.985 178.991L148.252 174.898Z" fill="#647970"/>
<path d="M159.875 174.897C160.701 175.51 220.794 180.304 225.516 178.895C230.239 177.485 279.488 144.763 282.188 146.788C284.888 148.811 295.681 167.785 295.007 170.947C294.332 174.111 243.057 208.856 235.298 209.193C227.539 209.531 188.239 211.893 185.035 210.542C181.831 209.193 159.875 174.897 159.875 174.897Z" fill="#647970"/>
<mask id="mask5_2580_5329" style="mask-type:luminance" maskUnits="userSpaceOnUse" x="159" y="146" width="137" height="65">
<path d="M159.875 174.894C160.701 175.508 220.794 180.302 225.516 178.892C230.239 177.483 279.488 144.76 282.188 146.786C284.888 148.808 295.681 167.783 295.007 170.944C294.332 174.109 243.057 208.854 235.298 209.191C227.539 209.528 188.239 211.891 185.035 210.539C181.831 209.191 159.875 174.894 159.875 174.894Z" fill="white"/>
</mask>
<g mask="url(#mask5_2580_5329)">
<path d="M230.158 181.569C225.842 181.569 187.969 180.013 187.587 180C187.441 179.994 187.327 179.87 187.332 179.724C187.338 179.578 187.462 179.466 187.608 179.469C187.991 179.485 225.852 181.038 230.155 181.038C233.545 181.038 268.168 159.846 286.004 148.642C286.129 148.565 286.293 148.602 286.37 148.724C286.447 148.849 286.41 149.011 286.288 149.09C284.178 150.418 234.546 181.569 230.158 181.569Z" fill="#4F5754"/>
</g>
<path d="M144.37 126.942C146.34 123.236 155.281 117.691 163.422 117.441C168.012 117.301 172.214 120.011 174.125 124.186C178.452 133.634 187.857 156.107 181.271 159.792C178.338 161.432 174.478 161.496 170.589 160.726C171.192 166.922 171.341 181.293 171.226 183.247C171.064 185.989 151.936 181.023 148.387 178.44C144.838 175.857 154.365 152.571 154.365 152.571C151.782 148.855 141.634 132.097 144.37 126.942Z" fill="#FFD194"/>
<mask id="mask6_2580_5329" style="mask-type:luminance" maskUnits="userSpaceOnUse" x="143" y="117" width="41" height="68">
<path d="M144.367 126.944C146.336 123.238 155.277 117.693 163.418 117.443C168.008 117.303 172.21 120.013 174.121 124.188C178.448 133.636 187.853 156.109 181.267 159.794C178.334 161.434 174.474 161.498 170.585 160.728C171.188 166.924 171.337 181.295 171.222 183.249C171.061 185.991 151.932 181.025 148.383 178.442C144.834 175.859 154.361 152.573 154.361 152.573C151.778 148.857 141.63 132.099 144.367 126.944Z" fill="white"/>
</mask>
<g mask="url(#mask6_2580_5329)">
<path d="M176.725 125.635C176.725 125.635 171.124 128.465 166.667 127.021C166.667 127.021 160.413 131.696 152.391 129.32C152.391 129.32 155.733 137.188 154.543 139.033C154.543 139.033 148.234 127.143 149.078 126.119C149.922 125.094 171.437 119.312 172.666 119.612C173.892 119.912 176.725 125.635 176.725 125.635Z" fill="#D1913C"/>
</g>
<path d="M178.05 146.701C178.05 146.701 173.105 149.448 167.246 146.701C167.246 146.701 170.578 151.266 174.143 151.036C178.844 150.728 178.05 146.701 178.05 146.701Z" fill="white"/>
<path d="M167.68 129.44C167.68 129.44 178.983 138.747 177.424 140.428C175.866 142.105 169.264 140.818 169.264 140.818C169.53 141.617 170.241 142.185 171.08 142.267C173.509 142.503 178.176 142.774 178.664 140.765C179.522 137.226 167.68 129.44 167.68 129.44Z" fill="#D1913C"/>
<path d="M170.591 160.723C170.591 160.723 165.972 159.34 162.973 156.991C162.973 156.991 164.204 166.439 171.042 168.592L170.591 160.723Z" fill="#D1913C"/>
<path d="M172.732 110.493C173.879 110.302 174.893 110.007 175.585 109.574C179.058 107.406 165.867 103.326 152.937 108.794C145.087 112.112 135.802 122.005 139.412 125.417C136.524 128.074 133.851 136.735 138.608 141.944C143.927 147.765 153.314 152.687 154.362 152.572C155.411 152.458 154.577 144.059 154.577 144.059C146.932 144.588 148.286 136.56 149.433 136.298C150.58 136.032 154.108 140.091 154.548 139.032C154.885 138.219 152.117 131.142 150.803 127.877C152.974 128.698 157.253 129.568 162.968 127.102C165.976 125.804 166.47 124.96 165.859 124.408C167.991 124.23 170.746 123.574 174.194 121.984C179.323 119.619 176.99 118.541 173.51 118.05C175.739 117.732 178.394 117.028 181.396 115.651C187.788 112.717 179.843 111.133 172.732 110.493Z" fill="#647970"/>
<path d="M126.019 200.933C126.019 200.933 92.6304 247.363 89.5007 249.972C86.371 252.582 40.9838 295.36 42.5473 299.012C44.1135 302.665 59.7434 319.524 67.2291 317.859C74.7123 316.195 111.257 277.946 113.15 275.867C115.043 273.789 145.432 233.363 146.913 227.956C148.394 222.548 134.5 203.335 126.019 200.933Z" fill="#647970"/>
<mask id="mask7_2580_5329" style="mask-type:luminance" maskUnits="userSpaceOnUse" x="42" y="200" width="106" height="118">
<path d="M126.019 200.934C126.019 200.934 92.6304 247.365 89.5007 249.974C86.371 252.583 40.9838 295.361 42.5473 299.014C44.1135 302.666 59.7434 319.525 67.2291 317.861C74.7123 316.197 111.257 277.947 113.15 275.869C115.043 273.79 145.432 233.365 146.913 227.957C148.394 222.55 134.5 203.336 126.019 200.934Z" fill="white"/>
</mask>
<g mask="url(#mask7_2580_5329)">
<path d="M44.8159 306.702C44.7469 306.702 44.6779 306.676 44.6248 306.623C44.5239 306.517 44.5266 306.349 44.6301 306.248C45.1026 305.792 91.7932 260.516 94.5353 255.831C97.2987 251.111 128.014 202.39 128.325 201.899C128.402 201.774 128.566 201.737 128.691 201.816C128.816 201.893 128.853 202.058 128.774 202.183C128.463 202.674 97.7526 251.387 94.9946 256.099C92.2153 260.848 46.9263 304.762 44.9991 306.631C44.9487 306.678 44.8823 306.702 44.8159 306.702Z" fill="#4F5754"/>
</g>
<path d="M132.625 249.778L146.912 227.953C146.912 227.953 145.542 258.528 137.074 260.595L132.625 249.778Z" fill="#4F5754"/>
<path d="M197.643 210.871C197.643 210.871 195.774 197.787 192.844 194.339C192.844 194.339 225.022 208.886 235.3 209.196C235.3 209.194 204.468 211.877 197.643 210.871Z" fill="#4F5754"/>
<path d="M171.229 183.243C171.229 183.243 172.922 198.496 167.685 197.022C162.448 195.549 143.478 186.733 147.019 176.012L171.229 183.243Z" fill="white"/>
<path d="M171.228 183.243C171.228 183.243 178.679 190.102 180.877 189.048C183.075 187.994 177.014 176.585 177.014 176.585L171.039 176.012L171.228 183.243Z" fill="white"/>
<path d="M171.231 183.241C171.231 183.241 169.429 186.459 170.671 188.325C171.914 190.191 174.488 191.165 175.29 190.634C176.089 190.101 178.043 188.003 177.066 186.565C176.089 185.129 171.231 183.241 171.231 183.241Z" fill="#D1913C"/>
<path d="M174.138 189.566C174.138 189.566 172.142 242.386 177.589 250.711C183.036 259.035 189.8 262.16 189.8 262.16C189.8 262.16 195.266 251.491 193.962 246.288C192.662 241.085 176.188 189.16 176.188 189.16L174.138 189.566Z" fill="#D1913C"/>
<path d="M149.576 290.311C149.576 290.311 156.818 301.641 189.41 295.018C189.41 295.018 200.087 293.173 200.732 287.195L201.146 282.735C201.146 282.735 180.796 296.186 148.098 286.513L149.576 290.311Z" fill="white"/>
<path d="M191.472 287.044C191.472 287.044 193.144 294.047 192.159 294.331C191.177 294.612 186.28 296.176 185.571 295.738C184.862 295.3 183.75 289.075 184.079 288.592C184.408 288.106 189.908 287.166 191.472 287.044Z" fill="#D1913C"/>
<path d="M293.57 98.3606C293.57 98.3606 300.183 167.657 301.619 168.087H308.592C308.951 168.087 309.229 167.782 309.198 167.426C308.547 160.243 302.763 96.9271 301.414 96.7413C299.984 96.5422 293.57 98.3606 293.57 98.3606Z" fill="#647970"/>
<mask id="mask8_2580_5329" style="mask-type:luminance" maskUnits="userSpaceOnUse" x="293" y="96" width="17" height="73">
<path d="M293.57 98.3581C293.57 98.3581 300.183 167.655 301.619 168.085H308.592C308.951 168.085 309.229 167.779 309.198 167.424C308.547 160.241 302.763 96.9247 301.414 96.7389C299.984 96.5398 293.57 98.3581 293.57 98.3581Z" fill="white"/>
</mask>
<g mask="url(#mask8_2580_5329)">
<path d="M297.879 96.7214C297.802 96.9152 297.879 149.592 305.77 170.276C307.167 173.937 299.832 169.976 299.832 169.976C299.832 169.976 290.422 98.338 293.57 96.7241C296.716 95.1075 297.879 96.7214 297.879 96.7214Z" fill="#4F5754"/>
</g>
<path d="M219.444 65.4383C219.444 65.4383 358.921 48.1998 363.591 49.4235C368.26 50.6473 376.118 102.005 371.228 107.337C368.377 110.449 228.17 125.489 225.595 124.342C223.017 123.198 212.949 70.9544 219.444 65.4383Z" fill="#FFD194"/>
<path d="M146.909 228.217C146.79 228.217 146.684 228.137 146.652 228.018C143.753 216.686 138.274 209.994 134.189 206.376C129.761 202.455 125.97 201.197 125.933 201.183C125.792 201.138 125.718 200.99 125.763 200.849C125.808 200.711 125.957 200.634 126.098 200.679C126.254 200.729 130.013 201.974 134.52 205.959C138.67 209.627 144.231 216.41 147.169 227.888C147.206 228.031 147.119 228.175 146.978 228.212C146.952 228.214 146.93 228.217 146.909 228.217Z" fill="#4F5754"/>
<path d="M194.224 197.036C194.104 197.036 193.996 196.957 193.966 196.835C190.776 184.085 185.233 177.464 185.177 177.398C185.082 177.287 185.095 177.119 185.206 177.024C185.318 176.928 185.485 176.942 185.581 177.053C185.636 177.119 191.259 183.825 194.481 196.705C194.516 196.848 194.431 196.991 194.287 197.026C194.266 197.034 194.245 197.036 194.224 197.036Z" fill="#4F5754"/>
<path d="M68.1997 313.899C69.1233 313.899 69.872 313.151 69.872 312.227C69.872 311.303 69.1233 310.555 68.1997 310.555C67.2761 310.555 66.5273 311.303 66.5273 312.227C66.5273 313.151 67.2761 313.899 68.1997 313.899Z" fill="#4F5754"/>
<path d="M74.7041 308.644C74.7041 309.567 73.9555 310.316 73.0317 310.316C72.108 310.316 71.3594 309.567 71.3594 308.644C71.3594 307.72 72.108 306.971 73.0317 306.971C73.9555 306.974 74.7041 307.722 74.7041 308.644Z" fill="#4F5754"/>
<path d="M77.9224 306.754C78.846 306.754 79.5947 306.006 79.5947 305.082C79.5947 304.158 78.846 303.41 77.9224 303.41C76.9987 303.41 76.25 304.158 76.25 305.082C76.25 306.006 76.9987 306.754 77.9224 306.754Z" fill="#4F5754"/>
<path d="M280.567 177.403C280.567 178.327 279.819 179.076 278.895 179.076C277.971 179.076 277.223 178.327 277.223 177.403C277.223 176.48 277.971 175.731 278.895 175.731C279.819 175.731 280.567 176.48 280.567 177.403Z" fill="#4F5754"/>
<path d="M285.399 173.82C285.399 174.744 284.651 175.492 283.727 175.492C282.803 175.492 282.055 174.744 282.055 173.82C282.055 172.896 282.803 172.147 283.727 172.147C284.651 172.147 285.399 172.899 285.399 173.82Z" fill="#4F5754"/>
<path d="M290.29 170.258C290.29 171.182 289.541 171.931 288.618 171.931C287.694 171.931 286.945 171.182 286.945 170.258C286.945 169.335 287.694 168.586 288.618 168.586C289.541 168.586 290.29 169.335 290.29 170.258Z" fill="#4F5754"/>
<path opacity="0.36" d="M617.131 349.635C616.714 350.11 616.228 350.619 615.678 351.153C625.813 339.047 631.611 323.256 630.818 306.242C629.139 270.24 598.593 242.416 562.593 244.094C530.517 245.59 504.933 269.998 500.921 300.768L309.376 309.698L291.189 329.663L323.161 356.053L344.458 334.067L362.929 349.5L384.565 329.692L502.098 324.213C506.306 355.401 539.734 370.464 539.734 370.464C587.684 390.12 617.131 349.635 617.131 349.635ZM610.536 297.675C615.777 297.429 620.225 301.479 620.468 306.722C620.713 311.962 616.663 316.41 611.421 316.653C606.18 316.899 601.732 312.849 601.489 307.606C601.244 302.366 605.294 297.918 610.536 297.675Z" fill="#6AA74D" fill-opacity="0.93"/>
<path d="M569.049 368.199C605.051 366.52 632.874 335.974 631.197 299.974C629.518 263.972 598.972 236.149 562.972 237.826C530.896 239.322 505.312 263.73 501.3 294.501L309.755 303.43L291.568 323.396L323.54 349.785L344.612 325.305L363.308 343.233L384.944 323.425L502.477 317.945C509.5 347.979 537.127 369.688 569.049 368.199ZM620.845 300.456C621.09 305.697 617.04 310.144 611.798 310.388C606.557 310.633 602.11 306.583 601.866 301.341C601.621 296.1 605.671 291.652 610.914 291.409C616.154 291.164 620.6 295.216 620.845 300.456Z" fill="#FFD194"/>
<path d="M502.476 317.945C502.476 317.945 512.827 344.173 542.632 359.922C572.437 375.671 609.13 352.965 617.508 343.369C617.508 343.369 588.06 383.854 540.113 364.196C540.113 364.196 506.682 349.135 502.476 317.945Z" fill="#D1913C"/>
<path d="M291.568 323.399C291.568 323.399 323.341 346.074 323.702 345.107C324.063 344.141 344.615 325.307 344.615 325.307C344.615 325.307 363.362 340.467 364.019 340.028C364.676 339.588 384.946 323.427 384.946 323.427L363.31 343.234L344.839 327.801L323.542 349.787L291.568 323.399Z" fill="#D1913C"/>
<path d="M291.568 323.399L384.946 323.427L295.391 326.115L291.568 323.399Z" fill="#D1913C"/>
<path d="M607.727 262.651C607.727 262.651 576.944 237.519 541.837 252.864C541.837 252.864 512.634 267.193 509.901 303.625C509.901 303.625 517.285 262.584 554.992 253.014C554.992 253.018 579.612 248.772 607.727 262.651Z" fill="#D1913C"/>
<path opacity="0.36" d="M451.037 185.119C468.357 167.798 468.357 139.716 451.037 122.396C433.717 105.076 405.635 105.076 388.314 122.396C370.994 139.716 370.994 167.798 388.314 185.119C405.635 202.439 433.717 202.439 451.037 185.119Z" fill="#6AA74D" fill-opacity="0.93"/>
<path d="M417.125 194.332C441.62 194.332 461.477 174.475 461.477 149.98C461.477 125.485 441.62 105.628 417.125 105.628C392.63 105.628 372.773 125.485 372.773 149.98C372.773 174.475 392.63 194.332 417.125 194.332Z" fill="#D8E8D2"/>
<path d="M417.018 141.494C417.018 141.494 445.111 167.089 441.01 171.742C436.909 176.395 430.655 179.074 429.208 177.391C427.761 175.708 407.066 145.104 407.066 145.104L417.018 141.494Z" fill="#647970"/>
<mask id="mask9_2580_5329" style="mask-type:luminance" maskUnits="userSpaceOnUse" x="407" y="141" width="35" height="37">
<path d="M417.018 141.49C417.018 141.49 445.111 167.085 441.01 171.738C436.909 176.392 430.655 179.07 429.208 177.387C427.761 175.704 407.066 145.1 407.066 145.1L417.018 141.49Z" fill="white"/>
</mask>
<g mask="url(#mask9_2580_5329)">
<path d="M426.844 148.753C426.844 148.753 409.316 154.842 408.294 153.499C407.272 152.156 404.18 146.825 404.18 146.825C404.18 146.825 421.981 136.85 423.088 138.45C424.198 140.051 426.844 148.753 426.844 148.753Z" fill="#4F5754"/>
</g>
<path d="M389.191 147.992C388.116 146.2 388.358 143.912 389.783 142.383C401.11 130.244 448.722 79.4705 452.393 79.8527C456.563 80.2854 483.873 122.564 482.148 129.466C480.616 135.593 409.862 147.586 393.975 150.206C392.077 150.519 390.181 149.64 389.191 147.992Z" fill="#FFD194"/>
<mask id="mask10_2580_5329" style="mask-type:luminance" maskUnits="userSpaceOnUse" x="388" y="79" width="95" height="72">
<path d="M389.191 147.994C388.116 146.202 388.358 143.914 389.783 142.385C401.11 130.246 448.722 79.4724 452.393 79.8547C456.563 80.2874 483.873 122.566 482.148 129.468C480.616 135.595 409.862 147.588 393.975 150.208C392.077 150.521 390.181 149.642 389.191 147.994Z" fill="white"/>
</mask>
<g mask="url(#mask10_2580_5329)">
<path d="M399.916 126.417C399.916 126.417 399.218 140.592 413.781 152.792C413.781 152.792 387.081 156.604 385.467 153.91C383.851 151.215 381.13 149.025 381.958 146.716C382.789 144.406 399.916 126.417 399.916 126.417Z" fill="#647970"/>
</g>
<mask id="mask11_2580_5329" style="mask-type:luminance" maskUnits="userSpaceOnUse" x="388" y="79" width="95" height="72">
<path d="M389.191 147.994C388.116 146.202 388.358 143.914 389.783 142.385C401.11 130.246 448.722 79.4724 452.393 79.8547C456.563 80.2874 483.873 122.566 482.148 129.468C480.616 135.595 409.862 147.588 393.975 150.208C392.077 150.521 390.181 149.642 389.191 147.994Z" fill="white"/>
</mask>
<g mask="url(#mask11_2580_5329)">
<path opacity="0.24" d="M479.089 114.872C479.089 114.872 459.817 115.408 445.193 128.851C430.569 142.293 396.387 145.381 396.387 145.381L400.223 151.815C400.223 151.815 469.636 143.634 478.945 138.864C488.252 134.091 484.098 119.796 479.089 114.872Z" fill="#4F5754"/>
</g>
<path d="M482.121 130.079C485.083 128.303 480.744 115.624 472.43 101.76C464.116 87.8955 454.974 78.0965 452.012 79.8729C449.05 81.6493 453.389 94.3285 461.703 108.193C470.017 122.057 479.158 131.856 482.121 130.079Z" fill="#647970"/>
<mask id="mask12_2580_5329" style="mask-type:luminance" maskUnits="userSpaceOnUse" x="451" y="79" width="33" height="52">
<path d="M482.121 130.083C485.083 128.306 480.744 115.627 472.43 101.763C464.116 87.8989 454.974 78.0999 452.012 79.8763C449.05 81.6527 453.389 94.3319 461.703 108.196C470.017 122.06 479.158 131.859 482.121 130.083Z" fill="white"/>
</mask>
<g mask="url(#mask12_2580_5329)">
<path d="M457.945 105.903C457.945 105.903 466.15 96.7347 469.692 102.53C473.233 108.324 473.652 110.56 461.548 114.671L457.945 105.903Z" fill="white"/>
</g>
<mask id="mask13_2580_5329" style="mask-type:luminance" maskUnits="userSpaceOnUse" x="451" y="79" width="33" height="52">
<path d="M482.121 130.083C485.083 128.306 480.744 115.627 472.43 101.763C464.116 87.8989 454.974 78.0999 452.012 79.8763C449.05 81.6527 453.389 94.3319 461.703 108.196C470.017 122.06 479.158 131.859 482.121 130.083Z" fill="white"/>
</mask>
<g mask="url(#mask13_2580_5329)">
<path d="M455.643 80.1073C455.643 80.1073 452.861 82.2495 455.624 89.584C458.013 95.9283 474.259 127.43 484.479 128.661C484.479 128.661 483.595 133.153 480.725 133.442C477.856 133.732 466.017 123.833 462.359 116.541C458.701 109.249 446.915 89.2973 446.362 85.6925C445.81 82.0876 452.919 77.1369 455.643 80.1073Z" fill="#4F5754"/>
</g>
<path d="M256.423 81.6786C256.518 82.7695 256.437 83.8812 256.18 85.0138C255.934 86.1453 255.539 87.2178 254.994 88.231C254.46 89.2433 253.791 90.1619 252.985 90.9868C252.18 91.8118 251.276 92.4621 250.274 92.9378C250.419 93.8466 250.576 94.749 250.742 95.6449C250.909 96.5408 251.109 97.4393 251.343 98.3405C251.39 98.5029 251.438 98.6708 251.487 98.8442C251.546 99.0167 251.584 99.1966 251.6 99.3839C251.625 99.6704 251.57 99.8695 251.436 99.9811C251.301 100.093 251.101 100.16 250.837 100.183C250.65 100.199 250.422 100.197 250.153 100.176C249.885 100.155 249.654 100.108 249.459 100.036C249.228 99.9343 249.068 99.826 248.981 99.7115C248.903 99.585 248.838 99.413 248.786 99.1955C248.517 98.2752 248.32 97.3486 248.195 96.4158C248.08 95.4821 247.949 94.5498 247.802 93.6189C247.579 93.616 247.393 93.5767 247.242 93.501C247.09 93.4143 247.004 93.2553 246.984 93.0239C246.965 92.8035 247.005 92.5668 247.105 92.3139C247.217 92.0599 247.349 91.8597 247.503 91.7131C247.226 89.6722 247.005 87.643 246.841 85.6256C246.687 83.6072 246.511 81.5742 246.311 79.5265C246.257 79.5534 246.209 79.5742 246.166 79.589C246.123 79.6039 246.074 79.6137 246.019 79.6185C245.898 79.629 245.796 79.6101 245.714 79.5617C245.631 79.5023 245.558 79.4309 245.496 79.3476C245.444 79.2632 245.403 79.1724 245.372 79.0752C245.34 78.9669 245.321 78.8687 245.313 78.7805C245.284 78.45 245.346 78.2059 245.499 78.0483C245.651 77.8796 245.865 77.7223 246.141 77.5762C246.131 77.455 246.119 77.3172 246.105 77.163C246.102 76.9967 246.111 76.846 246.132 76.7109C246.164 76.5639 246.22 76.4424 246.301 76.3466C246.38 76.2398 246.508 76.1787 246.684 76.1634C246.971 76.1385 247.251 76.1696 247.525 76.2568C247.799 76.344 248.014 76.5141 248.169 76.7671C248.549 76.6675 248.918 76.5743 249.277 76.4876C249.636 76.4009 250.008 76.3408 250.394 76.3073C251.264 76.2316 252.054 76.3129 252.763 76.551C253.471 76.7781 254.085 77.1356 254.605 77.6233C255.124 78.1 255.536 78.686 255.84 79.3811C256.156 80.0753 256.35 80.8412 256.423 81.6786ZM253.918 81.5966C253.874 81.0897 253.767 80.6216 253.596 80.1923C253.424 79.7521 253.193 79.3836 252.9 79.0871C252.607 78.7795 252.249 78.5497 251.825 78.3978C251.401 78.2459 250.913 78.1939 250.362 78.2418C250.065 78.2677 249.764 78.3161 249.459 78.3869C249.165 78.4569 248.879 78.5484 248.6 78.6614C248.775 80.6779 248.96 82.6769 249.155 84.6584C249.36 86.639 249.61 88.6212 249.905 90.6051C250.578 90.1802 251.179 89.6173 251.706 88.9164C252.234 88.2155 252.673 87.4557 253.024 86.637C253.373 85.8072 253.627 84.9581 253.785 84.0895C253.941 83.2099 253.986 82.3789 253.918 81.5966Z" fill="#647970"/>
<path d="M263.644 92.1422C263.727 93.1009 263.728 94.0667 263.646 95.0397C263.574 96.0008 263.327 96.9271 262.905 97.8186C262.773 98.0855 262.618 98.3487 262.441 98.6084C262.262 98.857 262.06 99.0855 261.834 99.2939C261.62 99.5124 261.374 99.6891 261.097 99.8242C260.833 99.9694 260.546 100.055 260.237 100.082C259.752 100.124 259.318 100.045 258.934 99.8457C258.563 99.6559 258.229 99.3907 257.933 99.0501C257.647 98.6975 257.395 98.2974 257.179 97.8499C256.972 97.3905 256.799 96.9227 256.657 96.4464C256.526 95.9582 256.418 95.4847 256.334 95.0257C256.261 94.5658 256.209 94.1595 256.178 93.8069C256.144 93.4102 256.122 92.9735 256.114 92.4968C256.106 92.0201 256.119 91.5305 256.153 91.028C256.198 90.5244 256.266 90.0245 256.356 89.5282C256.457 89.0309 256.599 88.5633 256.783 88.1254C256.966 87.6765 257.198 87.2734 257.478 86.916C257.757 86.5476 258.091 86.2465 258.482 86.0128L258.483 86.0293C258.819 85.8113 259.164 85.687 259.516 85.6564C259.737 85.6372 259.912 85.672 260.042 85.7606C260.171 85.8382 260.239 85.9877 260.247 86.209C260.863 86.2666 261.379 86.5159 261.794 86.9572C262.21 87.3985 262.545 87.9245 262.798 88.5354C263.062 89.1452 263.255 89.7779 263.379 90.4333C263.513 91.0877 263.602 91.6574 263.644 92.1422ZM259.549 88.3347C259.362 88.351 259.18 88.2947 259.002 88.1658C258.82 88.5035 258.676 88.888 258.569 89.3192C258.461 89.7393 258.383 90.1736 258.333 90.622C258.293 91.0585 258.276 91.4985 258.281 91.9422C258.286 92.3858 258.305 92.8004 258.339 93.1861C258.367 93.5057 258.419 93.9174 258.496 94.4214C258.572 94.9144 258.677 95.4105 258.809 95.9097C258.952 96.408 259.125 96.8703 259.329 97.2967C259.544 97.7221 259.798 98.0276 260.091 98.213C260.416 97.985 260.67 97.6465 260.853 97.1976C261.046 96.7367 261.186 96.2416 261.273 95.7122C261.36 95.1828 261.403 94.6518 261.401 94.119C261.41 93.5853 261.398 93.1312 261.366 92.7565C261.342 92.481 261.294 92.1244 261.223 91.6865C261.152 91.2486 261.058 90.8071 260.941 90.362C260.824 89.9059 260.676 89.4858 260.499 89.1015C260.332 88.7163 260.135 88.4337 259.909 88.2535C259.812 88.2952 259.693 88.3223 259.549 88.3347Z" fill="#647970"/>
<path d="M269.973 86.2131C269.985 86.3453 269.945 86.4598 269.853 86.5566C269.773 86.6524 269.669 86.7391 269.543 86.8167C269.415 86.8833 269.281 86.9339 269.14 86.9683C269.009 87.0019 268.9 87.0225 268.812 87.0301C268.68 87.0416 268.552 87.0416 268.429 87.0301C268.305 87.0076 268.181 86.9851 268.057 86.9625C267.933 86.94 267.814 86.9225 267.702 86.9101C267.589 86.8866 267.472 86.8801 267.351 86.8906C267.186 86.905 267.023 86.9469 266.862 87.0164C266.702 87.0858 266.56 87.1759 266.436 87.2866C266.312 87.3972 266.213 87.528 266.137 87.6789C266.072 87.8289 266.048 87.992 266.063 88.1683C266.086 88.4328 266.164 88.6924 266.297 88.9473C266.43 89.1912 266.595 89.4377 266.795 89.6868C267.005 89.935 267.238 90.1867 267.493 90.4421C267.758 90.6855 268.035 90.9334 268.324 91.1859C268.674 91.5108 269.025 91.8411 269.376 92.177C269.738 92.5119 270.063 92.8667 270.351 93.2413C270.65 93.615 270.901 94.0151 271.105 94.4415C271.308 94.8679 271.431 95.3235 271.473 95.8083C271.51 96.227 271.471 96.6079 271.356 96.9509C271.253 97.293 271.084 97.5907 270.851 97.8442C270.629 98.0966 270.346 98.2988 270.004 98.4506C269.674 98.6125 269.305 98.7112 268.898 98.7467C268.787 98.7562 268.615 98.749 268.379 98.7251C268.155 98.7001 267.896 98.6616 267.603 98.6093C267.309 98.5461 267.003 98.4783 266.686 98.4059C266.38 98.3326 266.096 98.2519 265.833 98.1637C265.58 98.0636 265.366 97.9656 265.191 97.8697C265.026 97.7619 264.939 97.6585 264.931 97.5593C264.919 97.4271 264.968 97.2896 265.078 97.1468C265.187 96.993 265.319 96.8539 265.475 96.7293C265.63 96.5937 265.792 96.4797 265.961 96.3873C266.142 96.2938 266.293 96.2419 266.414 96.2313C266.579 96.217 266.754 96.2407 266.937 96.3025C267.131 96.3634 267.326 96.4352 267.521 96.5181C267.74 96.6101 267.958 96.6911 268.175 96.761C268.403 96.83 268.633 96.8545 268.865 96.8344C269.041 96.8191 269.135 96.7498 269.146 96.6267C269.169 96.5026 269.173 96.3635 269.16 96.2092C269.126 95.8235 269.029 95.4656 268.867 95.1355C268.704 94.7944 268.503 94.4677 268.265 94.1553C268.027 93.8429 267.757 93.5444 267.455 93.2599C267.152 92.9642 266.849 92.6741 266.546 92.3895C266.233 92.1059 265.925 91.8218 265.623 91.5372C265.332 91.2517 265.068 90.9582 264.83 90.6569C264.592 90.3445 264.392 90.0232 264.23 89.6931C264.08 89.3621 263.987 89.0037 263.954 88.6181C263.913 88.1442 263.981 87.7109 264.157 87.3181C264.333 86.9142 264.574 86.5602 264.881 86.256C265.199 85.9508 265.561 85.7084 265.967 85.5288C266.383 85.3372 266.806 85.2227 267.236 85.1853C267.379 85.1729 267.603 85.1868 267.906 85.227C268.208 85.2563 268.507 85.3135 268.803 85.3988C269.099 85.4841 269.364 85.5943 269.598 85.7294C269.832 85.8646 269.957 86.0258 269.973 86.2131Z" fill="#647970"/>
<path d="M276.131 97.4686C276.141 97.5898 276.123 97.6969 276.075 97.7898C276.027 97.8717 275.96 97.9385 275.876 97.9903C275.803 98.0411 275.717 98.0763 275.619 98.0959C275.533 98.1256 275.445 98.1443 275.357 98.1519C275.236 98.1625 275.091 98.1584 274.923 98.1397C274.767 98.1311 274.609 98.1059 274.45 98.0642C274.291 98.0225 274.142 97.9689 274.003 97.9032C273.875 97.8256 273.772 97.7291 273.695 97.6136C273.619 97.5092 273.541 97.3106 273.46 97.0179C273.389 96.7132 273.32 96.3639 273.253 95.9701C273.184 95.5653 273.119 95.1379 273.058 94.688C272.996 94.2272 272.935 93.7883 272.877 93.3715C272.829 92.9537 272.786 92.5801 272.746 92.2504C272.716 91.9089 272.694 91.6554 272.68 91.4901C272.613 90.7188 272.559 89.9741 272.519 89.2559C272.489 88.5258 272.457 87.7791 272.424 87.0159C272.369 87.0207 272.315 87.031 272.261 87.0468C272.206 87.0626 272.152 87.0729 272.097 87.0777C271.955 87.1122 271.808 87.1417 271.655 87.1661C271.512 87.1896 271.364 87.208 271.21 87.2214C271.023 87.2377 270.854 87.219 270.705 87.1653C270.556 87.1117 270.472 86.9691 270.452 86.7377C270.428 86.4623 270.469 86.2366 270.576 86.0608C270.683 85.885 270.826 85.7448 271.006 85.6404C271.185 85.525 271.383 85.4411 271.6 85.3889C271.817 85.3257 272.029 85.274 272.236 85.2337C272.269 85.2309 272.291 85.2289 272.302 85.228C272.312 85.216 272.334 85.2086 272.367 85.2057C272.367 85.0725 272.364 84.9118 272.358 84.7235C272.352 84.5242 272.345 84.3084 272.335 84.076C272.315 83.7114 272.298 83.3243 272.284 82.9147C272.27 82.4941 272.258 82.0955 272.247 81.7189C272.236 81.3313 272.234 80.9929 272.242 80.7035C272.249 80.4031 272.264 80.1909 272.287 80.0668C272.329 79.9187 272.38 79.7978 272.438 79.7039C272.508 79.609 272.642 79.553 272.84 79.5357C273.281 79.4974 273.635 79.611 273.902 79.8764C274.17 80.1419 274.321 80.4839 274.358 80.9027C274.4 81.3875 274.426 81.8738 274.435 82.3615C274.455 82.8482 274.475 83.3405 274.496 83.8383L274.52 84.6855C274.793 84.6285 275.064 84.555 275.334 84.4649C275.593 84.3869 275.853 84.3143 276.114 84.2472C276.386 84.1792 276.648 84.1342 276.902 84.1122C277.122 84.093 277.298 84.1388 277.43 84.2495C277.561 84.3491 277.636 84.5091 277.655 84.7295C277.676 84.9719 277.652 85.2127 277.584 85.4517C277.516 85.6908 277.377 85.8805 277.167 86.0209L277.184 86.0194C277.142 86.0453 277.012 86.0898 276.796 86.1531C276.578 86.2053 276.328 86.2604 276.044 86.3183C275.772 86.3753 275.499 86.4323 275.226 86.4893C274.965 86.5454 274.768 86.5846 274.637 86.6071L274.621 86.6086C274.652 87.2276 274.689 87.8406 274.73 88.4476C274.771 89.0435 274.818 89.6501 274.872 90.2671C274.946 91.1156 275.046 92.0172 275.174 92.9721C275.311 93.9149 275.478 94.8108 275.674 95.6598L275.871 96.3921C275.931 96.5755 275.986 96.7595 276.035 96.944C276.083 97.1174 276.115 97.2923 276.131 97.4686Z" fill="#647970"/>
<path d="M293.348 78.4696C293.443 79.5605 293.362 80.6722 293.105 81.8047C292.859 82.9363 292.464 84.0087 291.919 85.022C291.385 86.0343 290.715 86.9529 289.91 87.7778C289.105 88.6028 288.201 89.2531 287.199 89.7288C287.344 90.6376 287.5 91.54 287.667 92.4359C287.834 93.3318 288.034 94.2303 288.268 95.1315C288.315 95.2939 288.363 95.4618 288.411 95.6352C288.471 95.8077 288.509 95.9876 288.525 96.1749C288.55 96.4614 288.495 96.6605 288.36 96.7721C288.226 96.8837 288.026 96.951 287.762 96.974C287.574 96.9903 287.346 96.9879 287.078 96.9668C286.81 96.9457 286.578 96.8992 286.383 96.8273C286.152 96.7253 285.993 96.617 285.905 96.5025C285.828 96.376 285.763 96.204 285.711 95.9865C285.442 95.0662 285.245 94.1396 285.119 93.2068C285.005 92.2731 284.874 91.3408 284.726 90.4099C284.504 90.407 284.318 90.3677 284.167 90.292C284.015 90.2053 283.929 90.0462 283.909 89.8148C283.89 89.5945 283.93 89.3578 284.03 89.1048C284.141 88.8509 284.274 88.6507 284.428 88.5041C284.15 86.4632 283.93 84.434 283.765 82.4165C283.612 80.3982 283.435 78.3651 283.235 76.3175C283.182 76.3443 283.134 76.3652 283.091 76.38C283.048 76.3949 282.999 76.4047 282.944 76.4095C282.822 76.42 282.721 76.4011 282.639 76.3527C282.556 76.2933 282.483 76.2219 282.42 76.1385C282.369 76.0542 282.327 75.9634 282.297 75.8662C282.265 75.7579 282.246 75.6597 282.238 75.5715C282.209 75.241 282.271 74.9969 282.424 74.8393C282.576 74.6706 282.79 74.5133 283.066 74.3672C283.055 74.2459 283.043 74.1082 283.03 73.9539C283.027 73.7877 283.036 73.637 283.057 73.5019C283.089 73.3548 283.145 73.2334 283.225 73.1376C283.305 73.0308 283.433 72.9697 283.609 72.9544C283.896 72.9295 284.176 72.9606 284.45 73.0478C284.724 73.135 284.939 73.3051 285.094 73.5581C285.474 73.4584 285.843 73.3653 286.202 73.2786C286.561 73.1919 286.933 73.1318 287.319 73.0983C288.189 73.0226 288.979 73.1039 289.688 73.342C290.396 73.5691 291.01 73.9265 291.53 74.4143C292.049 74.891 292.46 75.4769 292.765 76.1721C293.081 76.8663 293.275 77.6321 293.348 78.4696ZM290.843 78.3875C290.799 77.8807 290.691 77.4126 290.521 76.9833C290.349 76.543 290.117 76.1746 289.825 75.878C289.532 75.5705 289.173 75.3407 288.749 75.1888C288.325 75.0369 287.838 74.9849 287.287 75.0328C286.989 75.0587 286.688 75.107 286.384 75.1779C286.09 75.2479 285.804 75.3394 285.525 75.4524C285.7 77.4689 285.885 79.4679 286.079 81.4494C286.285 83.4299 286.535 85.4122 286.829 87.3961C287.503 86.9712 288.103 86.4083 288.631 85.7074C289.159 85.0065 289.598 84.2467 289.948 83.428C290.298 82.5982 290.552 81.749 290.71 80.8805C290.866 80.0009 290.911 79.1699 290.843 78.3875Z" fill="#647970"/>
<path d="M296.255 96.4024C296.09 96.4168 295.906 96.4105 295.704 96.3837C295.513 96.3559 295.325 96.3001 295.14 96.2162C294.966 96.1314 294.812 96.0227 294.678 95.8899C294.555 95.7452 294.484 95.5682 294.466 95.3589C294.439 95.0503 294.424 94.7463 294.42 94.4469C294.426 94.1355 294.433 93.8296 294.44 93.5292L294.441 93.5458L294.444 92.4297C294.443 92.0302 294.433 91.5925 294.414 91.1168C294.394 90.6411 294.369 90.1603 294.338 89.6745C294.317 89.1767 294.291 88.6905 294.261 88.2157C294.231 87.7409 294.199 87.3052 294.164 86.9085C294.144 86.6771 294.119 86.4462 294.088 86.2157C294.066 85.9733 294.045 85.7309 294.024 85.4885C293.995 85.2801 293.969 85.0491 293.947 84.7957C293.924 84.5313 293.903 84.2888 293.884 84.0685C293.864 83.8371 293.875 83.6473 293.918 83.4993C293.971 83.3393 294.14 83.2468 294.427 83.2219C294.68 83.1999 294.951 83.243 295.237 83.3513C295.535 83.4587 295.75 83.6287 295.881 83.8616L295.865 83.863C295.93 83.9794 295.986 84.1744 296.032 84.448C296.088 84.7096 296.131 84.9446 296.16 85.153C296.323 84.8502 296.506 84.529 296.709 84.1893C296.924 83.8487 297.157 83.5342 297.41 83.2458C297.661 82.9464 297.934 82.6951 298.227 82.492C298.52 82.2889 298.843 82.172 299.196 82.1414C299.659 82.1011 300.021 82.1862 300.284 82.3965C300.546 82.6069 300.748 82.8835 300.889 83.2266C301.029 83.5586 301.121 83.9224 301.167 84.3182C301.211 84.7029 301.248 85.055 301.275 85.3746L301.287 85.5068C301.298 85.639 301.304 85.7717 301.305 85.9049C301.315 86.0261 301.303 86.1437 301.269 86.2578C301.244 86.3598 301.185 86.4482 301.092 86.5229C301.01 86.5967 300.886 86.6408 300.72 86.6551C300.544 86.6705 300.355 86.6647 300.153 86.6379C299.95 86.6 299.756 86.5391 299.571 86.4553C299.397 86.3705 299.243 86.2617 299.109 86.129C298.975 85.9853 298.893 85.8147 298.865 85.6173C298.857 85.5292 298.85 85.441 298.842 85.3529C298.834 85.2647 298.832 85.1761 298.836 85.087C298.831 85.0319 298.825 84.9658 298.818 84.8887C298.822 84.7995 298.82 84.7164 298.813 84.6393C298.491 85.0225 298.215 85.4851 297.985 86.0269C297.765 86.5678 297.571 87.1398 297.401 87.743C297.242 88.3452 297.112 88.9505 297.009 89.5589C296.906 90.1563 296.82 90.6968 296.751 91.1801L296.755 91.2297C296.751 91.5742 296.759 91.9122 296.776 92.2437C296.794 92.5752 296.813 92.9178 296.832 93.2714C296.856 93.669 296.874 94.0726 296.888 94.4823C296.912 94.8909 296.919 95.29 296.908 95.6795C296.905 95.8908 296.852 96.0563 296.752 96.1761C296.663 96.3059 296.498 96.3813 296.255 96.4024Z" fill="#647970"/>
<path d="M309.461 88.1604C309.544 89.119 309.545 90.0849 309.463 91.0579C309.391 92.0189 309.144 92.9452 308.722 93.8368C308.59 94.1036 308.435 94.3669 308.258 94.6265C308.08 94.8752 307.877 95.1037 307.651 95.3121C307.437 95.5305 307.191 95.7073 306.915 95.8424C306.65 95.9875 306.363 96.0735 306.054 96.1003C305.57 96.1425 305.135 96.0636 304.752 95.8638C304.38 95.6741 304.046 95.4089 303.75 95.0683C303.464 94.7157 303.213 94.3156 302.996 93.8681C302.79 93.4087 302.616 92.9408 302.474 92.4646C302.343 91.9764 302.235 91.5028 302.151 91.0439C302.078 90.5839 302.026 90.1777 301.995 89.8251C301.961 89.4284 301.939 88.9917 301.931 88.515C301.923 88.0383 301.936 87.5487 301.97 87.0461C302.015 86.5426 302.083 86.0427 302.173 85.5464C302.274 85.0491 302.417 84.5815 302.601 84.1436C302.784 83.6947 303.015 83.2916 303.295 82.9342C303.574 82.5658 303.908 82.2647 304.299 82.0309L304.3 82.0475C304.636 81.8295 304.981 81.7052 305.334 81.6745C305.554 81.6554 305.729 81.6901 305.859 81.7788C305.988 81.8564 306.056 82.0059 306.064 82.2272C306.68 82.2847 307.196 82.5341 307.612 82.9754C308.027 83.4166 308.362 83.9427 308.615 84.5535C308.879 85.1634 309.072 85.7961 309.196 86.4515C309.331 87.1059 309.419 87.6755 309.461 88.1604ZM305.367 84.3529C305.179 84.3692 304.997 84.3129 304.819 84.184C304.637 84.5217 304.493 84.9062 304.386 85.3374C304.278 85.7575 304.2 86.1918 304.15 86.6402C304.11 87.0767 304.093 87.5167 304.098 87.9603C304.103 88.404 304.123 88.8186 304.156 89.2043C304.184 89.5238 304.236 89.9356 304.313 90.4396C304.39 90.9326 304.494 91.4287 304.626 91.9279C304.769 92.4262 304.943 92.8885 305.146 93.3149C305.361 93.7403 305.615 94.0458 305.909 94.2312C306.233 94.0031 306.487 93.6647 306.67 93.2158C306.863 92.7549 307.003 92.2598 307.09 91.7304C307.177 91.201 307.22 90.67 307.218 90.1372C307.227 89.6035 307.216 89.1493 307.183 88.7747C307.159 88.4992 307.111 88.1425 307.04 87.7046C306.969 87.2668 306.875 86.8253 306.758 86.3802C306.641 85.9241 306.493 85.5039 306.316 85.1197C306.149 84.7345 305.952 84.4518 305.726 84.2717C305.63 84.3134 305.51 84.3404 305.367 84.3529Z" fill="#647970"/>
<path d="M313.164 90.3366C313.21 90.8655 313.247 91.3508 313.274 91.7925C313.312 92.2333 313.365 92.7172 313.433 93.2441L313.712 93.0034L313.884 92.8719C314.387 92.3953 314.809 91.8312 315.152 91.1796C315.506 90.5161 315.784 89.8202 315.987 89.092C316.19 88.3638 316.32 87.6253 316.377 86.8765C316.444 86.1157 316.449 85.3993 316.39 84.7271C316.379 84.5949 316.357 84.4135 316.326 84.1831C316.305 83.9407 316.263 83.7057 316.198 83.4781C316.134 83.2506 316.051 83.058 315.948 82.9003C315.845 82.7317 315.711 82.6545 315.545 82.6689C315.281 82.6919 315.025 82.8751 314.777 83.2186C314.529 83.5621 314.303 83.9648 314.099 84.4266C313.906 84.8875 313.736 85.3519 313.588 85.82C313.439 86.277 313.331 86.6361 313.265 86.8972C313.266 86.9082 313.261 86.9142 313.25 86.9152C313.25 86.9152 313.25 86.9207 313.251 86.9317L313.253 86.9482C313.2 87.1082 313.143 87.2798 313.081 87.4628C313.03 87.6448 313 87.8139 312.992 87.9701C312.983 88.1263 312.982 88.304 312.988 88.5033C312.993 88.6916 313.005 88.8904 313.023 89.0998C313.033 89.21 313.042 89.3202 313.052 89.4304C313.072 89.5286 313.085 89.6218 313.093 89.7099C313.103 89.8311 313.114 89.9468 313.123 90.057C313.143 90.1552 313.156 90.2484 313.164 90.3366ZM315.386 105.365C315.407 105.607 315.355 105.778 315.231 105.878C315.106 105.977 314.934 106.037 314.713 106.056C314.449 106.079 314.153 106.06 313.826 106C313.5 105.95 313.233 105.824 313.027 105.62C312.965 105.547 312.89 105.326 312.803 104.956C312.726 104.586 312.644 104.149 312.555 103.646C312.468 103.154 312.385 102.639 312.305 102.102C312.226 101.576 312.152 101.11 312.083 100.706L311.941 99.8353C311.604 97.4888 311.333 95.1364 311.128 92.7784C311.008 91.401 310.913 90.0492 310.842 88.7231C310.781 87.385 310.719 86.0304 310.656 84.6593L310.571 82.918C310.556 82.7417 310.541 82.5709 310.526 82.4056C310.522 82.2284 310.529 82.0557 310.548 81.8875C310.591 81.7395 310.647 81.6235 310.718 81.5397C310.798 81.4439 310.932 81.3879 311.119 81.3716C311.593 81.3304 311.953 81.4435 312.198 81.7108C312.442 81.9671 312.599 82.2977 312.667 82.7025C312.978 82.1871 313.363 81.765 313.823 81.4364C314.294 81.1068 314.849 80.9142 315.488 80.8587C316.028 80.8118 316.49 80.8937 316.875 81.1045C317.27 81.3144 317.595 81.6026 317.849 81.9691C318.102 82.3246 318.293 82.7354 318.423 83.2016C318.562 83.6557 318.651 84.1087 318.691 84.5605C318.766 85.431 318.765 86.3082 318.686 87.1921C318.607 88.065 318.437 88.9235 318.177 89.7677C317.928 90.5998 317.586 91.4011 317.154 92.1714C316.72 92.9308 316.192 93.6206 315.568 94.241C315.487 94.3258 315.389 94.4175 315.276 94.5162C315.162 94.6149 315.043 94.7086 314.917 94.7972C314.792 94.8858 314.66 94.9639 314.521 95.0314C314.394 95.098 314.275 95.1361 314.165 95.1457C314.044 95.1562 313.937 95.1378 313.844 95.0903C313.751 95.0429 313.668 94.9835 313.595 94.9121C313.683 95.6705 313.779 96.456 313.883 97.2685C313.998 98.0801 314.118 98.8912 314.244 99.7018C314.371 100.523 314.508 101.333 314.655 102.131C314.813 102.928 314.986 103.695 315.172 104.434C315.217 104.574 315.258 104.721 315.293 104.873C315.341 105.036 315.372 105.199 315.386 105.365Z" fill="#647970"/>
<path d="M326.646 90.4472C326.675 90.7778 326.611 91.1275 326.454 91.4964C326.309 91.8643 326.106 92.2095 325.845 92.5319C325.583 92.8433 325.273 93.1089 324.915 93.3288C324.568 93.5477 324.212 93.673 323.848 93.7046C323.331 93.7496 322.876 93.6892 322.484 93.5234C322.091 93.3466 321.742 93.0994 321.437 92.7817C321.131 92.4531 320.87 92.076 320.656 91.6506C320.452 91.2242 320.281 90.7839 320.141 90.3297C320.001 89.8645 319.889 89.4024 319.804 88.9435C319.73 88.4725 319.676 88.0442 319.643 87.6586C319.614 87.328 319.596 86.9354 319.59 86.4807C319.595 86.0251 319.62 85.5511 319.666 85.0586C319.723 84.5651 319.814 84.0743 319.938 83.5861C320.062 83.0979 320.229 82.656 320.439 82.2603C320.66 81.8636 320.931 81.5347 321.253 81.2736C321.585 81.0116 321.977 80.8609 322.429 80.8217C322.782 80.791 323.102 80.8353 323.39 80.9547C323.689 81.073 323.942 81.2452 324.151 81.4714C324.369 81.6855 324.542 81.9426 324.668 82.2425C324.805 82.5415 324.887 82.8562 324.916 83.1868C324.953 83.6165 324.895 84.0935 324.741 84.6176C324.586 85.1417 324.37 85.6545 324.092 86.1561C323.824 86.6568 323.509 87.1171 323.146 87.5373C322.793 87.9454 322.432 88.2655 322.064 88.4973C322.103 88.6937 322.172 88.9819 322.272 89.3618C322.371 89.7307 322.491 90.0977 322.634 90.4628C322.788 90.8269 322.954 91.14 323.132 91.4021C323.321 91.6632 323.526 91.7842 323.747 91.765C323.857 91.7554 323.947 91.7142 324.019 91.6414C324.101 91.5676 324.171 91.4728 324.227 91.3568C324.284 91.2409 324.328 91.1149 324.361 90.9789C324.405 90.8418 324.443 90.7108 324.477 90.5858L324.556 90.3458C324.575 90.3108 324.584 90.2878 324.583 90.2768C324.593 90.2648 324.603 90.2473 324.612 90.2243C324.676 90.0744 324.737 89.9359 324.792 89.8089C324.859 89.681 324.954 89.5673 325.079 89.4676L325.062 89.469C325.103 89.4211 325.145 89.3953 325.189 89.3914C325.243 89.3756 325.292 89.3658 325.336 89.362C325.457 89.3515 325.593 89.3785 325.743 89.4432C325.893 89.5079 326.034 89.5956 326.166 89.7062C326.296 89.8059 326.406 89.924 326.496 90.0605C326.585 90.1861 326.635 90.315 326.646 90.4472ZM322.74 83.4425C322.731 83.3323 322.715 83.2171 322.693 83.0968C322.672 82.9766 322.635 82.8743 322.583 82.79C322.445 82.9907 322.327 83.2286 322.229 83.5036C322.141 83.7666 322.071 84.0447 322.019 84.3379C321.965 84.6201 321.924 84.9068 321.893 85.1981C321.874 85.4884 321.864 85.7557 321.863 86.0001C322.12 85.6336 322.34 85.2259 322.523 84.777C322.705 84.3171 322.777 83.8723 322.74 83.4425Z" fill="#647970"/>
<path d="M329.246 93.5353C329.081 93.5496 328.897 93.5434 328.695 93.5165C328.504 93.4887 328.316 93.4329 328.131 93.3491C327.957 93.2643 327.803 93.1555 327.669 93.0228C327.546 92.8781 327.475 92.7011 327.457 92.4917C327.43 92.1832 327.415 91.8792 327.411 91.5798C327.417 91.2684 327.424 90.9625 327.431 90.6621L327.432 90.6786L327.435 89.5626C327.434 89.163 327.424 88.7254 327.405 88.2496C327.385 87.7739 327.36 87.2932 327.329 86.8074C327.308 86.3096 327.282 85.8233 327.252 85.3485C327.222 84.8738 327.19 84.438 327.155 84.0413C327.135 83.8099 327.11 83.579 327.078 83.3486C327.057 83.1062 327.036 82.8637 327.015 82.6213C326.986 82.4129 326.96 82.182 326.938 81.9286C326.915 81.6641 326.894 81.4217 326.875 81.2013C326.855 80.9699 326.866 80.7802 326.909 80.6322C326.962 80.4721 327.131 80.3797 327.418 80.3548C327.671 80.3328 327.941 80.3759 328.228 80.4842C328.526 80.5915 328.741 80.7616 328.872 80.9944L328.856 80.9959C328.921 81.1123 328.977 81.3073 329.023 81.5809C329.079 81.8424 329.122 82.0774 329.151 82.2858C329.313 81.9831 329.497 81.6618 329.7 81.3222C329.915 80.9816 330.148 80.6671 330.401 80.3787C330.652 80.0792 330.925 79.828 331.218 79.6249C331.511 79.4217 331.834 79.3049 332.187 79.2742C332.649 79.234 333.012 79.319 333.275 79.5294C333.537 79.7397 333.739 80.0164 333.88 80.3594C334.02 80.6914 334.112 81.0553 334.158 81.451C334.202 81.8357 334.238 82.1879 334.266 82.5074L334.278 82.6397C334.289 82.7719 334.295 82.9046 334.296 83.0378C334.306 83.159 334.294 83.2766 334.26 83.3906C334.235 83.4927 334.176 83.5811 334.083 83.6558C334.001 83.7296 333.877 83.7736 333.711 83.788C333.535 83.8033 333.346 83.7976 333.144 83.7707C332.941 83.7329 332.747 83.672 332.562 83.5882C332.388 83.5034 332.234 83.3946 332.1 83.2619C331.966 83.1181 331.884 82.9476 331.856 82.7502C331.848 82.6621 331.841 82.5739 331.833 82.4857C331.825 82.3976 331.823 82.309 331.827 82.2199C331.822 82.1648 331.816 82.0986 331.809 82.0215C331.813 81.9324 331.811 81.8493 331.804 81.7721C331.482 82.1554 331.206 82.6179 330.976 83.1598C330.756 83.7007 330.562 84.2727 330.392 84.8758C330.233 85.478 330.103 86.0834 330 86.6918C329.897 87.2892 329.81 87.8296 329.741 88.313L329.746 88.3626C329.742 88.7071 329.75 89.045 329.767 89.3766C329.785 89.7081 329.804 90.0507 329.823 90.4042C329.847 90.8019 329.865 91.2055 329.879 91.6151C329.903 92.0238 329.91 92.4229 329.899 92.8123C329.896 93.0236 329.843 93.1891 329.743 93.3089C329.654 93.4387 329.489 93.5142 329.246 93.5353Z" fill="#647970"/>
<path d="M339.468 91.9641C339.478 92.0853 339.46 92.1924 339.413 92.2853C339.364 92.3673 339.298 92.4341 339.214 92.4858C339.14 92.5366 339.054 92.5718 338.956 92.5915C338.87 92.6212 338.783 92.6398 338.695 92.6475C338.573 92.658 338.429 92.6539 338.261 92.6353C338.104 92.6266 337.947 92.6015 337.788 92.5598C337.629 92.5181 337.48 92.4644 337.341 92.3988C337.212 92.3212 337.109 92.2246 337.032 92.1092C336.957 92.0047 336.878 91.8061 336.798 91.5134C336.727 91.2087 336.657 90.8594 336.59 90.4656C336.521 90.0608 336.457 89.6335 336.395 89.1836C336.333 88.7227 336.273 88.2839 336.214 87.8671C336.167 87.4493 336.123 87.0756 336.083 86.746C336.054 86.4044 336.032 86.151 336.017 85.9857C335.95 85.2143 335.897 84.4696 335.857 83.7514C335.826 83.0213 335.795 82.2747 335.762 81.5115C335.707 81.5163 335.652 81.5266 335.598 81.5424C335.544 81.5582 335.489 81.5685 335.434 81.5733C335.293 81.6078 335.145 81.6372 334.992 81.6616C334.85 81.6851 334.702 81.7035 334.547 81.7169C334.36 81.7332 334.192 81.7145 334.043 81.6609C333.894 81.6072 333.809 81.4647 333.789 81.2333C333.765 80.9578 333.807 80.7321 333.913 80.5563C334.02 80.3805 334.164 80.2404 334.343 80.136C334.522 80.0205 334.72 79.9367 334.938 79.8845C335.154 79.8212 335.366 79.7695 335.574 79.7293C335.607 79.7264 335.629 79.7245 335.64 79.7235C335.65 79.7115 335.671 79.7041 335.704 79.7013C335.704 79.5681 335.701 79.4073 335.696 79.219C335.69 79.0197 335.682 78.8039 335.673 78.5716C335.652 78.207 335.635 77.8199 335.622 77.4103C335.607 76.9896 335.595 76.591 335.585 76.2145C335.573 75.8269 335.571 75.4884 335.58 75.199C335.587 74.8986 335.602 74.6864 335.624 74.5623C335.667 74.4143 335.717 74.2933 335.776 74.1994C335.845 74.1046 335.979 74.0485 336.177 74.0313C336.618 73.993 336.972 74.1065 337.24 74.372C337.507 74.6374 337.659 74.9795 337.695 75.3982C337.737 75.883 337.763 76.3693 337.772 76.857C337.792 77.3438 337.813 77.836 337.834 78.3338L337.857 79.1811C338.13 79.1241 338.401 79.0505 338.671 78.9605C338.931 78.8824 339.191 78.8098 339.451 78.7428C339.723 78.6748 339.986 78.6297 340.239 78.6077C340.459 78.5886 340.635 78.6343 340.767 78.745C340.898 78.8447 340.973 79.0047 340.992 79.2251C341.013 79.4675 340.99 79.7082 340.922 79.9473C340.854 80.1863 340.715 80.376 340.505 80.5164L340.521 80.515C340.479 80.5408 340.35 80.5854 340.133 80.6486C339.916 80.7008 339.665 80.7559 339.382 80.8139C339.109 80.8709 338.836 80.9279 338.564 80.9849C338.302 81.0409 338.106 81.0802 337.974 81.1027L337.958 81.1041C337.989 81.7231 338.026 82.3361 338.068 82.9431C338.108 83.5391 338.156 84.1456 338.209 84.7627C338.283 85.6111 338.384 86.5128 338.511 87.4676C338.648 88.4105 338.815 89.3064 339.011 90.1553L339.208 90.8876C339.268 91.0711 339.323 91.2551 339.372 91.4395C339.421 91.6129 339.453 91.7878 339.468 91.9641Z" fill="#647970"/>
<path d="M348.99 92.6854C349.029 93.1372 349.054 93.6124 349.064 94.1111C349.074 94.6099 349.062 95.1105 349.028 95.6131C348.995 96.1266 348.933 96.6316 348.843 97.1279C348.753 97.6243 348.627 98.0904 348.465 98.5264C348.188 99.1722 347.816 99.7485 347.349 100.255C346.895 100.772 346.384 101.216 345.817 101.588C345.249 101.959 344.637 102.256 343.979 102.48C343.321 102.704 342.651 102.845 341.968 102.905C341.868 102.913 341.752 102.918 341.619 102.918C341.475 102.92 341.335 102.904 341.199 102.872C341.063 102.85 340.948 102.799 340.852 102.718C340.756 102.638 340.702 102.521 340.688 102.366C340.683 102.3 340.693 102.233 340.721 102.164C340.719 102.142 340.722 102.119 340.732 102.096C340.731 102.085 340.73 102.074 340.729 102.063C340.787 101.836 340.859 101.652 340.947 101.511C341.035 101.37 341.141 101.256 341.267 101.167C341.382 101.09 341.527 101.028 341.7 100.979C341.864 100.943 342.055 100.904 342.273 100.863C342.975 100.769 343.628 100.545 344.23 100.193L344.231 100.21C344.917 99.795 345.441 99.3054 345.802 98.7411C346.176 98.1868 346.44 97.581 346.594 96.9237C346.759 96.2765 346.839 95.5979 346.833 94.8879C346.827 94.1779 346.793 93.4647 346.73 92.7485C346.716 92.5832 346.705 92.462 346.699 92.3849C346.692 92.3077 346.686 92.2361 346.68 92.17C346.675 92.1149 346.67 92.0488 346.663 91.9717C346.656 91.8945 346.64 91.7738 346.615 91.6095C346.255 91.9405 345.866 92.1242 345.447 92.1606C344.962 92.2027 344.537 92.1064 344.173 91.8716C343.818 91.6249 343.507 91.2967 343.238 90.8871C342.979 90.4655 342.76 89.9849 342.58 89.4455C342.41 88.894 342.267 88.3347 342.151 87.7675C342.045 87.1882 341.957 86.6241 341.887 86.0751C341.828 85.5251 341.78 85.0352 341.743 84.6055L341.682 83.9113C341.632 83.3273 341.582 82.7543 341.533 82.1923C341.495 81.6294 341.468 81.0655 341.453 80.5006L341.431 80.2527C341.42 80.1205 341.408 79.9883 341.397 79.856C341.385 79.7238 341.385 79.5961 341.397 79.473C341.425 79.2929 341.475 79.1609 341.545 79.077C341.627 78.9923 341.761 78.9417 341.949 78.9254C342.037 78.9178 342.12 78.9161 342.198 78.9204C342.287 78.9238 342.377 78.9326 342.467 78.947C342.684 79.017 342.857 79.0963 342.987 79.1849C343.116 79.2625 343.214 79.3651 343.28 79.4925C343.357 79.608 343.408 79.7479 343.433 79.9122C343.47 80.0756 343.497 80.2674 343.517 80.4878L343.709 82.7026C343.732 82.9671 343.761 83.2977 343.795 83.6943C343.84 84.0791 343.893 84.5019 343.955 84.9627C344.018 85.4236 344.087 85.9006 344.163 86.3935C344.239 86.8865 344.33 87.3615 344.437 87.8186C344.543 88.2756 344.657 88.6932 344.779 89.0712C344.9 89.4492 345.038 89.7592 345.193 90.0011C345.354 89.5541 345.481 89.0379 345.574 88.4525C345.667 87.856 345.728 87.2234 345.759 86.5546C345.8 85.8738 345.812 85.1789 345.794 84.4698C345.788 83.7598 345.767 83.0678 345.731 82.3937C345.705 81.7187 345.667 81.0837 345.615 80.4886C345.573 79.8816 345.533 79.3522 345.494 78.9005C345.484 78.7903 345.474 78.6746 345.463 78.5534C345.463 78.4202 345.48 78.3021 345.516 78.1991C345.55 78.0851 345.603 77.9916 345.675 77.9188C345.757 77.845 345.881 77.801 346.046 77.7866C346.123 77.7799 346.207 77.7837 346.297 77.7981C346.398 77.8115 346.483 77.8264 346.551 77.8427C346.573 77.8408 346.595 77.8444 346.618 77.8535C346.651 77.8506 346.679 77.8482 346.701 77.8463C346.86 77.888 347.014 77.9301 347.162 77.9728C347.31 78.0154 347.437 78.0765 347.544 78.1561C347.661 78.2236 347.752 78.3211 347.819 78.4486C347.897 78.575 347.945 78.743 347.963 78.9523C347.985 79.2058 348.005 79.4982 348.022 79.8298C348.05 80.1493 348.068 80.4864 348.077 80.8409C348.097 81.1945 348.11 81.543 348.118 81.8865C348.125 82.219 348.128 82.5184 348.129 82.7848L348.113 83.369C348.105 83.5252 348.102 83.6809 348.104 83.8361C348.106 83.9914 348.113 84.1351 348.125 84.2673C348.186 84.9725 348.253 85.6773 348.325 86.3815C348.397 87.0748 348.474 87.773 348.557 88.4763C348.641 89.1796 348.718 89.8834 348.791 90.5877C348.862 91.2809 348.928 91.9802 348.99 92.6854Z" fill="#647970"/>
</svg>
