<svg width="20" height="12" viewBox="0 0 20 12" fill="none" xmlns="http://www.w3.org/2000/svg">
<mask id="path-1-outside-1_2474_13" maskUnits="userSpaceOnUse" x="0" y="0" width="20" height="12" fill="black">
<rect fill="white" width="20" height="12"/>
<path fill-rule="evenodd" clip-rule="evenodd" d="M1.66339 1H1V10.7099H1.66339V7.84308H7.01367V7.84362H18.6615V10.7112H19.3249L19.3247 7.17969H19.3243L19.3241 6.62517C19.3241 4.55755 17.6435 2.87695 15.5759 2.87695H7.87609C7.40066 2.87695 7.01367 3.26393 7.01367 3.73937V7.17969H1.66339V1ZM18.6609 6.62517V7.17969H7.67723L7.67719 3.73937C7.67719 3.6288 7.76564 3.54035 7.87621 3.54035H15.576C17.2766 3.54035 18.6609 4.92463 18.6609 6.62517ZM2.50781 4.75217C2.50781 5.78709 3.34811 6.62739 4.38303 6.62739C5.41795 6.62739 6.25825 5.78709 6.25825 4.75217C6.25825 3.71725 5.41795 2.87695 4.38303 2.87695C3.34811 2.87695 2.50781 3.71725 2.50781 4.75217ZM3.17121 4.75217C3.17121 4.08433 3.71519 3.54035 4.38303 3.54035C5.05087 3.54035 5.59486 4.08433 5.59486 4.75217C5.59486 5.42001 5.05087 5.964 4.38303 5.964C3.71519 5.964 3.17121 5.42001 3.17121 4.75217Z"/>
</mask>
<path fill-rule="evenodd" clip-rule="evenodd" d="M1.66339 1H1V10.7099H1.66339V7.84308H7.01367V7.84362H18.6615V10.7112H19.3249L19.3247 7.17969H19.3243L19.3241 6.62517C19.3241 4.55755 17.6435 2.87695 15.5759 2.87695H7.87609C7.40066 2.87695 7.01367 3.26393 7.01367 3.73937V7.17969H1.66339V1ZM18.6609 6.62517V7.17969H7.67723L7.67719 3.73937C7.67719 3.6288 7.76564 3.54035 7.87621 3.54035H15.576C17.2766 3.54035 18.6609 4.92463 18.6609 6.62517ZM2.50781 4.75217C2.50781 5.78709 3.34811 6.62739 4.38303 6.62739C5.41795 6.62739 6.25825 5.78709 6.25825 4.75217C6.25825 3.71725 5.41795 2.87695 4.38303 2.87695C3.34811 2.87695 2.50781 3.71725 2.50781 4.75217ZM3.17121 4.75217C3.17121 4.08433 3.71519 3.54035 4.38303 3.54035C5.05087 3.54035 5.59486 4.08433 5.59486 4.75217C5.59486 5.42001 5.05087 5.964 4.38303 5.964C3.71519 5.964 3.17121 5.42001 3.17121 4.75217Z" fill="#6AA74D"/>
<path d="M1 1V0.7H0.7V1H1ZM1.66339 1H1.96339V0.7H1.66339V1ZM1 10.7099H0.7V11.0099H1V10.7099ZM1.66339 10.7099V11.0099H1.96339V10.7099H1.66339ZM1.66339 7.84308V7.54308H1.36339V7.84308H1.66339ZM7.01367 7.84308H7.31367V7.54308H7.01367V7.84308ZM7.01367 7.84362H6.71367V8.14362H7.01367V7.84362ZM18.6615 7.84362H18.9615V7.54362H18.6615V7.84362ZM18.6615 10.7112H18.3615V11.0112H18.6615V10.7112ZM19.3249 10.7112V11.0112H19.6249L19.6249 10.7112L19.3249 10.7112ZM19.3247 7.17969L19.6247 7.17967L19.6246 6.87969H19.3247V7.17969ZM19.3243 7.17969L19.0243 7.17976L19.0243 7.47969H19.3243V7.17969ZM19.3241 6.62517L19.0241 6.62517L19.0241 6.62524L19.3241 6.62517ZM7.01367 7.17969V7.47969H7.31367V7.17969H7.01367ZM1.66339 7.17969H1.36339V7.47969H1.66339V7.17969ZM18.6609 7.17969V7.47969H18.9609V7.17969H18.6609ZM7.67723 7.17969L7.37723 7.17969L7.37723 7.47969H7.67723V7.17969ZM7.67719 3.73937L7.37719 3.73937L7.37719 3.73937L7.67719 3.73937ZM1 1.3H1.66339V0.7H1V1.3ZM1.3 10.7099V1H0.7V10.7099H1.3ZM1.66339 10.4099H1V11.0099H1.66339V10.4099ZM1.36339 7.84308V10.7099H1.96339V7.84308H1.36339ZM7.01367 7.54308H1.66339V8.14308H7.01367V7.54308ZM7.31367 7.84362V7.84308H6.71367V7.84362H7.31367ZM18.6615 7.54362H7.01367V8.14362H18.6615V7.54362ZM18.9615 10.7112V7.84362H18.3615V10.7112H18.9615ZM19.3249 10.4112H18.6615V11.0112H19.3249V10.4112ZM19.0247 7.17971L19.0249 10.7112L19.6249 10.7112L19.6247 7.17967L19.0247 7.17971ZM19.3243 7.47969H19.3247V6.87969H19.3243V7.47969ZM19.0241 6.62524L19.0243 7.17976L19.6243 7.17962L19.6241 6.6251L19.0241 6.62524ZM15.5759 3.17695C17.4778 3.17695 19.0241 4.72324 19.0241 6.62517H19.6241C19.6241 4.39187 17.8092 2.57695 15.5759 2.57695V3.17695ZM7.87609 3.17695H15.5759V2.57695H7.87609V3.17695ZM7.31367 3.73937C7.31367 3.42961 7.56634 3.17695 7.87609 3.17695V2.57695C7.23497 2.57695 6.71367 3.09824 6.71367 3.73937H7.31367ZM7.31367 7.17969V3.73937H6.71367V7.17969H7.31367ZM1.66339 7.47969H7.01367V6.87969H1.66339V7.47969ZM1.36339 1V7.17969H1.96339V1H1.36339ZM18.9609 7.17969V6.62517H18.3609V7.17969H18.9609ZM7.67723 7.47969H18.6609V6.87969H7.67723V7.47969ZM7.37719 3.73937L7.37723 7.17969L7.97723 7.17968L7.97719 3.73936L7.37719 3.73937ZM7.87621 3.24035C7.59996 3.24035 7.37719 3.46311 7.37719 3.73937H7.97719C7.97719 3.79449 7.93133 3.84035 7.87621 3.84035V3.24035ZM15.576 3.24035H7.87621V3.84035H15.576V3.24035ZM18.9609 6.62517C18.9609 4.75895 17.4423 3.24035 15.576 3.24035V3.84035C17.1109 3.84035 18.3609 5.09032 18.3609 6.62517H18.9609ZM4.38303 6.32739C3.5138 6.32739 2.80781 5.6214 2.80781 4.75217H2.20781C2.20781 5.95278 3.18243 6.92739 4.38303 6.92739V6.32739ZM5.95825 4.75217C5.95825 5.6214 5.25226 6.32739 4.38303 6.32739V6.92739C5.58364 6.92739 6.55825 5.95278 6.55825 4.75217H5.95825ZM4.38303 3.17695C5.25226 3.17695 5.95825 3.88294 5.95825 4.75217H6.55825C6.55825 3.55157 5.58364 2.57695 4.38303 2.57695V3.17695ZM2.80781 4.75217C2.80781 3.88294 3.5138 3.17695 4.38303 3.17695V2.57695C3.18243 2.57695 2.20781 3.55157 2.20781 4.75217H2.80781ZM4.38303 3.24035C3.54951 3.24035 2.87121 3.91865 2.87121 4.75217H3.47121C3.47121 4.25002 3.88088 3.84035 4.38303 3.84035V3.24035ZM5.89486 4.75217C5.89486 3.91865 5.21656 3.24035 4.38303 3.24035V3.84035C4.88519 3.84035 5.29486 4.25002 5.29486 4.75217H5.89486ZM4.38303 6.264C5.21656 6.264 5.89486 5.5857 5.89486 4.75217H5.29486C5.29486 5.25433 4.88519 5.664 4.38303 5.664V6.264ZM2.87121 4.75217C2.87121 5.5857 3.5495 6.264 4.38303 6.264V5.664C3.88088 5.664 3.47121 5.25433 3.47121 4.75217H2.87121Z" fill="#6AA74D" mask="url(#path-1-outside-1_2474_13)"/>
</svg>
