<svg width="18" height="20" viewBox="0 0 18 20" fill="none" xmlns="http://www.w3.org/2000/svg">
<mask id="path-1-outside-1_2474_5" maskUnits="userSpaceOnUse" x="0" y="0" width="18" height="20" fill="black">
<rect fill="white" width="18" height="20"/>
<path d="M17.5951 18.4948C17.5951 15.3772 15.6644 13.7964 11.8566 13.7964H11.694V12.3477C13.0312 11.5555 13.8883 10.1321 13.9256 8.54472C14.3226 8.32814 14.578 7.90952 14.578 7.44235V7.21138C14.578 6.87789 14.3863 6.59153 14.1115 6.45723C14.0656 4.26502 12.7486 1.87751 10.6318 1.65274C10.4906 1.27273 10.1275 1 9.69907 1H8.95598C8.52851 1 8.16591 1.27147 8.024 1.65006C6.07968 1.84449 4.63246 4.27542 4.57552 6.44605C4.28981 6.57578 4.0892 6.8694 4.0892 7.2113V7.45983C4.0892 7.92558 4.34596 8.34909 4.74291 8.56503C4.78641 10.1229 5.61839 11.522 6.92577 12.3189V13.7965H6.7364C2.9299 13.7965 1 15.3766 1 18.4928V18.9172C1 19.0425 1.10157 19.144 1.22686 19.144H17.3685C17.4938 19.144 17.5953 19.0425 17.5953 18.9172L17.5951 18.4948ZM12.9919 14.3059C12.7943 16.1055 13.2078 16.546 13.8901 17.0945C13.996 17.1796 14.1072 17.2689 14.2205 17.3723C14.7807 17.8838 14.8868 18.1635 14.8868 18.5009V18.6903H9.55379V18.2239C9.55379 17.8358 9.75993 17.4851 10.0792 17.3304C11.1501 16.8109 11.813 15.3461 11.813 14.287C11.813 14.2744 11.8117 14.2622 11.8114 14.2497H11.8565C12.2594 14.2499 12.6356 14.2701 12.9917 14.3059L12.9919 14.3059ZM9.30844 14.924C10.0156 14.924 10.7233 14.7345 11.3549 14.3549L11.3568 14.3538C11.3298 15.274 10.7448 16.5035 9.88126 16.9224C9.65187 17.0338 9.46282 17.2116 9.32755 17.4282C9.19308 17.2119 9.00545 17.0341 8.77748 16.9227C7.92905 16.5083 7.35144 15.3002 7.31333 14.3833C7.93188 14.7424 8.61962 14.924 9.30844 14.924ZM4.54282 7.21122C4.54282 7.00002 4.70356 6.82821 4.90099 6.82821H6.06455C6.18985 6.82821 6.29142 6.72665 6.29142 6.60135C6.29142 6.47605 6.18985 6.37449 6.06455 6.37449H5.03088C5.11235 4.46245 6.3242 2.36136 7.95792 2.11471V2.25931C7.95792 2.38461 8.05949 2.48617 8.18478 2.48617C8.31008 2.48617 8.41165 2.38461 8.41165 2.25931V1.99764C8.41133 1.69769 8.6556 1.45341 8.95589 1.45341H9.69898C9.99925 1.45341 10.2433 1.69767 10.2433 1.99777V2.25943C10.2433 2.38473 10.3449 2.4863 10.4702 2.4863C10.5955 2.4863 10.6971 2.38473 10.6971 2.25943V2.12227C12.4713 2.39074 13.5803 4.44644 13.6527 6.37435H11.5864C11.4611 6.37435 11.3596 6.47591 11.3596 6.60121C11.3596 6.72651 11.4611 6.82808 11.5864 6.82808H13.766C13.9636 6.82808 14.1242 6.99989 14.1242 7.21108V7.44206C14.1242 7.78963 13.905 8.09593 13.5787 8.2041C12.233 8.65102 8.70936 9.54692 5.06235 8.21375C4.75148 8.10016 4.54266 7.79721 4.54266 7.45961L4.54282 7.21122ZM5.20345 8.73993C6.5817 9.20126 7.93436 9.36849 9.1579 9.36849C11.0079 9.36833 12.561 8.99576 13.4651 8.71668C13.3521 10.3761 12.2424 11.81 10.6332 12.3357C10.6212 12.3395 9.41872 12.7 8.03792 12.3368C6.43262 11.8124 5.32508 10.3895 5.20341 8.73994L5.20345 8.73993ZM7.90965 12.7716C8.42586 12.9076 8.91393 12.953 9.33618 12.953C10.1604 12.953 10.7329 12.7795 10.7706 12.7679C10.9324 12.7151 11.088 12.651 11.2403 12.5822V13.8946L11.1215 13.966C9.99683 14.6414 8.60165 14.6377 7.48066 13.957L7.37941 13.8954V12.5584C7.55042 12.6383 7.72619 12.7118 7.90971 12.7715L7.90965 12.7716ZM6.85775 14.2498C6.85728 14.2623 6.85617 14.2745 6.85617 14.2871C6.85617 15.346 7.51462 16.8105 8.57851 17.3302C8.89554 17.4851 9.10027 17.8358 9.10027 18.224L9.10042 18.6902H3.88161V18.501C3.88161 18.1636 3.98777 17.8837 4.5478 17.3724C4.6617 17.2683 4.77371 17.1788 4.88049 17.0932C5.56648 16.5428 5.98144 16.1013 5.78036 14.2916C6.08442 14.2666 6.39956 14.25 6.73636 14.25L6.85775 14.2498ZM1.45305 18.4926C1.45305 16.0453 2.72721 14.6796 5.329 14.3385C5.51426 15.9974 5.14644 16.298 4.5962 16.7394C4.48229 16.8307 4.36317 16.9265 4.24151 17.0376C3.64811 17.5793 3.42754 17.9761 3.42754 18.5011L3.4277 18.6905H1.45301L1.45305 18.4926ZM17.1411 18.6903H15.3402V18.5011C15.3402 17.976 15.1197 17.5794 14.5261 17.0376C14.4052 16.9273 14.2871 16.8319 14.1741 16.7413C13.6282 16.3024 13.2624 16.0029 13.4413 14.3644C15.9237 14.7442 17.141 16.1029 17.141 18.4946L17.1411 18.6903Z"/>
</mask>
<path d="M17.5951 18.4948C17.5951 15.3772 15.6644 13.7964 11.8566 13.7964H11.694V12.3477C13.0312 11.5555 13.8883 10.1321 13.9256 8.54472C14.3226 8.32814 14.578 7.90952 14.578 7.44235V7.21138C14.578 6.87789 14.3863 6.59153 14.1115 6.45723C14.0656 4.26502 12.7486 1.87751 10.6318 1.65274C10.4906 1.27273 10.1275 1 9.69907 1H8.95598C8.52851 1 8.16591 1.27147 8.024 1.65006C6.07968 1.84449 4.63246 4.27542 4.57552 6.44605C4.28981 6.57578 4.0892 6.8694 4.0892 7.2113V7.45983C4.0892 7.92558 4.34596 8.34909 4.74291 8.56503C4.78641 10.1229 5.61839 11.522 6.92577 12.3189V13.7965H6.7364C2.9299 13.7965 1 15.3766 1 18.4928V18.9172C1 19.0425 1.10157 19.144 1.22686 19.144H17.3685C17.4938 19.144 17.5953 19.0425 17.5953 18.9172L17.5951 18.4948ZM12.9919 14.3059C12.7943 16.1055 13.2078 16.546 13.8901 17.0945C13.996 17.1796 14.1072 17.2689 14.2205 17.3723C14.7807 17.8838 14.8868 18.1635 14.8868 18.5009V18.6903H9.55379V18.2239C9.55379 17.8358 9.75993 17.4851 10.0792 17.3304C11.1501 16.8109 11.813 15.3461 11.813 14.287C11.813 14.2744 11.8117 14.2622 11.8114 14.2497H11.8565C12.2594 14.2499 12.6356 14.2701 12.9917 14.3059L12.9919 14.3059ZM9.30844 14.924C10.0156 14.924 10.7233 14.7345 11.3549 14.3549L11.3568 14.3538C11.3298 15.274 10.7448 16.5035 9.88126 16.9224C9.65187 17.0338 9.46282 17.2116 9.32755 17.4282C9.19308 17.2119 9.00545 17.0341 8.77748 16.9227C7.92905 16.5083 7.35144 15.3002 7.31333 14.3833C7.93188 14.7424 8.61962 14.924 9.30844 14.924ZM4.54282 7.21122C4.54282 7.00002 4.70356 6.82821 4.90099 6.82821H6.06455C6.18985 6.82821 6.29142 6.72665 6.29142 6.60135C6.29142 6.47605 6.18985 6.37449 6.06455 6.37449H5.03088C5.11235 4.46245 6.3242 2.36136 7.95792 2.11471V2.25931C7.95792 2.38461 8.05949 2.48617 8.18478 2.48617C8.31008 2.48617 8.41165 2.38461 8.41165 2.25931V1.99764C8.41133 1.69769 8.6556 1.45341 8.95589 1.45341H9.69898C9.99925 1.45341 10.2433 1.69767 10.2433 1.99777V2.25943C10.2433 2.38473 10.3449 2.4863 10.4702 2.4863C10.5955 2.4863 10.6971 2.38473 10.6971 2.25943V2.12227C12.4713 2.39074 13.5803 4.44644 13.6527 6.37435H11.5864C11.4611 6.37435 11.3596 6.47591 11.3596 6.60121C11.3596 6.72651 11.4611 6.82808 11.5864 6.82808H13.766C13.9636 6.82808 14.1242 6.99989 14.1242 7.21108V7.44206C14.1242 7.78963 13.905 8.09593 13.5787 8.2041C12.233 8.65102 8.70936 9.54692 5.06235 8.21375C4.75148 8.10016 4.54266 7.79721 4.54266 7.45961L4.54282 7.21122ZM5.20345 8.73993C6.5817 9.20126 7.93436 9.36849 9.1579 9.36849C11.0079 9.36833 12.561 8.99576 13.4651 8.71668C13.3521 10.3761 12.2424 11.81 10.6332 12.3357C10.6212 12.3395 9.41872 12.7 8.03792 12.3368C6.43262 11.8124 5.32508 10.3895 5.20341 8.73994L5.20345 8.73993ZM7.90965 12.7716C8.42586 12.9076 8.91393 12.953 9.33618 12.953C10.1604 12.953 10.7329 12.7795 10.7706 12.7679C10.9324 12.7151 11.088 12.651 11.2403 12.5822V13.8946L11.1215 13.966C9.99683 14.6414 8.60165 14.6377 7.48066 13.957L7.37941 13.8954V12.5584C7.55042 12.6383 7.72619 12.7118 7.90971 12.7715L7.90965 12.7716ZM6.85775 14.2498C6.85728 14.2623 6.85617 14.2745 6.85617 14.2871C6.85617 15.346 7.51462 16.8105 8.57851 17.3302C8.89554 17.4851 9.10027 17.8358 9.10027 18.224L9.10042 18.6902H3.88161V18.501C3.88161 18.1636 3.98777 17.8837 4.5478 17.3724C4.6617 17.2683 4.77371 17.1788 4.88049 17.0932C5.56648 16.5428 5.98144 16.1013 5.78036 14.2916C6.08442 14.2666 6.39956 14.25 6.73636 14.25L6.85775 14.2498ZM1.45305 18.4926C1.45305 16.0453 2.72721 14.6796 5.329 14.3385C5.51426 15.9974 5.14644 16.298 4.5962 16.7394C4.48229 16.8307 4.36317 16.9265 4.24151 17.0376C3.64811 17.5793 3.42754 17.9761 3.42754 18.5011L3.4277 18.6905H1.45301L1.45305 18.4926ZM17.1411 18.6903H15.3402V18.5011C15.3402 17.976 15.1197 17.5794 14.5261 17.0376C14.4052 16.9273 14.2871 16.8319 14.1741 16.7413C13.6282 16.3024 13.2624 16.0029 13.4413 14.3644C15.9237 14.7442 17.141 16.1029 17.141 18.4946L17.1411 18.6903Z" fill="#6AA74D"/>
<path d="M17.5951 18.4948C17.5951 15.3772 15.6644 13.7964 11.8566 13.7964H11.694V12.3477C13.0312 11.5555 13.8883 10.1321 13.9256 8.54472C14.3226 8.32814 14.578 7.90952 14.578 7.44235V7.21138C14.578 6.87789 14.3863 6.59153 14.1115 6.45723C14.0656 4.26502 12.7486 1.87751 10.6318 1.65274C10.4906 1.27273 10.1275 1 9.69907 1H8.95598C8.52851 1 8.16591 1.27147 8.024 1.65006C6.07968 1.84449 4.63246 4.27542 4.57552 6.44605C4.28981 6.57578 4.0892 6.8694 4.0892 7.2113V7.45983C4.0892 7.92558 4.34596 8.34909 4.74291 8.56503C4.78641 10.1229 5.61839 11.522 6.92577 12.3189V13.7965H6.7364C2.9299 13.7965 1 15.3766 1 18.4928V18.9172C1 19.0425 1.10157 19.144 1.22686 19.144H17.3685C17.4938 19.144 17.5953 19.0425 17.5953 18.9172L17.5951 18.4948ZM12.9919 14.3059C12.7943 16.1055 13.2078 16.546 13.8901 17.0945C13.996 17.1796 14.1072 17.2689 14.2205 17.3723C14.7807 17.8838 14.8868 18.1635 14.8868 18.5009V18.6903H9.55379V18.2239C9.55379 17.8358 9.75993 17.4851 10.0792 17.3304C11.1501 16.8109 11.813 15.3461 11.813 14.287C11.813 14.2744 11.8117 14.2622 11.8114 14.2497H11.8565C12.2594 14.2499 12.6356 14.2701 12.9917 14.3059L12.9919 14.3059ZM9.30844 14.924C10.0156 14.924 10.7233 14.7345 11.3549 14.3549L11.3568 14.3538C11.3298 15.274 10.7448 16.5035 9.88126 16.9224C9.65187 17.0338 9.46282 17.2116 9.32755 17.4282C9.19308 17.2119 9.00545 17.0341 8.77748 16.9227C7.92905 16.5083 7.35144 15.3002 7.31333 14.3833C7.93188 14.7424 8.61962 14.924 9.30844 14.924ZM4.54282 7.21122C4.54282 7.00002 4.70356 6.82821 4.90099 6.82821H6.06455C6.18985 6.82821 6.29142 6.72665 6.29142 6.60135C6.29142 6.47605 6.18985 6.37449 6.06455 6.37449H5.03088C5.11235 4.46245 6.3242 2.36136 7.95792 2.11471V2.25931C7.95792 2.38461 8.05949 2.48617 8.18478 2.48617C8.31008 2.48617 8.41165 2.38461 8.41165 2.25931V1.99764C8.41133 1.69769 8.6556 1.45341 8.95589 1.45341H9.69898C9.99925 1.45341 10.2433 1.69767 10.2433 1.99777V2.25943C10.2433 2.38473 10.3449 2.4863 10.4702 2.4863C10.5955 2.4863 10.6971 2.38473 10.6971 2.25943V2.12227C12.4713 2.39074 13.5803 4.44644 13.6527 6.37435H11.5864C11.4611 6.37435 11.3596 6.47591 11.3596 6.60121C11.3596 6.72651 11.4611 6.82808 11.5864 6.82808H13.766C13.9636 6.82808 14.1242 6.99989 14.1242 7.21108V7.44206C14.1242 7.78963 13.905 8.09593 13.5787 8.2041C12.233 8.65102 8.70936 9.54692 5.06235 8.21375C4.75148 8.10016 4.54266 7.79721 4.54266 7.45961L4.54282 7.21122ZM5.20345 8.73993C6.5817 9.20126 7.93436 9.36849 9.1579 9.36849C11.0079 9.36833 12.561 8.99576 13.4651 8.71668C13.3521 10.3761 12.2424 11.81 10.6332 12.3357C10.6212 12.3395 9.41872 12.7 8.03792 12.3368C6.43262 11.8124 5.32508 10.3895 5.20341 8.73994L5.20345 8.73993ZM7.90965 12.7716C8.42586 12.9076 8.91393 12.953 9.33618 12.953C10.1604 12.953 10.7329 12.7795 10.7706 12.7679C10.9324 12.7151 11.088 12.651 11.2403 12.5822V13.8946L11.1215 13.966C9.99683 14.6414 8.60165 14.6377 7.48066 13.957L7.37941 13.8954V12.5584C7.55042 12.6383 7.72619 12.7118 7.90971 12.7715L7.90965 12.7716ZM6.85775 14.2498C6.85728 14.2623 6.85617 14.2745 6.85617 14.2871C6.85617 15.346 7.51462 16.8105 8.57851 17.3302C8.89554 17.4851 9.10027 17.8358 9.10027 18.224L9.10042 18.6902H3.88161V18.501C3.88161 18.1636 3.98777 17.8837 4.5478 17.3724C4.6617 17.2683 4.77371 17.1788 4.88049 17.0932C5.56648 16.5428 5.98144 16.1013 5.78036 14.2916C6.08442 14.2666 6.39956 14.25 6.73636 14.25L6.85775 14.2498ZM1.45305 18.4926C1.45305 16.0453 2.72721 14.6796 5.329 14.3385C5.51426 15.9974 5.14644 16.298 4.5962 16.7394C4.48229 16.8307 4.36317 16.9265 4.24151 17.0376C3.64811 17.5793 3.42754 17.9761 3.42754 18.5011L3.4277 18.6905H1.45301L1.45305 18.4926ZM17.1411 18.6903H15.3402V18.5011C15.3402 17.976 15.1197 17.5794 14.5261 17.0376C14.4052 16.9273 14.2871 16.8319 14.1741 16.7413C13.6282 16.3024 13.2624 16.0029 13.4413 14.3644C15.9237 14.7442 17.141 16.1029 17.141 18.4946L17.1411 18.6903Z" stroke="#6AA74D" stroke-width="0.8" mask="url(#path-1-outside-1_2474_5)"/>
<path d="M8.91699 5.48479H8.10799C7.99301 5.48479 7.91112 5.55299 7.86662 5.61795C7.82148 5.68385 7.8 5.76383 7.8 5.84245L7.8 5.84262C7.80007 5.92119 7.82161 6.00108 7.86671 6.0669C7.91114 6.13173 7.99298 6.2 8.10799 6.2H9.89201C10.007 6.2 10.0889 6.1318 10.1334 6.06684C10.1785 6.00094 10.2 5.92096 10.2 5.84234C10.2 5.76372 10.1785 5.68374 10.1334 5.61784C10.0889 5.55288 10.007 5.48468 9.89201 5.48468H9.53296V3.15766C9.53296 3.07904 9.51147 2.99906 9.46634 2.93316C9.42184 2.8682 9.33995 2.8 9.22497 2.8C9.10999 2.8 9.0281 2.8682 8.98361 2.93316C8.93847 2.99906 8.91699 3.07904 8.91699 3.15766V5.48479Z" fill="#6AA74D" stroke="#6AA74D" stroke-width="0.4"/>
</svg>
