<svg width="17" height="21" viewBox="0 0 17 21" fill="none" xmlns="http://www.w3.org/2000/svg">
<mask id="path-1-outside-1_2474_17" maskUnits="userSpaceOnUse" x="0" y="0" width="17" height="21" fill="black">
<rect fill="white" width="17" height="21"/>
<path fill-rule="evenodd" clip-rule="evenodd" d="M1 8.64606C1 4.42974 4.36495 1 8.50018 1H8.49982C12.635 1 16 4.42974 16 8.64606C16 12.019 11.3804 17.47 9.3939 19.6491C9.16571 19.902 8.84076 20.0465 8.5 20.0465C8.15923 20.0465 7.83431 19.9021 7.60609 19.6491C5.61956 17.47 1 12.0191 1 8.64606ZM8.50018 19.238C8.61132 19.238 8.71751 19.1925 8.79415 19.1119H8.79407C10.2941 17.4599 15.1895 11.8226 15.1895 8.64606C15.1895 4.87787 12.1895 1.81083 8.50014 1.81083C4.81083 1.81083 1.81079 4.87787 1.81079 8.64606C1.81079 11.8224 6.70625 17.4598 8.20621 19.1119C8.28285 19.1925 8.38904 19.238 8.50018 19.238ZM10.6536 7.33384H10.9333C11.1751 7.33441 11.4068 7.43056 11.5777 7.60151C11.7487 7.77261 11.845 8.00422 11.8454 8.24601V9.66493C11.8454 9.8329 11.7094 9.96907 11.5414 9.96907H10.9819C10.8913 10.2391 10.6911 10.4586 10.4303 10.5737C10.1697 10.6888 9.87252 10.6888 9.61192 10.5737C9.3512 10.4586 9.15098 10.2391 9.06034 9.96907H7.94132C7.85068 10.2391 7.65048 10.4586 7.38974 10.5737C7.12915 10.6888 6.83194 10.6888 6.57134 10.5737C6.31062 10.4586 6.1104 10.2391 6.01976 9.96907H5.46025C5.29227 9.96907 5.15625 9.8329 5.15625 9.66493V8.24601C5.15667 8.00421 5.25296 7.7726 5.42391 7.60151C5.59488 7.43056 5.82663 7.33441 6.06842 7.33384H6.3481L7.27241 6.40953C7.32939 6.35241 7.40674 6.32031 7.48734 6.32031H9.51441C9.59501 6.32031 9.67235 6.35241 9.72934 6.40953L10.6536 7.33384ZM6.60596 9.82005C6.66875 9.97163 6.81652 10.0703 6.98054 10.0703C7.088 10.0703 7.1912 10.0276 7.26713 9.95171C7.3432 9.87563 7.38591 9.77256 7.38591 9.66495C7.38591 9.50106 7.28721 9.35316 7.13563 9.29038C6.9842 9.2276 6.80986 9.26239 6.69391 9.37833C6.57796 9.49427 6.54318 9.66861 6.60596 9.82005ZM9.64657 9.82005C9.70937 9.97163 9.85713 10.0703 10.0211 10.0703C10.1286 10.0703 10.2318 10.0276 10.3077 9.95171C10.3838 9.87563 10.4265 9.77256 10.4265 9.66495C10.4265 9.50106 10.3278 9.35316 10.1762 9.29038C10.0248 9.2276 9.85047 9.26239 9.73452 9.37833C9.61858 9.49427 9.58379 9.66861 9.64657 9.82005ZM10.982 9.36092L11.2375 9.36077L11.2375 8.24599C11.2375 8.07801 11.1014 7.94198 10.9334 7.94198H10.528C10.4474 7.94184 10.3701 7.90975 10.3131 7.85276L9.38876 6.92845H7.61308L6.68877 7.85276C6.63178 7.90975 6.55444 7.94184 6.47384 7.94198H6.06846C5.90048 7.94198 5.76432 8.07801 5.76432 8.24599V9.36092H6.01982C6.11046 9.09071 6.31067 8.87126 6.57141 8.75616C6.83199 8.6412 7.12921 8.6412 7.3898 8.75616C7.65053 8.87127 7.85075 9.09071 7.94138 9.36092H9.0604C9.15104 9.09071 9.35125 8.87126 9.61198 8.75616C9.87257 8.6412 10.1698 8.6412 10.4304 8.75616C10.6911 8.87127 10.8913 9.09071 10.982 9.36092Z"/>
</mask>
<path fill-rule="evenodd" clip-rule="evenodd" d="M1 8.64606C1 4.42974 4.36495 1 8.50018 1H8.49982C12.635 1 16 4.42974 16 8.64606C16 12.019 11.3804 17.47 9.3939 19.6491C9.16571 19.902 8.84076 20.0465 8.5 20.0465C8.15923 20.0465 7.83431 19.9021 7.60609 19.6491C5.61956 17.47 1 12.0191 1 8.64606ZM8.50018 19.238C8.61132 19.238 8.71751 19.1925 8.79415 19.1119H8.79407C10.2941 17.4599 15.1895 11.8226 15.1895 8.64606C15.1895 4.87787 12.1895 1.81083 8.50014 1.81083C4.81083 1.81083 1.81079 4.87787 1.81079 8.64606C1.81079 11.8224 6.70625 17.4598 8.20621 19.1119C8.28285 19.1925 8.38904 19.238 8.50018 19.238ZM10.6536 7.33384H10.9333C11.1751 7.33441 11.4068 7.43056 11.5777 7.60151C11.7487 7.77261 11.845 8.00422 11.8454 8.24601V9.66493C11.8454 9.8329 11.7094 9.96907 11.5414 9.96907H10.9819C10.8913 10.2391 10.6911 10.4586 10.4303 10.5737C10.1697 10.6888 9.87252 10.6888 9.61192 10.5737C9.3512 10.4586 9.15098 10.2391 9.06034 9.96907H7.94132C7.85068 10.2391 7.65048 10.4586 7.38974 10.5737C7.12915 10.6888 6.83194 10.6888 6.57134 10.5737C6.31062 10.4586 6.1104 10.2391 6.01976 9.96907H5.46025C5.29227 9.96907 5.15625 9.8329 5.15625 9.66493V8.24601C5.15667 8.00421 5.25296 7.7726 5.42391 7.60151C5.59488 7.43056 5.82663 7.33441 6.06842 7.33384H6.3481L7.27241 6.40953C7.32939 6.35241 7.40674 6.32031 7.48734 6.32031H9.51441C9.59501 6.32031 9.67235 6.35241 9.72934 6.40953L10.6536 7.33384ZM6.60596 9.82005C6.66875 9.97163 6.81652 10.0703 6.98054 10.0703C7.088 10.0703 7.1912 10.0276 7.26713 9.95171C7.3432 9.87563 7.38591 9.77256 7.38591 9.66495C7.38591 9.50106 7.28721 9.35316 7.13563 9.29038C6.9842 9.2276 6.80986 9.26239 6.69391 9.37833C6.57796 9.49427 6.54318 9.66861 6.60596 9.82005ZM9.64657 9.82005C9.70937 9.97163 9.85713 10.0703 10.0211 10.0703C10.1286 10.0703 10.2318 10.0276 10.3077 9.95171C10.3838 9.87563 10.4265 9.77256 10.4265 9.66495C10.4265 9.50106 10.3278 9.35316 10.1762 9.29038C10.0248 9.2276 9.85047 9.26239 9.73452 9.37833C9.61858 9.49427 9.58379 9.66861 9.64657 9.82005ZM10.982 9.36092L11.2375 9.36077L11.2375 8.24599C11.2375 8.07801 11.1014 7.94198 10.9334 7.94198H10.528C10.4474 7.94184 10.3701 7.90975 10.3131 7.85276L9.38876 6.92845H7.61308L6.68877 7.85276C6.63178 7.90975 6.55444 7.94184 6.47384 7.94198H6.06846C5.90048 7.94198 5.76432 8.07801 5.76432 8.24599V9.36092H6.01982C6.11046 9.09071 6.31067 8.87126 6.57141 8.75616C6.83199 8.6412 7.12921 8.6412 7.3898 8.75616C7.65053 8.87127 7.85075 9.09071 7.94138 9.36092H9.0604C9.15104 9.09071 9.35125 8.87126 9.61198 8.75616C9.87257 8.6412 10.1698 8.6412 10.4304 8.75616C10.6911 8.87127 10.8913 9.09071 10.982 9.36092Z" fill="#6AA74D"/>
<path d="M9.3939 19.6491L9.2461 19.5144L9.2454 19.5151L9.3939 19.6491ZM7.60609 19.6491L7.75459 19.5151L7.7539 19.5144L7.60609 19.6491ZM8.79415 19.1119L8.93908 19.2497L9.2603 18.9119H8.79415V19.1119ZM8.79407 19.1119L8.646 18.9775L8.34233 19.3119H8.79407V19.1119ZM8.20621 19.1119L8.0581 19.2464L8.06128 19.2497L8.20621 19.1119ZM10.9333 7.33384L10.9338 7.13384H10.9333V7.33384ZM10.6536 7.33384L10.5122 7.47526L10.5708 7.53384H10.6536V7.33384ZM11.5777 7.60151L11.7192 7.46015L11.7192 7.46009L11.5777 7.60151ZM11.8454 8.24601L12.0454 8.24601L12.0454 8.24566L11.8454 8.24601ZM10.9819 9.96907V9.76907H10.8381L10.7923 9.90543L10.9819 9.96907ZM10.4303 10.5737L10.3496 10.3907L10.3495 10.3907L10.4303 10.5737ZM9.61192 10.5737L9.69273 10.3907L9.6927 10.3907L9.61192 10.5737ZM9.06034 9.96907L9.24995 9.90544L9.20418 9.76907H9.06034V9.96907ZM7.94132 9.96907V9.76907H7.79748L7.75172 9.90543L7.94132 9.96907ZM7.38974 10.5737L7.30897 10.3907L7.30893 10.3907L7.38974 10.5737ZM6.57134 10.5737L6.65215 10.3907L6.65212 10.3907L6.57134 10.5737ZM6.01976 9.96907L6.20937 9.90544L6.1636 9.76907H6.01976V9.96907ZM5.15625 8.24601L4.95625 8.24566V8.24601H5.15625ZM5.42391 7.60151L5.2825 7.46008L5.28243 7.46014L5.42391 7.60151ZM6.06842 7.33384L6.06842 7.13384L6.06795 7.13384L6.06842 7.33384ZM6.3481 7.33384V7.53384H6.43095L6.48952 7.47526L6.3481 7.33384ZM7.27241 6.40953L7.41383 6.55095L7.41401 6.55078L7.27241 6.40953ZM9.72934 6.40953L9.58774 6.55078L9.58792 6.55095L9.72934 6.40953ZM6.60596 9.82005L6.79073 9.7435L6.79071 9.74345L6.60596 9.82005ZM7.26713 9.95171L7.40856 10.0931L7.40856 10.0931L7.26713 9.95171ZM7.13563 9.29038L7.05904 9.47513L7.0591 9.47515L7.13563 9.29038ZM6.69391 9.37833L6.55249 9.2369L6.55249 9.2369L6.69391 9.37833ZM9.64657 9.82005L9.83135 9.7435L9.83133 9.74345L9.64657 9.82005ZM10.3077 9.95171L10.4492 10.0931L10.4492 10.0931L10.3077 9.95171ZM10.1762 9.29038L10.0997 9.47513L10.0997 9.47515L10.1762 9.29038ZM9.73452 9.37833L9.59311 9.2369L9.5931 9.2369L9.73452 9.37833ZM11.2375 9.36077L11.2376 9.56077L11.4375 9.56066L11.4375 9.36078L11.2375 9.36077ZM10.982 9.36092L10.7923 9.42452L10.8381 9.561L10.9821 9.56092L10.982 9.36092ZM11.2375 8.24599L11.4375 8.246V8.24599H11.2375ZM10.528 7.94198L10.5276 8.14198H10.528V7.94198ZM10.3131 7.85276L10.1716 7.99419L10.1716 7.99419L10.3131 7.85276ZM9.38876 6.92845L9.53018 6.78703L9.4716 6.72845H9.38876V6.92845ZM7.61308 6.92845V6.72845H7.53023L7.47166 6.78703L7.61308 6.92845ZM6.68877 7.85276L6.83019 7.99419L6.83019 7.99419L6.68877 7.85276ZM6.47384 7.94198L6.47384 8.14198L6.47419 8.14198L6.47384 7.94198ZM5.76432 9.36092H5.56432V9.56092H5.76432V9.36092ZM6.01982 9.36092V9.56092H6.16369L6.20944 9.42452L6.01982 9.36092ZM6.57141 8.75616L6.49068 8.57317L6.49064 8.57319L6.57141 8.75616ZM7.3898 8.75616L7.47058 8.5732L7.47052 8.57317L7.3898 8.75616ZM7.94138 9.36092L7.75177 9.42452L7.79752 9.56092H7.94138V9.36092ZM9.0604 9.36092V9.56092H9.20427L9.25002 9.42452L9.0604 9.36092ZM9.61198 8.75616L9.53126 8.57317L9.53122 8.57319L9.61198 8.75616ZM10.4304 8.75616L10.5112 8.5732L10.5111 8.57317L10.4304 8.75616ZM8.50018 0.8C4.25089 0.8 0.8 4.32292 0.8 8.64606H1.2C1.2 4.53656 4.47901 1.2 8.50018 1.2V0.8ZM8.49982 1.2H8.50018V0.8H8.49982V1.2ZM16.2 8.64606C16.2 4.32292 12.7491 0.8 8.49982 0.8V1.2C12.521 1.2 15.8 4.53656 15.8 8.64606H16.2ZM9.54171 19.7838C10.5378 18.6912 12.1963 16.7758 13.6071 14.708C14.3125 13.6741 14.9587 12.5981 15.4292 11.5647C15.8984 10.5341 16.2 9.53063 16.2 8.64606H15.8C15.8 9.44794 15.5242 10.3907 15.0651 11.3989C14.6074 12.4043 13.9745 13.4597 13.2767 14.4826C11.881 16.5283 10.2365 18.428 9.2461 19.5144L9.54171 19.7838ZM8.5 20.2465C8.89738 20.2465 9.27629 20.078 9.5424 19.7831L9.2454 19.5151C9.05514 19.726 8.78415 19.8465 8.5 19.8465V20.2465ZM7.4576 19.7831C7.72374 20.0781 8.10262 20.2465 8.5 20.2465V19.8465C8.21585 19.8465 7.94489 19.726 7.75459 19.5151L7.4576 19.7831ZM0.8 8.64606C0.8 9.53067 1.10162 10.5342 1.57082 11.5647C2.04133 12.5981 2.68753 13.6742 3.39288 14.708C4.80364 16.7758 6.46217 18.6911 7.45829 19.7838L7.7539 19.5144C6.76349 18.4279 5.11897 16.5283 3.72331 14.4826C3.02545 13.4597 2.39261 12.4044 1.93487 11.399C1.47583 10.3907 1.2 9.44798 1.2 8.64606H0.8ZM8.64921 18.9741C8.61034 19.015 8.55655 19.038 8.50018 19.038V19.438C8.66609 19.438 8.82468 19.3701 8.93908 19.2497L8.64921 18.9741ZM8.79407 19.3119H8.79415V18.9119H8.79407V19.3119ZM14.9895 8.64606C14.9895 9.39514 14.6989 10.3105 14.221 11.3023C13.745 12.2899 13.0928 13.3343 12.3905 14.3358C10.9862 16.3387 9.3937 18.154 8.646 18.9775L8.94214 19.2464C9.69447 18.4178 11.2997 16.5883 12.718 14.5655C13.4271 13.5542 14.0925 12.4903 14.5813 11.4759C15.0681 10.4657 15.3895 9.48523 15.3895 8.64606H14.9895ZM8.50014 2.01083C12.0749 2.01083 14.9895 4.98421 14.9895 8.64606H15.3895C15.3895 4.77153 12.304 1.61083 8.50014 1.61083V2.01083ZM2.01079 8.64606C2.01079 4.98421 4.92536 2.01083 8.50014 2.01083V1.61083C4.69629 1.61083 1.61079 4.77153 1.61079 8.64606H2.01079ZM8.35429 18.9775C7.60662 18.154 6.01414 16.3387 4.60977 14.3358C3.9075 13.3342 3.25527 12.2899 2.77931 11.3022C2.30136 10.3104 2.01079 9.3951 2.01079 8.64606H1.61079C1.61079 9.48519 1.93215 10.4657 2.41897 11.4759C2.90779 12.4902 3.57317 13.5541 4.28226 14.5654C5.70062 16.5883 7.30585 18.4178 8.05814 19.2464L8.35429 18.9775ZM8.50018 19.038C8.44382 19.038 8.39002 19.015 8.35115 18.9741L8.06128 19.2497C8.17568 19.3701 8.33427 19.438 8.50018 19.438V19.038ZM10.9333 7.13384H10.6536V7.53384H10.9333V7.13384ZM11.7192 7.46009C11.5108 7.25169 11.2284 7.13453 10.9338 7.13384L10.9329 7.53384C11.1219 7.53428 11.3028 7.60942 11.4363 7.74293L11.7192 7.46009ZM12.0454 8.24566C12.0449 7.95087 11.9275 7.6686 11.7192 7.46015L11.4363 7.74286C11.5699 7.87663 11.6451 8.05757 11.6454 8.24636L12.0454 8.24566ZM12.0454 9.66493V8.24601H11.6454V9.66493H12.0454ZM11.5414 10.1691C11.82 10.1691 12.0454 9.94324 12.0454 9.66493H11.6454C11.6454 9.72257 11.5988 9.76907 11.5414 9.76907V10.1691ZM10.9819 10.1691H11.5414V9.76907H10.9819V10.1691ZM10.5111 10.7566C10.8232 10.6189 11.063 10.3561 11.1715 10.0327L10.7923 9.90543C10.7196 10.1222 10.5589 10.2983 10.3496 10.3907L10.5111 10.7566ZM9.53112 10.7566C9.84318 10.8945 10.1991 10.8945 10.5111 10.7566L10.3495 10.3907C10.1404 10.4831 9.90185 10.4831 9.69273 10.3907L9.53112 10.7566ZM8.87073 10.0327C8.97927 10.3561 9.21903 10.6188 9.53115 10.7566L9.6927 10.3907C9.48337 10.2983 9.32268 10.1222 9.24995 9.90544L8.87073 10.0327ZM7.94132 10.1691H9.06034V9.76907H7.94132V10.1691ZM7.47051 10.7566C7.78265 10.6189 8.02239 10.3561 8.13093 10.0327L7.75172 9.90543C7.67898 10.1222 7.5183 10.2983 7.30897 10.3907L7.47051 10.7566ZM6.49054 10.7566C6.80261 10.8945 7.15849 10.8945 7.47055 10.7566L7.30893 10.3907C7.09982 10.4831 6.86127 10.4831 6.65215 10.3907L6.49054 10.7566ZM5.83016 10.0327C5.9387 10.3561 6.17845 10.6188 6.49057 10.7566L6.65212 10.3907C6.44279 10.2983 6.2821 10.1222 6.20937 9.90544L5.83016 10.0327ZM5.46025 10.1691H6.01976V9.76907H5.46025V10.1691ZM4.95625 9.66493C4.95625 9.94324 5.1817 10.1691 5.46025 10.1691V9.76907C5.40285 9.76907 5.35625 9.72257 5.35625 9.66493H4.95625ZM4.95625 8.24601V9.66493H5.35625V8.24601H4.95625ZM5.28243 7.46014C5.07417 7.66858 4.95677 7.95086 4.95625 8.24566L5.35625 8.24636C5.35658 8.05756 5.43175 7.87662 5.56539 7.74287L5.28243 7.46014ZM6.06795 7.13384C5.77337 7.13453 5.49092 7.25168 5.2825 7.46008L5.56533 7.74294C5.69884 7.60944 5.87988 7.53428 6.06888 7.53384L6.06795 7.13384ZM6.3481 7.13384H6.06842V7.53384H6.3481V7.13384ZM7.13099 6.26811L6.20668 7.19242L6.48952 7.47526L7.41383 6.55095L7.13099 6.26811ZM7.48734 6.12031C7.35357 6.12031 7.22529 6.17358 7.13082 6.26829L7.41401 6.55078C7.4335 6.53124 7.45991 6.52031 7.48734 6.52031V6.12031ZM9.51441 6.12031H7.48734V6.52031H9.51441V6.12031ZM9.87093 6.26829C9.77645 6.17357 9.64818 6.12031 9.51441 6.12031V6.52031C9.54184 6.52031 9.56825 6.53124 9.58774 6.55078L9.87093 6.26829ZM10.7951 7.19242L9.87076 6.26811L9.58792 6.55095L10.5122 7.47526L10.7951 7.19242ZM6.98054 9.87032C6.89739 9.87032 6.82256 9.82034 6.79073 9.7435L6.42119 9.89659C6.51494 10.1229 6.73564 10.2703 6.98054 10.2703V9.87032ZM7.12571 9.81029C7.08736 9.84864 7.03506 9.87032 6.98054 9.87032V10.2703C7.14094 10.2703 7.29505 10.2066 7.40856 10.0931L7.12571 9.81029ZM7.18591 9.66495C7.18591 9.71951 7.16428 9.77172 7.12571 9.81029L7.40856 10.0931C7.52213 9.97955 7.58591 9.8256 7.58591 9.66495H7.18591ZM7.0591 9.47515C7.13588 9.50696 7.18591 9.58189 7.18591 9.66495H7.58591C7.58591 9.42023 7.43854 9.19936 7.21216 9.1056L7.0591 9.47515ZM6.83533 9.51975C6.89417 9.46092 6.98249 9.44339 7.05904 9.47513L7.21223 9.10562C6.98591 9.0118 6.72555 9.06386 6.55249 9.2369L6.83533 9.51975ZM6.79071 9.74345C6.75897 9.6669 6.7765 9.57858 6.83533 9.51975L6.55249 9.2369C6.37943 9.40996 6.32738 9.67033 6.42121 9.89664L6.79071 9.74345ZM10.0211 9.87032C9.93801 9.87032 9.86318 9.82034 9.83135 9.7435L9.4618 9.89659C9.55556 10.1229 9.77625 10.2703 10.0211 10.2703V9.87032ZM10.1663 9.81028C10.128 9.84864 10.0757 9.87032 10.0211 9.87032V10.2703C10.1816 10.2703 10.3357 10.2066 10.4492 10.0931L10.1663 9.81028ZM10.2265 9.66495C10.2265 9.71951 10.2049 9.77172 10.1663 9.81029L10.4492 10.0931C10.5627 9.97955 10.6265 9.8256 10.6265 9.66495H10.2265ZM10.0997 9.47515C10.1765 9.50696 10.2265 9.58189 10.2265 9.66495H10.6265C10.6265 9.42022 10.4791 9.19936 10.2528 9.1056L10.0997 9.47515ZM9.87594 9.51975C9.93478 9.46092 10.0231 9.44339 10.0997 9.47513L10.2528 9.10562C10.0265 9.0118 9.76616 9.06386 9.59311 9.2369L9.87594 9.51975ZM9.83133 9.74345C9.79959 9.6669 9.81711 9.57858 9.87594 9.51975L9.5931 9.2369C9.42004 9.40996 9.368 9.67033 9.46182 9.89664L9.83133 9.74345ZM11.2374 9.16078L10.9819 9.16092L10.9821 9.56092L11.2376 9.56077L11.2374 9.16078ZM11.0375 8.24598L11.0375 9.36077L11.4375 9.36078L11.4375 8.246L11.0375 8.24598ZM10.9334 8.14198C10.991 8.14198 11.0375 8.18859 11.0375 8.24599H11.4375C11.4375 7.96743 11.2117 7.74198 10.9334 7.74198V8.14198ZM10.528 8.14198H10.9334V7.74198H10.528V8.14198ZM10.1716 7.99419C10.2661 8.08862 10.3942 8.14175 10.5276 8.14198L10.5283 7.74198C10.5006 7.74194 10.474 7.73088 10.4545 7.71134L10.1716 7.99419ZM9.24734 7.06987L10.1716 7.99419L10.4545 7.71134L9.53018 6.78703L9.24734 7.06987ZM7.61308 7.12845H9.38876V6.72845H7.61308V7.12845ZM6.83019 7.99419L7.7545 7.06987L7.47166 6.78703L6.54735 7.71134L6.83019 7.99419ZM6.47419 8.14198C6.60768 8.14175 6.73576 8.08862 6.83019 7.99419L6.54735 7.71134C6.52781 7.73088 6.50121 7.74194 6.47349 7.74198L6.47419 8.14198ZM6.06846 8.14198H6.47384V7.74198H6.06846V8.14198ZM5.96432 8.24599C5.96432 8.18859 6.01082 8.14198 6.06846 8.14198V7.74198C5.79015 7.74198 5.56432 7.96743 5.56432 8.24599H5.96432ZM5.96432 9.36092V8.24599H5.56432V9.36092H5.96432ZM6.01982 9.16092H5.76432V9.56092H6.01982V9.16092ZM6.49064 8.57319C6.17848 8.71099 5.93874 8.97375 5.83021 9.29731L6.20944 9.42452C6.28218 9.20766 6.44286 9.03152 6.65217 8.93913L6.49064 8.57319ZM7.47052 8.57317C7.15851 8.43553 6.8027 8.43553 6.49068 8.57317L6.65213 8.93915C6.86129 8.84687 7.09991 8.84687 7.30908 8.93915L7.47052 8.57317ZM8.131 9.29731C8.02247 8.97374 7.78271 8.711 7.47058 8.5732L7.30903 8.93912C7.51834 9.03154 7.67903 9.20767 7.75177 9.42452L8.131 9.29731ZM9.0604 9.16092H7.94138V9.56092H9.0604V9.16092ZM9.53122 8.57319C9.21906 8.71099 8.97932 8.97375 8.87079 9.29731L9.25002 9.42452C9.32276 9.20766 9.48344 9.03152 9.69275 8.93913L9.53122 8.57319ZM10.5111 8.57317C10.1991 8.43553 9.84327 8.43553 9.53126 8.57317L9.69271 8.93915C9.90187 8.84687 10.1405 8.84687 10.3497 8.93915L10.5111 8.57317ZM11.1716 9.29731C11.063 8.97374 10.8233 8.711 10.5112 8.5732L10.3496 8.93912C10.5589 9.03154 10.7196 9.20767 10.7923 9.42452L11.1716 9.29731Z" fill="#6AA74D" mask="url(#path-1-outside-1_2474_17)"/>
</svg>
