<svg width="23" height="20" viewBox="0 0 23 20" fill="none" xmlns="http://www.w3.org/2000/svg">
<mask id="path-1-outside-1_2474_25" maskUnits="userSpaceOnUse" x="0" y="0.000244141" width="23" height="20" fill="black">
<rect fill="white" y="0.000244141" width="23" height="20"/>
<path fill-rule="evenodd" clip-rule="evenodd" d="M1.33854 19.0664C1.15172 19.0664 1.00028 18.9147 1.00028 18.7281L1 18.7279C1 18.5411 1.15121 18.3897 1.33778 18.3899H2.08125V11.0615C2.08125 10.8747 2.23293 10.7233 2.4195 10.7233H8.49609V4.60744C8.49609 4.48124 8.56591 4.36566 8.67796 4.3074L14.9568 1.03831C15.0616 0.983823 15.1875 0.987597 15.2882 1.04916C15.3892 1.11049 15.451 1.21994 15.451 1.33835V8.34004L20.9737 8.33981C21.1605 8.33981 21.3119 8.49148 21.3119 8.67806V18.3899H21.9372C22.124 18.3899 22.2755 18.5415 22.2755 18.7281C22.2755 18.9149 22.1238 19.0664 21.9372 19.0664H1.33854ZM20.6358 13.463H15.4511V18.3899L20.6358 18.3901V13.463ZM20.6358 11.1125H15.4511V12.7865L20.6358 12.7868V11.1125ZM20.6358 9.0162H15.4511V10.4365H20.6358V9.0162ZM14.7744 1.89591L9.17225 4.81283V18.3896H14.7744V1.89591ZM5.66989 14.415C4.98608 14.415 4.42988 14.9863 4.42988 15.6882V18.39H6.91015V15.6882C6.91015 14.986 6.3537 14.415 5.66989 14.415ZM8.49599 11.3997H2.75774V18.3899H3.75362V15.6881C3.75362 14.613 4.61315 13.7386 5.66989 13.7386C6.72712 13.7386 7.58664 14.6132 7.58664 15.6881V18.3899H8.49599V11.3997ZM12.1689 6.64751C12.1689 6.83433 12.3206 6.98577 12.5072 6.98577C12.6938 6.98577 12.8455 6.83433 12.8455 6.64751V6.07267C12.8455 5.88585 12.6938 5.73442 12.5072 5.73442C12.3204 5.73442 12.1689 5.88609 12.1689 6.07267V6.64751ZM12.1689 8.99884C12.1689 9.18566 12.3206 9.3371 12.5072 9.3371C12.6938 9.3371 12.8455 9.18566 12.8455 8.99884V8.42424C12.8455 8.23742 12.6938 8.08598 12.5072 8.08598C12.3204 8.08598 12.1689 8.23766 12.1689 8.42424V8.99884ZM12.5072 11.6869C12.3206 11.6869 12.1689 11.5355 12.1689 11.3487V10.7738C12.1689 10.5873 12.3204 10.4356 12.5072 10.4356C12.6938 10.4356 12.8455 10.587 12.8455 10.7738V11.3487C12.8455 11.5355 12.6938 11.6869 12.5072 11.6869ZM12.1689 13.7002C12.1689 13.8871 12.3206 14.0385 12.5072 14.0385C12.6938 14.0385 12.8455 13.8871 12.8455 13.7002V13.1254C12.8455 12.9386 12.6938 12.7872 12.5072 12.7872C12.3204 12.7872 12.1689 12.9388 12.1689 13.1254V13.7002ZM12.5072 16.3898C12.3206 16.3898 12.1689 16.2384 12.1689 16.0516V15.477C12.1689 15.2904 12.3204 15.1387 12.5072 15.1387C12.6938 15.1387 12.8455 15.2902 12.8455 15.477V16.0516C12.8455 16.2382 12.6938 16.3898 12.5072 16.3898Z"/>
</mask>
<path fill-rule="evenodd" clip-rule="evenodd" d="M1.33854 19.0664C1.15172 19.0664 1.00028 18.9147 1.00028 18.7281L1 18.7279C1 18.5411 1.15121 18.3897 1.33778 18.3899H2.08125V11.0615C2.08125 10.8747 2.23293 10.7233 2.4195 10.7233H8.49609V4.60744C8.49609 4.48124 8.56591 4.36566 8.67796 4.3074L14.9568 1.03831C15.0616 0.983823 15.1875 0.987597 15.2882 1.04916C15.3892 1.11049 15.451 1.21994 15.451 1.33835V8.34004L20.9737 8.33981C21.1605 8.33981 21.3119 8.49148 21.3119 8.67806V18.3899H21.9372C22.124 18.3899 22.2755 18.5415 22.2755 18.7281C22.2755 18.9149 22.1238 19.0664 21.9372 19.0664H1.33854ZM20.6358 13.463H15.4511V18.3899L20.6358 18.3901V13.463ZM20.6358 11.1125H15.4511V12.7865L20.6358 12.7868V11.1125ZM20.6358 9.0162H15.4511V10.4365H20.6358V9.0162ZM14.7744 1.89591L9.17225 4.81283V18.3896H14.7744V1.89591ZM5.66989 14.415C4.98608 14.415 4.42988 14.9863 4.42988 15.6882V18.39H6.91015V15.6882C6.91015 14.986 6.3537 14.415 5.66989 14.415ZM8.49599 11.3997H2.75774V18.3899H3.75362V15.6881C3.75362 14.613 4.61315 13.7386 5.66989 13.7386C6.72712 13.7386 7.58664 14.6132 7.58664 15.6881V18.3899H8.49599V11.3997ZM12.1689 6.64751C12.1689 6.83433 12.3206 6.98577 12.5072 6.98577C12.6938 6.98577 12.8455 6.83433 12.8455 6.64751V6.07267C12.8455 5.88585 12.6938 5.73442 12.5072 5.73442C12.3204 5.73442 12.1689 5.88609 12.1689 6.07267V6.64751ZM12.1689 8.99884C12.1689 9.18566 12.3206 9.3371 12.5072 9.3371C12.6938 9.3371 12.8455 9.18566 12.8455 8.99884V8.42424C12.8455 8.23742 12.6938 8.08598 12.5072 8.08598C12.3204 8.08598 12.1689 8.23766 12.1689 8.42424V8.99884ZM12.5072 11.6869C12.3206 11.6869 12.1689 11.5355 12.1689 11.3487V10.7738C12.1689 10.5873 12.3204 10.4356 12.5072 10.4356C12.6938 10.4356 12.8455 10.587 12.8455 10.7738V11.3487C12.8455 11.5355 12.6938 11.6869 12.5072 11.6869ZM12.1689 13.7002C12.1689 13.8871 12.3206 14.0385 12.5072 14.0385C12.6938 14.0385 12.8455 13.8871 12.8455 13.7002V13.1254C12.8455 12.9386 12.6938 12.7872 12.5072 12.7872C12.3204 12.7872 12.1689 12.9388 12.1689 13.1254V13.7002ZM12.5072 16.3898C12.3206 16.3898 12.1689 16.2384 12.1689 16.0516V15.477C12.1689 15.2904 12.3204 15.1387 12.5072 15.1387C12.6938 15.1387 12.8455 15.2902 12.8455 15.477V16.0516C12.8455 16.2382 12.6938 16.3898 12.5072 16.3898Z" fill="#6AA74D"/>
<path d="M1.00028 18.7281H1.30028V18.5637L1.16173 18.4753L1.00028 18.7281ZM1 18.7279H0.7V18.8923L0.838556 18.9808L1 18.7279ZM1.33778 18.3899L1.3374 18.6899H1.33778V18.3899ZM2.08125 18.3899V18.6899H2.38125V18.3899H2.08125ZM8.49609 10.7233V11.0233H8.79609V10.7233H8.49609ZM8.67796 4.3074L8.81636 4.57356L8.8165 4.57349L8.67796 4.3074ZM14.9568 1.03831L14.8184 0.772171L14.8183 0.772215L14.9568 1.03831ZM15.2882 1.04916L15.1318 1.30513L15.1325 1.30555L15.2882 1.04916ZM15.451 8.34004H15.151V8.64006L15.451 8.64004L15.451 8.34004ZM20.9737 8.33981L20.9737 8.03981L20.9737 8.03981L20.9737 8.33981ZM21.3119 18.3899H21.0119V18.6899H21.3119V18.3899ZM15.4511 13.463V13.163H15.1511V13.463H15.4511ZM20.6358 13.463H20.9358V13.163H20.6358V13.463ZM15.4511 18.3899H15.1511V18.6899L15.4511 18.6899L15.4511 18.3899ZM20.6358 18.3901L20.6357 18.6901L20.9358 18.6901V18.3901H20.6358ZM15.4511 11.1125V10.8125H15.1511V11.1125H15.4511ZM20.6358 11.1125H20.9358V10.8125H20.6358V11.1125ZM15.4511 12.7865H15.1511V13.0865L15.4511 13.0865L15.4511 12.7865ZM20.6358 12.7868L20.6357 13.0868L20.9358 13.0868V12.7868H20.6358ZM15.4511 9.0162V8.7162H15.1511V9.0162H15.4511ZM20.6358 9.0162H20.9358V8.7162H20.6358V9.0162ZM15.4511 10.4365H15.1511V10.7365H15.4511V10.4365ZM20.6358 10.4365V10.7365H20.9358V10.4365H20.6358ZM9.17225 4.81283L9.0337 4.54674L8.87225 4.6308V4.81283H9.17225ZM14.7744 1.89591H15.0744V1.40147L14.6358 1.62982L14.7744 1.89591ZM9.17225 18.3896H8.87225V18.6896H9.17225V18.3896ZM14.7744 18.3896V18.6896H15.0744V18.3896H14.7744ZM4.42988 18.39H4.12988V18.69H4.42988V18.39ZM6.91015 18.39V18.69H7.21015V18.39H6.91015ZM2.75774 11.3997V11.0997H2.45774V11.3997H2.75774ZM8.49599 11.3997H8.79599V11.0997H8.49599V11.3997ZM2.75774 18.3899H2.45774V18.6899H2.75774V18.3899ZM3.75362 18.3899V18.6899H4.05362V18.3899H3.75362ZM7.58664 18.3899H7.28664V18.6899H7.58664V18.3899ZM8.49599 18.3899V18.6899H8.79599V18.3899H8.49599ZM0.700284 18.7281C0.700284 19.0802 0.985897 19.3664 1.33854 19.3664V18.7664C1.31754 18.7664 1.30028 18.7491 1.30028 18.7281H0.700284ZM0.838556 18.9808L0.83884 18.981L1.16173 18.4753L1.16144 18.4751L0.838556 18.9808ZM1.33817 18.0899C0.985127 18.0895 0.7 18.3759 0.7 18.7279H1.3C1.3 18.7063 1.31728 18.6899 1.3374 18.6899L1.33817 18.0899ZM2.08125 18.0899H1.33778V18.6899H2.08125V18.0899ZM1.78125 11.0615V18.3899H2.38125V11.0615H1.78125ZM2.4195 10.4233C2.06738 10.4233 1.78125 10.7089 1.78125 11.0615H2.38125C2.38125 11.0405 2.39847 11.0233 2.4195 11.0233V10.4233ZM8.49609 10.4233H2.4195V11.0233H8.49609V10.4233ZM8.19609 4.60744V10.7233H8.79609V4.60744H8.19609ZM8.53955 4.04123C8.32773 4.15137 8.19609 4.36986 8.19609 4.60744H8.79609C8.79609 4.59262 8.80409 4.57994 8.81636 4.57356L8.53955 4.04123ZM14.8183 0.772215L8.53941 4.0413L8.8165 4.57349L15.0954 1.3044L14.8183 0.772215ZM15.4447 0.793187C15.2533 0.676185 15.0154 0.66968 14.8184 0.772171L15.0953 1.30445C15.1078 1.29797 15.1218 1.29901 15.1318 1.30513L15.4447 0.793187ZM15.751 1.33835C15.751 1.11489 15.6343 0.908372 15.444 0.792765L15.1325 1.30555C15.1441 1.31261 15.151 1.32499 15.151 1.33835H15.751ZM15.751 8.34004V1.33835H15.151V8.34004H15.751ZM20.9737 8.03981L15.451 8.04004L15.451 8.64004L20.9737 8.63981L20.9737 8.03981ZM21.6119 8.67806C21.6119 8.32594 21.3263 8.03981 20.9737 8.03981V8.63981C20.9947 8.63981 21.0119 8.65703 21.0119 8.67806H21.6119ZM21.6119 18.3899V8.67806H21.0119V18.3899H21.6119ZM21.9372 18.0899H21.3119V18.6899H21.9372V18.0899ZM22.5755 18.7281C22.5755 18.376 22.2899 18.0899 21.9372 18.0899V18.6899C21.9582 18.6899 21.9755 18.7071 21.9755 18.7281H22.5755ZM21.9372 19.3664C22.2893 19.3664 22.5755 19.0808 22.5755 18.7281H21.9755C21.9755 18.7491 21.9583 18.7664 21.9372 18.7664V19.3664ZM1.33854 19.3664H21.9372V18.7664H1.33854V19.3664ZM15.4511 13.763H20.6358V13.163H15.4511V13.763ZM15.7511 18.3899V13.463H15.1511V18.3899H15.7511ZM20.6358 18.0901L15.4511 18.0899L15.4511 18.6899L20.6357 18.6901L20.6358 18.0901ZM20.3358 13.463V18.3901H20.9358V13.463H20.3358ZM15.4511 11.4125H20.6358V10.8125H15.4511V11.4125ZM15.7511 12.7865V11.1125H15.1511V12.7865H15.7511ZM20.6358 12.4868L15.4511 12.4865L15.4511 13.0865L20.6357 13.0868L20.6358 12.4868ZM20.3358 11.1125V12.7868H20.9358V11.1125H20.3358ZM15.4511 9.3162H20.6358V8.7162H15.4511V9.3162ZM15.7511 10.4365V9.0162H15.1511V10.4365H15.7511ZM20.6358 10.1365H15.4511V10.7365H20.6358V10.1365ZM20.3358 9.0162V10.4365H20.9358V9.0162H20.3358ZM9.3108 5.07892L14.9129 2.162L14.6358 1.62982L9.0337 4.54674L9.3108 5.07892ZM9.47225 18.3896V4.81283H8.87225V18.3896H9.47225ZM14.7744 18.0896H9.17225V18.6896H14.7744V18.0896ZM14.4744 1.89591V18.3896H15.0744V1.89591H14.4744ZM4.72988 15.6882C4.72988 15.1444 5.15923 14.715 5.66989 14.715V14.115C4.81293 14.115 4.12988 14.8281 4.12988 15.6882H4.72988ZM4.72988 18.39V15.6882H4.12988V18.39H4.72988ZM6.91015 18.09H4.42988V18.69H6.91015V18.09ZM6.61015 15.6882V18.39H7.21015V15.6882H6.61015ZM5.66989 14.715C6.18066 14.715 6.61015 15.1443 6.61015 15.6882H7.21015C7.21015 14.8278 6.52674 14.115 5.66989 14.115V14.715ZM2.75774 11.6997H8.49599V11.0997H2.75774V11.6997ZM3.05774 18.3899V11.3997H2.45774V18.3899H3.05774ZM3.75362 18.0899H2.75774V18.6899H3.75362V18.0899ZM3.45362 15.6881V18.3899H4.05362V15.6881H3.45362ZM5.66989 13.4386C4.44262 13.4386 3.45362 14.4522 3.45362 15.6881H4.05362C4.05362 14.7738 4.78367 14.0386 5.66989 14.0386V13.4386ZM7.88664 15.6881C7.88664 14.4524 6.89762 13.4386 5.66989 13.4386V14.0386C6.55662 14.0386 7.28664 14.774 7.28664 15.6881H7.88664ZM7.88664 18.3899V15.6881H7.28664V18.3899H7.88664ZM8.49599 18.0899H7.58664V18.6899H8.49599V18.0899ZM8.19599 11.3997V18.3899H8.79599V11.3997H8.19599ZM12.5072 6.68577C12.4862 6.68577 12.4689 6.66851 12.4689 6.64751H11.8689C11.8689 7.00016 12.1551 7.28577 12.5072 7.28577V6.68577ZM12.5455 6.64751C12.5455 6.66851 12.5282 6.68577 12.5072 6.68577V7.28577C12.8593 7.28577 13.1455 7.00015 13.1455 6.64751H12.5455ZM12.5455 6.07267V6.64751H13.1455V6.07267H12.5455ZM12.5072 6.03442C12.5282 6.03442 12.5455 6.05168 12.5455 6.07267H13.1455C13.1455 5.72003 12.8593 5.43442 12.5072 5.43442V6.03442ZM12.4689 6.07267C12.4689 6.05164 12.4862 6.03442 12.5072 6.03442V5.43442C12.1546 5.43442 11.8689 5.72055 11.8689 6.07267H12.4689ZM12.4689 6.64751V6.07267H11.8689V6.64751H12.4689ZM12.5072 9.0371C12.4862 9.0371 12.4689 9.01984 12.4689 8.99884H11.8689C11.8689 9.35149 12.1551 9.6371 12.5072 9.6371V9.0371ZM12.5455 8.99884C12.5455 9.01984 12.5282 9.0371 12.5072 9.0371V9.6371C12.8593 9.6371 13.1455 9.35148 13.1455 8.99884H12.5455ZM12.5455 8.42424V8.99884H13.1455V8.42424H12.5455ZM12.5072 8.38598C12.5282 8.38598 12.5455 8.40324 12.5455 8.42424H13.1455C13.1455 8.07159 12.8593 7.78598 12.5072 7.78598V8.38598ZM12.4689 8.42424C12.4689 8.4032 12.4862 8.38598 12.5072 8.38598V7.78598C12.1546 7.78598 11.8689 8.07211 11.8689 8.42424H12.4689ZM12.4689 8.99884V8.42424H11.8689V8.99884H12.4689ZM11.8689 11.3487C11.8689 11.7013 12.1551 11.9869 12.5072 11.9869V11.3869C12.4862 11.3869 12.4689 11.3697 12.4689 11.3487H11.8689ZM11.8689 10.7738V11.3487H12.4689V10.7738H11.8689ZM12.5072 10.1356C12.1546 10.1356 11.8689 10.4217 11.8689 10.7738H12.4689C12.4689 10.7528 12.4862 10.7356 12.5072 10.7356V10.1356ZM13.1455 10.7738C13.1455 10.4212 12.8593 10.1356 12.5072 10.1356V10.7356C12.5282 10.7356 12.5455 10.7529 12.5455 10.7738H13.1455ZM13.1455 11.3487V10.7738H12.5455V11.3487H13.1455ZM12.5072 11.9869C12.8593 11.9869 13.1455 11.7013 13.1455 11.3487H12.5455C12.5455 11.3697 12.5282 11.3869 12.5072 11.3869V11.9869ZM12.5072 13.7385C12.4862 13.7385 12.4689 13.7212 12.4689 13.7002H11.8689C11.8689 14.0529 12.1551 14.3385 12.5072 14.3385V13.7385ZM12.5455 13.7002C12.5455 13.7212 12.5282 13.7385 12.5072 13.7385V14.3385C12.8593 14.3385 13.1455 14.0529 13.1455 13.7002H12.5455ZM12.5455 13.1254V13.7002H13.1455V13.1254H12.5455ZM12.5072 13.0872C12.5282 13.0872 12.5455 13.1044 12.5455 13.1254H13.1455C13.1455 12.7728 12.8593 12.4872 12.5072 12.4872V13.0872ZM12.4689 13.1254C12.4689 13.1044 12.4862 13.0872 12.5072 13.0872V12.4872C12.1546 12.4872 11.8689 12.7733 11.8689 13.1254H12.4689ZM12.4689 13.7002V13.1254H11.8689V13.7002H12.4689ZM11.8689 16.0516C11.8689 16.4042 12.1551 16.6898 12.5072 16.6898V16.0898C12.4862 16.0898 12.4689 16.0726 12.4689 16.0516H11.8689ZM11.8689 15.477V16.0516H12.4689V15.477H11.8689ZM12.5072 14.8387C12.1546 14.8387 11.8689 15.1248 11.8689 15.477H12.4689C12.4689 15.4559 12.4862 15.4387 12.5072 15.4387V14.8387ZM13.1455 15.477C13.1455 15.1243 12.8593 14.8387 12.5072 14.8387V15.4387C12.5282 15.4387 12.5455 15.456 12.5455 15.477H13.1455ZM13.1455 16.0516V15.477H12.5455V16.0516H13.1455ZM12.5072 16.6898C12.8595 16.6898 13.1455 16.4038 13.1455 16.0516H12.5455C12.5455 16.0725 12.5281 16.0898 12.5072 16.0898V16.6898Z" fill="#6AA74D" mask="url(#path-1-outside-1_2474_25)"/>
</svg>
