<svg width="16" height="17" viewBox="0 0 16 17" fill="none" xmlns="http://www.w3.org/2000/svg">
<path d="M15.7773 13.6295C16.071 13.3359 16.071 12.861 15.7804 12.5705L13.6435 10.4336C13.3467 10.1368 12.8531 10.1274 12.5626 10.4336C12.2783 10.7272 12.2845 11.1959 12.572 11.4833L13.4405 12.3487H5.23021C4.35546 12.3487 3.64629 11.6395 3.64629 10.7647V2.55763L4.51167 3.42302C4.80222 3.71668 5.27708 3.72293 5.57074 3.43239C5.8644 3.14185 5.87066 2.66698 5.58012 2.37332L5.57074 2.36395L3.42135 0.217666C3.1308 -0.0728808 2.65594 -0.0728808 2.36539 0.217666L0.219111 2.36395C-0.0682939 2.65135 -0.0745491 3.11999 0.209739 3.41365C0.500285 3.71668 0.993889 3.71045 1.29069 3.41365L2.14356 2.55763V10.7647C2.14356 12.4674 3.52443 13.8482 5.22698 13.8482H13.4372L12.5687 14.7135C12.2719 15.0009 12.2626 15.4758 12.55 15.7726C12.8374 16.0694 13.3123 16.0788 13.6091 15.7914L13.6278 15.7726L15.7773 13.6295Z" fill="#6AA74D"/>
<path d="M15.2498 9.40339C15.6653 9.40339 15.9995 9.06911 15.9995 8.6536V3.08317C15.9964 1.38054 14.6156 0.00289783 12.913 -0.000244141H7.34256C6.92705 -0.000244141 6.59277 0.334033 6.59277 0.749544C6.59277 1.16506 6.92705 1.49933 7.34256 1.49933H12.913C13.7877 1.49933 14.4969 2.2085 14.4969 3.08326V8.65368C14.5 9.0692 14.8342 9.40339 15.2498 9.40339Z" fill="#6AA74D"/>
</svg>
