<svg width="18" height="14" viewBox="0 0 18 14" fill="none" xmlns="http://www.w3.org/2000/svg">
<path d="M16.3636 12.4444H18V14H0V12.4444H1.63636V0.777778C1.63636 0.571498 1.72256 0.373667 1.876 0.227806C2.02944 0.0819442 2.23755 0 2.45455 0H10.6364C10.8534 0 11.0615 0.0819442 11.2149 0.227806C11.3683 0.373667 11.4545 0.571498 11.4545 0.777778V12.4444H14.7273V6.22222H13.0909V4.66667H15.5455C15.7625 4.66667 15.9706 4.74861 16.124 4.89447C16.2774 5.04033 16.3636 5.23816 16.3636 5.44444V12.4444ZM3.27273 1.55556V12.4444H9.81818V1.55556H3.27273ZM4.90909 6.22222H8.18182V7.77778H4.90909V6.22222ZM4.90909 3.11111H8.18182V4.66667H4.90909V3.11111Z" fill="#6AA74D"/>
</svg>
