<svg width="16" height="18" viewBox="0 0 16 18" fill="none" xmlns="http://www.w3.org/2000/svg">
<path d="M7.76845 0L0 1.7052V6.27153C0 10.0421 1.79997 13.6042 4.8316 15.84L7.76848 18L10.7054 15.84C13.7369 13.6231 15.537 10.0421 15.537 6.27153V1.7052L7.76845 0ZM14.2295 6.2716C14.2295 9.60632 12.6189 12.7895 9.92846 14.779L7.76845 16.3706L5.60844 14.779C2.91791 12.8084 1.30737 9.6253 1.30737 6.2716V2.76633L7.76845 1.34527L14.2295 2.76633V6.2716Z" fill="#6AA74D"/>
<path d="M5.74079 6.02549V7.0297H5.22918C5.03965 7.0297 4.86914 7.1813 4.86914 7.38974V10.8382C4.86914 11.0277 5.02074 11.1982 5.22918 11.1982H10.3071C10.4966 11.1982 10.6671 11.0466 10.6671 10.8382L10.6673 7.38974C10.6673 7.20021 10.5157 7.0297 10.3072 7.0297H9.79561V6.02549C9.79561 4.90763 8.88616 3.99805 7.76816 3.99805C6.65043 3.99818 5.74086 4.90763 5.74086 6.02549H5.74079ZM8.20399 9.90972C8.24192 10.0234 8.14716 10.137 8.03349 10.137H7.50297C7.3893 10.137 7.29454 10.0234 7.33247 9.90972L7.50297 9.26554C7.29454 9.17077 7.16198 8.96235 7.16198 8.71613C7.16198 8.37514 7.44614 8.10974 7.76837 8.10974C8.10935 8.10974 8.37475 8.3939 8.37475 8.71613C8.37475 8.96249 8.24206 9.15189 8.03377 9.26554L8.20399 9.90972ZM8.79133 6.02549V7.0297L6.74511 7.02984V6.02562C6.74511 5.45717 7.19988 5.00253 7.7682 5.00253C8.33666 5.0024 8.79133 5.47608 8.79133 6.02549Z" fill="#6AA74D"/>
</svg>
