<svg width="16" height="20" viewBox="0 0 16 20" fill="none" xmlns="http://www.w3.org/2000/svg">
<path d="M14.3615 0.9H14.4189C14.7828 0.9 15.0819 1.19887 15.0818 1.56299L14.3615 0.9ZM14.3615 0.9L14.3614 0.900191M14.3615 0.9L14.3614 0.900191M14.3614 0.900191H6.53827C6.17433 0.900191 5.87543 1.19927 5.87543 1.56303C5.87543 1.92698 6.17451 2.22587 6.53827 2.22587H9.81574V4.00512H3.43326C2.03426 4.00512 0.9 5.13939 0.9 6.53839V11.0415C0.9 11.4054 1.19908 11.7043 1.56284 11.7043H5.32166C5.68561 11.7043 5.9845 11.4053 5.9845 11.0415L5.98465 8.88986H14.4372C14.8011 8.88986 15.1 8.59078 15.1 8.22702V4.66792C15.1 4.30398 14.8009 4.00509 14.4372 4.00509L11.1415 4.00494V2.22583H14.4189C14.7828 2.22583 15.0817 1.92679 15.0818 1.56304L14.3614 0.900191ZM13.756 7.56438H5.32135C4.95741 7.56438 4.65851 7.86345 4.65851 8.22722V10.3788H2.22552V6.53839C2.22552 5.86724 2.76184 5.33092 3.43299 5.33092H13.7559L13.756 7.56438Z" fill="#6AA74D" stroke="#6AA74D" stroke-width="0.2"/>
<path d="M2.79348 16.996C2.75285 17.1272 2.73441 17.2191 2.73441 17.2709C2.73441 17.6514 3.05286 17.9698 3.43343 17.9699L2.79348 16.996ZM2.79348 16.996C2.83316 16.8679 2.89101 16.7114 2.96305 16.5346M2.79348 16.996L2.96305 16.5346M2.96305 16.5346C3.08703 16.2305 3.25146 15.8704 3.43342 15.4989M2.96305 16.5346L3.43342 15.4989M3.43342 15.4989C3.61533 15.8704 3.77976 16.2305 3.90375 16.5346C3.9758 16.7114 4.03367 16.8679 4.07336 16.996C4.11401 17.1272 4.13246 17.2191 4.13246 17.2709C4.13246 17.6514 3.81412 17.9699 3.43347 17.9699L3.43342 15.4989ZM3.99333 13.8092L3.99335 13.8092L3.99236 13.8075L3.84705 13.5532C3.66335 13.2317 3.20339 13.2317 3.01967 13.5532L3.01967 13.5532L2.87436 13.8075L2.87434 13.8075L2.87339 13.8092L2.87318 13.8096C2.7097 14.1094 2.35437 14.7608 2.03976 15.4402C1.88242 15.78 1.73449 16.1284 1.6257 16.4445C1.51782 16.7579 1.44492 17.0491 1.44492 17.2709C1.44492 18.3612 2.34316 19.2594 3.43344 19.2594H3.43345C4.54245 19.2592 5.42179 18.3604 5.42179 17.2709C5.42179 17.0491 5.34889 16.7579 5.24101 16.4445C5.13222 16.1285 4.98429 15.7801 4.82694 15.4403C4.51295 14.7622 4.15839 14.112 3.9945 13.8114L3.99333 13.8092Z" fill="#6AA74D" stroke="#6AA74D" stroke-width="0.2"/>
</svg>
