<svg width="24" height="24" viewBox="0 0 24 24" fill="none" xmlns="http://www.w3.org/2000/svg">
<path d="M22.7222 20.8005L18.5472 16.6252C18.3689 16.4464 18.1313 16.3479 17.8783 16.3479C17.6254 16.3479 17.3881 16.4464 17.2093 16.625L17.0639 16.7703L13.1149 12.8216C15.5205 10.1839 15.3378 5.96552 12.6487 3.27618C9.88544 0.512486 5.50716 0.394666 2.8892 3.01284C0.270801 5.63124 0.388817 10.0092 3.15217 12.7729C4.48838 14.1093 6.23765 14.8739 8.07765 14.9259C8.14449 14.9276 8.21076 14.9285 8.27721 14.9285C9.94665 14.9285 11.499 14.3342 12.6974 13.2398L16.6462 17.1883L16.5007 17.3338C16.132 17.7026 16.132 18.3026 16.5007 18.6713L20.6764 22.8471C20.8609 23.0315 21.1033 23.1238 21.3454 23.1238C21.5878 23.1238 21.8299 23.0314 22.0144 22.8473L22.7227 22.138C22.9018 21.9593 23 21.7213 23 21.4685C22.9996 21.216 22.9011 20.9786 22.7221 20.8003L22.7222 20.8005ZM14.0714 9.70924L12.3869 8.0247L13.9204 6.49123C14.2454 7.54882 14.2977 8.66005 14.0714 9.70924ZM13.6987 5.87724L11.9692 7.60666L10.3527 5.99012L12.4351 3.90797C12.9826 4.50436 13.404 5.17315 13.6987 5.87724ZM7.48254 8.02451L5.8658 9.64124L4.24927 8.0247L5.86639 6.40758L7.48254 8.02451ZM6.28399 5.98993L7.90033 4.37359L9.51687 5.99012L7.90053 7.60666L6.28399 5.98993ZM7.90033 8.44216L9.51707 10.0589L7.90033 11.6756L6.2836 10.0589L7.90033 8.44216ZM8.31818 8.02451L9.93471 6.40797L11.5512 8.02451L9.93491 9.64124L8.31818 8.02451ZM12.0169 3.49032L9.93471 5.57227L8.31818 3.95574L10.048 2.22593C10.7521 2.52059 11.4207 2.94243 12.0169 3.49032ZM7.52658 1.71431C8.16535 1.71431 8.80931 1.81133 9.43473 2.00382L7.90048 3.53789L6.21706 1.85447C6.64559 1.76185 7.08463 1.7143 7.52653 1.7143L7.52658 1.71431ZM5.56113 2.034L7.48268 3.95574L5.86634 5.57208L3.52122 3.22716C4.12562 2.68098 4.82037 2.28377 5.56118 2.034H5.56113ZM3.10352 3.64501L5.44805 5.98974L3.83093 7.60686L1.91016 5.68629C2.16071 4.94514 2.55734 4.24981 3.10352 3.64501ZM1.72893 6.34017L3.41327 8.02451L1.88019 9.55759C1.55535 8.50019 1.50263 7.38931 1.72893 6.34017ZM2.10189 10.1718L3.83112 8.44255L5.44765 10.0591L3.36551 12.141C2.81781 11.5445 2.39659 10.8759 2.10189 10.1718ZM3.7834 12.5589L5.86555 10.4767L7.48228 12.0935L5.75037 13.8252C5.03709 13.5257 4.37158 13.0999 3.7834 12.5589ZM8.09456 14.3351C7.50311 14.3183 6.92236 14.2196 6.36382 14.0477L7.90037 12.5111L9.58702 14.1978C9.10539 14.3017 8.60544 14.349 8.09461 14.3351L8.09456 14.3351ZM10.2414 14.0171L8.31798 12.0935L9.93471 10.4769L12.2796 12.8217C11.6844 13.36 10.9931 13.7626 10.2414 14.0171ZM12.6971 12.4036L10.3528 10.0591L11.9691 8.44256L13.8899 10.3631C13.6395 11.1039 13.2432 11.7992 12.6971 12.4036ZM22.3046 21.7202L21.5963 22.4295C21.4578 22.5676 21.2325 22.5678 21.0941 22.4293L16.9183 18.2536C16.7801 18.1151 16.7801 17.89 16.9183 17.7515L17.6272 17.0426C17.6944 16.9754 17.7836 16.9385 17.8783 16.9385C17.9729 16.9385 18.062 16.9756 18.1291 17.0426L22.305 21.2189C22.3719 21.2858 22.4085 21.3744 22.4089 21.4689C22.4093 21.5636 22.3722 21.6528 22.3046 21.7202Z" fill="#1D221E" stroke="#1D221E" stroke-width="0.3"/>
<path d="M17.4326 6.49733C17.822 6.49733 18.1879 6.3457 18.4629 6.07051L19.6163 4.91704L22.4729 3.58523L22.2231 3.04976L20.6913 3.76396C20.5951 3.38317 20.4173 3.02683 20.1709 2.71996L21.0975 1.79318L20.6796 1.37534L19.7533 2.30172C19.4454 2.05423 19.09 1.87682 18.7093 1.78058L19.4231 0.249789L18.8876 0L17.5558 2.85673L16.4024 4.0102C15.8346 4.57813 15.8346 5.50241 16.4024 6.07059C16.6777 6.34597 17.0434 6.49741 17.4326 6.49741L17.4326 6.49733ZM20.1448 4.01894L19.4011 4.36574L18.9634 3.92785L19.7502 3.14085C19.946 3.4 20.0818 3.70038 20.1448 4.01894ZM18.4539 2.32981C18.773 2.39244 19.0728 2.52669 19.3326 2.72339L18.5458 3.5102L18.1077 3.07212L18.4539 2.32981ZM17.7244 3.52434L18.9491 4.74923L18.2544 5.44398L17.0295 4.21928L17.7244 3.52434ZM16.6508 4.67624L17.7979 5.82321C17.6847 5.8761 17.5615 5.90647 17.4328 5.90647H17.4326C17.2014 5.90647 16.984 5.81652 16.8207 5.65305C16.5568 5.38894 16.502 4.99666 16.6508 4.67624Z" fill="#6AA74D"/>
</svg>
