<svg width="25" height="24" viewBox="0 0 25 24" fill="none" xmlns="http://www.w3.org/2000/svg">
<path d="M24.9138 6.8453C24.7421 6.56634 20.5147 0.0426728 12.5534 0H12.489C4.48469 0 0.236049 6.5667 0.064377 6.8453L0 6.9526V17.017L0.343344 17.0814C2.16739 17.4033 4.01281 17.6607 5.85843 17.8324L5.94427 16.9741C4.24903 16.8024 2.53231 16.5878 0.858361 16.2874V7.21033C1.4163 6.35197 5.38619 0.858459 12.4889 0.858459H12.5533C19.6134 0.879918 23.5619 6.35197 24.1411 7.21033V16.309C22.4459 16.6094 20.7292 16.824 19.0341 16.9956L19.12 17.854C20.9655 17.6823 22.8324 17.4248 24.6567 17.103L25 17.0386V6.95309L24.9138 6.8453Z" fill="#1D221E"/>
<path d="M19.916 13.3681V12.5098H5.06641V13.3681H6.56854L8.24234 23.2393L9.07922 23.0891L8.97192 22.4024H15.9889L15.8816 23.0891L16.7185 23.2393L18.3923 13.3681H19.916ZM12.6416 18.5399L13.972 19.7631L12.5772 21.1364L11.1823 19.8274L12.6416 18.5399ZM10.5386 19.248L8.97204 17.7888L10.3239 16.3725L12.0192 17.9391L10.5386 19.248ZM13.3068 17.982L15.0665 16.4369L16.2038 17.6172L14.6158 19.1837L13.3068 17.982ZM12.663 17.3811L10.9248 15.7502L12.663 13.9048L14.4656 15.7932L12.663 17.3811ZM13.3283 13.3683H17.2124L15.1094 15.2352L13.3283 13.3683ZM10.2811 15.1709L8.34976 13.3683H11.9764L10.2811 15.1709ZM9.7017 15.7932L8.13517 17.4456L7.51283 13.7546L9.7017 15.7932ZM9.89483 19.8275L8.71461 20.879L8.28543 18.3254L9.89483 19.8275ZM10.5386 20.4069L11.7403 21.5442H9.25106L10.5386 20.4069ZM14.5944 20.364L15.8819 21.5657H13.3927L14.5944 20.364ZM15.2167 19.7631L16.6759 18.3254L16.2682 20.7288L15.2167 19.7631ZM15.6888 15.8576L17.3197 14.4198L16.8691 17.1022L15.6888 15.8576Z" fill="#1D221E"/>
<path d="M7.8125 8.70361C7.8125 10.8428 9.55633 12.6099 11.7188 12.6099C13.8812 12.6099 15.625 10.866 15.625 8.70361C15.625 6.5412 13.8812 4.79736 11.7188 4.79736C9.55633 4.79736 7.8125 6.56448 7.8125 8.70361ZM8.74256 8.70361C8.74256 7.98284 8.99833 7.30852 9.4401 6.79699C9.67262 7.30852 9.88188 8.02935 9.81213 8.88963C9.76562 9.56394 9.57961 10.122 9.37035 10.5405C8.97507 10.0289 8.74256 9.4011 8.74256 8.70361ZM10.0911 11.1915C10.3934 10.6567 10.6957 9.88941 10.7655 8.95935C10.8352 7.75028 10.4864 6.77371 10.1842 6.16917C10.6259 5.89016 11.1607 5.75065 11.7188 5.75065C12.2303 5.75065 12.7185 5.89016 13.1371 6.09942C12.8116 6.72718 12.4861 7.75025 12.5558 8.95933C12.6256 9.91266 12.9278 10.7032 13.2301 11.238C12.7883 11.4937 12.2768 11.6565 11.7188 11.6565C11.1142 11.6797 10.5562 11.4938 10.0911 11.1915ZM14.6717 8.70361C14.6717 9.44766 14.3927 10.122 13.9509 10.6335C13.7184 10.1917 13.5324 9.58712 13.4859 8.88963C13.4162 7.98284 13.6487 7.21552 13.8812 6.68076C14.3695 7.21552 14.6717 7.93634 14.6717 8.70361Z" fill="#6AA74D"/>
</svg>
