<svg width="15" height="20" viewBox="0 0 15 20" fill="none" xmlns="http://www.w3.org/2000/svg">
<path d="M10.6207 0.968117C10.3164 0.636283 9.92923 0.359645 9.51447 0.193698C9.48688 0.193698 9.4591 0.16611 9.43151 0.16611C9.12707 0.0553701 8.79523 0 8.46339 0H2.87651C1.29992 0 0 1.29992 0 2.87631V17.0959C0 18.7 1.29992 20 2.87651 20H12.0312C13.6354 20 14.9354 18.7001 14.9354 17.1237V6.85918C14.9354 6.14013 14.6865 5.44869 14.1886 4.92319L10.6207 0.968117ZM9.81851 1.71473L13.3587 5.6697L11.0631 5.66989C10.3717 5.66989 9.81855 5.11678 9.81855 4.42534L9.81851 1.71473ZM13.8288 17.1236C13.8288 18.0917 13.0269 18.8937 12.0587 18.8937H2.87635C1.90823 18.8937 1.10625 18.0917 1.10625 17.1236V2.87636C1.10625 1.90823 1.90823 1.10626 2.87635 1.10626H8.46322C8.54618 1.10626 8.62914 1.10626 8.7121 1.13385V4.45273C8.7121 5.75265 9.76314 6.80374 11.0631 6.80374H13.8289V6.8867L13.8288 17.1236Z" fill="#6AA74D"/>
<path d="M6.80395 14.0073C6.9145 14.1179 7.05283 14.1733 7.19115 14.1733C7.32947 14.1733 7.46781 14.1179 7.57835 14.0073L9.79102 11.7947C10.0123 11.5734 10.0123 11.2416 9.79102 11.0202C9.56974 10.799 9.23792 10.799 9.01661 11.0202L7.74425 12.2924V8.7522C7.74425 8.44796 7.49537 8.1991 7.19114 8.1991C6.88691 8.1991 6.63803 8.44797 6.63803 8.7522V12.2924L5.36568 11.02C5.14439 10.7988 4.81257 10.7988 4.59126 11.02C4.36997 11.2413 4.36997 11.5732 4.59126 11.7945L6.80395 14.0073Z" fill="#6AA74D"/>
<path d="M9.62508 14.837H4.75721C4.45296 14.837 4.2041 15.0859 4.2041 15.3901C4.2041 15.6944 4.45298 15.9432 4.75721 15.9432H9.65269C9.95693 15.9432 10.2058 15.6944 10.2058 15.3901C10.2058 15.0861 9.92933 14.837 9.62508 14.837Z" fill="#6AA74D"/>
</svg>
