<svg width="24" height="24" viewBox="0 0 24 24" fill="none" xmlns="http://www.w3.org/2000/svg">
<path fill-rule="evenodd" clip-rule="evenodd" d="M0.571429 0C0.255869 0 0 0.25833 0 0.576923V6.34615C0 6.66475 0.255869 6.92308 0.571429 6.92308H1.71429V12.1154C1.71429 12.434 1.97016 12.6923 2.28571 12.6923H2.92806C2.88112 13.0704 2.85714 13.4557 2.85714 13.8462C2.85714 18.9442 6.95053 23.0769 12 23.0769C17.0495 23.0769 21.1429 18.9442 21.1429 13.8462C21.1429 13.4557 21.1189 13.0704 21.0719 12.6923H21.7143C22.0298 12.6923 22.2857 12.434 22.2857 12.1154V6.92308H23.4286C23.7441 6.92308 24 6.66475 24 6.34615V0.576923C24 0.25833 23.7441 0 23.4286 0H0.571429ZM21.1429 11.5385V6.92308H2.85714V11.5385H7.4722C7.64056 10.4662 8.27931 9.74407 9.08343 9.30132C9.98753 8.80321 11.0962 8.65383 12 8.65383C12.9038 8.65383 14.0125 8.80321 14.9166 9.30132C15.7206 9.74405 16.3594 10.4662 16.5278 11.5385H21.1429ZM19.9191 12.6923H16C15.6844 12.6923 15.4286 12.434 15.4286 12.1154C15.4286 11.2036 15 10.6615 14.3691 10.3141C13.7017 9.94679 12.8104 9.80771 12 9.80771C11.1896 9.80771 10.2982 9.94679 9.63089 10.3141C9.00002 10.6615 8.57143 11.2036 8.57143 12.1154C8.57143 12.434 8.31556 12.6923 8 12.6923H4.08085C4.02753 13.0689 3.99998 13.4542 3.99998 13.8462C3.99998 18.307 7.58163 21.9231 12 21.9231C16.4183 21.9231 20 18.307 20 13.8462C20 13.4542 19.9725 13.0689 19.9191 12.6923ZM1.14299 5.76923V1.15385H22.8573V5.76923H1.14299ZM8.00013 2.30769C8.00013 1.9891 7.74426 1.73077 7.4287 1.73077C7.11314 1.73077 6.85727 1.9891 6.85727 2.30769V4.61539C6.85727 4.93398 7.11314 5.19231 7.4287 5.19231C7.74426 5.19231 8.00013 4.93398 8.00013 4.61539V2.30769ZM9.71442 1.73077C10.03 1.73077 10.2858 1.9891 10.2858 2.30769V4.61539C10.2858 4.93398 10.03 5.19231 9.71442 5.19231C9.39886 5.19231 9.14299 4.93398 9.14299 4.61539V2.30769C9.14299 1.9891 9.39886 1.73077 9.71442 1.73077ZM12.5716 2.30769C12.5716 1.9891 12.3157 1.73077 12.0001 1.73077C11.6846 1.73077 11.4287 1.9891 11.4287 2.30769V4.61539C11.4287 4.93398 11.6846 5.19231 12.0001 5.19231C12.3157 5.19231 12.5716 4.93398 12.5716 4.61539V2.30769ZM14.2858 1.73077C14.6014 1.73077 14.8573 1.9891 14.8573 2.30769V4.61539C14.8573 4.93398 14.6014 5.19231 14.2858 5.19231C13.9703 5.19231 13.7144 4.93398 13.7144 4.61539V2.30769C13.7144 1.9891 13.9703 1.73077 14.2858 1.73077ZM17.143 2.30769C17.143 1.9891 16.8871 1.73077 16.5716 1.73077C16.256 1.73077 16.0001 1.9891 16.0001 2.30769V4.61539C16.0001 4.93398 16.256 5.19231 16.5716 5.19231C16.8871 5.19231 17.143 4.93398 17.143 4.61539V2.30769Z" fill="#1D221E"/>
<path fill-rule="evenodd" clip-rule="evenodd" d="M11.9985 17.5393C12.5083 17.5393 12.9216 17.126 12.9216 16.6162C12.9216 16.1064 12.5083 15.6931 11.9985 15.6931C11.4887 15.6931 11.0754 16.1064 11.0754 16.6162C11.0754 17.126 11.4887 17.5393 11.9985 17.5393ZM11.9985 18.4623C13.0181 18.4623 13.8447 17.6358 13.8447 16.6162C13.8447 15.5966 13.0181 14.77 11.9985 14.77C10.9789 14.77 10.1523 15.5966 10.1523 16.6162C10.1523 17.6358 10.9789 18.4623 11.9985 18.4623Z" fill="#6AA74D"/>
<path fill-rule="evenodd" clip-rule="evenodd" d="M11.9989 19.3849C13.5284 19.3849 14.7682 18.1451 14.7682 16.6156C14.7682 15.0862 13.5284 13.8464 11.9989 13.8464C10.4695 13.8464 9.22972 15.0862 9.22972 16.6156C9.22972 18.1451 10.4695 19.3849 11.9989 19.3849ZM11.9989 20.308C14.0382 20.308 15.6913 18.6549 15.6913 16.6156C15.6913 14.5764 14.0382 12.9233 11.9989 12.9233C9.95974 12.9233 8.30664 14.5764 8.30664 16.6156C8.30664 18.6549 9.95974 20.308 11.9989 20.308Z" fill="#6AA74D"/>
</svg>
