<svg width="33" height="25" viewBox="0 0 33 25" fill="none" xmlns="http://www.w3.org/2000/svg">
<path d="M9.18538 22.1756C8.54387 22.2304 7.90776 21.8925 7.61981 21.2749L1.56582 8.29236C1.19726 7.50176 1.53931 6.56229 2.3295 6.19416L9.06499 3.05307C9.0978 2.8677 9.14844 2.68884 9.22015 2.51978L2.15309 5.81492C1.15515 6.27998 0.721821 7.47089 1.18669 8.46856L7.24068 21.4516C7.62771 22.2813 8.51612 22.7184 9.37821 22.5754C9.30215 22.4489 9.23761 22.3152 9.18501 22.1755L9.18538 22.1756Z" fill="#1D221E" stroke="#1D221E" stroke-width="0.5"/>
<path fill-rule="evenodd" clip-rule="evenodd" d="M3.49814 8.04805C3.46316 8.178 3.43273 8.30188 3.39623 8.42466C3.32299 8.66979 3.12523 8.8054 2.89379 8.77237C2.66539 8.73999 2.49958 8.55179 2.49806 8.32317C2.49654 8.08695 2.65344 7.91636 2.909 7.87637C3.03526 7.85703 3.16131 7.83747 3.33994 7.81031C3.18304 7.71882 3.06634 7.6571 2.95681 7.58473C2.79426 7.47695 2.72689 7.32026 2.76058 7.12772C2.79361 6.93713 2.93139 6.7987 3.12198 6.76263C3.31517 6.7259 3.48098 6.78827 3.57986 6.95322C3.63224 7.0421 3.64593 7.16249 3.64832 7.26941C3.65136 7.39567 3.62333 7.52215 3.6029 7.70057C3.75024 7.57148 3.85847 7.47586 3.96734 7.38133C4.15771 7.21682 4.38263 7.20617 4.55956 7.35329C4.73863 7.50151 4.77948 7.74121 4.66017 7.94312C4.54022 8.1463 4.31029 8.21606 4.07603 8.11675C3.95303 8.06481 3.83328 8.00484 3.71224 7.94789C3.69789 7.96224 3.68355 7.97615 3.66964 7.99027C3.75896 8.09502 3.8298 8.23258 3.94281 8.29495C4.06125 8.36015 4.21967 8.35319 4.38896 8.38253C4.04843 8.54117 3.74178 8.68438 3.39669 8.8452C3.51709 8.58681 3.80087 8.34924 3.49814 8.04805Z" fill="#1D221E"/>
<path d="M30.9984 5.81539L23.9308 2.52002C24.0021 2.68888 24.0531 2.86794 24.0855 3.05331L30.8216 6.19441C31.612 6.56319 31.9544 7.50267 31.5854 8.29305L25.532 21.2761C25.2438 21.8931 24.6078 22.231 23.9662 22.1763C23.9136 22.3158 23.8491 22.4499 23.7734 22.5763C24.6355 22.7193 25.5239 22.2823 25.9105 21.4526L31.9645 8.46954C32.4296 7.47204 31.996 6.28094 30.9988 5.81546L30.9984 5.81539Z" fill="#1D221E" stroke="#1D221E" stroke-width="0.5"/>
<path fill-rule="evenodd" clip-rule="evenodd" d="M29.4391 7.94799C29.3172 8.00471 29.2018 8.06078 29.0843 8.11185C28.8493 8.21399 28.6194 8.14923 28.4951 7.95082C28.3732 7.75524 28.4106 7.50684 28.5849 7.35927C28.765 7.20607 28.9971 7.2165 29.1914 7.38644C29.2874 7.47032 29.3831 7.55464 29.5189 7.67373C29.488 7.49488 29.4606 7.36623 29.4463 7.23606C29.4241 7.04199 29.5008 6.88987 29.6703 6.79186C29.8368 6.69472 30.0317 6.71124 30.1821 6.83402C30.3345 6.95833 30.3934 7.12566 30.3301 7.30733C30.2971 7.40491 30.2128 7.4927 30.1324 7.56334C30.0376 7.64678 29.9231 7.70655 29.7725 7.80565C29.9659 7.83564 30.1089 7.85671 30.2519 7.87953C30.5007 7.91995 30.6526 8.08555 30.6541 8.31547C30.6554 8.54778 30.499 8.73358 30.2671 8.77161C30.0341 8.81029 29.8329 8.67903 29.7579 8.43542C29.7192 8.30764 29.6877 8.17747 29.6536 8.04817C29.6336 8.04621 29.6136 8.04447 29.5941 8.04252C29.5712 8.17834 29.5119 8.32133 29.5358 8.44759C29.5619 8.58037 29.6693 8.69707 29.7562 8.84615C29.4156 8.68729 29.1086 8.54452 28.763 8.38283C29.0384 8.30873 29.4026 8.37371 29.4391 7.94798L29.4391 7.94799Z" fill="#1D221E"/>
<path fill-rule="evenodd" clip-rule="evenodd" d="M24.2836 19.7096C24.4027 19.6448 24.5605 19.6509 24.73 19.6226C24.5218 19.5255 24.3243 19.4336 24.125 19.3403V19.8656C24.1719 19.8023 24.2215 19.7441 24.2836 19.7096Z" fill="#1D221E"/>
<path fill-rule="evenodd" clip-rule="evenodd" d="M25.0087 20.06C24.8881 19.8568 24.6212 19.7869 24.387 19.8855C24.2879 19.9286 24.3683 19.9759 24.0566 20.0218V20.4608C24.0566 20.5177 24.219 20.5705 24.2785 20.6216C24.4689 20.7863 24.7116 20.7967 24.8892 20.6498C25.0687 20.5012 25.1282 20.2619 25.0087 20.06Z" fill="#1D221E"/>
<path fill-rule="evenodd" clip-rule="evenodd" d="M11.8498 4.22414C11.742 4.35214 11.6423 4.47622 11.5371 4.5951C11.3256 4.8335 11.0318 4.88195 10.7878 4.7231C10.5472 4.56641 10.4592 4.26695 10.5778 4.00833C10.7 3.74124 10.9671 3.63107 11.2761 3.72016C11.4286 3.76471 11.581 3.80926 11.7963 3.87229C11.6683 3.6867 11.5688 3.55566 11.4838 3.41679C11.3572 3.20969 11.3637 2.99781 11.5025 2.7981C11.6403 2.60099 11.8683 2.5171 12.1023 2.57621C12.3392 2.63641 12.4937 2.79331 12.5178 3.03171C12.5306 3.15949 12.4824 3.30249 12.4287 3.42418C12.3661 3.56783 12.2679 3.69626 12.1506 3.88685C12.3846 3.81883 12.5572 3.76755 12.7297 3.71799C13.0313 3.63259 13.2899 3.73907 13.4123 3.99746C13.536 4.25889 13.4562 4.55053 13.2156 4.71524C12.9736 4.88105 12.6773 4.83933 12.4657 4.60375C12.3542 4.48032 12.251 4.34993 12.1439 4.22215C12.1202 4.23062 12.0969 4.23866 12.0735 4.24714C12.1189 4.4123 12.1265 4.60484 12.2212 4.73436C12.3205 4.8704 12.5029 4.94559 12.6782 5.06772H11.3159C11.588 4.84171 12.0326 4.72331 11.8498 4.22414Z" fill="#1D221E"/>
<path fill-rule="evenodd" clip-rule="evenodd" d="M21.0062 4.22414C20.8984 4.35214 20.798 4.47622 20.6928 4.5951C20.4816 4.8335 20.1878 4.88195 19.9439 4.7231C19.7038 4.56641 19.6154 4.26695 19.734 4.00833C19.8564 3.74124 20.1234 3.63107 20.4318 3.72016C20.5839 3.76471 20.7367 3.80926 20.9521 3.87229C20.8236 3.6867 20.725 3.55566 20.64 3.41679C20.5129 3.20969 20.5194 2.99781 20.6589 2.7981C20.7956 2.60099 21.024 2.5171 21.2582 2.57621C21.4951 2.63641 21.6496 2.79331 21.6738 3.03171C21.6872 3.15949 21.6386 3.30249 21.5849 3.42418C21.5223 3.56783 21.4241 3.69626 21.3067 3.88685C21.5403 3.81883 21.7127 3.76755 21.8858 3.71799C22.1877 3.63259 22.4456 3.73907 22.5685 3.99746C22.6919 4.25889 22.613 4.55053 22.3718 4.71524C22.129 4.88105 21.8331 4.83933 21.621 4.60375C21.5104 4.48032 21.4067 4.34993 21.2998 4.22215C21.2761 4.23062 21.2531 4.23866 21.2296 4.24714C21.275 4.4123 21.2833 4.60484 21.3769 4.73436C21.4767 4.8704 21.6586 4.94559 21.8346 5.06772H20.4716C20.7439 4.84171 21.1887 4.72331 21.0062 4.22414Z" fill="#1D221E"/>
<path fill-rule="evenodd" clip-rule="evenodd" d="M11.8498 20.7075C11.742 20.5795 11.6423 20.4548 11.5371 20.3366C11.3256 20.0973 11.0318 20.0493 10.7878 20.2081C10.5472 20.3648 10.4592 20.6643 10.5778 20.9225C10.7 21.1898 10.9671 21.3004 11.2761 21.2111C11.4286 21.1665 11.581 21.1222 11.7963 21.0589C11.6683 21.2452 11.5688 21.3756 11.4838 21.5146C11.3572 21.7217 11.3637 21.9336 11.5025 22.1333C11.6403 22.3304 11.8683 22.4141 12.1023 22.3546C12.3392 22.295 12.4937 22.1377 12.5178 21.8997C12.5306 21.7724 12.4824 21.6281 12.4287 21.5062C12.3661 21.363 12.2679 21.2352 12.1506 21.0435C12.3846 21.1124 12.5572 21.1635 12.7297 21.2124C13.0313 21.2984 13.2899 21.1921 13.4123 20.9329C13.536 20.6715 13.4562 20.3803 13.2156 20.2153C12.9736 20.0493 12.6773 20.0912 12.4657 20.3262C12.3542 20.4498 12.251 20.5806 12.1439 20.7082C12.1202 20.7002 12.0969 20.6917 12.0735 20.6837C12.1189 20.5185 12.1265 20.3257 12.2212 20.1964C12.3205 20.0606 12.5029 19.9852 12.6782 19.8633H11.3159C11.588 20.0897 12.0326 20.2077 11.8498 20.7076L11.8498 20.7075Z" fill="#1D221E"/>
<path fill-rule="evenodd" clip-rule="evenodd" d="M21.0062 20.7075C20.8984 20.5795 20.798 20.4548 20.6928 20.3366C20.4816 20.0973 20.1878 20.0493 19.9439 20.2081C19.7038 20.3648 19.6154 20.6643 19.734 20.9225C19.8564 21.1898 20.1234 21.3004 20.4318 21.2111C20.5839 21.1665 20.7367 21.1222 20.9521 21.0589C20.8236 21.2452 20.725 21.3756 20.64 21.5146C20.5129 21.7217 20.5194 21.9336 20.6589 22.1333C20.7956 22.3304 21.024 22.4141 21.2582 22.3546C21.4951 22.295 21.6496 22.1377 21.6738 21.8997C21.6872 21.7724 21.6386 21.6281 21.5849 21.5062C21.5223 21.363 21.4241 21.2352 21.3067 21.0435C21.5403 21.1124 21.7127 21.1635 21.8858 21.2124C22.1877 21.2984 22.4456 21.1921 22.5685 20.9329C22.6919 20.6715 22.613 20.3803 22.3718 20.2153C22.129 20.0493 21.8331 20.0912 21.621 20.3262C21.5104 20.4498 21.4067 20.5806 21.2998 20.7082C21.2761 20.7002 21.2531 20.6917 21.2296 20.6837C21.275 20.5185 21.2833 20.3257 21.3769 20.1964C21.4767 20.0606 21.6586 19.9852 21.8346 19.8633H20.4716C20.7439 20.0897 21.1887 20.2077 21.0062 20.7075Z" fill="#1D221E"/>
<path fill-rule="evenodd" clip-rule="evenodd" d="M16.2406 12.4664C15.9961 12.7568 15.7694 13.0384 15.5306 13.3088C15.0505 13.8493 14.3834 13.9599 13.8299 13.5996C13.2838 13.2438 13.0841 12.5643 13.3535 11.9771C13.6308 11.3708 14.2365 11.1206 14.9378 11.3232C15.284 11.424 15.6298 11.5251 16.1185 11.6683C15.8277 11.2467 15.6024 10.9503 15.4092 10.6343C15.1212 10.1642 15.1367 9.6835 15.4515 9.23021C15.7643 8.7821 16.2819 8.59237 16.8131 8.72668C17.3507 8.86316 17.7012 9.21977 17.7564 9.76068C17.7851 10.0504 17.6754 10.3753 17.5543 10.6517C17.4122 10.9779 17.1899 11.2687 16.9234 11.7015C17.4543 11.547 17.8459 11.4308 18.2382 11.3186C18.9228 11.1246 19.5099 11.3667 19.7881 11.9532C20.0691 12.5467 19.8878 13.2086 19.3413 13.5826C18.7917 13.9586 18.12 13.8643 17.639 13.3297C17.3856 13.0495 17.1518 12.7529 16.9089 12.4637C16.855 12.4826 16.8019 12.5011 16.7491 12.5204C16.8524 12.8953 16.8697 13.3323 17.0844 13.6261C17.3096 13.9351 17.7238 14.1059 18.1219 14.3828H15.0299C15.6464 13.8676 16.6552 13.5987 16.2406 12.4665L16.2406 12.4664Z" fill="#6AA74D"/>
<path fill-rule="evenodd" clip-rule="evenodd" d="M8.30476 11.5094C8.52556 11.6559 8.78916 11.7852 9.10081 11.9582V9.63291C8.78918 9.61574 8.81461 9.61727 8.67922 9.64313C8.24676 9.72571 7.93424 10.0397 7.85864 10.4724C7.78322 10.9094 7.93532 11.2647 8.30476 11.5094Z" fill="#6AA74D"/>
<path fill-rule="evenodd" clip-rule="evenodd" d="M9.10199 12.0376C8.79036 12.0902 8.45548 12.1304 8.19668 12.1704C7.61731 12.261 7.24179 12.6491 7.24613 13.185C7.24917 13.7037 7.6536 14.1312 8.17231 14.2047C8.53153 14.2557 8.79034 14.1251 9.10199 13.8615V12.0376Z" fill="#6AA74D"/>
<path fill-rule="evenodd" clip-rule="evenodd" d="M9.09997 20.0246C8.78833 19.9792 8.87244 19.9335 8.77877 19.8925C8.5432 19.7905 8.29394 19.8553 8.17026 20.0539C8.04813 20.2499 8.07681 20.4979 8.25067 20.6452C8.43082 20.7989 8.6953 20.7884 8.89 20.6187C8.94585 20.5698 9.09993 20.5188 9.09993 20.4629L9.09997 20.0246Z" fill="#1D221E"/>
<path fill-rule="evenodd" clip-rule="evenodd" d="M9.02755 19.8423V19.3403C8.82979 19.4329 8.63225 19.5251 8.42188 19.6228C8.63637 19.68 8.90193 19.6563 9.02755 19.8423Z" fill="#1D221E"/>
<path fill-rule="evenodd" clip-rule="evenodd" d="M24.0566 11.8788C24.3683 11.7256 24.5393 11.6071 24.7088 11.4576C24.8907 11.2972 25.0998 11.0977 25.1778 10.8771C25.3208 10.4642 25.1589 10.0853 24.8134 9.80315C24.5969 9.6269 24.3683 9.54802 24.0566 9.56932L24.0566 11.8788Z" fill="#6AA74D"/>
<path fill-rule="evenodd" clip-rule="evenodd" d="M24.9803 12.1758C24.709 12.1327 24.3683 12.0912 24.0566 12.0391V13.8671C24.3683 14.1329 24.6489 14.2607 25.0146 14.1996C25.5396 14.1129 25.8966 13.6924 25.8928 13.1643C25.8901 12.6428 25.5444 12.267 24.9803 12.1758Z" fill="#6AA74D"/>
<path d="M21.6452 1.52027C22.73 1.52027 23.6101 2.39977 23.6101 3.48478V21.3063C23.6101 22.3911 22.7305 23.2706 21.6452 23.2706H11.51C10.4256 23.2706 9.54561 22.3913 9.54561 21.3063V3.48423C9.54561 2.39916 10.4253 1.51971 11.51 1.51971H21.6452M21.6452 1.00011H11.51C10.1404 1.00011 9.02539 2.11472 9.02539 3.48468V21.3062C9.02539 22.6757 10.1404 23.7905 11.51 23.7905H21.6446C23.0141 23.7905 24.1292 22.6761 24.1292 21.3062V3.48413C24.1292 2.11461 23.0146 1 21.6451 1L21.6452 1.00011Z" fill="#1D221E"/>
<path d="M21.6452 1.52027C22.73 1.52027 23.6101 2.39977 23.6101 3.48478V21.3063C23.6101 22.3911 22.7305 23.2706 21.6452 23.2706H11.51C10.4256 23.2706 9.54561 22.3913 9.54561 21.3063V3.48423C9.54561 2.39916 10.4253 1.51971 11.51 1.51971H21.6452M21.6452 1.00011H11.51C10.1404 1.00011 9.02539 2.11472 9.02539 3.48468V21.3062C9.02539 22.6757 10.1404 23.7905 11.51 23.7905H21.6446C23.0141 23.7905 24.1292 22.6761 24.1292 21.3062V3.48413C24.1292 2.11461 23.0146 1 21.6451 1L21.6452 1.00011Z" stroke="#1D221E" stroke-width="0.5"/>
</svg>
