<svg width="25" height="25" viewBox="0 0 25 25" fill="none" xmlns="http://www.w3.org/2000/svg">
<path d="M1 9.05017C1 13.2669 2.31878 16.6176 4.06673 17.0504V24.0005H4.83342V17.0504C6.58137 16.6173 7.90015 13.2668 7.90015 9.05017C7.90015 4.53463 6.38597 1 4.45007 1C2.51418 1 1 4.53445 1 9.05017ZM4.45007 1.76668C5.71887 1.76668 7.13347 4.75675 7.13347 9.05017C7.13347 12.9142 5.98344 15.7164 4.83342 16.2377V10.8902L6.30159 8.68602L5.66533 8.28351L4.45012 10.0852L3.2349 8.28351L2.59864 8.70519L4.06682 10.8902V16.257C2.9168 15.7166 1.76677 12.9142 1.76677 9.0502C1.76677 4.75677 3.18137 1.76671 4.45016 1.76671L4.45007 1.76668Z" fill="#6AA74D" stroke="#6AA74D" stroke-width="0.3"/>
<path d="M20.5497 1C18.633 1 17.0996 4.53445 17.0996 9.05017C17.0996 13.2669 18.4184 16.6176 20.1663 17.0504V24.0005H20.933V17.0504C22.681 16.6173 23.9998 13.2668 23.9998 9.05017C23.9998 4.53463 22.4856 1 20.5497 1ZM20.933 16.2377V10.8902L22.4012 8.68602L21.7649 8.28351L20.5497 10.0852L19.3345 8.28351L18.6983 8.70519L20.1664 10.8902V16.257C19.0164 15.7358 17.8664 12.9334 17.8664 9.06947C17.8664 4.77605 19.281 1.78598 20.5498 1.78598C21.8186 1.78598 23.2332 4.77605 23.2332 9.06947C23.2332 12.9144 22.0831 15.7168 20.9331 16.2377L20.933 16.2377Z" fill="#6AA74D" stroke="#6AA74D" stroke-width="0.3"/>
<path d="M8.01176 19.2V19.1H7.91176H7.14706C7.07367 19.1 7.00228 19.0695 6.94897 19.0138C6.89551 18.9578 6.86471 18.881 6.86471 18.8V16.4C6.86471 16.23 6.99535 16.1 7.14706 16.1H17.8529C17.9263 16.1 17.9977 16.1305 18.051 16.1862C18.1045 16.2422 18.1353 16.319 18.1353 16.4V18.8C18.1353 18.881 18.1045 18.9578 18.051 19.0138C17.9977 19.0695 17.9263 19.1 17.8529 19.1H17.0882H16.9882V19.2V20V20.1H17.0882H18.6176C18.691 20.1 18.7624 20.1305 18.8157 20.1862C18.8692 20.2422 18.9 20.319 18.9 20.4V22C18.9 22.081 18.8692 22.1578 18.8157 22.2138C18.7624 22.2695 18.691 22.3 18.6176 22.3H17.0882H16.9882V22.4V23.6C16.9882 23.681 16.9574 23.7578 16.904 23.8138C16.8507 23.8695 16.7793 23.9 16.7059 23.9H15.1765C15.1031 23.9 15.0317 23.8695 14.9784 23.8138C14.9249 23.7578 14.8941 23.681 14.8941 23.6V22.4V22.3H14.7941H10.2059H10.1059V22.4V23.6C10.1059 23.681 10.0751 23.7578 10.0216 23.8138C9.96831 23.8695 9.89692 23.9 9.82353 23.9H8.29412C8.22073 23.9 8.14934 23.8695 8.09603 23.8138C8.04257 23.7578 8.01176 23.681 8.01176 23.6V22.4V22.3H7.91176H6.38235C6.30896 22.3 6.23757 22.2695 6.18426 22.2138C6.1308 22.1578 6.1 22.081 6.1 22V20.4C6.1 20.23 6.23064 20.1 6.38235 20.1H7.91176H8.01176V20V19.2ZM7.52941 16.7H7.42941V16.8V18.4V18.5H7.52941H17.4706H17.5706V18.4V16.8V16.7H17.4706H7.52941ZM10.1059 20V20.1H10.2059H14.7941H14.8941V20V19.2V19.1H14.7941H10.2059H10.1059V19.2V20ZM8.67647 19.1H8.57647V19.2V20V20.1H8.67647H9.44118H9.54118V20V19.2V19.1H9.44118H8.67647ZM9.44118 23.3H9.54118V23.2V22.4V22.3H9.44118H8.67647H8.57647V22.4V23.2V23.3H8.67647H9.44118ZM16.3235 23.3H16.4235V23.2V22.4V22.3H16.3235H15.5588H15.4588V22.4V23.2V23.3H15.5588H16.3235ZM18.2353 21.7H18.3353V21.6V20.8V20.7H18.2353H6.76471H6.66471V20.8V21.6V21.7H6.76471H18.2353ZM16.3235 20.1H16.4235V20V19.2V19.1H16.3235H15.5588H15.4588V19.2V20V20.1H15.5588H16.3235Z" fill="#1D221E" stroke="#1D221E" stroke-width="0.2"/>
<path d="M10.1992 5.60059C10.1992 6.21069 10.4415 6.79561 10.8728 7.22705C11.3042 7.65831 11.8892 7.90064 12.4993 7.90064C13.1094 7.90064 13.6943 7.65831 14.1257 7.22705C14.557 6.79562 14.7993 6.21069 14.7993 5.60059C14.7993 4.99048 14.557 4.40557 14.1257 3.97412C13.6943 3.54286 13.1094 3.30054 12.4993 3.30054C11.8892 3.30054 11.3043 3.54286 10.8728 3.97412C10.4415 4.40556 10.1992 4.99048 10.1992 5.60059ZM12.4993 4.06722C12.9059 4.06722 13.2959 4.22877 13.5836 4.51628C13.8711 4.80395 14.0326 5.19398 14.0326 5.60059C14.0326 6.00719 13.8711 6.39724 13.5836 6.6849C13.2959 6.9724 12.9059 7.13395 12.4993 7.13395C12.0927 7.13395 11.7026 6.9724 11.415 6.6849C11.1275 6.39722 10.9659 6.00719 10.9659 5.60059C10.9659 5.19398 11.1275 4.80394 11.415 4.51628C11.7026 4.22877 12.0927 4.06722 12.4993 4.06722Z" fill="#1D221E"/>
<path d="M12.1152 1H12.8819V2.53337H12.1152V1Z" fill="#1D221E"/>
<path d="M12.1152 8.66699H12.8819V10.2004H12.1152V8.66699Z" fill="#1D221E"/>
<path d="M15.5684 5.21729H17.1017V5.98397H15.5684V5.21729Z" fill="#1D221E"/>
<path d="M7.90039 5.21729H9.43376V5.98397H7.90039V5.21729Z" fill="#1D221E"/>
<path d="M14.3965 3.16243L15.4808 2.07812L16.0229 2.62028L14.9386 3.70459L14.3965 3.16243Z" fill="#1D221E"/>
<path d="M8.97656 8.58138L10.0609 7.49707L10.603 8.03922L9.51872 9.12353L8.97656 8.58138Z" fill="#1D221E"/>
<path d="M14.4004 8.0402L14.9425 7.49805L16.0269 8.58236L15.4847 9.12451L14.4004 8.0402Z" fill="#1D221E"/>
<path d="M8.97656 2.61979L9.51872 2.07764L10.603 3.16195L10.0609 3.7041L8.97656 2.61979Z" fill="#1D221E"/>
</svg>
