<svg width="33" height="24" viewBox="0 0 33 24" fill="none" xmlns="http://www.w3.org/2000/svg">
<path d="M9.66589 4.00244C8.72579 4.00244 7.96094 4.76729 7.96094 5.70739V7.91626C7.96094 8.13339 8.13667 8.3094 8.35407 8.3094H10.9774C11.1946 8.3094 11.3706 8.13366 11.3706 7.91626V5.70739C11.3703 4.76729 10.6059 4.00244 9.66589 4.00244ZM10.5843 7.52309H8.74692V5.70739C8.74692 5.20076 9.15924 4.78842 9.66589 4.78842C10.1725 4.78842 10.5843 5.20074 10.5843 5.70739V7.52309Z" fill="#6AA74D"/>
<path d="M14.6673 4.00244C13.7272 4.00244 12.9629 4.76729 12.9629 5.70739V7.91626C12.9629 8.13339 13.1386 8.3094 13.356 8.3094H15.9794C16.1965 8.3094 16.3725 8.13366 16.3725 7.91626V5.70739C16.3723 4.76729 15.6074 4.00244 14.6673 4.00244ZM15.5863 7.52309H13.7489V5.70739C13.7489 5.20076 14.1606 4.78842 14.6673 4.78842C15.1739 4.78842 15.5863 5.20074 15.5863 5.70739V7.52309Z" fill="#6AA74D"/>
<path d="M9.66589 9.96973C8.72579 9.96973 7.96094 10.7346 7.96094 11.6747V13.8835C7.96094 14.1007 8.13667 14.2767 8.35407 14.2767H10.9774C11.1946 14.2767 11.3706 14.1009 11.3706 13.8835V11.6747C11.3703 10.7346 10.6059 9.96973 9.66589 9.96973ZM10.5843 13.4904H8.74692V11.6747C8.74692 11.168 9.15924 10.7557 9.66589 10.7557C10.1725 10.7557 10.5843 11.168 10.5843 11.6747V13.4904Z" fill="#6AA74D"/>
<path d="M14.6673 9.96973C13.7272 9.96973 12.9629 10.7346 12.9629 11.6747V13.8835C12.9629 14.1007 13.1386 14.2767 13.356 14.2767H15.9794C16.1965 14.2767 16.3725 14.1009 16.3725 13.8835V11.6747C16.3723 10.7346 15.6074 9.96973 14.6673 9.96973ZM15.5863 13.4904H13.7489V11.6747C13.7489 11.168 14.1606 10.7557 14.6673 10.7557C15.1739 10.7557 15.5863 11.168 15.5863 11.6747V13.4904Z" fill="#6AA74D"/>
<path d="M9.66589 15.9985C8.72579 15.9985 7.96094 16.7634 7.96094 17.7035V19.9126C7.96094 20.1298 8.13667 20.3058 8.35407 20.3058H10.9774C11.1946 20.3058 11.3706 20.13 11.3706 19.9126V17.7035C11.3703 16.7634 10.6059 15.9985 9.66589 15.9985ZM10.5843 19.5198H8.74692V17.7035C8.74692 17.1969 9.15924 16.7845 9.66589 16.7845C10.1725 16.7845 10.5843 17.1968 10.5843 17.7035V19.5198Z" fill="#6AA74D"/>
<path d="M14.6673 15.9985C13.7272 15.9985 12.9629 16.7634 12.9629 17.7035V19.9126C12.9629 20.1298 13.1386 20.3058 13.356 20.3058H15.9794C16.1965 20.3058 16.3725 20.13 16.3725 19.9126V17.7035C16.3723 16.7634 15.6074 15.9985 14.6673 15.9985ZM15.5863 19.5198H13.7489V17.7035C13.7489 17.1969 14.1606 16.7845 14.6673 16.7845C15.1739 16.7845 15.5863 17.1968 15.5863 17.7035V19.5198Z" fill="#6AA74D"/>
<path d="M32.0484 22.4598H27.8432V13.2532C27.8432 13.036 27.6674 12.86 27.45 12.86L18.7396 12.8603V1.39314C18.7396 1.17601 18.5639 1 18.3465 1L5.99149 1.00027C5.77436 1.00027 5.59835 1.17601 5.59835 1.39341V22.4595H1.39314C1.17601 22.4595 1 22.6352 1 22.8526C1 23.0698 1.17573 23.2458 1.39314 23.2458H27.4506L32.049 23.2455C32.2661 23.2455 32.4422 23.0698 32.4422 22.8524C32.4422 22.6352 32.2664 22.4595 32.049 22.4595L32.0484 22.4598ZM6.3839 22.4598V1.7867H17.9528V22.4598H6.3839ZM24.7388 22.4598H21.1839V16.7846H24.7388V22.4598ZM25.5248 22.4598V16.3917C25.5248 16.1746 25.3491 15.9986 25.1317 15.9986H20.7907C20.5736 15.9986 20.3976 16.1743 20.3976 16.3917L20.3979 22.4598H18.7389V13.6469H27.0563V22.4598H25.5248Z" fill="#1D221E" stroke="#1D221E" stroke-width="0.2"/>
</svg>
