<svg width="21" height="27" viewBox="0 0 21 27" fill="none" xmlns="http://www.w3.org/2000/svg">
<path d="M12.9498 3.15847C13.2903 3.27786 13.4518 3.60849 13.3109 3.89687C13.1698 4.18525 12.7796 4.32228 12.4393 4.20289C12.099 4.08331 11.9372 3.75268 12.0784 3.4643C12.2193 3.17591 12.6094 3.03889 12.9498 3.15847Z" fill="#6AA74D"/>
<path d="M6.64341 18.8438C6.58575 18.6186 6.35078 18.4575 6.07895 18.4575H4.85663C4.58481 18.4575 4.34918 18.6184 4.29216 18.8438L3.24758 22.9469C3.16998 23.2518 3.44419 23.5395 3.81205 23.5395H7.12359C7.49144 23.5395 7.76563 23.252 7.68805 22.9469L6.64341 18.8438Z" fill="#6AA74D"/>
<path d="M2.5772 17.0261L1.17819 17.6489C1.07436 17.6952 1.03425 17.8043 1.08888 17.8921C1.12703 17.9533 1.20051 17.9884 1.27703 17.9884C1.31041 17.9884 1.34444 17.9818 1.37544 17.9678L2.77445 17.3449C2.87828 17.2987 2.91838 17.1895 2.86376 17.1017C2.80957 17.0138 2.68146 16.9798 2.5772 17.0261Z" fill="#6AA74D" stroke="#6AA74D" stroke-width="0.5"/>
<path d="M2.55881 13.2723C2.58743 13.2837 2.61777 13.2888 2.64747 13.2888C2.72768 13.2888 2.80463 13.2503 2.8404 13.184C2.8896 13.0934 2.84278 12.9871 2.73657 12.9454L1.30115 12.3848C1.19429 12.3431 1.06878 12.3827 1.01958 12.4727C0.970371 12.5633 1.01719 12.6696 1.12341 12.7113L2.55881 13.2723Z" fill="#6AA74D" stroke="#6AA74D" stroke-width="0.5"/>
<path d="M20.4878 17.6499L19.0888 17.027C18.9849 16.9808 18.8564 17.0147 18.8018 17.1027C18.7471 17.1907 18.7872 17.2996 18.8911 17.3459L20.2901 17.9688C20.3217 17.9827 20.3556 17.9894 20.3885 17.9894C20.465 17.9894 20.5389 17.9545 20.5766 17.8931C20.6315 17.8053 20.5914 17.6962 20.4878 17.6499Z" fill="#6AA74D" stroke="#6AA74D" stroke-width="0.5"/>
<path d="M20.6471 12.4727C20.5979 12.3827 20.4718 12.3431 20.3656 12.3848L18.9302 12.9454C18.8233 12.9871 18.7771 13.094 18.8263 13.184C18.8621 13.2497 18.9393 13.2888 19.0192 13.2888C19.0489 13.2888 19.0793 13.2837 19.1079 13.2723L20.5433 12.7117C20.6495 12.6698 20.6957 12.5627 20.6471 12.4727Z" fill="#6AA74D" stroke="#6AA74D" stroke-width="0.5"/>
<path d="M17.0528 15.566V10.9233C17.0528 10.1555 16.5217 9.45033 15.6999 9.12724L14.8344 8.78669C14.2686 8.56406 13.9051 8.09803 13.8858 7.5749L13.8791 5.75535H18.8725C19.1237 5.75535 19.3277 5.58251 19.3277 5.36962L19.3275 4.60202C19.3275 4.38913 19.1235 4.21628 18.8723 4.21628H15.2664C15.1493 4.21628 15.054 4.29711 15.054 4.39629C15.054 4.49548 15.1493 4.5763 15.2664 4.5763H18.8723C18.8892 4.5763 18.9026 4.58769 18.9026 4.60202V5.36981C18.9026 5.38413 18.8892 5.39552 18.8723 5.39552H11.7377C11.6206 5.39552 11.5252 5.3147 11.5252 5.21551V4.94807H13.6458C13.9972 4.94807 14.2831 4.70579 14.2831 4.40806V3.57707L19.0294 2.49959C19.1471 2.47277 19.2449 2.40903 19.3056 2.32013C19.3663 2.23123 19.3827 2.12671 19.3511 2.02752L19.1168 1.28582C19.0517 1.0801 18.8018 0.958131 18.559 1.01324L11.5726 2.5988C11.2947 2.66199 11.1005 2.87653 11.1005 3.12029V5.21502C11.1005 5.43471 11.2565 5.6239 11.4785 5.7082V6.09852H10.7731V5.9299C10.7731 5.71702 10.5692 5.54417 10.3179 5.54417H9.62539C9.37416 5.54417 9.17018 5.71702 9.17018 5.9299V6.1191H9.07611C6.6349 6.1191 4.64912 7.802 4.64912 9.87101V15.5768C4.44276 15.6662 4.30078 15.8479 4.30078 16.0577V16.5885C4.30078 16.7979 4.44276 16.9799 4.64912 17.0694V17.8203C4.64912 17.9195 4.7445 18.0003 4.86155 18.0003C4.97861 18.0003 5.07398 17.9195 5.07398 17.8203V17.1291H5.80536V17.8203C5.80536 17.9195 5.90074 18.0003 6.01779 18.0003C6.13484 18.0003 6.23022 17.9195 6.23022 17.8203V17.1291H8.31206V25.1C8.31206 25.5963 8.78851 26.0001 9.37423 26.0001H15.9911C16.5768 26.0001 17.0533 25.5963 17.0533 25.1V17.9267C17.0533 17.8275 16.9579 17.7466 16.8408 17.7466C16.7238 17.7466 16.6284 17.8275 16.6284 17.9267V25.1C16.6284 25.3978 16.3425 25.64 15.9911 25.64H9.37372C9.02235 25.64 8.73645 25.3977 8.73645 25.1V17.1287H16.7906C17.1419 17.1287 17.4278 16.8864 17.4278 16.5887V16.0578C17.4278 15.8392 17.2737 15.6509 17.0528 15.566ZM11.5253 4.39621V3.12071C11.5253 3.03952 11.5903 2.96789 11.6824 2.94695L18.6694 1.3603C18.6798 1.35773 18.6876 1.3603 18.6924 1.36287C18.6972 1.36544 18.7039 1.37004 18.7063 1.3783L18.9406 2.11999C18.9449 2.13395 18.9352 2.14773 18.9194 2.1514L14.0159 3.26491C13.9232 3.28603 13.8588 3.35749 13.8588 3.43867V4.40814C13.8588 4.50733 13.7634 4.58815 13.6463 4.58815H11.5257L11.5253 4.39621ZM10.7733 6.45859H11.6911C11.8081 6.45859 11.9035 6.37777 11.9035 6.27858V5.75508H13.4536L13.4604 7.58088C13.4853 8.24583 13.9429 8.83324 14.6547 9.11298L15.5203 9.45353C16.1927 9.71785 16.6273 10.295 16.6273 10.923V15.5173L8.73632 15.5171V10.9186C8.73632 10.2926 9.16855 9.71658 9.83728 9.45133L10.713 9.10362C10.8131 9.06394 10.9072 9.01729 10.997 8.96585H12.1276C12.2447 8.96585 12.34 8.88503 12.34 8.78585C12.34 8.68666 12.2447 8.60584 12.1276 8.60584H11.4526C11.7372 8.30129 11.9024 7.91977 11.9024 7.51862L11.9035 7.10205C11.9035 7.00286 11.8547 7.01449 11.7377 7.01449C11.6206 7.01449 11.4775 6.99605 11.4775 7.09523H10.7722L10.7733 6.45859ZM9.59522 5.92996C9.59522 5.91563 9.60866 5.90424 9.62556 5.90424H10.3181C10.335 5.90424 10.3485 5.91563 10.3485 5.92996V7.6272C10.3485 7.64153 10.335 7.65292 10.3181 7.65292H9.62556C9.60866 7.65292 9.59522 7.64153 9.59522 7.6272V5.92996ZM9.62556 8.01293H10.3181C10.5693 8.01293 10.7733 7.84009 10.7733 7.6272V7.45637H11.4787V7.51956C11.4787 8.05647 11.1078 8.55078 10.5336 8.77851L9.65787 9.12622C8.84025 9.45079 8.31174 10.1543 8.31174 10.9197V15.5182H6.2299L6.22969 10.1285C6.22969 8.71557 7.53031 7.55636 9.17032 7.46377V7.6278C9.17032 7.84032 9.37433 8.01293 9.62556 8.01293ZM5.0735 9.87109C5.0735 8.00099 6.86878 6.47919 9.07564 6.47919H9.16971V7.10205C7.29558 7.19573 5.80424 8.51697 5.80424 10.1277V15.517H5.07285L5.0735 9.87109ZM17.0032 16.5888C17.0032 16.688 16.9078 16.7688 16.7907 16.7688H4.93765C4.82059 16.7688 4.72522 16.688 4.72522 16.5888V16.0579C4.72522 15.9588 4.8206 15.8779 4.93765 15.8779H16.7907C16.9078 15.8779 17.0032 15.9588 17.0032 16.0579V16.5888Z" stroke="#1D221E" stroke-width="0.5"/>
</svg>
