<svg width="21" height="24" viewBox="0 0 21 24" fill="none" xmlns="http://www.w3.org/2000/svg">
<path fill-rule="evenodd" clip-rule="evenodd" d="M18.7042 22.0421C19.0657 21.8436 19.3131 21.4626 19.3213 21.0206C19.3219 20.9872 19.3213 20.9531 19.319 20.9195V20.9189L19.3184 20.9136V20.913L19.3178 20.9071L19.3172 20.9018V20.9012L18.0043 11.9916C18.0114 11.9815 18.0184 11.9709 18.0238 11.9599L19.975 8.1397C20.0309 8.0297 19.9874 7.8947 19.8774 7.83881C19.7674 7.78292 19.6324 7.82642 19.5766 7.93642L17.6864 11.6367L15.9114 11.6655H15.9085L14.0001 11.696C13.8767 11.6977 13.7779 11.8001 13.7797 11.9235C13.7814 12.0468 13.8838 12.1456 14.0071 12.1439L15.721 12.1163L16.8865 19.9751L4.24548 20.0357C4.22896 20.0357 4.21262 20.0375 4.19727 20.041C3.63839 20.0969 3.20117 20.5688 3.20117 21.1424C3.20117 21.6355 3.5239 22.0539 3.97002 22.1968V22.7728C3.97002 23.0538 4.08455 23.3088 4.26914 23.4934C4.45372 23.678 4.70875 23.7925 4.98977 23.7925H7.43542C7.71642 23.7925 7.97148 23.678 8.15606 23.4934C8.34064 23.3088 8.45517 23.0538 8.45517 22.7728V22.245L14.2173 22.2104V22.7822C14.2173 23.0632 14.3318 23.3183 14.5164 23.5029C14.701 23.6875 14.956 23.802 15.237 23.802H17.6827C17.9637 23.802 18.2187 23.6875 18.4033 23.5029C18.5879 23.3183 18.7024 23.0633 18.7024 22.7822L18.7018 22.0421L18.7042 22.0421ZM14.7829 22.2084L18.0513 22.1889C18.0619 22.1889 18.0725 22.1878 18.083 22.1866C18.0924 22.1878 18.1013 22.1889 18.1105 22.1889H18.1398V22.7838C18.1398 22.909 18.0887 23.0231 18.0058 23.1054C17.923 23.1882 17.8088 23.2394 17.6843 23.2394H15.2386C15.1135 23.2394 14.9993 23.1882 14.9171 23.1054C14.8342 23.0225 14.7831 22.9084 14.7831 22.7838L14.7835 22.2084L14.7829 22.2084ZM4.53523 22.2694L7.89239 22.2493V22.7736C7.89239 22.8987 7.84122 23.0129 7.75837 23.0951C7.67553 23.178 7.56139 23.2291 7.43683 23.2291H4.99119C4.86603 23.2291 4.7519 23.178 4.66964 23.0951C4.5868 23.0123 4.53563 22.8981 4.53563 22.7736L4.53583 22.2694L4.53523 22.2694ZM4.32133 20.4836C4.31719 20.4836 4.31306 20.4841 4.30893 20.4841C3.94448 20.4841 3.6495 20.7791 3.6495 21.1436C3.6495 21.508 3.94448 21.803 4.30893 21.803C8.88496 21.803 13.4684 21.769 18.0487 21.7412C18.0599 21.7412 18.0709 21.7418 18.0822 21.7436C18.094 21.7418 18.1062 21.7412 18.1191 21.7412C18.5283 21.7489 18.8667 21.4226 18.8738 21.0131C18.8744 20.9948 18.8738 20.9767 18.8726 20.9584L17.5656 12.0876L16.1733 12.1098L17.3682 20.1635V20.1665L17.3688 20.1712V20.1736L17.3694 20.1771V20.1789L17.37 20.1836V20.2196L17.3694 20.2232V20.2244C17.3647 20.2684 17.3472 20.309 17.32 20.3418L17.317 20.3454V20.346L17.3135 20.3495V20.3501L17.31 20.3536V20.3542L17.3064 20.3578C17.2818 20.383 17.2505 20.4024 17.2153 20.4137H17.2147L17.2106 20.4148L17.2035 20.4172L17.2011 20.4178C17.1982 20.4184 17.1946 20.4196 17.1917 20.4202L17.1864 20.4213H17.1858L17.1805 20.4219H17.1799L17.1752 20.4225H17.1728L17.1693 20.4231H17.1675L17.1628 20.4237H17.1456L4.32133 20.4836Z" fill="#6AA74D" stroke="#6AA74D" stroke-width="0.3"/>
<path fill-rule="evenodd" clip-rule="evenodd" d="M11.2255 5.66007C11.1708 5.66007 11.1161 5.6583 11.0622 5.65417C11.4412 5.97689 11.7139 6.39113 11.768 6.92719C11.7816 7.06179 11.7804 7.19698 11.7675 7.33158H14.1655C14.1901 7.33158 14.2143 7.33571 14.2365 7.34339C14.6285 7.36287 14.9853 7.60137 15.1486 7.96463C15.3873 8.49535 15.1498 9.12194 14.619 9.36042C14.498 9.41513 14.367 9.44622 14.2347 9.45212C14.2125 9.4598 14.1889 9.46334 14.1643 9.46334H10.8471C10.7314 9.64497 10.6143 9.8266 10.5009 10.0118C10.4139 10.1541 10.3187 10.3133 10.2587 10.4685C10.2469 10.4996 10.2075 10.6138 10.2211 10.6484L10.2246 10.6525L10.2252 10.6531L10.2276 10.6561L10.2317 10.6602L10.2335 10.6626L10.2347 10.6637L12.4239 13.499C12.6596 13.7794 12.8023 14.1267 12.8318 14.491C12.8354 14.5028 12.8377 14.515 12.8389 14.528L13.238 18.3359C13.2392 18.3489 13.2398 18.3611 13.2386 18.3735V18.3765C13.2179 19.0747 12.6461 19.6302 11.9473 19.6302C11.4195 19.6302 10.9547 19.3104 10.7565 18.8403C10.7284 18.8098 10.7077 18.7716 10.6995 18.7275L10.1563 15.7112C10.1546 15.7006 10.1534 15.6906 10.1528 15.6807C10.1087 15.5215 10.0371 15.3704 9.94126 15.2346C9.93064 15.2252 9.92119 15.2145 9.91253 15.2029L8.41146 13.1853L6.30037 15.9499C6.28206 15.9739 6.25924 15.9934 6.23444 16.0082C6.06521 16.1939 5.82474 16.3008 5.57209 16.3008C5.52978 16.3008 5.48747 16.2978 5.44517 16.2919C5.41525 16.2949 5.38397 16.2913 5.35346 16.2813L1.89696 15.1281C1.88043 15.1258 1.8641 15.1222 1.84816 15.1163C1.82297 15.1069 1.79817 15.0968 1.77416 15.0864C1.77062 15.0852 1.76767 15.0835 1.76472 15.0823C1.30208 14.8755 1 14.4146 1 13.9028C1 13.1886 1.57893 12.6103 2.29247 12.6103C2.31372 12.6103 2.33418 12.6109 2.35544 12.6121C2.37885 12.6097 2.40365 12.6115 2.42766 12.618C2.4859 12.6239 2.54396 12.6345 2.60102 12.6479C2.62857 12.655 2.65455 12.6668 2.6762 12.6819L4.64029 13.1926H4.65859C4.66449 13.1926 4.6698 13.1932 4.67571 13.1932C4.7615 13.1932 4.84317 13.1597 4.90496 13.1003C4.9091 13.0962 4.91382 13.092 4.91854 13.0885C4.92326 13.0808 4.92858 13.0731 4.93448 13.0657C5.39869 12.4714 5.84479 11.8649 6.25098 11.2291C6.94915 10.1347 7.48637 8.9999 7.95059 7.79675H7.12431L6.07526 9.23188C6.067 9.2431 6.05814 9.25314 6.04889 9.2618C5.83912 9.47629 5.55103 9.59731 5.25072 9.59731C4.63361 9.59731 4.13337 9.09709 4.13337 8.47996C4.13337 8.33591 4.16092 8.19364 4.21503 8.06041C4.22507 8.03641 4.23786 8.01515 4.25439 7.99685C4.26029 7.98033 4.26797 7.96399 4.27781 7.94805L5.7948 5.61656C5.8013 5.60653 5.80838 5.59708 5.81606 5.58901C5.82196 5.5778 5.82845 5.56678 5.83672 5.55615C5.98431 5.35917 6.21513 5.24287 6.46094 5.2411H6.46684L9.8909 5.24228C9.28794 4.82096 8.89299 4.122 8.89299 3.33033C8.89299 2.04315 9.93614 1 11.2233 1C11.2286 1 11.2334 1 11.2387 1.00059C11.2434 1 11.2487 1 11.254 1C12.5412 1 13.5843 2.04315 13.5843 3.33033C13.5843 4.61751 12.5412 5.66066 11.254 5.66066C11.2487 5.66066 11.244 5.66066 11.2387 5.66007L11.2255 5.66007ZM6.18344 5.84051C6.1799 5.84759 6.17576 5.85468 6.17163 5.86117L4.65464 8.19266C4.64873 8.2021 4.64224 8.21037 4.63515 8.21844C4.63397 8.22198 4.63279 8.22552 4.63102 8.22906C4.59875 8.30896 4.58222 8.39416 4.58222 8.48055C4.58222 8.85031 4.88192 9.15001 5.25168 9.15001C5.42917 9.15001 5.59959 9.07957 5.72474 8.95421L6.83087 7.44074C6.87436 7.38131 6.93792 7.34904 7.01132 7.34904H8.27547C8.35123 7.34904 8.41598 7.38308 8.45946 7.44547C8.50236 7.50785 8.51181 7.58066 8.48524 7.65111C7.98384 8.99692 7.40214 10.2577 6.62916 11.4701C6.21591 12.1183 5.76172 12.7366 5.28788 13.3421C5.27784 13.3551 5.26603 13.3667 5.25383 13.3768C5.2438 13.3933 5.23199 13.4084 5.21802 13.422C5.07279 13.5625 4.87896 13.6412 4.67727 13.6412C4.6637 13.6412 4.65032 13.6406 4.63674 13.6401C4.62198 13.6395 4.60801 13.6371 4.59384 13.6336C4.57259 13.6342 4.55153 13.6318 4.53028 13.6265L2.35148 13.0599C2.332 13.0588 2.31272 13.0582 2.29324 13.0582C1.82666 13.0582 1.44806 13.4366 1.44806 13.9033C1.44806 14.2359 1.64327 14.5358 1.9418 14.6722L5.40006 15.8259C5.41364 15.8277 5.42643 15.8301 5.44001 15.8342C5.48291 15.8478 5.52758 15.8543 5.57225 15.8543C5.70685 15.8543 5.83378 15.7936 5.91898 15.6897C5.93492 15.6703 5.95303 15.6545 5.97369 15.6415L8.23651 12.6788L8.2371 12.6782L8.25481 12.6575L8.27548 12.6398L8.27961 12.6369L8.2802 12.6363L8.28433 12.6333L8.28492 12.6327L8.28905 12.6298C8.32487 12.6058 8.36482 12.5934 8.40535 12.5922H8.41952C8.4636 12.5934 8.50768 12.6075 8.54527 12.6351L8.5494 12.638L8.54999 12.6386L8.57065 12.6563L8.58836 12.677L8.59131 12.6811L8.5919 12.6817L10.2093 14.8558C10.2157 14.8623 10.2222 14.8688 10.2281 14.8764C10.4609 15.1628 10.6048 15.5113 10.642 15.8785C10.6426 15.8862 10.6432 15.8938 10.6432 15.9013L11.1028 18.4538C11.1082 18.4674 11.1123 18.4814 11.1152 18.4961C11.1898 18.8958 11.5383 19.1849 11.9451 19.1849C12.4007 19.1849 12.7738 18.8234 12.7891 18.3686L12.3965 14.6212C12.3906 14.6035 12.3871 14.5848 12.3865 14.5654C12.3729 14.3168 12.2895 14.0769 12.146 13.8748C12.1431 13.8713 12.1401 13.8678 12.1372 13.8642L9.88321 10.9449C9.60988 10.6352 9.90092 10.142 10.0725 9.85417C10.3435 9.40038 10.6473 8.97373 10.8976 8.50543C11.1393 8.05401 11.3737 7.49633 11.3207 6.97387C11.2595 6.37036 10.8246 5.97183 10.3234 5.69083L6.47019 5.68965H6.46665C6.3596 5.68965 6.25865 5.74022 6.1945 5.82602C6.19234 5.82995 6.18761 5.83526 6.18348 5.84058L6.18344 5.84051ZM14.0629 7.77951H11.6832C11.5933 8.10755 11.4492 8.42479 11.2936 8.71581C11.2389 8.81755 11.182 8.91732 11.1238 9.0161H14.0966C14.1194 9.00843 14.1448 9.00489 14.17 9.00548C14.2611 9.00784 14.3522 8.98954 14.4351 8.95195C14.7407 8.8144 14.8776 8.4535 14.7401 8.14789C14.6366 7.91804 14.3993 7.77518 14.1482 7.79053C14.1188 7.79289 14.0901 7.78817 14.0629 7.77951ZM11.2401 1.44614C11.2353 1.44673 11.23 1.44673 11.2247 1.44673C10.1845 1.44673 9.34168 2.28953 9.34168 3.32976C9.34168 4.36994 10.1845 5.2128 11.2247 5.2128C11.23 5.2128 11.2347 5.2128 11.2401 5.21339C11.2448 5.2128 11.2501 5.2128 11.2554 5.2128C12.2956 5.2128 13.1384 4.36999 13.1384 3.32976C13.1384 2.28958 12.2956 1.44673 11.2554 1.44673C11.2501 1.44673 11.2454 1.44673 11.2401 1.44614Z" fill="#1D221E" stroke="#1D221E" stroke-width="0.3"/>
</svg>
