<svg width="25" height="26" viewBox="0 0 25 26" fill="none" xmlns="http://www.w3.org/2000/svg">
<path d="M5.76335 15.1674C5.81523 15.4237 6.15665 17.2431 5.49967 17.9011C4.06415 19.3372 2.08318 20.6688 1.38766 21.3644C0.692143 22.06 0.968174 23.0976 1.93067 24.0605C2.52951 24.6595 3.14897 25.0007 3.7048 25.0007C4.04276 25.0007 4.35617 24.8742 4.62728 24.6035C5.34501 23.8857 6.65552 21.9273 8.09057 20.4919C8.40777 20.1759 8.98488 20.0871 9.53169 20.0871C10.064 20.0871 10.567 20.1699 10.7686 20.2091C11.7867 20.615 12.865 20.8042 13.9451 20.821L5.17021 12.0474C5.18799 13.1078 5.37064 14.166 5.76327 15.1674H5.76335ZM10.9388 19.7834C10.911 19.7715 10.8822 19.7635 10.8535 19.7582C10.5964 19.7094 10.0819 19.6281 9.5315 19.6281C8.71856 19.6281 8.12449 19.8099 7.76593 20.1678C6.90653 21.0275 6.08798 22.0735 5.43134 22.9133C4.97514 23.4982 4.58083 24.0015 4.30264 24.2793C4.12609 24.4555 3.93059 24.5417 3.70495 24.5417C3.2899 24.5417 2.77538 24.2558 2.25577 23.7363C1.83529 23.3155 1.56915 22.8939 1.48546 22.5149C1.41299 22.1838 1.48727 21.9149 1.71241 21.6896C1.97873 21.4241 2.47513 21.0352 3.05057 20.5854C3.90007 19.9204 4.9586 19.0919 5.82458 18.2264C6.61842 17.4323 6.32278 15.6143 6.21344 15.0768C6.208 15.0516 6.19977 15.0255 6.19088 15.0015C5.97496 14.4511 5.82096 13.8666 5.72839 13.2554L12.7388 20.2641C12.1078 20.1697 11.5054 20.0093 10.9389 19.7832L10.9388 19.7834Z" fill="#1D221E" stroke="#1D221E" stroke-width="0.6"/>
<path d="M21.129 4.85978C19.2896 3.02043 17.2002 2.25146 15.1397 2.25146C12.4194 2.25146 9.74923 3.59047 7.7621 5.57773C6.46956 6.8693 5.65775 8.45748 5.32227 10.1229L15.8638 20.6652C17.5292 20.3302 19.1183 19.5196 20.4098 18.2272C23.903 14.7337 25.3985 9.12892 21.1287 4.85995L21.129 4.85978ZM20.0858 17.9024C18.9609 19.0281 17.5562 19.806 16.0121 20.1625L5.82392 9.97559C6.18148 8.43189 6.96033 7.02766 8.08721 5.90196C10.1155 3.87355 12.6859 2.71028 15.1398 2.71028C17.2566 2.71028 19.1624 3.54215 20.8043 5.18422C22.6733 7.05287 23.5102 9.33396 23.2244 11.781C22.9706 13.9583 21.8558 16.1322 20.0856 17.9022L20.0858 17.9024Z" fill="#1D221E" stroke="#1D221E" stroke-width="0.6"/>
<circle cx="3.77777" cy="2.77777" r="2.77777" fill="#6AA74D"/>
</svg>
