<svg width="24" height="25" viewBox="0 0 24 25" fill="none" xmlns="http://www.w3.org/2000/svg">
<path d="M18.1832 24.2347C18.4563 24.2347 18.6384 24.0411 18.6384 23.7506V1.48406C18.6384 1.19357 18.4563 1 18.1832 1H5.80282C5.52968 1 5.34766 1.19357 5.34766 1.48406V23.7506C5.34766 24.0411 5.52968 24.2347 5.80282 24.2347C6.07596 24.2347 6.25798 24.0411 6.25798 23.7506V1.96811H17.728V23.7506C17.728 24.0411 17.9556 24.2347 18.1832 24.2347Z" fill="#1D221E" stroke="#1D221E" stroke-width="0.3"/>
<path d="M9.99243 24.2345H13.9524C14.2256 24.2345 14.4076 24.041 14.4076 23.7505L14.4074 16.3928H14.999C15.2721 16.3928 15.4541 16.1993 15.4541 15.9088L15.4544 10.536C15.4544 9.42275 14.6352 8.55127 13.5881 8.55127H10.3565C9.35498 8.55127 8.49023 9.42245 8.49023 10.536V15.909C8.49023 16.1995 8.67225 16.3931 8.9454 16.3931H9.53699L9.53721 23.7507C9.53721 24.0412 9.76479 24.2348 9.99237 24.2348L9.99243 24.2345ZM9.44615 15.4247V10.536C9.44615 10.0034 9.85575 9.51938 10.402 9.51938H13.6337C14.1345 9.51938 14.5896 9.95498 14.5896 10.536V15.425H13.998C13.7249 15.425 13.5429 15.6186 13.5429 15.909L13.5427 23.2667H12.4503V20.0718C12.4503 19.7814 12.2683 19.5878 11.9952 19.5878C11.722 19.5878 11.54 19.7814 11.54 20.0718V23.2667H10.4477V15.909C10.4477 15.6186 10.2657 15.425 9.99252 15.425L9.44615 15.4247Z" fill="#6AA74D" stroke="#6AA74D" stroke-width="0.3"/>
<path d="M11.9961 7.82501C13.134 7.82501 14.0899 6.80844 14.0899 5.5983C14.0899 4.38816 13.134 3.37158 11.9961 3.37158C10.8582 3.37158 9.90234 4.38816 9.90234 5.5983C9.90234 6.80844 10.8582 7.82501 11.9961 7.82501ZM11.9961 4.33969C12.6333 4.33969 13.1796 4.92066 13.1796 5.5983C13.1796 6.27594 12.6333 6.8569 11.9961 6.8569C11.3589 6.8569 10.8127 6.27594 10.8127 5.5983C10.8127 4.87221 11.3589 4.33969 11.9961 4.33969Z" fill="#6AA74D" stroke="#6AA74D" stroke-width="0.3"/>
<path d="M21.1883 8.40579C20.9151 8.40579 20.7331 8.59936 20.7331 8.88984V14.3114L20.1415 13.7304C19.9595 13.5368 19.6863 13.5368 19.5043 13.7789C19.3223 13.9724 19.3223 14.2629 19.5499 14.4565L20.9154 15.8117C20.9154 15.8117 20.9609 15.8602 21.0065 15.8602L21.0521 15.9086C21.0976 15.9086 21.1432 15.9571 21.2341 15.9571H21.3252H21.4163C21.4619 15.9571 21.4619 15.9086 21.4619 15.9086C21.5075 15.9086 21.5075 15.8602 21.553 15.8602L22.8274 14.408C23.0094 14.2144 22.9638 13.924 22.7818 13.7304C22.5998 13.5368 22.3266 13.5853 22.1446 13.7788L21.6895 14.3114L21.6888 8.88982C21.6435 8.59957 21.4612 8.40579 21.1883 8.40579Z" fill="#1D221E" stroke="#1D221E" stroke-width="0.3"/>
<path d="M1.52614 11.7948C1.6626 11.7948 1.75372 11.7463 1.84484 11.6497L2.3 11.1172V16.3933C2.3 16.6838 2.48202 16.8774 2.75516 16.8774C3.02831 16.8774 3.21033 16.6838 3.21033 16.3933V10.972L3.80192 11.553C3.98394 11.7465 4.25708 11.7465 4.43909 11.5045C4.6211 11.2625 4.62111 11.0205 4.39353 10.8269L3.02805 9.47166C3.02805 9.47166 2.98249 9.47166 2.98249 9.42321C2.93693 9.42321 2.93693 9.37476 2.89136 9.37476H2.80024H2.70912H2.61799H2.52687C2.48131 9.37476 2.48131 9.42321 2.48131 9.42321C2.43575 9.42321 2.43575 9.47166 2.39019 9.47166L1.11585 10.9238C0.933831 11.1174 0.979393 11.4079 1.16141 11.6014C1.29854 11.7466 1.43502 11.7948 1.52614 11.7948Z" fill="#1D221E" stroke="#1D221E" stroke-width="0.3"/>
</svg>
