<svg width="26" height="26" viewBox="0 0 26 26" fill="none" xmlns="http://www.w3.org/2000/svg">
<path d="M11.0643 18.4187V4.87065C11.0643 4.65772 10.8901 4.48355 10.6772 4.48355H8.35458V3.70937C8.35458 3.49644 8.18041 3.32227 7.96748 3.32227H6.41907C6.20614 3.32227 6.03196 3.49644 6.03196 3.70937V4.48355H3.70937C3.49644 4.48355 3.32227 4.65772 3.32227 4.87065L3.32248 18.4187C3.32248 18.6316 3.49665 18.8058 3.70958 18.8058H10.6772C10.8901 18.8058 11.0643 18.6316 11.0643 18.4187ZM6.80637 4.09641H7.58055V4.48352H6.80637V4.09641ZM10.2903 18.0316H4.09638V5.25777H10.2897V18.0316H10.2903Z" fill="#6AA74D"/>
<path d="M7.62276 7.01873L4.91305 12.4378C4.85113 12.5579 4.85892 12.7011 4.92864 12.8133C4.99835 12.9256 5.12218 12.9953 5.25761 12.9953H6.70914L6.03939 16.0068C5.99685 16.1966 6.10131 16.3861 6.28328 16.452C6.32582 16.4676 6.37236 16.4752 6.4187 16.4752C6.55812 16.4752 6.68975 16.4017 6.75925 16.2701L9.46897 11.238C9.53468 11.1179 9.53088 10.9747 9.46117 10.8547C9.39146 10.7346 9.26383 10.6649 9.1282 10.6649H7.66508L8.34642 7.25848C8.38517 7.06872 8.2767 6.87917 8.09095 6.81725C7.90898 6.75533 7.70764 6.83662 7.61876 7.0108L7.62276 7.01873ZM8.48208 11.451L7.40608 13.4522L7.57246 12.6974C7.59962 12.5813 7.57246 12.4613 7.49495 12.3722C7.42145 12.2793 7.30919 12.229 7.19293 12.229H5.88461L7.02272 9.9567L6.8138 10.9942C6.79063 11.1064 6.82159 11.2265 6.89509 11.3153C6.9686 11.4044 7.07706 11.4585 7.1931 11.4585H8.48202L8.48208 11.451Z" fill="#6AA74D"/>
<path d="M24.6124 7.9674H24.2253V6.8061C24.2253 6.59317 24.0512 6.419 23.8382 6.419H22.2898C22.0769 6.419 21.9027 6.59317 21.9027 6.8061V7.9674H21.5156C21.3027 7.9674 21.1285 8.14157 21.1285 8.3545V11.4513C21.1285 12.3841 21.7943 13.1661 22.6769 13.3481V22.6772C22.6769 23.5327 21.984 24.2256 21.1285 24.2256C20.273 24.2256 19.5801 23.5327 19.5801 22.6772V14.9354C19.5801 13.654 18.5389 12.6128 17.2575 12.6128C15.9761 12.6128 14.9349 13.654 14.9349 14.9354V23.4514C14.9349 23.8773 14.5866 24.2256 14.1607 24.2256H8.3545C8.06807 24.2256 7.82418 24.0668 7.68874 23.8385H7.96738C8.05247 23.8385 8.13376 23.8113 8.19968 23.761L9.7481 22.5997C9.84477 22.5262 9.9029 22.414 9.9029 22.2901V21.1288H11.4513C12.5197 21.1288 13.3868 20.2617 13.3868 19.1933L13.387 2.93548C13.387 1.86708 12.5199 1 11.4515 1L2.93548 1.00021C1.86708 1.00021 1 1.86729 1 2.93569L1.00021 19.1935C1.00021 20.2619 1.86729 21.129 2.93569 21.129H4.48411V22.2903C4.48411 22.4104 4.54223 22.5264 4.6389 22.5999L6.18732 23.7612C6.25303 23.8116 6.33433 23.8387 6.41962 23.8387H6.86085C7.03503 24.5045 7.63503 25 8.35492 25H14.1611C15.0166 25 15.7096 24.3071 15.7096 23.4516V14.9356C15.7096 14.0801 16.4025 13.3871 17.258 13.3871C18.1135 13.3871 18.8064 14.0801 18.8064 14.9356V22.6774C18.8064 23.9587 19.8476 25 21.129 25C22.4104 25 23.4516 23.9587 23.4516 22.6774V13.3483C24.3342 13.1703 25 12.3883 25 11.4515V8.35467C25 8.14175 24.8258 7.96757 24.6129 7.96757L24.6124 7.9674ZM1.77412 19.1927V2.93487C1.77412 2.29607 2.29664 1.77357 2.93542 1.77357H11.4515C12.0903 1.77357 12.6128 2.29609 12.6128 2.93487V19.1927C12.6128 19.8315 12.0902 20.354 11.4515 20.354H2.93542C2.29662 20.354 1.77412 19.8315 1.77412 19.1927ZM5.25802 22.096V21.1283H9.12881V22.096L7.8399 23.0637H6.55098L5.26206 22.096H5.25802ZM22.6772 7.19306H23.4514V7.96724H22.6772V7.19306ZM24.2256 11.451C24.2256 12.0898 23.7031 12.6123 23.0643 12.6123C22.4255 12.6123 21.903 12.0897 21.903 11.451V8.74126H24.2256V11.451Z" fill="#1D221E" stroke="#1D221E" stroke-width="0.3"/>
</svg>
