<svg width="22" height="23" viewBox="0 0 22 23" fill="none" xmlns="http://www.w3.org/2000/svg">
<path d="M18.6999 0H3.29999C3.20276 0 3.10945 0.0386311 3.0407 0.107381C2.97195 0.176131 2.93332 0.269435 2.93332 0.366666V21.6333C2.93332 21.7305 2.97195 21.8238 3.0407 21.8926C3.10945 21.9613 3.20276 22 3.29999 22H4.76665C4.86388 22 4.95718 21.9613 5.02593 21.8926C5.09468 21.8238 5.13331 21.7305 5.13331 21.6333V5.86666H16.8666V21.6333C16.8666 21.7305 16.9052 21.8238 16.974 21.8926C17.0427 21.9613 17.136 22 17.2333 22H18.6999C18.7972 22 18.8905 21.9613 18.9592 21.8926C19.028 21.8238 19.0666 21.7305 19.0666 21.6333V0.366666C19.0666 0.269435 19.028 0.17613 18.9592 0.107381C18.8905 0.038632 18.7972 0 18.6999 0ZM4.39998 21.2666H3.66665V0.733332H4.39998V21.2666ZM16.8666 5.13333H5.13331V0.733332H16.8666V5.13333ZM18.3333 21.2666H17.5999V0.733332H18.3333V21.2666ZM8.79997 4.4H13.1999C13.2972 4.4 13.3905 4.36136 13.4592 4.29261C13.528 4.22386 13.5666 4.13056 13.5666 4.03333V1.83333C13.5666 1.7361 13.528 1.64279 13.4592 1.57405C13.3905 1.5053 13.2972 1.46666 13.1999 1.46666H8.79997C8.70273 1.46666 8.60943 1.5053 8.54068 1.57405C8.47193 1.6428 8.4333 1.7361 8.4333 1.83333V4.03333C8.4333 4.13056 8.47193 4.22387 8.54068 4.29261C8.60943 4.36136 8.70273 4.4 8.79997 4.4ZM9.16663 2.2H12.8333V3.66666H9.16663V2.2ZM5.86664 2.2C5.86664 2.10277 5.90528 2.00946 5.97402 1.94071C6.04277 1.87196 6.13608 1.83333 6.23331 1.83333H7.33331C7.53579 1.83333 7.69997 1.99751 7.69997 2.2C7.69997 2.40248 7.53579 2.56666 7.33331 2.56666H6.23331C6.13608 2.56666 6.04277 2.52803 5.97402 2.45928C5.90528 2.39053 5.86664 2.29723 5.86664 2.2ZM5.86664 3.66666C5.86664 3.56943 5.90528 3.47613 5.97402 3.40738C6.04277 3.33863 6.13608 3.3 6.23331 3.3H7.33331C7.53579 3.3 7.69997 3.46418 7.69997 3.66666C7.69997 3.86915 7.53579 4.03333 7.33331 4.03333H6.23331C6.13608 4.03333 6.04277 3.9947 5.97402 3.92595C5.90528 3.8572 5.86664 3.76389 5.86664 3.66666ZM14.2999 2.2C14.2999 2.10277 14.3386 2.00946 14.4073 1.94071C14.4761 1.87196 14.5694 1.83333 14.6666 1.83333H15.7666C15.9691 1.83333 16.1333 1.99751 16.1333 2.2C16.1333 2.40248 15.9691 2.56666 15.7666 2.56666H14.6666C14.5694 2.56666 14.4761 2.52803 14.4073 2.45928C14.3386 2.39053 14.2999 2.29723 14.2999 2.2ZM14.2999 3.66666C14.2999 3.56943 14.3386 3.47613 14.4073 3.40738C14.4761 3.33863 14.5694 3.3 14.6666 3.3H15.7666C15.9691 3.3 16.1333 3.46418 16.1333 3.66666C16.1333 3.86915 15.9691 4.03333 15.7666 4.03333H14.6666C14.5694 4.03333 14.4761 3.9947 14.4073 3.92595C14.3386 3.8572 14.2999 3.76389 14.2999 3.66666ZM2.19999 11C2.19999 11.0972 2.16136 11.1905 2.09261 11.2593C2.02386 11.328 1.93056 11.3667 1.83333 11.3667H0.366665C0.164182 11.3667 0 11.2025 0 11C0 10.7975 0.164182 10.6333 0.366665 10.6333H1.83333C1.93056 10.6333 2.02386 10.672 2.09261 10.7407C2.16136 10.8095 2.19999 10.9028 2.19999 11ZM0.529884 7.63843C0.44804 7.58491 0.390911 7.50094 0.371103 7.40501C0.35146 7.30909 0.370939 7.2094 0.425286 7.12788C0.479632 7.04653 0.564095 6.99022 0.660182 6.97139C0.756269 6.95273 0.855793 6.97319 0.936819 7.0282L2.03682 7.76153C2.11866 7.81505 2.17579 7.89903 2.1956 7.99495C2.21524 8.09087 2.19576 8.19056 2.14141 8.27208C2.08707 8.35343 2.0026 8.40974 1.90652 8.42857C1.81043 8.44723 1.71091 8.42677 1.62988 8.37177L0.529884 7.63843ZM2.13848 13.7297C2.19249 13.8107 2.21214 13.9098 2.19299 14.005C2.17383 14.1005 2.11769 14.1843 2.03682 14.2383L0.936828 14.9716C0.768392 15.0815 0.542828 15.0353 0.431207 14.8678C0.319732 14.7005 0.363765 14.4747 0.529913 14.3614L1.62991 13.628C1.71094 13.574 1.80997 13.5544 1.90523 13.5735C2.00066 13.5925 2.08462 13.6488 2.13848 13.7297ZM22 10.9998C22 11.0971 21.9614 11.1904 21.8926 11.2591C21.8239 11.3279 21.7306 11.3665 21.6333 11.3665H20.1667C19.9642 11.3665 19.8 11.2023 19.8 10.9998C19.8 10.7973 19.9642 10.6332 20.1667 10.6332H21.6333C21.7306 10.6332 21.8239 10.6718 21.8926 10.7405C21.9614 10.8093 22 10.9026 22 10.9998ZM19.8616 8.26994C19.8075 8.18891 19.7879 8.08988 19.8071 7.99461C19.8262 7.89918 19.8824 7.81537 19.9634 7.76135L21.0634 7.02802C21.1442 6.97302 21.2438 6.95256 21.3397 6.97138C21.4358 6.99004 21.5204 7.04652 21.5746 7.12787C21.6289 7.20922 21.6484 7.30891 21.6288 7.40483C21.6091 7.5006 21.552 7.58473 21.4701 7.63826L20.3702 8.37159C20.2891 8.42544 20.1901 8.44509 20.0948 8.42594C19.9994 8.40695 19.9156 8.3508 19.8616 8.26977L19.8616 8.26994ZM21.4702 14.3612C21.552 14.4147 21.6091 14.4987 21.6289 14.5946C21.6486 14.6906 21.6291 14.7902 21.5748 14.8718C21.5204 14.9531 21.4359 15.0094 21.3399 15.0282C21.2438 15.0469 21.1442 15.0264 21.0632 14.9714L19.9632 14.2381C19.7971 14.1248 19.753 13.8989 19.8645 13.7317C19.9762 13.5642 20.2017 13.518 20.3701 13.6279L21.4702 14.3612Z" fill="#1D221E"/>
<path fill-rule="evenodd" clip-rule="evenodd" d="M12.5192 8.75577C12.5192 9.61868 11.8376 10.3436 11.0262 10.3436C10.2148 10.3436 9.5332 9.61868 9.5332 8.75577C9.5332 7.89286 10.2148 7.16797 11.0262 7.16797C11.8376 7.16797 12.5192 7.89286 12.5192 8.75577ZM11.8701 8.75577C11.8701 8.27256 11.4806 7.8583 11.0262 7.8583C10.5719 7.8583 10.1823 8.23802 10.1823 8.75577C10.1823 9.23897 10.5719 9.65324 11.0262 9.65324C11.4806 9.65324 11.8701 9.23897 11.8701 8.75577ZM12.4203 22.0445H9.59656L9.59652 22.0447C9.43424 22.0447 9.27196 21.9067 9.27196 21.6995L9.2718 16.453H8.84995C8.65518 16.453 8.52539 16.315 8.52539 16.1079V12.2765C8.52539 11.4825 9.14202 10.8613 9.85613 10.8613H12.1606C12.9072 10.8613 13.4913 11.4827 13.4913 12.2765L13.4911 16.1077C13.4911 16.3148 13.3613 16.4528 13.1666 16.4528H12.7447L12.7449 21.6994C12.7449 21.9065 12.6151 22.0445 12.4203 22.0445ZM9.20702 12.2765V15.7625L9.59662 15.7627C9.79139 15.7627 9.92118 15.9007 9.92118 16.1079V21.3544H10.7001V19.0762C10.7001 18.8691 10.8299 18.7311 11.0247 18.7311C11.2194 18.7311 11.3492 18.8691 11.3492 19.0762V21.3544H12.1281L12.1283 16.1079C12.1283 15.9007 12.2581 15.7627 12.4528 15.7627H12.8747V12.2765C12.8747 11.8622 12.5501 11.5516 12.1931 11.5516H9.88864C9.4991 11.5516 9.20702 11.8968 9.20702 12.2765Z" fill="#6AA74D"/>
</svg>
