<svg width="27" height="14" viewBox="0 0 27 14" fill="none" xmlns="http://www.w3.org/2000/svg">
<path d="M12.099 7.51684C11.112 6.97222 11.0012 6.00959 11.4718 5.15773C11.9421 4.30587 12.8147 3.88627 13.8029 4.43089C14.7899 4.97666 15.5168 6.27978 15.0462 7.13164C14.5759 7.9837 13.0861 8.06146 12.099 7.51684Z" fill="#6AA74D"/>
<path fill-rule="evenodd" clip-rule="evenodd" d="M24.5418 8.97069C24.5418 8.97069 24.5418 8.9707 24.5418 8.9707C24.9065 9.10448 25.196 9.20897 25.661 9.25331L24.4327 8.59417L24.4326 8.5941L19.0617 5.71184C19.3213 5.45135 19.6738 5.18409 19.9074 5.01648C20.0545 4.91096 20.1544 4.84493 20.1544 4.84493L24.7837 3.94441C25.3107 3.84105 25.6561 3.32968 25.5541 2.80186C25.4507 2.27348 24.938 1.92813 24.4116 2.03146L20.17 2.85657C17.57 3.62637 16.3458 5.18636 16.2271 5.63758L15.25 8.72489C15.4451 8.77797 15.619 8.8357 15.7797 8.89254C15.8524 8.91823 15.9224 8.94374 15.9905 8.96855L15.9962 8.97063C16.4836 9.14936 16.8364 9.27809 17.6628 9.27809C18.4898 9.27809 18.8429 9.14936 19.332 8.97103L19.3331 8.97063L19.3335 8.97048C19.9097 8.76013 20.6286 8.49772 21.9382 8.49772C21.9982 8.49772 22.0569 8.49827 22.1145 8.49934C22.242 8.50172 22.3637 8.50665 22.4799 8.51382C23.4526 8.57377 24.0456 8.78983 24.537 8.96886L24.5417 8.9706L24.5418 8.97063L24.5417 8.97066C24.5417 8.97067 24.5418 8.97068 24.5418 8.97069ZM20.4493 7.60572L17.3838 5.96069L18.3445 4.99696C18.5664 4.77429 18.8277 4.56121 19.0438 4.39601C18.5824 4.63794 18.2096 4.89812 17.9195 5.14187C17.6467 5.37104 17.4522 5.58132 17.3276 5.74181C17.2263 5.87229 17.1961 5.93743 17.1946 5.93678C17.1946 5.93677 17.1946 5.93674 17.1946 5.93669L16.5156 8.08211C16.8458 8.20012 17.0939 8.26545 17.6628 8.26545C18.3115 8.26545 18.5439 8.18066 18.9581 8.02952C18.9673 8.02618 18.9765 8.02281 18.9859 8.0194C19.3633 7.88162 19.8209 7.71573 20.4493 7.60572ZM19.6661 4.10601C19.736 4.21171 19.8756 4.42292 20.1544 4.84493L19.6662 4.10599C19.6662 4.106 19.6661 4.10601 19.6661 4.10601Z" fill="#6AA74D"/>
<path d="M8.87113 5.99952C8.87113 5.99749 8.87008 5.99656 8.87008 5.99454V3.66129C8.87008 3.66036 8.87113 3.65927 8.87113 3.65834C8.87113 3.65631 8.87008 3.65538 8.87008 3.65444L8.86991 2.70483C8.87322 2.22409 8.87881 1.22636 8.14561 0.568091C7.72546 0.191078 7.14563 0 6.42241 0C5.94151 0 5.54195 0.0912575 5.2106 0.238108L5.21165 0.239043C5.47966 0.479172 5.66409 0.753554 5.79372 1.03389C5.97047 0.971913 6.17619 0.932202 6.42238 0.932202C6.86313 0.932202 7.18451 1.02797 7.40508 1.2259C7.83204 1.60837 7.82751 2.3451 7.82524 2.69987V3.19198H5.56673L5.56708 2.70485C5.56934 2.22507 5.57493 1.22638 4.84175 0.568113C4.4216 0.191099 3.84177 2.12908e-05 3.11855 2.12908e-05C1.13081 2.12908e-05 0.517164 1.53004 0.471423 2.34012C0.456418 2.59707 0.677665 2.81588 0.966793 2.82832C1.25365 2.84078 1.49879 2.64518 1.5138 2.38824C1.52497 2.23594 1.65827 0.931731 3.11855 0.931731C3.56052 0.931731 3.88067 1.0275 4.10125 1.22543C4.52821 1.6079 4.52367 2.34463 4.5214 2.6994V7.77874C4.52926 7.77874 4.53641 7.7778 4.54426 7.7778C4.94174 7.7778 5.27467 7.80412 5.56707 7.84181V6.46503H7.82558V8.37613C7.97843 8.39155 8.15135 8.40043 8.35986 8.40043C8.5572 8.40043 8.72226 8.39248 8.87024 8.37909V6.00427C8.86989 6.00365 8.87113 6.00139 8.87113 5.99952ZM7.82545 5.53357H5.56694V4.12454H7.82545V5.53357Z" fill="#1D221E"/>
<path d="M26.2142 11.2252C25.0412 11.2252 24.4226 11.0005 23.8768 10.8007C23.3552 10.6097 22.9042 10.446 21.9408 10.446C20.9743 10.446 20.525 10.6103 20.0036 10.8007C19.4579 10.9998 18.838 11.2252 17.6662 11.2252C16.4958 11.2252 15.8771 11.0005 15.3302 10.8007C14.81 10.6097 14.3599 10.446 13.3967 10.446C12.4315 10.446 11.9823 10.6103 11.4607 10.8007C10.9149 10.9998 10.2951 11.2252 9.12465 11.2252C7.9528 11.2252 7.33436 11.0005 6.78859 10.8007C6.26842 10.6097 5.81716 10.446 4.85379 10.446C3.89041 10.446 3.4405 10.6103 2.92033 10.8007C2.37456 10.9998 1.75593 11.2252 0.584277 11.2252C0.261969 11.2252 0 10.9638 0 10.6415C0 10.3178 0.262534 10.0572 0.584277 10.0572C1.54825 10.0572 1.99756 9.89178 2.51908 9.7025C3.06485 9.50344 3.68348 9.27686 4.85394 9.27686C6.02579 9.27686 6.64422 9.50266 7.18999 9.7025C7.71016 9.89237 8.16142 10.0572 9.1248 10.0572C10.09 10.0572 10.5392 9.89178 11.0608 9.7025C11.6054 9.50344 12.2252 9.27686 13.3969 9.27686C14.5687 9.27686 15.1859 9.50266 15.7329 9.7025C16.2531 9.89237 16.7031 10.0572 17.6664 10.0572C18.6315 10.0572 19.0822 9.89178 19.6024 9.7025C20.1493 9.50344 20.768 9.27686 21.941 9.27686C23.1114 9.27686 23.7313 9.50266 24.277 9.7025C24.7986 9.89237 25.2485 10.0572 26.2142 10.0572C26.5365 10.0572 26.7985 10.3186 26.7985 10.6415C26.7985 10.9638 26.5359 11.2252 26.2142 11.2252Z" fill="#6AA74D"/>
<path d="M0.584277 12.8307C1.54825 12.8307 1.99756 12.6652 2.51908 12.4759C3.06485 12.2769 3.68348 12.0503 4.85394 12.0503C6.02579 12.0503 6.64422 12.2761 7.18999 12.4759C7.71016 12.6658 8.16142 12.8307 9.1248 12.8307C10.09 12.8307 10.5392 12.6652 11.0608 12.4759C11.6054 12.2769 12.2252 12.0503 13.3969 12.0503C14.5687 12.0503 15.1859 12.2761 15.7329 12.4759C16.2531 12.6658 16.7031 12.8307 17.6664 12.8307C18.6315 12.8307 19.0822 12.6652 19.6024 12.4759C20.1493 12.2769 20.768 12.0503 21.941 12.0503C23.1114 12.0503 23.7313 12.2761 24.277 12.4759C24.7986 12.6658 25.2485 12.8307 26.2142 12.8307C26.5365 12.8307 26.7985 13.092 26.7985 13.4143C26.7985 13.738 26.5359 14 26.2142 14C25.0412 14 24.4226 13.7742 23.8768 13.5743C23.3552 13.3833 22.9042 13.2196 21.9408 13.2196C20.9743 13.2196 20.525 13.3839 20.0036 13.5743C19.4579 13.7734 18.838 14 17.6662 14C16.4958 14 15.8771 13.7742 15.3302 13.5743C14.81 13.3833 14.3599 13.2196 13.3967 13.2196C12.4315 13.2196 11.9823 13.3839 11.4607 13.5743C10.9149 13.7734 10.2951 14 9.12465 14C7.9528 14 7.33436 13.7742 6.78859 13.5743C6.26842 13.3833 5.81716 13.2196 4.85379 13.2196C3.89041 13.2196 3.4405 13.3839 2.92033 13.5743C2.37456 13.7734 1.75593 14 0.584277 14C0.261969 14 0 13.7374 0 13.4143C0 13.092 0.262534 12.8307 0.584277 12.8307Z" fill="#1D221E"/>
</svg>
