<svg width="23" height="23" viewBox="0 0 23 23" fill="none" xmlns="http://www.w3.org/2000/svg">
<path d="M9.57179 1.32193C9.54937 1.22285 9.48828 1.13659 9.40237 1.08252C9.31629 1.02827 9.21225 1.01048 9.11316 1.03289C7.27847 1.45301 5.58634 2.34699 4.20522 3.62587C2.82435 4.90457 1.80325 6.52328 1.2438 8.32046C1.21368 8.41767 1.22327 8.52274 1.27067 8.61275C1.31807 8.70277 1.39919 8.77037 1.49639 8.80049C1.59359 8.8306 1.69866 8.82085 1.78868 8.77328C1.87869 8.72587 1.94612 8.64459 1.97606 8.54739C2.41775 7.12582 3.17276 5.82145 4.18571 4.73034L5.47707 6.0217C5.62664 6.17144 5.86947 6.17144 6.01921 6.0217C6.16878 5.87196 6.16878 5.6293 6.01921 5.47956L4.72719 4.18737H4.72702C6.00792 2.99904 7.57922 2.16908 9.28274 1.78075C9.48912 1.73386 9.6185 1.52851 9.57161 1.32211L9.57179 1.32193Z" fill="#1D221E"/>
<path d="M9.28477 21.2204C7.58116 20.8321 6.00986 20.0021 4.72861 18.8138L6.02064 17.5216H6.02081C6.17055 17.3719 6.17055 17.1292 6.02081 16.9795C5.87107 16.8297 5.62841 16.8297 5.47867 16.9795L4.1873 18.2708C3.17457 17.1797 2.41952 15.8753 1.97783 14.4538C1.94891 14.3552 1.88166 14.2724 1.79113 14.2238C1.70077 14.1752 1.5945 14.1651 1.49644 14.1954C1.39839 14.2258 1.31658 14.2943 1.26935 14.3855C1.22229 14.4767 1.21357 14.5831 1.24557 14.6807C1.80501 16.4777 2.82611 18.0964 4.20716 19.3753C5.58802 20.6541 7.28028 21.5481 9.11466 21.9683C9.2146 21.9929 9.32036 21.9763 9.40798 21.9224C9.49559 21.8683 9.55772 21.7814 9.58047 21.6809C9.60341 21.5805 9.58475 21.4752 9.52913 21.3886C9.47335 21.302 9.38521 21.2415 9.28442 21.2208L9.28477 21.2204Z" fill="#1D221E"/>
<path d="M21.5005 14.2008C21.4034 14.1707 21.2982 14.1804 21.2083 14.2278C21.1183 14.2752 21.0509 14.3563 21.0208 14.4535C20.5791 15.8751 19.8241 17.1795 18.8113 18.2706L17.5199 16.9792C17.3702 16.8295 17.1275 16.8295 16.9778 16.9792C16.8281 17.129 16.8281 17.3716 16.9778 17.5214L18.2698 18.8136H18.27C16.9889 20.0019 15.4176 20.8318 13.7138 21.2202C13.613 21.241 13.5249 21.3015 13.4691 21.388C13.4135 21.4746 13.3949 21.5801 13.4178 21.6803C13.4405 21.7808 13.5027 21.8677 13.5903 21.9218C13.6779 21.9759 13.7837 21.9923 13.8836 21.9677C15.7181 21.5475 17.4104 20.6536 18.7911 19.3749C20.172 18.096 21.1932 16.4775 21.7527 14.6803C21.8153 14.4782 21.7024 14.2634 21.5001 14.2006L21.5005 14.2008Z" fill="#1D221E"/>
<path d="M11.4996 19.9331C11.7113 19.9333 11.8827 20.1048 11.8829 20.3165C11.8829 20.5282 12.0546 20.6998 12.2662 20.6998C12.4779 20.6998 12.6496 20.5282 12.6496 20.3165C12.6496 20.0115 12.5284 19.7189 12.3128 19.5033C12.0972 19.2877 11.8045 19.1665 11.4996 19.1665C11.1947 19.1665 10.902 19.2877 10.6864 19.5033C10.4708 19.7189 10.3496 20.0116 10.3496 20.3165C10.3496 20.6214 10.4708 20.9141 10.6864 21.1297C10.902 21.3452 11.1947 21.4664 11.4996 21.4664C11.6546 21.4664 11.7945 21.5599 11.8537 21.7031C11.913 21.8463 11.8804 22.0111 11.7707 22.1208C11.661 22.2305 11.4962 22.2632 11.3529 22.2038C11.2097 22.1446 11.1163 22.0048 11.1163 21.8498C11.1163 21.6381 10.9446 21.4664 10.7329 21.4664C10.5213 21.4664 10.3496 21.6381 10.3496 21.8498C10.3496 22.1547 10.4708 22.4474 10.6864 22.663C10.902 22.8785 11.1947 22.9997 11.4996 22.9997C11.8045 22.9997 12.0972 22.8786 12.3128 22.663C12.5284 22.4473 12.6495 22.1547 12.6495 21.8498C12.6495 21.5449 12.5284 21.2522 12.3128 21.0366C12.0971 20.821 11.8045 20.6998 11.4996 20.6998C11.2879 20.6998 11.1162 20.5282 11.1162 20.3165C11.1162 20.1048 11.2879 19.9331 11.4996 19.9331Z" fill="#1D221E"/>
<path d="M11.1163 3.45002V2.00721L11.9235 3.62149C12.0029 3.78047 12.1814 3.86398 12.3544 3.82308C12.5274 3.78218 12.6496 3.62782 12.6496 3.45002V0.383374C12.6496 0.171688 12.478 4.40789e-05 12.2663 4.40789e-05C12.0546 4.40789e-05 11.8829 0.171688 11.8829 0.383374V1.82619L11.0757 0.211905C10.9963 0.0529262 10.8178 -0.0305873 10.6448 0.0103129C10.4718 0.0512132 10.3496 0.20557 10.3496 0.383374V3.45002C10.3496 3.6617 10.5213 3.83335 10.7329 3.83335C10.9446 3.83335 11.1163 3.6617 11.1163 3.45002Z" fill="#1D221E"/>
<path d="M2.34054 13.2049C2.41994 13.3639 2.59843 13.4474 2.77144 13.4065C2.94445 13.3656 3.06664 13.2113 3.06664 13.0335V9.96683C3.06664 9.75514 2.895 9.5835 2.68331 9.5835C2.47163 9.5835 2.29998 9.75514 2.29998 9.96683V11.4096L1.87609 10.562C1.81123 10.4321 1.67844 10.3502 1.53332 10.3502C1.3882 10.3502 1.2554 10.4321 1.19055 10.562L0.766661 11.4096V9.96683C0.766661 9.75514 0.595016 9.5835 0.38333 9.5835C0.171644 9.5835 0 9.75514 0 9.96683V13.0335C0 13.2113 0.122188 13.3656 0.295199 13.4065C0.46821 13.4474 0.646698 13.3639 0.726102 13.2049L1.53333 11.5907L2.34054 13.2049Z" fill="#1D221E"/>
<path d="M22.6159 10.3502C22.8276 10.3502 22.9992 10.1785 22.9992 9.96683C22.9992 9.75514 22.8276 9.5835 22.6159 9.5835H21.0825C20.8709 9.5835 20.6992 9.75514 20.6992 9.96683V13.0335C20.6992 13.1351 20.7396 13.2327 20.8115 13.3045C20.8834 13.3764 20.9809 13.4168 21.0825 13.4168H22.6159C22.8276 13.4168 22.9992 13.2452 22.9992 13.0335C22.9992 12.8218 22.8276 12.6501 22.6159 12.6501H21.4659V11.8835H22.6159C22.8276 11.8835 22.9992 11.7118 22.9992 11.5001C22.9992 11.2885 22.8276 11.1168 22.6159 11.1168H21.4659V10.3502H22.6159Z" fill="#1D221E"/>
<path d="M11.8705 18.8763L12.191 17.594C13.4514 17.4514 14.6363 16.921 15.5821 16.0757C15.7224 16.1281 15.8804 16.0937 15.9863 15.9878C16.0923 15.8819 16.1266 15.7239 16.0743 15.5834C16.9195 14.6377 17.45 13.4528 17.5925 12.1925L18.8748 11.872C19.0454 11.8294 19.1652 11.676 19.1652 11.5001C19.1652 11.3242 19.0454 11.1708 18.8748 11.1282L17.5925 10.8077C17.45 9.54732 16.9195 8.36245 16.0743 7.41679C16.1266 7.27629 16.0923 7.11834 15.9863 7.01241C15.8804 6.90648 15.7224 6.87208 15.5819 6.92445C14.6363 6.07924 13.4514 5.54875 12.191 5.4062L11.8705 4.1239C11.8279 3.95329 11.6746 3.8335 11.4986 3.8335C11.3227 3.8335 11.1694 3.95329 11.1268 4.1239L10.8062 5.4062C9.54585 5.54875 8.36099 6.07924 7.41532 6.92445C7.27483 6.87208 7.11687 6.90648 7.01094 7.01241C6.90501 7.11834 6.87062 7.27629 6.92298 7.41679C6.07777 8.36245 5.54729 9.54736 5.40473 10.8077L4.12244 11.1282C3.95182 11.1708 3.83203 11.3242 3.83203 11.5001C3.83203 11.676 3.95182 11.8294 4.12244 11.872L5.40473 12.1925C5.54728 13.4529 6.07777 14.6377 6.92298 15.5834C6.87028 15.7239 6.9045 15.882 7.0106 15.9881C7.1167 16.0941 7.27482 16.1283 7.41515 16.0757C8.36099 16.921 9.5459 17.4514 10.8062 17.594L11.1268 18.8763C11.1694 19.0469 11.3227 19.1667 11.4986 19.1667C11.6746 19.1667 11.8279 19.0469 11.8705 18.8763ZM5.79591 11.5001L8.90842 10.722C8.91801 10.7196 8.92759 10.7169 8.93666 10.7138L9.94699 10.377C9.7098 10.7035 9.58197 11.0966 9.58197 11.5001C9.58197 11.9037 9.70981 12.2968 9.94699 12.6233L8.93648 12.2865C8.92724 12.2834 8.91783 12.2807 8.90825 12.2783L5.79591 11.5001ZM9.13978 9.83798L8.26872 8.27009L9.83661 9.14115L9.6624 9.66379L9.13978 9.83798ZM9.13978 13.1623L9.66242 13.3366L9.83664 13.8592L8.26875 14.7303L9.13978 13.1623ZM17.2015 11.5002L14.0892 12.2783C14.0796 12.2807 14.07 12.2835 14.061 12.2865L13.0506 12.6233H13.0505C13.2877 12.2968 13.4155 11.9037 13.4155 11.5002C13.4155 11.0967 13.2877 10.7036 13.0505 10.3771L14.0608 10.7138C14.07 10.7169 14.0795 10.7197 14.089 10.722L17.2015 11.5002ZM13.8577 13.1623L14.7287 14.7302L13.1609 13.8592L13.3351 13.3365L13.8577 13.1623ZM13.8577 9.83798L13.335 9.66377L13.1608 9.14112L14.7287 8.27006L13.8577 9.83798ZM12.9368 14.6114L14.8617 15.6808H14.8619C14.1473 16.2563 13.2967 16.6386 12.392 16.7909L12.9368 14.6114ZM15.6797 14.8628L14.6103 12.9379L16.7898 12.393C16.6375 13.2978 16.2552 14.1483 15.6797 14.8629V14.8628ZM14.6103 10.0618L15.6797 8.13688C16.2552 8.8515 16.6375 9.70205 16.7898 10.6068L14.6103 10.0618ZM14.8617 7.31892L12.9368 8.3883L12.3919 6.20915C13.2966 6.36145 14.1471 6.74375 14.8618 7.31927L14.8617 7.31892ZM11.4988 5.79743L12.2769 8.90994C12.2793 8.91952 12.2821 8.9291 12.2851 8.93817L12.6219 9.9485C12.2954 9.71131 11.9023 9.58348 11.4988 9.58348C11.0953 9.58348 10.7022 9.71132 10.3757 9.9485L10.7124 8.93817C10.7155 8.92893 10.7183 8.91952 10.7206 8.90994L11.4988 5.79743ZM12.6488 11.5001C12.6488 11.805 12.5276 12.0977 12.312 12.3133C12.0964 12.5288 11.8037 12.65 11.4988 12.65C11.1939 12.65 10.9012 12.5289 10.6856 12.3133C10.47 12.0976 10.3488 11.805 10.3488 11.5001C10.3488 11.1952 10.47 10.9025 10.6856 10.6869C10.9012 10.4713 11.1939 10.3501 11.4988 10.3501C11.8038 10.3504 12.0961 10.4718 12.3115 10.6874C12.5271 10.9028 12.6484 11.1951 12.6488 11.5001ZM10.0608 8.38861L8.13591 7.31923H8.13573C8.85035 6.74371 9.70091 6.36143 10.6057 6.2091L10.0608 8.38861ZM7.31795 8.13722L8.38733 10.0621L6.20782 10.607C6.36013 9.70226 6.74242 8.85175 7.31795 8.13709V8.13722ZM8.38733 12.9383L7.31795 14.8632C6.74242 14.1485 6.36014 13.298 6.20782 12.3932L8.38733 12.9383ZM8.13594 15.6811L10.0608 14.6117L10.6057 16.7912C9.70098 16.6388 8.85046 16.2565 8.13581 15.6808L8.13594 15.6811ZM10.7209 14.0906C10.7185 14.081 10.7157 14.0715 10.7126 14.0624L10.3759 13.0521L10.3757 13.0517C10.7022 13.2891 11.0953 13.4167 11.4988 13.4167C11.9023 13.4167 12.2954 13.2891 12.622 13.0517L12.2852 14.062C12.2821 14.0713 12.2794 14.0807 12.277 14.0903L11.4988 17.2026L10.7209 14.0906Z" fill="#6AA74D"/>
<path d="M11.8819 11.5005C11.8819 11.7122 11.7103 11.8838 11.4986 11.8838C11.2869 11.8838 11.1152 11.7122 11.1152 11.5005C11.1152 11.2888 11.2869 11.1172 11.4986 11.1172C11.7103 11.1172 11.8819 11.2888 11.8819 11.5005Z" fill="#1D221E"/>
<path d="M16.9775 6.02143C17.0493 6.09331 17.1469 6.1337 17.2485 6.1337C17.3502 6.1337 17.4477 6.09331 17.5196 6.02143L18.811 4.73007C19.8237 5.82118 20.5787 7.12556 21.0204 8.54712C21.0494 8.64569 21.1166 8.72852 21.2071 8.77712C21.2975 8.82572 21.4038 8.83581 21.5018 8.80553C21.5999 8.77507 21.6817 8.70661 21.7289 8.6154C21.776 8.52419 21.7847 8.41775 21.7527 8.3202C21.1933 6.52315 20.1721 4.90445 18.7911 3.62561C17.4102 2.34678 15.718 1.45276 13.8836 1.03263C13.7837 1.00799 13.6779 1.02459 13.5903 1.0785C13.5027 1.13258 13.4405 1.21951 13.4178 1.31996C13.3949 1.42042 13.4135 1.52566 13.4691 1.61225C13.5249 1.69885 13.613 1.75942 13.7138 1.78013C15.4174 2.16842 16.9888 2.99842 18.27 4.18674L16.978 5.47894H16.9778C16.9059 5.55081 16.8654 5.64836 16.8654 5.75018C16.8654 5.85183 16.9059 5.94937 16.9778 6.02125L16.9775 6.02143Z" fill="#1D221E"/>
</svg>
