<svg width="31" height="21" viewBox="0 0 31 21" fill="none" xmlns="http://www.w3.org/2000/svg">
<path d="M5.94912 20.6789H3.91414C3.64656 20.6789 3.42969 20.4623 3.42969 20.1945V11.0206C3.42969 10.753 3.64633 10.5361 3.91414 10.5361H5.94889C6.21648 10.5361 6.43334 10.7528 6.43334 11.0206V20.1945C6.43334 20.4621 6.21648 20.6789 5.94912 20.6789ZM4.3986 19.7102H5.46472L5.4645 11.5055H4.39838L4.3986 19.7102Z" fill="#1D221E"/>
<path d="M6.81644 11.5048H3.04695C2.77937 11.5048 2.5625 11.2881 2.5625 11.0203L2.56272 8.84382C2.56272 8.57624 2.77937 8.35938 3.04717 8.35938H6.81643C7.08401 8.35938 7.30088 8.57602 7.30088 8.84382V11.0205C7.30066 11.2879 7.0838 11.5048 6.81644 11.5048ZM3.53141 10.5361H6.33204V9.32827L3.53141 9.32805V10.5361Z" fill="#1D221E"/>
<path d="M8.16847 9.32855H1.69533C0.760458 9.32855 0 8.56809 0 7.63322V1.69533C0 0.760458 0.760458 0 1.69533 0H8.16847C9.10334 0 9.8638 0.760458 9.8638 1.69533V7.63322C9.8638 8.56786 9.10334 9.32837 8.16847 9.32837V9.32855ZM1.69533 0.968921C1.29473 0.968921 0.968865 1.29478 0.968865 1.69538V7.63327C0.968865 8.03387 1.29473 8.35974 1.69533 8.35974H8.16847C8.56907 8.35974 8.89493 8.03388 8.89493 7.63327V1.69538C8.89493 1.29479 8.56907 0.968921 8.16847 0.968921H1.69533Z" fill="#1D221E"/>
<path d="M4.00398 7.33192C3.7364 7.33192 3.51953 7.11527 3.51953 6.84747V2.48054C3.51953 2.21296 3.73618 1.99609 4.00398 1.99609C4.27156 1.99609 4.48843 2.21274 4.48843 2.48054V6.84747C4.48821 7.11482 4.27134 7.33192 4.00398 7.33192Z" fill="#6AA74D"/>
<path d="M5.39439 5.3414H4.00398C3.7364 5.3414 3.51953 5.12476 3.51953 4.85695L3.51975 2.48054C3.51975 2.21296 3.7364 1.99609 4.0042 1.99609H5.39461C6.26519 1.99609 6.9736 2.70451 6.9736 3.57509V3.76216C6.97338 4.63319 6.26497 5.3414 5.39439 5.3414ZM4.48844 4.37248H5.39439C5.73092 4.37248 6.00474 4.09867 6.00474 3.76212V3.57506C6.00474 3.23852 5.73093 2.9647 5.39439 2.9647H4.48844V4.37248Z" fill="#6AA74D"/>
<path d="M25.5752 12.1251H14.455C13.8959 12.1251 13.3525 12.011 12.8402 11.7863L10.9227 10.9451C10.6775 10.8375 10.5663 10.5519 10.6738 10.307C10.7814 10.0619 11.067 9.95067 11.3119 10.0581L13.2297 10.8995C13.6185 11.0701 14.0309 11.1564 14.4553 11.1564H25.5754C25.9998 11.1564 26.4124 11.0701 26.801 10.8995L28.7186 10.0581C28.9637 9.95044 29.2493 10.0621 29.3567 10.307C29.4644 10.5521 29.3527 10.8375 29.1078 10.9451L27.19 11.7866C26.6775 12.0114 26.1344 12.1251 25.5752 12.1251Z" fill="#1D221E"/>
<path d="M29.3858 18.4975H10.6428C9.75308 18.4975 9.0293 17.7738 9.0293 16.884V13.2289C9.0293 12.7453 9.189 12.2658 9.47905 11.8787L13.0735 7.08095C13.4458 6.58382 13.9363 6.17409 14.4917 5.89627C15.0471 5.61846 15.669 5.47144 16.29 5.47144H23.7392C24.3602 5.47144 24.9821 5.61846 25.5375 5.89627C26.0929 6.17409 26.5833 6.58379 26.9557 7.08095L30.5501 11.8787C30.8402 12.2658 30.9999 12.7453 30.9999 13.2289V16.884C30.9994 17.7738 30.2756 18.4975 29.3859 18.4975H29.3858ZM10.2539 12.4594C10.0886 12.6801 9.99787 12.953 9.99787 13.2288V16.884C9.99787 17.2394 10.287 17.5288 10.6427 17.5288H29.3856C29.7411 17.5288 30.0304 17.2396 30.0304 16.884V13.2286C30.0304 12.953 29.9395 12.6799 29.7744 12.4592L26.18 7.66164C25.607 6.89668 24.6944 6.44029 23.7388 6.44029H16.2897C15.3342 6.44029 14.4215 6.89694 13.8483 7.66164L10.2539 12.4594Z" fill="#1D221E"/>
<path d="M22.9743 16.2635H17.0546C16.6076 16.2635 16.2096 15.9634 16.0864 15.5337L15.8404 14.6745C15.7525 14.3678 15.8124 14.0459 16.0045 13.7912C16.1967 13.5365 16.4897 13.3904 16.8086 13.3904H23.2203C23.5395 13.3904 23.8324 13.5365 24.0243 13.7912C24.2165 14.0459 24.2761 14.368 24.1885 14.6745L23.9425 15.5337C23.8193 15.9635 23.4213 16.2635 22.9743 16.2635H22.9743ZM16.8087 14.3589C16.8031 14.3589 16.7897 14.3589 16.778 14.3742C16.7662 14.3895 16.7702 14.4022 16.7717 14.4078L17.0177 15.267C17.0224 15.2833 17.0375 15.2948 17.0544 15.2948H22.9741C22.991 15.2948 23.0061 15.2835 23.0108 15.267L23.2568 14.4078C23.2584 14.4024 23.2621 14.3893 23.2506 14.3742C23.239 14.3591 23.2257 14.3589 23.2199 14.3589H16.8087Z" fill="#1D221E"/>
<path d="M27.9171 16.1782C27.8962 16.1782 27.8753 16.1776 27.8544 16.1767L26.387 16.1037C25.7055 16.0699 25.1719 15.5087 25.1719 14.8263C25.1719 14.1438 25.7057 13.5831 26.387 13.5488L27.8544 13.4759C28.2029 13.4588 28.547 13.5864 28.7995 13.8267C29.052 14.0669 29.197 14.4047 29.197 14.7533V14.8994C29.197 15.248 29.0522 15.5856 28.7995 15.826C28.5622 16.0516 28.2435 16.1781 27.9172 16.1781L27.9171 16.1782ZM27.9024 15.2091C27.9879 15.2135 28.0695 15.1833 28.1315 15.1241C28.1936 15.0649 28.2279 14.9853 28.2279 14.8994V14.7533C28.2279 14.6675 28.1938 14.5878 28.1315 14.5287C28.0695 14.4695 27.9879 14.4392 27.9024 14.4437L26.4351 14.5166C26.2698 14.5249 26.1403 14.661 26.1403 14.8263C26.1403 14.9915 26.2698 15.1279 26.4351 15.1359L27.9024 15.2091Z" fill="#6AA74D"/>
<path d="M12.1138 16.1786C11.7873 16.1786 11.4688 16.052 11.2315 15.8262C10.979 15.586 10.834 15.2482 10.834 14.8996V14.7535C10.834 14.4049 10.9788 14.0673 11.2315 13.8269C11.4839 13.5866 11.8284 13.4592 12.1766 13.4761L13.644 13.5491C14.3253 13.5829 14.8591 14.144 14.8591 14.8265C14.8591 15.5089 14.3253 16.0696 13.644 16.1039L12.1766 16.1769C12.1557 16.178 12.1348 16.1787 12.1139 16.1787L12.1138 16.1786ZM12.1123 14.4436C12.0327 14.4436 11.9572 14.4737 11.899 14.5291C11.8369 14.5882 11.8027 14.6678 11.8027 14.7537V14.8998C11.8027 14.9857 11.8369 15.0653 11.899 15.1245C11.961 15.1837 12.0427 15.2139 12.1281 15.2095L13.5955 15.1365C13.7607 15.1283 13.8902 14.9921 13.8902 14.8269C13.8902 14.6614 13.7607 14.5253 13.5955 14.5173L12.1281 14.4443C12.123 14.4436 12.1178 14.4436 12.1123 14.4436Z" fill="#6AA74D"/>
<path d="M12.7041 20.6785H12.2541C11.3546 20.6785 10.623 19.9466 10.623 19.0474V18.0137C10.623 17.7462 10.8397 17.5293 11.1075 17.5293H13.8512C14.1188 17.5293 14.3356 17.7459 14.3356 18.0137V19.0474C14.3352 19.9466 13.6034 20.6785 12.7041 20.6785ZM11.5915 18.4978V19.0471C11.5915 19.4124 11.8887 19.7096 12.2539 19.7096H12.7039C13.0691 19.7096 13.3663 19.4124 13.3663 19.0471V18.4978H11.5915Z" fill="#1D221E"/>
<path d="M27.7705 20.6785H27.3205C26.421 20.6785 25.6895 19.9466 25.6895 19.0474V18.0137C25.6895 17.7462 25.9061 17.5293 26.1739 17.5293H28.9176C29.1852 17.5293 29.402 17.7459 29.402 18.0137V19.0474C29.4018 19.9466 28.67 20.6785 27.7705 20.6785ZM26.6579 18.4978V19.0471C26.6579 19.4124 26.9551 19.7096 27.3203 19.7096H27.7703C28.1355 19.7096 28.4327 19.4124 28.4327 19.0471V18.4978H26.6579Z" fill="#1D221E"/>
<path d="M22.5878 6.44087H17.4394C17.2791 6.44087 17.1289 6.36146 17.0386 6.22845C16.9483 6.09544 16.9301 5.92683 16.9895 5.77758L17.5133 4.45989C17.7359 3.90026 18.2689 3.53857 18.8712 3.53857H21.1565C21.7588 3.53857 22.2918 3.90025 22.5144 4.45989L23.0382 5.77758C23.0976 5.92683 23.079 6.09565 22.9891 6.22845C22.8986 6.36124 22.7484 6.44087 22.5878 6.44087ZM18.1532 5.47218H21.8738L21.6135 4.8178C21.5384 4.6294 21.3589 4.50751 21.156 4.50751L18.871 4.50729C18.6679 4.50729 18.4884 4.62918 18.4135 4.81758L18.1532 5.47218Z" fill="#1D221E"/>
</svg>
