<svg width="15" height="16" viewBox="0 0 15 16" fill="none" xmlns="http://www.w3.org/2000/svg">
<path d="M0.318164 7.46801C0.317812 8.73814 0.649687 9.97834 1.28074 11.0715L0.257812 14.8063L4.08 13.8042C5.13717 14.3797 6.32164 14.6812 7.52531 14.6813H7.52848C11.502 14.6813 14.7366 11.4479 14.7383 7.47369C14.739 5.54789 13.9897 3.73699 12.6284 2.37457C11.2672 1.01227 9.45697 0.261621 7.52818 0.260742C3.55418 0.260742 0.319863 3.49395 0.318223 7.46801" fill="url(#paint0_linear_2175_1156)"/>
<path d="M0.0626953 7.46578C0.0622852 8.78162 0.406055 10.0662 1.05961 11.1984L0 15.0672L3.95924 14.0291C5.05014 14.6239 6.27838 14.9375 7.52818 14.9379H7.53141C11.6475 14.9379 14.9982 11.5883 15 7.47176C15.0007 5.47676 14.2245 3.60076 12.8145 2.18953C11.4043 0.778476 9.52928 0.000820312 7.53141 0C3.41461 0 0.0643945 3.34922 0.0627539 7.46578H0.0626953ZM2.42051 11.0034L2.27268 10.7688C1.65123 9.78064 1.32322 8.63877 1.32369 7.46625C1.32504 4.04467 4.10965 1.26094 7.53375 1.26094C9.19195 1.26164 10.7503 1.90805 11.9224 3.08086C13.0945 4.25379 13.7394 5.81297 13.739 7.47129C13.7375 10.8929 10.9528 13.677 7.53141 13.677H7.52895C6.4149 13.6764 5.3223 13.3772 4.36945 12.8118L4.1427 12.6773L1.7932 13.2933L2.42051 11.0034V11.0034Z" fill="url(#paint1_linear_2175_1156)"/>
<path d="M5.66758 4.34485C5.52777 4.03413 5.38064 4.02786 5.2477 4.02241C5.13883 4.01772 5.01437 4.01807 4.89004 4.01807C4.76559 4.01807 4.56338 4.06489 4.39246 4.25151C4.22137 4.43831 3.73926 4.88971 3.73926 5.80782C3.73926 6.72598 4.40799 7.61327 4.50121 7.7379C4.59455 7.86229 5.79221 9.80667 7.689 10.5547C9.26541 11.1763 9.58621 11.0527 9.92834 11.0215C10.2705 10.9904 11.0325 10.5702 11.1879 10.1344C11.3435 9.69874 11.3435 9.32526 11.2969 9.24721C11.2502 9.16946 11.1258 9.12276 10.9391 9.02948C10.7525 8.93614 9.835 8.48467 9.66396 8.42239C9.49287 8.36016 9.36848 8.32911 9.24402 8.51596C9.11957 8.70253 8.76221 9.12276 8.65328 9.24721C8.54447 9.37196 8.43555 9.38749 8.24898 9.29415C8.06224 9.20051 7.46125 9.0037 6.74822 8.36801C6.19346 7.87337 5.81893 7.26253 5.71006 7.07567C5.60119 6.88911 5.6984 6.78798 5.79197 6.69499C5.87582 6.61137 5.97865 6.47708 6.07205 6.36815C6.1651 6.25917 6.19615 6.18141 6.25838 6.05696C6.32066 5.93239 6.28949 5.8234 6.24291 5.73006C6.19615 5.63672 5.83352 4.71387 5.66758 4.34491" fill="white"/>
<defs>
<linearGradient id="paint0_linear_2175_1156" x1="7.49804" y1="14.8063" x2="7.49804" y2="0.260742" gradientUnits="userSpaceOnUse">
<stop stop-color="#1FAF38"/>
<stop offset="1" stop-color="#60D669"/>
</linearGradient>
<linearGradient id="paint1_linear_2175_1156" x1="7.5" y1="15.0672" x2="7.5" y2="0" gradientUnits="userSpaceOnUse">
<stop stop-color="#F9F9F9"/>
<stop offset="1" stop-color="white"/>
</linearGradient>
</defs>
</svg>
