<svg width="24" height="24" viewBox="0 0 24 24" fill="none" xmlns="http://www.w3.org/2000/svg">
<path d="M21.9445 14.3809H4.51234V8.71765C5.42074 8.54843 6.11213 7.75048 6.11213 6.7906C6.11213 5.70575 5.22956 4.823 4.14453 4.823C3.05968 4.823 2.17693 5.70557 2.17693 6.7906C2.17693 7.75052 2.86832 8.54845 3.77672 8.71765V14.3809H2.53731C1.68786 14.3809 1 15.0686 1 15.9145V19.7134C1 20.5593 1.68768 21.247 2.53731 21.247H3.52288V22.8174C3.52288 23.2146 3.84644 23.5382 4.24363 23.5382H5.53806C5.93526 23.5382 6.2551 23.2146 6.2551 22.8174L6.25545 21.247H18.2264V22.8174C18.2264 23.2146 18.5464 23.5382 18.9434 23.5382H20.2378C20.635 23.5382 20.9586 23.2146 20.9586 22.8174V21.247H21.9442C22.7936 21.247 23.4815 20.5593 23.4815 19.7134V15.9145C23.4815 15.0686 22.7938 14.3809 21.9444 14.3809H21.9445ZM2.91277 6.79001C2.91277 6.10958 3.46451 5.55803 4.14476 5.55803C4.82519 5.55803 5.37674 6.10977 5.37674 6.79001C5.37674 7.45431 4.83937 8.01842 4.14476 8.01842C3.45074 8.01842 2.91277 7.45481 2.91277 6.79001ZM5.53847 22.8025L4.25872 22.8171V21.2468H5.52378L5.53847 22.8025ZM20.2377 22.8025L18.9617 22.8171V21.2468H20.2268L20.2377 22.8025ZM22.7459 19.7132C22.7459 20.1544 22.3855 20.5113 21.9443 20.5113H2.5374C2.09612 20.5113 1.73576 20.1546 1.73576 19.7132L1.73558 15.9143C1.73558 15.473 2.09596 15.1161 2.53722 15.1161H21.9441C22.3854 15.1161 22.7457 15.4728 22.7457 15.9143L22.7459 19.7132Z" fill="#1D221E" stroke="#1D221E" stroke-width="0.3"/>
<path d="M20.3784 16.3306C19.5583 16.3306 18.8926 16.9963 18.8926 17.8126C18.8926 18.6327 19.5583 19.2984 20.3784 19.2984C21.1984 19.2984 21.8641 18.6327 21.8641 17.8126C21.864 16.9963 21.1984 16.3306 20.3784 16.3306ZM20.3784 18.563C19.9665 18.563 19.6282 18.2283 19.6282 17.8128C19.6282 17.4009 19.9665 17.0662 20.3784 17.0662C20.794 17.0662 21.1285 17.4009 21.1285 17.8128C21.1285 18.2283 20.7938 18.563 20.3784 18.563Z" fill="#1D221E"/>
<path d="M16.6674 16.3306C15.8473 16.3306 15.1816 16.9963 15.1816 17.8126C15.1816 18.6327 15.8473 19.2984 16.6674 19.2984C17.4875 19.2984 18.1532 18.6327 18.1532 17.8126C18.1532 16.9963 17.4875 16.3306 16.6674 16.3306ZM16.6674 18.563C16.2555 18.563 15.9173 18.2283 15.9173 17.8128C15.9173 17.4009 16.2555 17.0662 16.6674 17.0662C17.0793 17.0662 17.4178 17.4009 17.4178 17.8128C17.4176 18.2283 17.0793 18.563 16.6674 18.563Z" fill="#1D221E"/>
<path d="M12.9565 16.3306C12.1364 16.3306 11.4707 16.9963 11.4707 17.8126C11.4707 18.6327 12.1364 19.2984 12.9565 19.2984C13.7766 19.2984 14.4423 18.6327 14.4423 17.8126C14.4423 16.9963 13.7766 16.3306 12.9565 16.3306ZM12.9565 18.563C12.5409 18.563 12.2063 18.2283 12.2063 17.8128C12.2063 17.4009 12.541 17.0662 12.9565 17.0662C13.3684 17.0662 13.7067 17.4009 13.7067 17.8128C13.7068 18.2283 13.3684 18.563 12.9565 18.563Z" fill="#1D221E"/>
<path d="M2.91469 16.6514C2.71149 16.6514 2.54688 16.8158 2.54688 17.0192V18.6094C2.54688 18.8126 2.71131 18.9772 2.91469 18.9772C3.1179 18.9772 3.28251 18.8128 3.28251 18.6094V17.0192C3.28251 16.816 3.11807 16.6514 2.91469 16.6514Z" fill="#1D221E"/>
<path d="M4.71938 16.6514C4.51618 16.6514 4.35156 16.8158 4.35156 17.0192V18.6094C4.35156 18.8126 4.516 18.9772 4.71938 18.9772C4.92259 18.9772 5.0872 18.8128 5.0872 18.6094V17.0192C5.0872 16.816 4.92259 16.6514 4.71938 16.6514Z" fill="#1D221E"/>
<path d="M6.52016 16.6514C6.31696 16.6514 6.15234 16.8158 6.15234 17.0192V18.6094C6.15234 18.8126 6.31678 18.9772 6.52016 18.9772C6.72337 18.9772 6.88798 18.8128 6.88798 18.6094V17.0192C6.88798 16.816 6.72354 16.6514 6.52016 16.6514Z" fill="#1D221E"/>
<path d="M8.32094 16.6511C8.11774 16.6511 7.95312 16.8156 7.95312 17.0189V18.6092C7.95312 18.8124 8.11756 18.977 8.32094 18.977C8.52415 18.977 8.68876 18.8126 8.68876 18.6092V17.0189C8.68859 16.8157 8.52415 16.6511 8.32094 16.6511Z" fill="#1D221E"/>
<path d="M6.20861 0.720761C9.44232 1.66278 11.3064 5.06166 10.3642 8.29763C10.3074 8.49269 10.4194 8.69661 10.6145 8.75344C10.8067 8.81008 11.0131 8.69999 11.0703 8.50316C12.1261 4.87826 10.0374 1.07038 6.41385 0.0150299C6.21773 -0.0424956 6.01488 0.070258 5.95804 0.265315C5.9014 0.460199 6.01363 0.66411 6.20851 0.720942L6.20861 0.720761Z" fill="#6AA74D"/>
<path d="M5.74944 2.30305C8.10679 2.98964 9.47349 5.46634 8.78314 7.83674C8.72632 8.0318 8.83837 8.23571 9.03342 8.29254C9.22565 8.34919 9.43204 8.23909 9.48923 8.04226C10.2914 5.28874 8.71007 2.39937 5.95496 1.59732C5.75919 1.53908 5.55563 1.65255 5.49915 1.8476C5.44233 2.04249 5.55438 2.24657 5.74944 2.30323L5.74944 2.30305Z" fill="#6AA74D"/>
<path d="M5.28861 3.88538C6.77725 4.31922 7.63517 5.88465 7.20098 7.37556C7.14416 7.57062 7.25621 7.77453 7.45126 7.83137C7.64349 7.88801 7.84988 7.77791 7.90707 7.58108C8.45473 5.7013 7.37233 3.72676 5.49394 3.17946C5.29782 3.12158 5.09497 3.23469 5.03814 3.42975C4.98149 3.62428 5.09355 3.82854 5.28861 3.88538Z" fill="#6AA74D"/>
</svg>
