<svg width="54" height="32" viewBox="0 0 54 32" fill="none" xmlns="http://www.w3.org/2000/svg">
<path d="M14.85 16C18.5718 16 21.6 13.0092 21.6 9.33333C21.6 5.6575 18.5718 2.66667 14.85 2.66667C11.1282 2.66667 8.1 5.6575 8.1 9.33333C8.1 13.0092 11.1282 16 14.85 16ZM44.55 5.33333H25.65C24.9041 5.33333 24.3 5.93 24.3 6.66667V18.6667H5.4V1.33333C5.4 0.596667 4.79588 0 4.05 0H1.35C0.604125 0 0 0.596667 0 1.33333V30.6667C0 31.4033 0.604125 32 1.35 32H4.05C4.79588 32 5.4 31.4033 5.4 30.6667V26.6667H48.6V30.6667C48.6 31.4033 49.2041 32 49.95 32H52.65C53.3959 32 54 31.4033 54 30.6667V14.6667C54 9.51167 49.7694 5.33333 44.55 5.33333Z" fill="#002349"/>
</svg>
