<svg width="23" height="23" viewBox="0 0 23 23" fill="none" xmlns="http://www.w3.org/2000/svg">
<path d="M0.0917877 10.9614C0.091253 12.8931 0.595996 14.7793 1.55576 16.4419L0 22.1222L5.8131 20.598C7.42093 21.4733 9.22239 21.9319 11.053 21.932H11.0578C17.1011 21.932 22.0205 17.0144 22.0231 10.9701C22.0242 8.04114 20.8847 5.28697 18.8142 3.21489C16.744 1.14298 13.9909 0.00133671 11.0574 0C5.01339 0 0.0943721 4.91733 0.0918769 10.9614" fill="url(#paint0_linear_62_8)"/>
<path d="M8.22035 6.21099C8.00772 5.73842 7.78396 5.72888 7.58176 5.72059C7.41618 5.71346 7.2269 5.714 7.0378 5.714C6.84852 5.714 6.54099 5.7852 6.28104 6.06903C6.02083 6.35313 5.2876 7.03966 5.2876 8.43599C5.2876 9.83242 6.30466 11.1819 6.44644 11.3714C6.5884 11.5606 8.40989 14.5178 11.2947 15.6554C13.6922 16.6008 14.1801 16.4128 14.7005 16.3654C15.2209 16.3182 16.3797 15.679 16.6162 15.0163C16.8528 14.3536 16.8528 13.7856 16.7818 13.6669C16.7109 13.5487 16.5216 13.4776 16.2378 13.3358C15.9539 13.1938 14.5585 12.5072 14.2984 12.4125C14.0382 12.3178 13.849 12.2706 13.6597 12.5548C13.4704 12.8385 12.9269 13.4776 12.7613 13.6669C12.5958 13.8566 12.4301 13.8803 12.1464 13.7383C11.8624 13.5959 10.9483 13.2966 9.86388 12.3298C9.02015 11.5775 8.45053 10.6484 8.28496 10.3642C8.11938 10.0805 8.26722 9.9267 8.40954 9.78527C8.53706 9.65811 8.69346 9.45386 8.83551 9.28819C8.97702 9.12244 9.02425 9.00419 9.11889 8.81491C9.21362 8.62545 9.16621 8.4597 9.09536 8.31774C9.02425 8.17578 8.47272 6.77223 8.22035 6.21108" fill="white"/>
<defs>
<linearGradient id="paint0_linear_62_8" x1="11.0115" y1="22.1222" x2="11.0115" y2="0" gradientUnits="userSpaceOnUse">
<stop stop-color="#1FAF38"/>
<stop offset="1" stop-color="#60D669"/>
</linearGradient>
</defs>
</svg>
