<svg width="27" height="27" viewBox="0 0 27 27" fill="none" xmlns="http://www.w3.org/2000/svg">
<path d="M7.73636 19.0888C13.7071 25.0553 19.9834 26.4703 22.4021 26.8033C22.505 26.8163 22.6084 26.8225 22.7121 26.8219C23.1393 26.8239 23.5576 26.7017 23.9164 26.4703C24.2753 26.2386 24.5592 25.9076 24.7332 25.5176L26.6249 21.3737H26.6247C26.8504 20.8794 26.8874 20.3198 26.729 19.8001C26.5704 19.2804 26.2275 18.8367 25.7646 18.5524L20.6632 15.4167C20.3886 15.2497 20.0353 15.2918 19.8075 15.5183L17.4672 17.8587C17.4059 17.9229 17.3202 17.9582 17.2314 17.9557C14.1233 17.78 9.04485 12.7018 8.86937 9.59845C8.86503 9.50802 8.90054 9.42027 8.96641 9.35812L11.3068 7.01775C11.5335 6.79001 11.5754 6.43675 11.4084 6.1621L8.27265 1.06074C7.98813 0.59803 7.54443 0.255297 7.02474 0.096937C6.50525 -0.0616349 5.94571 -0.0246771 5.45139 0.200585L1.30748 2.09208C0.86955 2.28906 0.507593 2.62272 0.275708 3.04309C0.043823 3.46347 -0.0453576 3.94785 0.0217448 4.42314C0.354582 6.842 1.76995 13.1182 7.73627 19.0889L7.73636 19.0888Z" fill="#4BC959"/>
</svg>
