<svg width="1907" height="252" viewBox="0 0 1907 252" fill="none" xmlns="http://www.w3.org/2000/svg">
<g opacity="0.18">
<path d="M605.082 82.165H520.93V219.088H605.082V82.165Z" fill="#B5C3C2"/>
<path d="M591.333 72.3359H534.676V129.865H591.333V72.3359Z" fill="#B5C3C2"/>
<path d="M578.712 66.1055H547.28V98.0113H578.712V66.1055Z" fill="#B5C3C2"/>
<path d="M573.712 82.5176H552.278V60.7588H560.006H567.671H573.712V82.5176Z" fill="#B5C3C2"/>
<path d="M561.591 73.0409H559.258V51.2998H560.112H560.924H561.591V73.0409Z" fill="#B5C3C2"/>
<path d="M566.734 65.5238H564.401V43.7827H565.235H566.068H566.734V65.5238Z" fill="#B5C3C2"/>
<path d="M607.31 81.8115H518.68V83.2762H607.31V81.8115Z" fill="#B5C3C2"/>
<path d="M593.374 71.6475H532.593V73.0592H593.374V71.6475Z" fill="#B5C3C2"/>
<path d="M580.023 65.5234H544.987V66.5999H580.023V65.5234Z" fill="#B5C3C2"/>
<path opacity="0.29" d="M542.509 74.6816H539.885V80.7169H542.509V74.6816Z" fill="#B5C3C2"/>
<path opacity="0.29" d="M549.799 74.6816H547.175V80.7169H549.799V74.6816Z" fill="#B5C3C2"/>
<path opacity="0.29" d="M557.069 74.6816H554.444V80.7169H557.069V74.6816Z" fill="#B5C3C2"/>
<path opacity="0.29" d="M564.359 74.6816H561.734V80.7169H564.359V74.6816Z" fill="#B5C3C2"/>
<path opacity="0.29" d="M571.649 74.6816H569.024V80.7169H571.649V74.6816Z" fill="#B5C3C2"/>
<path opacity="0.29" d="M578.94 74.6816H576.315V80.7169H578.94V74.6816Z" fill="#B5C3C2"/>
<path opacity="0.29" d="M586.229 74.6816H583.604V80.7169H586.229V74.6816Z" fill="#B5C3C2"/>
<path d="M534.677 87.6172H528.303V94.7642H534.677V87.6172Z" fill="#B5C3C2"/>
<path opacity="0.29" d="M547.278 87.6172H540.904V94.7642H547.278V87.6172Z" fill="#B5C3C2"/>
<path d="M559.88 87.6172H553.506V94.7642H559.88V87.6172Z" fill="#B5C3C2"/>
<path d="M572.481 87.6172H566.107V94.7642H572.481V87.6172Z" fill="#B5C3C2"/>
<path d="M585.065 87.6172H578.712V94.7642H585.065V87.6172Z" fill="#B5C3C2"/>
<path d="M597.666 87.6172H591.312V94.7642H597.666V87.6172Z" fill="#B5C3C2"/>
<path d="M534.677 98.7705H528.303V105.918H534.677V98.7705Z" fill="#B5C3C2"/>
<path d="M547.278 98.7705H540.904V105.918H547.278V98.7705Z" fill="#B5C3C2"/>
<path d="M559.88 98.7705H553.506V105.918H559.88V98.7705Z" fill="#B5C3C2"/>
<path opacity="0.29" d="M572.481 98.7705H566.107V105.918H572.481V98.7705Z" fill="#B5C3C2"/>
<path d="M585.065 98.7705H578.712V105.918H585.065V98.7705Z" fill="#B5C3C2"/>
<path d="M597.666 98.7705H591.312V105.918H597.666V98.7705Z" fill="#B5C3C2"/>
<path d="M534.677 109.906H528.303V117.053H534.677V109.906Z" fill="#B5C3C2"/>
<path d="M547.278 109.906H540.904V117.053H547.278V109.906Z" fill="#B5C3C2"/>
<path d="M559.88 109.906H553.506V117.053H559.88V109.906Z" fill="#B5C3C2"/>
<path d="M572.481 109.906H566.107V117.053H572.481V109.906Z" fill="#B5C3C2"/>
<path opacity="0.29" d="M585.065 109.906H578.712V117.053H585.065V109.906Z" fill="#B5C3C2"/>
<path opacity="0.29" d="M597.666 109.906H591.312V117.053H597.666V109.906Z" fill="#B5C3C2"/>
<path opacity="0.29" d="M534.677 121.059H528.303V128.206H534.677V121.059Z" fill="#B5C3C2"/>
<path d="M547.278 121.059H540.904V128.206H547.278V121.059Z" fill="#B5C3C2"/>
<path d="M559.88 121.059H553.506V128.206H559.88V121.059Z" fill="#B5C3C2"/>
<path d="M572.481 121.059H566.107V128.206H572.481V121.059Z" fill="#B5C3C2"/>
<path d="M585.065 121.059H578.712V128.206H585.065V121.059Z" fill="#B5C3C2"/>
<path d="M597.666 121.059H591.312V128.206H597.666V121.059Z" fill="#B5C3C2"/>
<path d="M534.677 132.211H528.303V139.358H534.677V132.211Z" fill="#B5C3C2"/>
<path opacity="0.29" d="M547.278 132.211H540.904V139.358H547.278V132.211Z" fill="#B5C3C2"/>
<path d="M559.88 132.211H553.506V139.358H559.88V132.211Z" fill="#B5C3C2"/>
<path opacity="0.29" d="M572.481 132.211H566.107V139.358H572.481V132.211Z" fill="#B5C3C2"/>
<path d="M585.065 132.211H578.712V139.358H585.065V132.211Z" fill="#B5C3C2"/>
<path d="M597.666 132.211H591.312V139.358H597.666V132.211Z" fill="#B5C3C2"/>
<path d="M534.677 143.365H528.303V150.512H534.677V143.365Z" fill="#B5C3C2"/>
<path d="M547.278 143.365H540.904V150.512H547.278V143.365Z" fill="#B5C3C2"/>
<path d="M559.88 143.365H553.506V150.512H559.88V143.365Z" fill="#B5C3C2"/>
<path d="M572.481 143.365H566.107V150.512H572.481V143.365Z" fill="#B5C3C2"/>
<path d="M585.065 143.365H578.712V150.512H585.065V143.365Z" fill="#B5C3C2"/>
<path opacity="0.29" d="M597.666 143.365H591.312V150.512H597.666V143.365Z" fill="#B5C3C2"/>
<path d="M534.677 154.518H528.303V161.665H534.677V154.518Z" fill="#B5C3C2"/>
<path opacity="0.29" d="M547.278 154.518H540.904V161.665H547.278V154.518Z" fill="#B5C3C2"/>
<path opacity="0.29" d="M559.88 154.518H553.506V161.665H559.88V154.518Z" fill="#B5C3C2"/>
<path d="M572.481 154.518H566.107V161.665H572.481V154.518Z" fill="#B5C3C2"/>
<path d="M585.065 154.518H578.712V161.665H585.065V154.518Z" fill="#B5C3C2"/>
<path d="M597.666 154.518H591.312V161.665H597.666V154.518Z" fill="#B5C3C2"/>
<path d="M534.677 165.652H528.303V172.799H534.677V165.652Z" fill="#B5C3C2"/>
<path d="M547.278 165.652H540.904V172.799H547.278V165.652Z" fill="#B5C3C2"/>
<path d="M559.88 165.652H553.506V172.799H559.88V165.652Z" fill="#B5C3C2"/>
<path d="M572.481 165.652H566.107V172.799H572.481V165.652Z" fill="#B5C3C2"/>
<path opacity="0.29" d="M585.065 165.652H578.712V172.799H585.065V165.652Z" fill="#B5C3C2"/>
<path d="M597.666 165.652H591.312V172.799H597.666V165.652Z" fill="#B5C3C2"/>
<path d="M534.677 176.806H528.303V183.953H534.677V176.806Z" fill="#B5C3C2"/>
<path opacity="0.29" d="M547.278 176.806H540.904V183.953H547.278V176.806Z" fill="#B5C3C2"/>
<path d="M559.88 176.806H553.506V183.953H559.88V176.806Z" fill="#B5C3C2"/>
<path d="M572.481 176.806H566.107V183.953H572.481V176.806Z" fill="#B5C3C2"/>
<path d="M585.065 176.806H578.712V183.953H585.065V176.806Z" fill="#B5C3C2"/>
<path d="M597.666 176.806H591.312V183.953H597.666V176.806Z" fill="#B5C3C2"/>
<path d="M534.677 187.959H528.303V195.106H534.677V187.959Z" fill="#B5C3C2"/>
<path d="M547.278 187.959H540.904V195.106H547.278V187.959Z" fill="#B5C3C2"/>
<path d="M559.88 187.959H553.506V195.106H559.88V187.959Z" fill="#B5C3C2"/>
<path opacity="0.29" d="M572.481 187.959H566.107V195.106H572.481V187.959Z" fill="#B5C3C2"/>
<path d="M585.065 187.959H578.712V195.106H585.065V187.959Z" fill="#B5C3C2"/>
<path opacity="0.29" d="M597.666 187.959H591.312V195.106H597.666V187.959Z" fill="#B5C3C2"/>
<path opacity="0.29" d="M534.677 199.111H528.303V206.258H534.677V199.111Z" fill="#B5C3C2"/>
<path d="M547.278 199.111H540.904V206.258H547.278V199.111Z" fill="#B5C3C2"/>
<path opacity="0.29" d="M559.88 199.111H553.506V206.258H559.88V199.111Z" fill="#B5C3C2"/>
<path d="M572.481 199.111H566.107V206.258H572.481V199.111Z" fill="#B5C3C2"/>
<path d="M585.065 199.111H578.712V206.258H585.065V199.111Z" fill="#B5C3C2"/>
<path d="M597.666 199.111H591.312V206.258H597.666V199.111Z" fill="#B5C3C2"/>
<path d="M411.802 87.3711H276.534V202.712H411.802V87.3711Z" fill="#B5C3C2"/>
<path d="M415.637 85.377H272.683V88.6417H415.637V85.377Z" fill="#B5C3C2"/>
<path d="M407.264 81.2119H281.078V96.706H407.264V81.2119Z" fill="#B5C3C2"/>
<path d="M340.713 74.877H290.742V91.8004H340.713V74.877Z" fill="#B5C3C2"/>
<path d="M319.654 79.6412H290.742V70.7295H311.468L319.654 79.6412Z" fill="#B5C3C2"/>
<path d="M305.197 63.3359H302.385V83.1888H305.197V63.3359Z" fill="#B5C3C2"/>
<path d="M303.781 63.3176C305.173 63.3176 306.302 62.8593 306.302 62.294C306.302 61.7287 305.173 61.2705 303.781 61.2705C302.389 61.2705 301.261 61.7287 301.261 62.294C301.261 62.8593 302.389 63.3176 303.781 63.3176Z" fill="#B5C3C2"/>
<path d="M1532 211.482H1383.93L1365.45 41.9116L1532 56.0292V211.482Z" fill="#B5C3C2"/>
<path d="M885.97 114.635V57.9352H862.745V42.7587H854.455V20.4882H808.734V4.11176H804.672V20.4882H795.715V0H791.653V20.4882H762.762V57.9352H747.828V114.635H735.038V217.906H894.968V114.635H885.97Z" fill="#B5C3C2"/>
<path d="M1856.68 209.382H87.4648V226.588H1856.68V209.382Z" fill="#B5C3C2"/>
<path d="M1128.89 222.371H1050.54L1081.06 158.241H1128.89V222.371Z" fill="#95A9A7"/>
<path d="M1881.59 224.858H23.9951V251.982H1881.59V224.858Z" fill="#95A9A7"/>
<path d="M1064.69 103.693V75.2816H1039.53V64.464H1026.07V55.3758H1021.34V39.7935H1020.13V55.3758H1015.41V64.464H1001.95V75.2816H976.975V103.693H971.789V155.293H933.087V214.111H971.789H1010.49H1069.69V103.693H1064.69Z" fill="#95A9A7"/>
<path d="M1209.25 136.341H1087.5V137.241H1093V221.399H1203.75V137.241H1209.25V136.341Z" fill="#95A9A7"/>
<path d="M654.052 157.305H546.092V227.416H654.052V157.305Z" fill="#95A9A7"/>
<path d="M529.824 193.217H344.169V227.399H529.824V193.217Z" fill="#95A9A7"/>
<path d="M484.437 116.841H443.673V200.788H484.437V116.841Z" fill="#95A9A7"/>
<path d="M454.795 94.4473H452.67V140.1H454.795V94.4473Z" fill="#95A9A7"/>
<path d="M461.69 97.9062H459.565V143.559H461.69V97.9062Z" fill="#95A9A7"/>
<path d="M471.73 111.653H446.817V122.912H471.73V111.653Z" fill="#95A9A7"/>
<path d="M593.478 169.853H522.553V227.399H593.478V169.853Z" fill="#95A9A7"/>
<path d="M804.672 108.952H671.528V227.417H804.672V108.952Z" fill="#95A9A7"/>
<path d="M791.591 104.875H684.609V124.604H791.591V104.875Z" fill="#95A9A7"/>
<path d="M815.002 111.423H661.217V112.799H815.002V111.423Z" fill="#95A9A7"/>
<path d="M710.145 167.576H647.406V227.4H710.145V167.576Z" fill="#95A9A7"/>
<path d="M270.056 165.316H198.068V227.416H270.056V165.316Z" fill="#95A9A7"/>
<path d="M364.81 148.429H221.355V227.399H364.81V148.429Z" fill="#95A9A7"/>
<path d="M368.497 145.411H212.982V148.446H368.497V145.411Z" fill="#95A9A7"/>
<path d="M290.741 137.188H227.71V153.193H290.741V137.188Z" fill="#95A9A7"/>
<path d="M321.921 137.188H311.34V146.929H321.921V137.188Z" fill="#95A9A7"/>
<path d="M344.166 137.188H332.522V146.929H344.166V137.188Z" fill="#95A9A7"/>
<path d="M234.083 203.399H158.908V227.417H234.083V203.399Z" fill="#95A9A7"/>
<path d="M166.115 193.217H130.517V227.399H166.115V193.217Z" fill="#95A9A7"/>
<path d="M148.285 215.399H87.4619V227.399H148.285V215.399Z" fill="#95A9A7"/>
<path d="M1541.15 200.788H791.59V227.4H1541.15V200.788Z" fill="#95A9A7"/>
<path d="M1618.8 158.081H1503.05V227.399H1618.8V158.081Z" fill="#95A9A7"/>
<path d="M1717.6 185.047H1601.84V227.029H1717.6V185.047Z" fill="#95A9A7"/>
<path d="M1217.91 178.87H1152.99V214.094H1217.91V178.87Z" fill="#95A9A7"/>
<path d="M1642.77 92.1699H1560.91V227.417H1642.77V92.1699Z" fill="#95A9A7"/>
<path d="M1777.59 227.417H1669.61V148.429H1751.47L1777.59 227.417Z" fill="#95A9A7"/>
<path d="M1824.87 209.382H1730.3V227.417H1824.87V209.382Z" fill="#95A9A7"/>
<path d="M1624.44 63.9004H1621.61V100.659H1624.44V63.9004Z" fill="#95A9A7"/>
<path d="M1633.96 71.7881H1631.13V108.547H1633.96V71.7881Z" fill="#95A9A7"/>
<path d="M1615.8 76.8691H1612.97V113.628H1615.8V76.8691Z" fill="#95A9A7"/>
<path d="M1712.47 142.059H1673.83V154.5H1712.47V142.059Z" fill="#95A9A7"/>
<path d="M1708.26 137.611H1678.08V144.6H1708.26V137.611Z" fill="#95A9A7"/>
<path d="M1735.24 145.693H1727.82V150.723H1735.24V145.693Z" fill="#95A9A7"/>
<path d="M1748.44 141.105H1737.86V150.705H1748.44V141.105Z" fill="#95A9A7"/>
<path d="M1250.8 122.666H1152.65V251.983H1250.8V122.666Z" fill="#ECECEC"/>
<path d="M1258.13 123.442H1145.32V124.748H1258.13V123.442Z" fill="#ECECEC"/>
<path d="M1255.09 141.602H1148.38V142.907H1255.09V141.602Z" fill="#ECECEC"/>
<path d="M1255.09 159.195H1148.38V160.501H1255.09V159.195Z" fill="#ECECEC"/>
<path d="M1255.09 176.789H1148.38V178.095H1255.09V176.789Z" fill="#ECECEC"/>
<path d="M1255.09 194.383H1148.38V195.689H1255.09V194.383Z" fill="#ECECEC"/>
<path d="M1255.09 211.959H1148.38V213.265H1255.09V211.959Z" fill="#ECECEC"/>
<path d="M1255.09 229.554H1148.38V230.86H1255.09V229.554Z" fill="#ECECEC"/>
<path d="M1261.86 119.859H1141.59V123.424H1261.86V119.859Z" fill="#ECECEC"/>
<path opacity="0.29" d="M1171.69 129.001H1161.48V139.324H1171.69V129.001Z" fill="#ECECEC"/>
<path d="M1194.5 129.001H1184.29V139.324H1194.5V129.001Z" fill="#ECECEC"/>
<path d="M1217.31 129.001H1207.1V139.324H1217.31V129.001Z" fill="#ECECEC"/>
<path d="M1240.12 129.001H1229.91V139.324H1240.12V129.001Z" fill="#ECECEC"/>
<path d="M1171.69 145.889H1161.48V156.212H1171.69V145.889Z" fill="#ECECEC"/>
<path opacity="0.29" d="M1194.5 145.889H1184.29V156.212H1194.5V145.889Z" fill="#ECECEC"/>
<path d="M1217.31 145.889H1207.1V156.212H1217.31V145.889Z" fill="#ECECEC"/>
<path d="M1240.12 145.889H1229.91V156.212H1240.12V145.889Z" fill="#ECECEC"/>
<path d="M1171.69 163.483H1161.48V173.807H1171.69V163.483Z" fill="#ECECEC"/>
<path d="M1194.5 163.483H1184.29V173.807H1194.5V163.483Z" fill="#ECECEC"/>
<path d="M1217.31 163.483H1207.1V173.807H1217.31V163.483Z" fill="#ECECEC"/>
<path opacity="0.29" d="M1240.12 163.483H1229.91V173.807H1240.12V163.483Z" fill="#ECECEC"/>
<path d="M1171.69 181.077H1161.48V191.401H1171.69V181.077Z" fill="#ECECEC"/>
<path opacity="0.29" d="M1194.5 181.077H1184.29V191.401H1194.5V181.077Z" fill="#ECECEC"/>
<path opacity="0.29" d="M1217.31 181.077H1207.1V191.401H1217.31V181.077Z" fill="#ECECEC"/>
<path d="M1240.12 181.077H1229.91V191.401H1240.12V181.077Z" fill="#ECECEC"/>
<path opacity="0.29" d="M1171.69 198.653H1161.48V208.977H1171.69V198.653Z" fill="#ECECEC"/>
<path d="M1194.5 198.653H1184.29V208.977H1194.5V198.653Z" fill="#ECECEC"/>
<path d="M1217.31 198.653H1207.1V208.977H1217.31V198.653Z" fill="#ECECEC"/>
<path d="M1240.12 198.653H1229.91V208.977H1240.12V198.653Z" fill="#ECECEC"/>
<path d="M1171.69 216.248H1161.48V226.572H1171.69V216.248Z" fill="#ECECEC"/>
<path d="M1194.5 216.248H1184.29V226.572H1194.5V216.248Z" fill="#ECECEC"/>
<path opacity="0.29" d="M1217.31 216.248H1207.1V226.572H1217.31V216.248Z" fill="#ECECEC"/>
<path d="M1240.12 216.248H1229.91V226.572H1240.12V216.248Z" fill="#ECECEC"/>
<path d="M1171.69 233.842H1161.48V244.165H1171.69V233.842Z" fill="#ECECEC"/>
<path opacity="0.29" d="M1194.5 233.842H1184.29V244.165H1194.5V233.842Z" fill="#ECECEC"/>
<path d="M1217.31 233.842H1207.1V244.165H1217.31V233.842Z" fill="#ECECEC"/>
<path opacity="0.29" d="M1240.12 233.842H1229.91V244.165H1240.12V233.842Z" fill="#ECECEC"/>
<path d="M1192.23 114.937H1158.84V121.66H1192.23V114.937Z" fill="#ECECEC"/>
<path d="M1194.5 114.742H1156.59V115.889H1194.5V114.742Z" fill="#ECECEC"/>
<path d="M1011.99 251.983H881.242V129.124L1011.99 116.048V251.983Z" fill="#ECECEC"/>
<path d="M886.97 126.953H875.493V251.982H886.97V126.953Z" fill="#ECECEC"/>
<path d="M919.653 123.442H908.176V252.001H919.653V123.442Z" fill="#ECECEC"/>
<path d="M952.333 119.771H940.855V251.983H952.333V119.771Z" fill="#ECECEC"/>
<path d="M985.037 116.789H973.56V251.983H985.037V116.789Z" fill="#ECECEC"/>
<path d="M1017.72 113.63H1006.24V252H1017.72V113.63Z" fill="#ECECEC"/>
<path opacity="0.29" d="M905.198 137.454H889.95V146.948H905.198V137.454Z" fill="#ECECEC"/>
<path opacity="0.29" d="M937.899 137.454H922.651V146.948H937.899V137.454Z" fill="#ECECEC"/>
<path d="M970.581 137.454H955.334V146.948H970.581V137.454Z" fill="#ECECEC"/>
<path opacity="0.29" d="M1003.26 137.454H988.015V146.948H1003.26V137.454Z" fill="#ECECEC"/>
<path d="M905.198 153.989H889.95V163.483H905.198V153.989Z" fill="#ECECEC"/>
<path d="M937.899 153.989H922.651V163.483H937.899V153.989Z" fill="#ECECEC"/>
<path opacity="0.29" d="M970.581 153.989H955.334V163.483H970.581V153.989Z" fill="#ECECEC"/>
<path opacity="0.29" d="M1003.26 153.989H988.015V163.483H1003.26V153.989Z" fill="#ECECEC"/>
<path opacity="0.29" d="M905.198 170.524H889.95V180.019H905.198V170.524Z" fill="#ECECEC"/>
<path opacity="0.29" d="M937.899 170.524H922.651V180.019H937.899V170.524Z" fill="#ECECEC"/>
<path opacity="0.29" d="M970.581 170.524H955.334V180.019H970.581V170.524Z" fill="#ECECEC"/>
<path d="M1003.26 170.524H988.015V180.019H1003.26V170.524Z" fill="#ECECEC"/>
<path opacity="0.29" d="M905.198 187.042H889.95V196.536H905.198V187.042Z" fill="#ECECEC"/>
<path d="M937.899 187.042H922.651V196.536H937.899V187.042Z" fill="#ECECEC"/>
<path opacity="0.29" d="M970.581 187.042H955.334V196.536H970.581V187.042Z" fill="#ECECEC"/>
<path opacity="0.29" d="M1003.26 187.042H988.015V196.536H1003.26V187.042Z" fill="#ECECEC"/>
<path opacity="0.29" d="M905.198 203.577H889.95V213.071H905.198V203.577Z" fill="#ECECEC"/>
<path opacity="0.29" d="M937.899 203.577H922.651V213.071H937.899V203.577Z" fill="#ECECEC"/>
<path d="M970.581 203.577H955.334V213.071H970.581V203.577Z" fill="#ECECEC"/>
<path opacity="0.29" d="M1003.26 203.577H988.015V213.071H1003.26V203.577Z" fill="#ECECEC"/>
<path d="M905.198 220.112H889.95V229.606H905.198V220.112Z" fill="#ECECEC"/>
<path d="M937.899 220.112H922.651V229.606H937.899V220.112Z" fill="#ECECEC"/>
<path opacity="0.29" d="M970.581 220.112H955.334V229.606H970.581V220.112Z" fill="#ECECEC"/>
<path opacity="0.29" d="M1003.26 220.112H988.015V229.606H1003.26V220.112Z" fill="#ECECEC"/>
<path opacity="0.29" d="M905.198 236.647H889.95V246.142H905.198V236.647Z" fill="#ECECEC"/>
<path d="M937.899 236.647H922.651V246.142H937.899V236.647Z" fill="#ECECEC"/>
<path opacity="0.29" d="M970.581 236.647H955.334V246.142H970.581V236.647Z" fill="#ECECEC"/>
<path d="M1003.26 236.647H988.015V246.142H1003.26V236.647Z" fill="#ECECEC"/>
<path d="M508.285 135V136.288H505.16V139.924H559.88V251.982H470.104V145.765V139.924V136.288H466.854V135H508.285Z" fill="#ECECEC"/>
<path d="M738.122 185.912H661.219V251.983H738.122V185.912Z" fill="#ECECEC"/>
<path d="M388.577 170.771H326.067V252H388.577V170.771Z" fill="#ECECEC"/>
<path d="M444.297 187.693H376.184V251.999H444.297V187.693Z" fill="#ECECEC"/>
<path d="M376.204 167.506H348.562V177.229H376.204V167.506Z" fill="#ECECEC"/>
<path d="M453.481 186.635H380.869V189.017H453.481V186.635Z" fill="#ECECEC"/>
<path d="M513.348 215.259H436.986V251.982H513.348V215.259Z" fill="#ECECEC"/>
<path d="M252.289 185.4H190.175V251.983H252.289V185.4Z" fill="#ECECEC"/>
<path d="M217.983 218.576H136.269V251.982H217.983V218.576Z" fill="#ECECEC"/>
<path d="M97.3983 213.124H46.2822V251.983H97.3983V213.124Z" fill="#ECECEC"/>
<path d="M208.277 239.806H87.4648V251.982H208.277V239.806Z" fill="#ECECEC"/>
<path d="M61.9267 235.87H0V251.982H61.9267V235.87Z" fill="#ECECEC"/>
<path d="M348.543 227.418H252.289V252H348.543V227.418Z" fill="#ECECEC"/>
<path d="M684.632 241.395H534.679V251.983H684.632V241.395Z" fill="#ECECEC"/>
<path d="M950 216H801V252H950V216Z" fill="#ECECEC"/>
<path d="M678.778 210.317H621.787L597.688 246.688H678.778V210.317Z" fill="#ECECEC"/>
<path d="M706.709 157.395H705.126V197.753H706.709V157.395Z" fill="#ECECEC"/>
<path d="M715.187 171.053H713.062V194.859H715.187V171.053Z" fill="#ECECEC"/>
<path d="M730.539 175.271H701.711V187.059H730.539V175.271Z" fill="#ECECEC"/>
<path d="M735.018 174.353H696.837V175.411H735.018V174.353Z" fill="#ECECEC"/>
<path d="M817.294 217.906H724.123V251.983H817.294V217.906Z" fill="#ECECEC"/>
<path d="M859.351 180.388H799.486V246.141H859.351V180.388Z" fill="#ECECEC"/>
<path d="M1128.89 192.741H1033.26V251.982H1128.89V192.741Z" fill="#ECECEC"/>
<path d="M1112 214H1003V252H1112V214Z" fill="#ECECEC"/>
<path d="M1194.5 244.164H1123.6V251.982H1194.5V244.164Z" fill="#ECECEC"/>
<path d="M1348.08 230.153H1232.8V251.983H1348.08V230.153Z" fill="#ECECEC"/>
<path d="M1278.71 251.982L1422.17 251.982V173.012H1278.71V251.982Z" fill="#ECECEC"/>
<path d="M1275.03 173.012L1430.54 173.012V169.976L1275.03 169.976V173.012Z" fill="#ECECEC"/>
<path d="M1352.78 177.776H1415.81V161.771H1352.78V177.776Z" fill="#ECECEC"/>
<path d="M1321.6 171.512H1332.19V161.771H1321.6V171.512Z" fill="#ECECEC"/>
<path d="M1299.36 171.512H1311V161.771H1299.36V171.512Z" fill="#ECECEC"/>
<path d="M1520.8 252H1634.34V136.659H1520.8V252Z" fill="#ECECEC"/>
<path d="M1517.55 137.93H1637.55V134.665H1517.55V137.93Z" fill="#ECECEC"/>
<path d="M1524.59 145.994H1630.51V130.5H1524.59V145.994Z" fill="#ECECEC"/>
<path d="M1580.45 141.088H1622.4V124.164H1580.45V141.088Z" fill="#ECECEC"/>
<path d="M1598.14 128.929H1622.41V120.018H1605.01L1598.14 128.929Z" fill="#ECECEC"/>
<path d="M1610.26 132.477H1612.61V112.624H1610.26V132.477Z" fill="#ECECEC"/>
<path d="M1609.34 111.582C1609.34 112.147 1610.28 112.606 1611.45 112.606C1612.62 112.606 1613.55 112.147 1613.55 111.582C1613.55 111.017 1612.62 110.559 1611.45 110.559C1610.28 110.559 1609.34 111.017 1609.34 111.582Z" fill="#ECECEC"/>
<path d="M1669.61 204.371H1618.78V251.983H1669.61V204.371Z" fill="#ECECEC"/>
<path d="M1531.98 181.164H1474.04V251.999H1531.98V181.164Z" fill="#ECECEC"/>
<path d="M1503.05 251.983H1421.42V214.112L1490.3 226.589L1503.05 251.983Z" fill="#ECECEC"/>
<path d="M1777.59 231.405H1652.92V251.982H1777.59V231.405Z" fill="#ECECEC"/>
<path d="M1803.96 169.854H1731.53V251.983H1803.96V169.854Z" fill="#ECECEC"/>
<path d="M1907 236.647H1787.02V251.983H1907V236.647Z" fill="#ECECEC"/>
<path d="M1807.27 168.353H1727.82V171.053H1807.27V168.353Z" fill="#ECECEC"/>
<path d="M1794.25 156.759H1792.67V173.312H1794.25V156.759Z" fill="#ECECEC"/>
<path d="M1783.67 158.859H1782.08V172.13H1783.67V158.859Z" fill="#ECECEC"/>
<path d="M1830.78 200.788H1798.48V238.429H1844.53L1830.78 200.788Z" fill="#ECECEC"/>
</g>
</svg>
