<svg width="34" height="34" viewBox="0 0 34 34" fill="none" xmlns="http://www.w3.org/2000/svg">
<path d="M32.7029 15.5474H29.3176C28.8088 9.66275 24.1157 4.95533 18.2164 4.44613V1.06069C18.2164 0.479434 17.7367 0 17.1557 0C16.5747 0 16.1095 0.479401 16.1095 1.06069V4.44613C10.2246 4.95493 5.50252 9.66255 4.99397 15.5474H1.60873C1.02722 15.5474 0.5625 16.0268 0.5625 16.6082C0.5625 17.1893 1.02721 17.6545 1.60873 17.6545H4.99397C5.50277 23.5535 10.2104 28.2614 16.1095 28.77V32.1557C16.1095 32.7367 16.5744 33.2019 17.1557 33.2019C17.7367 33.2019 18.2164 32.7369 18.2164 32.1557V28.77C24.1157 28.2614 28.8091 23.5391 29.3176 17.6545H32.7029C33.2844 17.6545 33.7635 17.1895 33.7635 16.6082C33.7635 16.0267 33.2844 15.5474 32.7029 15.5474ZM17.1557 23.2917C13.4796 23.2917 10.4719 20.2985 10.4719 16.6079C10.4719 12.9172 13.4798 9.92409 17.1557 9.92409C20.8465 9.92409 23.8395 12.9174 23.8395 16.6079C23.8395 20.2982 20.8463 23.2917 17.1557 23.2917Z" fill="#FFD194"/>
</svg>
