<svg width="22" height="20" viewBox="0 0 22 20" fill="none" xmlns="http://www.w3.org/2000/svg">
<mask id="path-1-outside-1_2757_29" maskUnits="userSpaceOnUse" x="0" y="0" width="22" height="20" fill="black">
<rect fill="white" width="22" height="20"/>
<path fill-rule="evenodd" clip-rule="evenodd" d="M19.2054 7.34207L19.2125 7.32756C19.3418 7.03737 19.2172 6.69386 18.9372 6.56075L18.9254 6.55585C18.8055 6.26314 18.6666 5.97295 18.5161 5.69471L18.5184 5.68257C18.589 5.37297 18.4008 5.06101 18.0973 4.98849L18.088 4.98613C17.9116 4.72242 17.7186 4.46615 17.5162 4.2242V4.21694C17.5233 3.89773 17.2786 3.63166 16.9681 3.62441H16.961C16.7352 3.40187 16.4951 3.18913 16.2458 2.99071V2.98835C16.1917 2.67386 15.8976 2.46349 15.5919 2.5215C15.3237 2.34738 15.0437 2.18778 14.7613 2.04506C14.6461 1.75234 14.3213 1.60723 14.0342 1.72332C13.7354 1.60724 13.4296 1.50804 13.1214 1.42824C13.0391 1.30254 12.9143 1.21532 12.7686 1.18394C12.6227 1.15256 12.4745 1.18158 12.3498 1.2661C12.0368 1.21532 11.717 1.18141 11.3992 1.1669C11.1805 0.944367 10.8252 0.944367 10.6064 1.1669C10.2889 1.18141 9.96883 1.21532 9.65587 1.2661C9.53114 1.18394 9.38295 1.15492 9.23706 1.18394C9.09116 1.21532 8.96643 1.30238 8.88421 1.42824C8.57601 1.50804 8.2678 1.60724 7.9714 1.72332C7.68437 1.60724 7.35974 1.75234 7.24437 2.04506C6.95964 2.18779 6.68211 2.34739 6.41378 2.5215C6.10787 2.46582 5.81623 2.67384 5.75981 2.98835V2.99071C5.51036 3.18659 5.27044 3.3995 5.04462 3.62441H5.03757C4.72707 3.63166 4.48237 3.89772 4.48943 4.21694V4.2242C4.28478 4.46613 4.09424 4.7224 3.91767 4.98613L3.90832 4.98849C3.60717 5.06104 3.41664 5.37299 3.48722 5.68257L3.48952 5.69471C3.33887 5.97292 3.20019 6.26073 3.08022 6.55585L3.06841 6.56075C2.93203 6.62604 2.82848 6.73975 2.77662 6.88485C2.72492 7.02994 2.72952 7.18718 2.79303 7.32738L2.80008 7.34189C2.76956 7.44346 2.73887 7.54755 2.71064 7.65148L1.00009 7.65165V7.9081H20.9982V7.65165H19.2949C19.2666 7.54773 19.2384 7.44617 19.2054 7.34207ZM18.5819 6.39152C18.4761 6.32623 18.4172 6.2029 18.4313 6.07704C18.4831 6.17861 18.5348 6.28507 18.5819 6.39152ZM17.7185 4.89673C17.5986 4.85556 17.5139 4.74185 17.5068 4.61379C17.5797 4.7081 17.6503 4.80242 17.7185 4.89673ZM16.5845 3.61249C16.4552 3.59798 16.3469 3.50131 16.3139 3.37308C16.4056 3.45036 16.4951 3.53032 16.5845 3.61249ZM15.2199 2.58688C15.0859 2.60139 14.9564 2.52884 14.8999 2.40298C15.0082 2.46119 15.1164 2.52412 15.2199 2.58688ZM13.6835 1.86378C13.5542 1.90967 13.4083 1.86378 13.3282 1.75006C13.4459 1.78398 13.566 1.82261 13.6835 1.86378ZM12.0321 1.47675C11.9144 1.54693 11.7639 1.53242 11.6626 1.43811C11.7849 1.44773 11.9073 1.45988 12.0321 1.47675ZM10.3356 1.43811C10.2345 1.53242 10.0839 1.54693 9.9662 1.47675C10.0909 1.45988 10.2134 1.44773 10.3356 1.43811ZM8.66989 1.75007C8.58997 1.86378 8.44407 1.90967 8.31459 1.86378C8.43226 1.82261 8.55239 1.78398 8.66989 1.75007ZM7.09605 2.40316C7.03959 2.52885 6.91011 2.60157 6.77603 2.58705C6.88188 2.52413 6.99003 2.46119 7.09605 2.40316ZM5.68434 3.37309C5.65135 3.50132 5.5432 3.59799 5.41371 3.6125C5.50316 3.53034 5.5926 3.45037 5.68434 3.37309ZM4.49155 4.61384C4.4822 4.74206 4.39751 4.85578 4.27984 4.89677C4.34795 4.80246 4.41852 4.70815 4.49155 4.61384ZM3.56693 6.07473C3.58105 6.20042 3.52229 6.32392 3.41628 6.38921C3.46338 6.28511 3.51508 6.17865 3.56693 6.07473ZM4.18792 7.65171C5.16901 4.63323 7.88408 2.61609 10.999 2.61609C14.114 2.61609 16.8292 4.63323 17.8102 7.65171H4.18792ZM18.9865 7.22115L18.8383 7.55487C18.8242 7.58625 18.8124 7.6178 18.8053 7.65155H18.0712C17.8407 6.91393 17.5019 6.21968 17.0642 5.58598C16.6149 4.93544 16.0714 4.36213 15.4504 3.88314C14.8221 3.39945 14.1258 3.022 13.3847 2.7632C12.6176 2.49714 11.8154 2.36166 10.999 2.36166C10.1825 2.36166 9.37787 2.49714 8.61328 2.7632C7.87213 3.02201 7.17812 3.39927 6.5476 3.88314C5.92644 4.36213 5.38304 4.93523 4.93372 5.58598C4.49619 6.21968 4.15732 6.91631 3.92671 7.65155H3.19262C3.18327 7.61763 3.17375 7.58625 3.15963 7.55487L3.01144 7.22115C2.97616 7.14371 2.97386 7.05429 3.00209 6.97449C3.03032 6.89469 3.08907 6.8294 3.1644 6.79313L3.48901 6.64078C3.73141 6.52707 3.86302 6.25139 3.80197 5.98531L3.72205 5.6273C3.68201 5.45319 3.78786 5.27907 3.95739 5.24027L4.30564 5.15811C4.56445 5.09518 4.74791 4.85341 4.74085 4.58009L4.7315 4.21246C4.72674 4.03345 4.86558 3.886 5.0374 3.8811L5.395 3.87148C5.66086 3.86423 5.88916 3.66346 5.93377 3.39505L5.99728 3.03467C6.02781 2.86056 6.19258 2.74195 6.36194 2.7735L6.71249 2.83879C6.97359 2.88721 7.23488 2.73722 7.33365 2.48331L7.46543 2.14234C7.52894 1.97784 7.71242 1.89568 7.87473 1.96333L8.2064 2.09881C8.45338 2.20038 8.73811 2.10843 8.88633 1.87863L9.08162 1.5714C9.12872 1.49886 9.19929 1.45044 9.28168 1.43357C9.36406 1.41669 9.44874 1.43357 9.51701 1.47946L9.81586 1.68259C10.0371 1.83258 10.3358 1.80102 10.524 1.60768L10.7757 1.34887C10.898 1.22317 11.0981 1.22317 11.2205 1.34887L11.4722 1.60768C11.6605 1.80119 11.9593 1.83257 12.1804 1.68259L12.4792 1.47946C12.5498 1.43103 12.6322 1.41653 12.7146 1.43357C12.7969 1.45044 12.8675 1.50122 12.9146 1.5714L13.1099 1.87863C13.2558 2.10606 13.5428 2.19784 13.7898 2.09881L14.1215 1.96333C14.2815 1.89804 14.465 1.97784 14.5308 2.14234L14.6626 2.48331C14.7614 2.73722 15.0225 2.88721 15.2837 2.83879L15.6343 2.7735C15.8036 2.74212 15.9684 2.85819 15.9989 3.03467L16.0625 3.39505C16.1096 3.66347 16.3354 3.86423 16.6012 3.87148L16.9588 3.8811C17.1329 3.88599 17.2693 4.03345 17.2647 4.21246L17.2554 4.58009C17.2483 4.8534 17.4318 5.09769 17.6906 5.15811L18.0388 5.24027C18.2082 5.28144 18.3118 5.45319 18.2742 5.6273L18.1943 5.98531C18.133 6.25138 18.2648 6.52706 18.5072 6.64311L18.8318 6.79546C18.9887 6.86801 19.0594 7.05919 18.9865 7.22115ZM19.2004 12.0875H1V12.3439H2.52212C2.56676 12.4649 2.65144 12.5688 2.76205 12.6341L2.79258 12.651C2.88202 12.9437 2.98787 13.2315 3.10554 13.5121L3.09372 13.5484C3.04433 13.6935 3.05368 13.8507 3.12195 13.9909C3.18776 14.1288 3.30313 14.2329 3.44427 14.2836L3.48431 14.2981C3.62775 14.5618 3.78546 14.8207 3.95255 15.0673L3.94779 15.1132C3.90774 15.4301 4.12667 15.7203 4.43488 15.7614L4.48428 15.7687C4.67252 15.9936 4.87487 16.2112 5.08658 16.4169L5.09134 16.47C5.1148 16.7724 5.36196 17.0045 5.65128 17.0045C5.6654 17.0045 5.67951 17.0045 5.69362 17.0022L5.74532 16.9973C5.9736 17.1786 6.21355 17.3504 6.45824 17.5076L6.47235 17.5608C6.51469 17.7082 6.60873 17.8317 6.74051 17.9066C6.87229 17.9815 7.02524 17.9986 7.16866 17.9574L7.22036 17.9429C7.47917 18.0735 7.74732 18.1921 8.01566 18.2937L8.04159 18.3444C8.11216 18.4823 8.22753 18.5815 8.37096 18.6299C8.5144 18.6758 8.66735 18.6613 8.79911 18.5913L8.84851 18.5646C9.12619 18.6372 9.40846 18.6976 9.69318 18.7413L9.73076 18.7871C9.92605 19.0338 10.2813 19.0726 10.5236 18.8693L10.5707 18.8307C10.7141 18.8379 10.8577 18.8428 10.9988 18.8428C11.14 18.8428 11.2859 18.8379 11.427 18.8307L11.4741 18.8693C11.5776 18.9564 11.7047 18.9999 11.8294 18.9999C11.9917 18.9999 12.154 18.9273 12.2669 18.787L12.3045 18.7411C12.5892 18.6976 12.8715 18.6372 13.1492 18.5644L13.1986 18.5911C13.3326 18.6636 13.4833 18.6758 13.6267 18.6297C13.7702 18.5838 13.8878 18.4823 13.9561 18.3443L13.982 18.2935C14.2526 18.1919 14.5185 18.0733 14.7773 17.9427L14.829 17.9572C14.9725 18.0008 15.1254 17.9814 15.2572 17.9064C15.3889 17.8315 15.483 17.708 15.5253 17.5606L15.5394 17.5074C15.7841 17.3502 16.0241 17.181 16.2524 16.9971L16.3041 17.002C16.6146 17.0261 16.8852 16.7867 16.9087 16.4699L16.9134 16.4167C17.1251 16.2111 17.3275 15.9934 17.5157 15.7685L17.5651 15.7613C17.8733 15.7201 18.0921 15.4299 18.0522 15.1131L18.0475 15.0672C18.2168 14.8205 18.3745 14.5617 18.5157 14.298L18.5557 14.2835C18.6969 14.2327 18.8122 14.1286 18.878 13.9908C18.9439 13.8529 18.9534 13.6957 18.9063 13.5482L18.8945 13.5119C19.0121 13.2314 19.118 12.9436 19.2074 12.6508L19.2379 12.6339C19.3486 12.5663 19.4332 12.4645 19.4779 12.3437H21V12.0873H19.5319L19.2004 12.0875ZM17.81 12.3439C16.8289 15.3624 14.1138 17.3795 10.9989 17.3795C7.88392 17.3795 5.16876 15.3624 4.18776 12.3439H17.81ZM3.1219 12.8615C3.19723 12.9317 3.23481 13.0356 3.22299 13.1372L3.22157 13.1335C3.18676 13.0428 3.15201 12.9522 3.1219 12.8615ZM3.84893 14.4385C3.92656 14.4916 3.98071 14.5763 3.99237 14.6732C3.94067 14.5957 3.89357 14.5159 3.84893 14.4385ZM4.87005 15.8316C4.94997 15.8655 5.01119 15.9331 5.04187 16.0178C4.98296 15.9551 4.9265 15.8945 4.87005 15.8316ZM6.13817 16.9829C6.21809 17.0023 6.28882 17.053 6.33576 17.1231L6.3276 17.1174C6.2645 17.0734 6.20126 17.0293 6.13817 16.9829ZM7.60387 17.8463C7.68625 17.8487 7.76388 17.8826 7.82033 17.943C7.77074 17.9217 7.72107 17.8992 7.67216 17.8771C7.6492 17.8667 7.62641 17.8564 7.60387 17.8463ZM9.20838 18.3883C9.286 18.3737 9.36609 18.3906 9.4319 18.4341C9.41948 18.4317 9.40699 18.4292 9.39444 18.4267C9.33339 18.4146 9.27083 18.4022 9.20838 18.3883ZM10.9988 18.5841H10.8907C10.9613 18.5575 11.0389 18.5575 11.1072 18.5841H10.9988ZM12.5658 18.4341C12.6316 18.3906 12.7117 18.3737 12.7893 18.3883C12.7269 18.4022 12.6644 18.4146 12.6034 18.4267C12.5908 18.4292 12.5782 18.4317 12.5658 18.4341ZM14.1774 17.9406C14.2338 17.8802 14.3137 17.8463 14.3938 17.844C14.3233 17.8779 14.2502 17.9116 14.1774 17.9406ZM15.6619 17.1232C15.7066 17.053 15.7771 17.0022 15.8595 16.983C15.8005 17.0263 15.7414 17.0676 15.6824 17.1089L15.6619 17.1232ZM16.956 16.0178C16.9865 15.9356 17.0477 15.8678 17.1278 15.8315C17.0712 15.8945 17.0147 15.955 16.956 16.0178ZM18.0076 14.6706C18.0194 14.5763 18.0711 14.4893 18.151 14.4359C18.1041 14.5159 18.057 14.5957 18.0076 14.6706ZM18.7769 13.1372C18.7651 13.0332 18.8028 12.9315 18.878 12.8615C18.8611 12.909 18.8435 12.9564 18.8259 13.0038C18.8094 13.0482 18.7929 13.0927 18.7769 13.1372ZM19.1086 12.4141L18.8004 12.6003C18.5721 12.7382 18.4663 13.0284 18.5534 13.2871L18.6686 13.6354C18.6968 13.7175 18.6898 13.8048 18.6545 13.882C18.6192 13.9595 18.5534 14.0175 18.4733 14.0465L18.1346 14.165C17.8828 14.2544 17.7253 14.5132 17.7581 14.7865L17.8027 15.1518C17.8239 15.3284 17.7017 15.4904 17.5298 15.5122L17.1745 15.5581C16.911 15.592 16.704 15.8169 16.6852 16.0878L16.6569 16.4531C16.6499 16.5402 16.6123 16.6176 16.5488 16.6733C16.4853 16.729 16.4029 16.758 16.3205 16.7507L15.9652 16.7217C15.6993 16.6999 15.4547 16.8766 15.3818 17.1401L15.283 17.4932C15.2595 17.5754 15.2076 17.6456 15.1323 17.6868C15.0595 17.7279 14.9746 17.7375 14.8924 17.7158L14.5489 17.6142C14.2924 17.5393 14.0172 17.6601 13.8949 17.902L13.7302 18.2285C13.6926 18.3059 13.6266 18.3614 13.5467 18.3881C13.4668 18.4148 13.3819 18.405 13.3068 18.3663L12.9892 18.1969C12.7539 18.0712 12.4597 18.1317 12.2929 18.3444L12.0671 18.6299C11.9564 18.7677 11.7589 18.7895 11.6248 18.6758L11.3471 18.4436C11.2436 18.3566 11.1188 18.313 10.9918 18.313C10.8648 18.313 10.7401 18.3566 10.6365 18.4436L10.3588 18.6758C10.2247 18.7895 10.0272 18.7677 9.91655 18.6299L9.69073 18.3444C9.52367 18.1315 9.22956 18.0711 8.99441 18.1969L8.67915 18.3663C8.60382 18.4075 8.51914 18.4148 8.43922 18.3881C8.3593 18.3614 8.29333 18.3059 8.25574 18.2285L8.09097 17.9044C7.96871 17.6625 7.69333 17.5417 7.437 17.6166L7.09352 17.7181C7.01359 17.7423 6.92875 17.7326 6.85358 17.6891C6.78072 17.6479 6.72656 17.5779 6.70293 17.4956L6.60413 17.1425C6.53127 16.8788 6.28411 16.7046 6.0207 16.7241L5.6654 16.7531C5.58072 16.7603 5.50063 16.7313 5.43712 16.6756C5.37361 16.62 5.33603 16.5402 5.32897 16.4555L5.30074 16.0902C5.27957 15.8169 5.07492 15.5944 4.81138 15.5604L4.45607 15.5145C4.28425 15.4928 4.16198 15.3306 4.18315 15.1542L4.22779 14.7889C4.26078 14.5179 4.10307 14.2568 3.85132 14.1673L3.51259 14.0489C3.43267 14.0199 3.36916 13.9618 3.33141 13.8844C3.29383 13.807 3.28907 13.7199 3.3173 13.6377L3.43251 13.2895C3.51948 13.0307 3.41363 12.7429 3.18552 12.6027L2.87732 12.4164C2.84679 12.397 2.81856 12.3729 2.79493 12.3462H3.91483C4.1454 13.0839 4.48414 13.7781 4.92183 14.4118C5.37116 15.0623 5.91472 15.6357 6.53571 16.1146C7.16393 16.5983 7.86025 16.9758 8.6014 17.2346C9.36846 17.5007 10.1707 17.6361 10.9871 17.6361C11.8035 17.6361 12.6082 17.5007 13.3728 17.2346C14.1139 16.9758 14.8079 16.5985 15.4385 16.1146C16.0596 15.6357 16.603 15.0626 17.0524 14.4118C17.4899 13.7781 17.8288 13.0815 18.0594 12.3462H19.1793C19.1676 12.3705 19.1416 12.3947 19.1086 12.4141Z"/>
</mask>
<path fill-rule="evenodd" clip-rule="evenodd" d="M19.2054 7.34207L19.2125 7.32756C19.3418 7.03737 19.2172 6.69386 18.9372 6.56075L18.9254 6.55585C18.8055 6.26314 18.6666 5.97295 18.5161 5.69471L18.5184 5.68257C18.589 5.37297 18.4008 5.06101 18.0973 4.98849L18.088 4.98613C17.9116 4.72242 17.7186 4.46615 17.5162 4.2242V4.21694C17.5233 3.89773 17.2786 3.63166 16.9681 3.62441H16.961C16.7352 3.40187 16.4951 3.18913 16.2458 2.99071V2.98835C16.1917 2.67386 15.8976 2.46349 15.5919 2.5215C15.3237 2.34738 15.0437 2.18778 14.7613 2.04506C14.6461 1.75234 14.3213 1.60723 14.0342 1.72332C13.7354 1.60724 13.4296 1.50804 13.1214 1.42824C13.0391 1.30254 12.9143 1.21532 12.7686 1.18394C12.6227 1.15256 12.4745 1.18158 12.3498 1.2661C12.0368 1.21532 11.717 1.18141 11.3992 1.1669C11.1805 0.944367 10.8252 0.944367 10.6064 1.1669C10.2889 1.18141 9.96883 1.21532 9.65587 1.2661C9.53114 1.18394 9.38295 1.15492 9.23706 1.18394C9.09116 1.21532 8.96643 1.30238 8.88421 1.42824C8.57601 1.50804 8.2678 1.60724 7.9714 1.72332C7.68437 1.60724 7.35974 1.75234 7.24437 2.04506C6.95964 2.18779 6.68211 2.34739 6.41378 2.5215C6.10787 2.46582 5.81623 2.67384 5.75981 2.98835V2.99071C5.51036 3.18659 5.27044 3.3995 5.04462 3.62441H5.03757C4.72707 3.63166 4.48237 3.89772 4.48943 4.21694V4.2242C4.28478 4.46613 4.09424 4.7224 3.91767 4.98613L3.90832 4.98849C3.60717 5.06104 3.41664 5.37299 3.48722 5.68257L3.48952 5.69471C3.33887 5.97292 3.20019 6.26073 3.08022 6.55585L3.06841 6.56075C2.93203 6.62604 2.82848 6.73975 2.77662 6.88485C2.72492 7.02994 2.72952 7.18718 2.79303 7.32738L2.80008 7.34189C2.76956 7.44346 2.73887 7.54755 2.71064 7.65148L1.00009 7.65165V7.9081H20.9982V7.65165H19.2949C19.2666 7.54773 19.2384 7.44617 19.2054 7.34207ZM18.5819 6.39152C18.4761 6.32623 18.4172 6.2029 18.4313 6.07704C18.4831 6.17861 18.5348 6.28507 18.5819 6.39152ZM17.7185 4.89673C17.5986 4.85556 17.5139 4.74185 17.5068 4.61379C17.5797 4.7081 17.6503 4.80242 17.7185 4.89673ZM16.5845 3.61249C16.4552 3.59798 16.3469 3.50131 16.3139 3.37308C16.4056 3.45036 16.4951 3.53032 16.5845 3.61249ZM15.2199 2.58688C15.0859 2.60139 14.9564 2.52884 14.8999 2.40298C15.0082 2.46119 15.1164 2.52412 15.2199 2.58688ZM13.6835 1.86378C13.5542 1.90967 13.4083 1.86378 13.3282 1.75006C13.4459 1.78398 13.566 1.82261 13.6835 1.86378ZM12.0321 1.47675C11.9144 1.54693 11.7639 1.53242 11.6626 1.43811C11.7849 1.44773 11.9073 1.45988 12.0321 1.47675ZM10.3356 1.43811C10.2345 1.53242 10.0839 1.54693 9.9662 1.47675C10.0909 1.45988 10.2134 1.44773 10.3356 1.43811ZM8.66989 1.75007C8.58997 1.86378 8.44407 1.90967 8.31459 1.86378C8.43226 1.82261 8.55239 1.78398 8.66989 1.75007ZM7.09605 2.40316C7.03959 2.52885 6.91011 2.60157 6.77603 2.58705C6.88188 2.52413 6.99003 2.46119 7.09605 2.40316ZM5.68434 3.37309C5.65135 3.50132 5.5432 3.59799 5.41371 3.6125C5.50316 3.53034 5.5926 3.45037 5.68434 3.37309ZM4.49155 4.61384C4.4822 4.74206 4.39751 4.85578 4.27984 4.89677C4.34795 4.80246 4.41852 4.70815 4.49155 4.61384ZM3.56693 6.07473C3.58105 6.20042 3.52229 6.32392 3.41628 6.38921C3.46338 6.28511 3.51508 6.17865 3.56693 6.07473ZM4.18792 7.65171C5.16901 4.63323 7.88408 2.61609 10.999 2.61609C14.114 2.61609 16.8292 4.63323 17.8102 7.65171H4.18792ZM18.9865 7.22115L18.8383 7.55487C18.8242 7.58625 18.8124 7.6178 18.8053 7.65155H18.0712C17.8407 6.91393 17.5019 6.21968 17.0642 5.58598C16.6149 4.93544 16.0714 4.36213 15.4504 3.88314C14.8221 3.39945 14.1258 3.022 13.3847 2.7632C12.6176 2.49714 11.8154 2.36166 10.999 2.36166C10.1825 2.36166 9.37787 2.49714 8.61328 2.7632C7.87213 3.02201 7.17812 3.39927 6.5476 3.88314C5.92644 4.36213 5.38304 4.93523 4.93372 5.58598C4.49619 6.21968 4.15732 6.91631 3.92671 7.65155H3.19262C3.18327 7.61763 3.17375 7.58625 3.15963 7.55487L3.01144 7.22115C2.97616 7.14371 2.97386 7.05429 3.00209 6.97449C3.03032 6.89469 3.08907 6.8294 3.1644 6.79313L3.48901 6.64078C3.73141 6.52707 3.86302 6.25139 3.80197 5.98531L3.72205 5.6273C3.68201 5.45319 3.78786 5.27907 3.95739 5.24027L4.30564 5.15811C4.56445 5.09518 4.74791 4.85341 4.74085 4.58009L4.7315 4.21246C4.72674 4.03345 4.86558 3.886 5.0374 3.8811L5.395 3.87148C5.66086 3.86423 5.88916 3.66346 5.93377 3.39505L5.99728 3.03467C6.02781 2.86056 6.19258 2.74195 6.36194 2.7735L6.71249 2.83879C6.97359 2.88721 7.23488 2.73722 7.33365 2.48331L7.46543 2.14234C7.52894 1.97784 7.71242 1.89568 7.87473 1.96333L8.2064 2.09881C8.45338 2.20038 8.73811 2.10843 8.88633 1.87863L9.08162 1.5714C9.12872 1.49886 9.19929 1.45044 9.28168 1.43357C9.36406 1.41669 9.44874 1.43357 9.51701 1.47946L9.81586 1.68259C10.0371 1.83258 10.3358 1.80102 10.524 1.60768L10.7757 1.34887C10.898 1.22317 11.0981 1.22317 11.2205 1.34887L11.4722 1.60768C11.6605 1.80119 11.9593 1.83257 12.1804 1.68259L12.4792 1.47946C12.5498 1.43103 12.6322 1.41653 12.7146 1.43357C12.7969 1.45044 12.8675 1.50122 12.9146 1.5714L13.1099 1.87863C13.2558 2.10606 13.5428 2.19784 13.7898 2.09881L14.1215 1.96333C14.2815 1.89804 14.465 1.97784 14.5308 2.14234L14.6626 2.48331C14.7614 2.73722 15.0225 2.88721 15.2837 2.83879L15.6343 2.7735C15.8036 2.74212 15.9684 2.85819 15.9989 3.03467L16.0625 3.39505C16.1096 3.66347 16.3354 3.86423 16.6012 3.87148L16.9588 3.8811C17.1329 3.88599 17.2693 4.03345 17.2647 4.21246L17.2554 4.58009C17.2483 4.8534 17.4318 5.09769 17.6906 5.15811L18.0388 5.24027C18.2082 5.28144 18.3118 5.45319 18.2742 5.6273L18.1943 5.98531C18.133 6.25138 18.2648 6.52706 18.5072 6.64311L18.8318 6.79546C18.9887 6.86801 19.0594 7.05919 18.9865 7.22115ZM19.2004 12.0875H1V12.3439H2.52212C2.56676 12.4649 2.65144 12.5688 2.76205 12.6341L2.79258 12.651C2.88202 12.9437 2.98787 13.2315 3.10554 13.5121L3.09372 13.5484C3.04433 13.6935 3.05368 13.8507 3.12195 13.9909C3.18776 14.1288 3.30313 14.2329 3.44427 14.2836L3.48431 14.2981C3.62775 14.5618 3.78546 14.8207 3.95255 15.0673L3.94779 15.1132C3.90774 15.4301 4.12667 15.7203 4.43488 15.7614L4.48428 15.7687C4.67252 15.9936 4.87487 16.2112 5.08658 16.4169L5.09134 16.47C5.1148 16.7724 5.36196 17.0045 5.65128 17.0045C5.6654 17.0045 5.67951 17.0045 5.69362 17.0022L5.74532 16.9973C5.9736 17.1786 6.21355 17.3504 6.45824 17.5076L6.47235 17.5608C6.51469 17.7082 6.60873 17.8317 6.74051 17.9066C6.87229 17.9815 7.02524 17.9986 7.16866 17.9574L7.22036 17.9429C7.47917 18.0735 7.74732 18.1921 8.01566 18.2937L8.04159 18.3444C8.11216 18.4823 8.22753 18.5815 8.37096 18.6299C8.5144 18.6758 8.66735 18.6613 8.79911 18.5913L8.84851 18.5646C9.12619 18.6372 9.40846 18.6976 9.69318 18.7413L9.73076 18.7871C9.92605 19.0338 10.2813 19.0726 10.5236 18.8693L10.5707 18.8307C10.7141 18.8379 10.8577 18.8428 10.9988 18.8428C11.14 18.8428 11.2859 18.8379 11.427 18.8307L11.4741 18.8693C11.5776 18.9564 11.7047 18.9999 11.8294 18.9999C11.9917 18.9999 12.154 18.9273 12.2669 18.787L12.3045 18.7411C12.5892 18.6976 12.8715 18.6372 13.1492 18.5644L13.1986 18.5911C13.3326 18.6636 13.4833 18.6758 13.6267 18.6297C13.7702 18.5838 13.8878 18.4823 13.9561 18.3443L13.982 18.2935C14.2526 18.1919 14.5185 18.0733 14.7773 17.9427L14.829 17.9572C14.9725 18.0008 15.1254 17.9814 15.2572 17.9064C15.3889 17.8315 15.483 17.708 15.5253 17.5606L15.5394 17.5074C15.7841 17.3502 16.0241 17.181 16.2524 16.9971L16.3041 17.002C16.6146 17.0261 16.8852 16.7867 16.9087 16.4699L16.9134 16.4167C17.1251 16.2111 17.3275 15.9934 17.5157 15.7685L17.5651 15.7613C17.8733 15.7201 18.0921 15.4299 18.0522 15.1131L18.0475 15.0672C18.2168 14.8205 18.3745 14.5617 18.5157 14.298L18.5557 14.2835C18.6969 14.2327 18.8122 14.1286 18.878 13.9908C18.9439 13.8529 18.9534 13.6957 18.9063 13.5482L18.8945 13.5119C19.0121 13.2314 19.118 12.9436 19.2074 12.6508L19.2379 12.6339C19.3486 12.5663 19.4332 12.4645 19.4779 12.3437H21V12.0873H19.5319L19.2004 12.0875ZM17.81 12.3439C16.8289 15.3624 14.1138 17.3795 10.9989 17.3795C7.88392 17.3795 5.16876 15.3624 4.18776 12.3439H17.81ZM3.1219 12.8615C3.19723 12.9317 3.23481 13.0356 3.22299 13.1372L3.22157 13.1335C3.18676 13.0428 3.15201 12.9522 3.1219 12.8615ZM3.84893 14.4385C3.92656 14.4916 3.98071 14.5763 3.99237 14.6732C3.94067 14.5957 3.89357 14.5159 3.84893 14.4385ZM4.87005 15.8316C4.94997 15.8655 5.01119 15.9331 5.04187 16.0178C4.98296 15.9551 4.9265 15.8945 4.87005 15.8316ZM6.13817 16.9829C6.21809 17.0023 6.28882 17.053 6.33576 17.1231L6.3276 17.1174C6.2645 17.0734 6.20126 17.0293 6.13817 16.9829ZM7.60387 17.8463C7.68625 17.8487 7.76388 17.8826 7.82033 17.943C7.77074 17.9217 7.72107 17.8992 7.67216 17.8771C7.6492 17.8667 7.62641 17.8564 7.60387 17.8463ZM9.20838 18.3883C9.286 18.3737 9.36609 18.3906 9.4319 18.4341C9.41948 18.4317 9.40699 18.4292 9.39444 18.4267C9.33339 18.4146 9.27083 18.4022 9.20838 18.3883ZM10.9988 18.5841H10.8907C10.9613 18.5575 11.0389 18.5575 11.1072 18.5841H10.9988ZM12.5658 18.4341C12.6316 18.3906 12.7117 18.3737 12.7893 18.3883C12.7269 18.4022 12.6644 18.4146 12.6034 18.4267C12.5908 18.4292 12.5782 18.4317 12.5658 18.4341ZM14.1774 17.9406C14.2338 17.8802 14.3137 17.8463 14.3938 17.844C14.3233 17.8779 14.2502 17.9116 14.1774 17.9406ZM15.6619 17.1232C15.7066 17.053 15.7771 17.0022 15.8595 16.983C15.8005 17.0263 15.7414 17.0676 15.6824 17.1089L15.6619 17.1232ZM16.956 16.0178C16.9865 15.9356 17.0477 15.8678 17.1278 15.8315C17.0712 15.8945 17.0147 15.955 16.956 16.0178ZM18.0076 14.6706C18.0194 14.5763 18.0711 14.4893 18.151 14.4359C18.1041 14.5159 18.057 14.5957 18.0076 14.6706ZM18.7769 13.1372C18.7651 13.0332 18.8028 12.9315 18.878 12.8615C18.8611 12.909 18.8435 12.9564 18.8259 13.0038C18.8094 13.0482 18.7929 13.0927 18.7769 13.1372ZM19.1086 12.4141L18.8004 12.6003C18.5721 12.7382 18.4663 13.0284 18.5534 13.2871L18.6686 13.6354C18.6968 13.7175 18.6898 13.8048 18.6545 13.882C18.6192 13.9595 18.5534 14.0175 18.4733 14.0465L18.1346 14.165C17.8828 14.2544 17.7253 14.5132 17.7581 14.7865L17.8027 15.1518C17.8239 15.3284 17.7017 15.4904 17.5298 15.5122L17.1745 15.5581C16.911 15.592 16.704 15.8169 16.6852 16.0878L16.6569 16.4531C16.6499 16.5402 16.6123 16.6176 16.5488 16.6733C16.4853 16.729 16.4029 16.758 16.3205 16.7507L15.9652 16.7217C15.6993 16.6999 15.4547 16.8766 15.3818 17.1401L15.283 17.4932C15.2595 17.5754 15.2076 17.6456 15.1323 17.6868C15.0595 17.7279 14.9746 17.7375 14.8924 17.7158L14.5489 17.6142C14.2924 17.5393 14.0172 17.6601 13.8949 17.902L13.7302 18.2285C13.6926 18.3059 13.6266 18.3614 13.5467 18.3881C13.4668 18.4148 13.3819 18.405 13.3068 18.3663L12.9892 18.1969C12.7539 18.0712 12.4597 18.1317 12.2929 18.3444L12.0671 18.6299C11.9564 18.7677 11.7589 18.7895 11.6248 18.6758L11.3471 18.4436C11.2436 18.3566 11.1188 18.313 10.9918 18.313C10.8648 18.313 10.7401 18.3566 10.6365 18.4436L10.3588 18.6758C10.2247 18.7895 10.0272 18.7677 9.91655 18.6299L9.69073 18.3444C9.52367 18.1315 9.22956 18.0711 8.99441 18.1969L8.67915 18.3663C8.60382 18.4075 8.51914 18.4148 8.43922 18.3881C8.3593 18.3614 8.29333 18.3059 8.25574 18.2285L8.09097 17.9044C7.96871 17.6625 7.69333 17.5417 7.437 17.6166L7.09352 17.7181C7.01359 17.7423 6.92875 17.7326 6.85358 17.6891C6.78072 17.6479 6.72656 17.5779 6.70293 17.4956L6.60413 17.1425C6.53127 16.8788 6.28411 16.7046 6.0207 16.7241L5.6654 16.7531C5.58072 16.7603 5.50063 16.7313 5.43712 16.6756C5.37361 16.62 5.33603 16.5402 5.32897 16.4555L5.30074 16.0902C5.27957 15.8169 5.07492 15.5944 4.81138 15.5604L4.45607 15.5145C4.28425 15.4928 4.16198 15.3306 4.18315 15.1542L4.22779 14.7889C4.26078 14.5179 4.10307 14.2568 3.85132 14.1673L3.51259 14.0489C3.43267 14.0199 3.36916 13.9618 3.33141 13.8844C3.29383 13.807 3.28907 13.7199 3.3173 13.6377L3.43251 13.2895C3.51948 13.0307 3.41363 12.7429 3.18552 12.6027L2.87732 12.4164C2.84679 12.397 2.81856 12.3729 2.79493 12.3462H3.91483C4.1454 13.0839 4.48414 13.7781 4.92183 14.4118C5.37116 15.0623 5.91472 15.6357 6.53571 16.1146C7.16393 16.5983 7.86025 16.9758 8.6014 17.2346C9.36846 17.5007 10.1707 17.6361 10.9871 17.6361C11.8035 17.6361 12.6082 17.5007 13.3728 17.2346C14.1139 16.9758 14.8079 16.5985 15.4385 16.1146C16.0596 15.6357 16.603 15.0626 17.0524 14.4118C17.4899 13.7781 17.8288 13.0815 18.0594 12.3462H19.1793C19.1676 12.3705 19.1416 12.3947 19.1086 12.4141Z" fill="#6AA74D"/>
<path fill-rule="evenodd" clip-rule="evenodd" d="M19.2054 7.34207L19.2125 7.32756C19.3418 7.03737 19.2172 6.69386 18.9372 6.56075L18.9254 6.55585C18.8055 6.26314 18.6666 5.97295 18.5161 5.69471L18.5184 5.68257C18.589 5.37297 18.4008 5.06101 18.0973 4.98849L18.088 4.98613C17.9116 4.72242 17.7186 4.46615 17.5162 4.2242V4.21694C17.5233 3.89773 17.2786 3.63166 16.9681 3.62441H16.961C16.7352 3.40187 16.4951 3.18913 16.2458 2.99071V2.98835C16.1917 2.67386 15.8976 2.46349 15.5919 2.5215C15.3237 2.34738 15.0437 2.18778 14.7613 2.04506C14.6461 1.75234 14.3213 1.60723 14.0342 1.72332C13.7354 1.60724 13.4296 1.50804 13.1214 1.42824C13.0391 1.30254 12.9143 1.21532 12.7686 1.18394C12.6227 1.15256 12.4745 1.18158 12.3498 1.2661C12.0368 1.21532 11.717 1.18141 11.3992 1.1669C11.1805 0.944367 10.8252 0.944367 10.6064 1.1669C10.2889 1.18141 9.96883 1.21532 9.65587 1.2661C9.53114 1.18394 9.38295 1.15492 9.23706 1.18394C9.09116 1.21532 8.96643 1.30238 8.88421 1.42824C8.57601 1.50804 8.2678 1.60724 7.9714 1.72332C7.68437 1.60724 7.35974 1.75234 7.24437 2.04506C6.95964 2.18779 6.68211 2.34739 6.41378 2.5215C6.10787 2.46582 5.81623 2.67384 5.75981 2.98835V2.99071C5.51036 3.18659 5.27044 3.3995 5.04462 3.62441H5.03757C4.72707 3.63166 4.48237 3.89772 4.48943 4.21694V4.2242C4.28478 4.46613 4.09424 4.7224 3.91767 4.98613L3.90832 4.98849C3.60717 5.06104 3.41664 5.37299 3.48722 5.68257L3.48952 5.69471C3.33887 5.97292 3.20019 6.26073 3.08022 6.55585L3.06841 6.56075C2.93203 6.62604 2.82848 6.73975 2.77662 6.88485C2.72492 7.02994 2.72952 7.18718 2.79303 7.32738L2.80008 7.34189C2.76956 7.44346 2.73887 7.54755 2.71064 7.65148L1.00009 7.65165V7.9081H20.9982V7.65165H19.2949C19.2666 7.54773 19.2384 7.44617 19.2054 7.34207ZM18.5819 6.39152C18.4761 6.32623 18.4172 6.2029 18.4313 6.07704C18.4831 6.17861 18.5348 6.28507 18.5819 6.39152ZM17.7185 4.89673C17.5986 4.85556 17.5139 4.74185 17.5068 4.61379C17.5797 4.7081 17.6503 4.80242 17.7185 4.89673ZM16.5845 3.61249C16.4552 3.59798 16.3469 3.50131 16.3139 3.37308C16.4056 3.45036 16.4951 3.53032 16.5845 3.61249ZM15.2199 2.58688C15.0859 2.60139 14.9564 2.52884 14.8999 2.40298C15.0082 2.46119 15.1164 2.52412 15.2199 2.58688ZM13.6835 1.86378C13.5542 1.90967 13.4083 1.86378 13.3282 1.75006C13.4459 1.78398 13.566 1.82261 13.6835 1.86378ZM12.0321 1.47675C11.9144 1.54693 11.7639 1.53242 11.6626 1.43811C11.7849 1.44773 11.9073 1.45988 12.0321 1.47675ZM10.3356 1.43811C10.2345 1.53242 10.0839 1.54693 9.9662 1.47675C10.0909 1.45988 10.2134 1.44773 10.3356 1.43811ZM8.66989 1.75007C8.58997 1.86378 8.44407 1.90967 8.31459 1.86378C8.43226 1.82261 8.55239 1.78398 8.66989 1.75007ZM7.09605 2.40316C7.03959 2.52885 6.91011 2.60157 6.77603 2.58705C6.88188 2.52413 6.99003 2.46119 7.09605 2.40316ZM5.68434 3.37309C5.65135 3.50132 5.5432 3.59799 5.41371 3.6125C5.50316 3.53034 5.5926 3.45037 5.68434 3.37309ZM4.49155 4.61384C4.4822 4.74206 4.39751 4.85578 4.27984 4.89677C4.34795 4.80246 4.41852 4.70815 4.49155 4.61384ZM3.56693 6.07473C3.58105 6.20042 3.52229 6.32392 3.41628 6.38921C3.46338 6.28511 3.51508 6.17865 3.56693 6.07473ZM4.18792 7.65171C5.16901 4.63323 7.88408 2.61609 10.999 2.61609C14.114 2.61609 16.8292 4.63323 17.8102 7.65171H4.18792ZM18.9865 7.22115L18.8383 7.55487C18.8242 7.58625 18.8124 7.6178 18.8053 7.65155H18.0712C17.8407 6.91393 17.5019 6.21968 17.0642 5.58598C16.6149 4.93544 16.0714 4.36213 15.4504 3.88314C14.8221 3.39945 14.1258 3.022 13.3847 2.7632C12.6176 2.49714 11.8154 2.36166 10.999 2.36166C10.1825 2.36166 9.37787 2.49714 8.61328 2.7632C7.87213 3.02201 7.17812 3.39927 6.5476 3.88314C5.92644 4.36213 5.38304 4.93523 4.93372 5.58598C4.49619 6.21968 4.15732 6.91631 3.92671 7.65155H3.19262C3.18327 7.61763 3.17375 7.58625 3.15963 7.55487L3.01144 7.22115C2.97616 7.14371 2.97386 7.05429 3.00209 6.97449C3.03032 6.89469 3.08907 6.8294 3.1644 6.79313L3.48901 6.64078C3.73141 6.52707 3.86302 6.25139 3.80197 5.98531L3.72205 5.6273C3.68201 5.45319 3.78786 5.27907 3.95739 5.24027L4.30564 5.15811C4.56445 5.09518 4.74791 4.85341 4.74085 4.58009L4.7315 4.21246C4.72674 4.03345 4.86558 3.886 5.0374 3.8811L5.395 3.87148C5.66086 3.86423 5.88916 3.66346 5.93377 3.39505L5.99728 3.03467C6.02781 2.86056 6.19258 2.74195 6.36194 2.7735L6.71249 2.83879C6.97359 2.88721 7.23488 2.73722 7.33365 2.48331L7.46543 2.14234C7.52894 1.97784 7.71242 1.89568 7.87473 1.96333L8.2064 2.09881C8.45338 2.20038 8.73811 2.10843 8.88633 1.87863L9.08162 1.5714C9.12872 1.49886 9.19929 1.45044 9.28168 1.43357C9.36406 1.41669 9.44874 1.43357 9.51701 1.47946L9.81586 1.68259C10.0371 1.83258 10.3358 1.80102 10.524 1.60768L10.7757 1.34887C10.898 1.22317 11.0981 1.22317 11.2205 1.34887L11.4722 1.60768C11.6605 1.80119 11.9593 1.83257 12.1804 1.68259L12.4792 1.47946C12.5498 1.43103 12.6322 1.41653 12.7146 1.43357C12.7969 1.45044 12.8675 1.50122 12.9146 1.5714L13.1099 1.87863C13.2558 2.10606 13.5428 2.19784 13.7898 2.09881L14.1215 1.96333C14.2815 1.89804 14.465 1.97784 14.5308 2.14234L14.6626 2.48331C14.7614 2.73722 15.0225 2.88721 15.2837 2.83879L15.6343 2.7735C15.8036 2.74212 15.9684 2.85819 15.9989 3.03467L16.0625 3.39505C16.1096 3.66347 16.3354 3.86423 16.6012 3.87148L16.9588 3.8811C17.1329 3.88599 17.2693 4.03345 17.2647 4.21246L17.2554 4.58009C17.2483 4.8534 17.4318 5.09769 17.6906 5.15811L18.0388 5.24027C18.2082 5.28144 18.3118 5.45319 18.2742 5.6273L18.1943 5.98531C18.133 6.25138 18.2648 6.52706 18.5072 6.64311L18.8318 6.79546C18.9887 6.86801 19.0594 7.05919 18.9865 7.22115ZM19.2004 12.0875H1V12.3439H2.52212C2.56676 12.4649 2.65144 12.5688 2.76205 12.6341L2.79258 12.651C2.88202 12.9437 2.98787 13.2315 3.10554 13.5121L3.09372 13.5484C3.04433 13.6935 3.05368 13.8507 3.12195 13.9909C3.18776 14.1288 3.30313 14.2329 3.44427 14.2836L3.48431 14.2981C3.62775 14.5618 3.78546 14.8207 3.95255 15.0673L3.94779 15.1132C3.90774 15.4301 4.12667 15.7203 4.43488 15.7614L4.48428 15.7687C4.67252 15.9936 4.87487 16.2112 5.08658 16.4169L5.09134 16.47C5.1148 16.7724 5.36196 17.0045 5.65128 17.0045C5.6654 17.0045 5.67951 17.0045 5.69362 17.0022L5.74532 16.9973C5.9736 17.1786 6.21355 17.3504 6.45824 17.5076L6.47235 17.5608C6.51469 17.7082 6.60873 17.8317 6.74051 17.9066C6.87229 17.9815 7.02524 17.9986 7.16866 17.9574L7.22036 17.9429C7.47917 18.0735 7.74732 18.1921 8.01566 18.2937L8.04159 18.3444C8.11216 18.4823 8.22753 18.5815 8.37096 18.6299C8.5144 18.6758 8.66735 18.6613 8.79911 18.5913L8.84851 18.5646C9.12619 18.6372 9.40846 18.6976 9.69318 18.7413L9.73076 18.7871C9.92605 19.0338 10.2813 19.0726 10.5236 18.8693L10.5707 18.8307C10.7141 18.8379 10.8577 18.8428 10.9988 18.8428C11.14 18.8428 11.2859 18.8379 11.427 18.8307L11.4741 18.8693C11.5776 18.9564 11.7047 18.9999 11.8294 18.9999C11.9917 18.9999 12.154 18.9273 12.2669 18.787L12.3045 18.7411C12.5892 18.6976 12.8715 18.6372 13.1492 18.5644L13.1986 18.5911C13.3326 18.6636 13.4833 18.6758 13.6267 18.6297C13.7702 18.5838 13.8878 18.4823 13.9561 18.3443L13.982 18.2935C14.2526 18.1919 14.5185 18.0733 14.7773 17.9427L14.829 17.9572C14.9725 18.0008 15.1254 17.9814 15.2572 17.9064C15.3889 17.8315 15.483 17.708 15.5253 17.5606L15.5394 17.5074C15.7841 17.3502 16.0241 17.181 16.2524 16.9971L16.3041 17.002C16.6146 17.0261 16.8852 16.7867 16.9087 16.4699L16.9134 16.4167C17.1251 16.2111 17.3275 15.9934 17.5157 15.7685L17.5651 15.7613C17.8733 15.7201 18.0921 15.4299 18.0522 15.1131L18.0475 15.0672C18.2168 14.8205 18.3745 14.5617 18.5157 14.298L18.5557 14.2835C18.6969 14.2327 18.8122 14.1286 18.878 13.9908C18.9439 13.8529 18.9534 13.6957 18.9063 13.5482L18.8945 13.5119C19.0121 13.2314 19.118 12.9436 19.2074 12.6508L19.2379 12.6339C19.3486 12.5663 19.4332 12.4645 19.4779 12.3437H21V12.0873H19.5319L19.2004 12.0875ZM17.81 12.3439C16.8289 15.3624 14.1138 17.3795 10.9989 17.3795C7.88392 17.3795 5.16876 15.3624 4.18776 12.3439H17.81ZM3.1219 12.8615C3.19723 12.9317 3.23481 13.0356 3.22299 13.1372L3.22157 13.1335C3.18676 13.0428 3.15201 12.9522 3.1219 12.8615ZM3.84893 14.4385C3.92656 14.4916 3.98071 14.5763 3.99237 14.6732C3.94067 14.5957 3.89357 14.5159 3.84893 14.4385ZM4.87005 15.8316C4.94997 15.8655 5.01119 15.9331 5.04187 16.0178C4.98296 15.9551 4.9265 15.8945 4.87005 15.8316ZM6.13817 16.9829C6.21809 17.0023 6.28882 17.053 6.33576 17.1231L6.3276 17.1174C6.2645 17.0734 6.20126 17.0293 6.13817 16.9829ZM7.60387 17.8463C7.68625 17.8487 7.76388 17.8826 7.82033 17.943C7.77074 17.9217 7.72107 17.8992 7.67216 17.8771C7.6492 17.8667 7.62641 17.8564 7.60387 17.8463ZM9.20838 18.3883C9.286 18.3737 9.36609 18.3906 9.4319 18.4341C9.41948 18.4317 9.40699 18.4292 9.39444 18.4267C9.33339 18.4146 9.27083 18.4022 9.20838 18.3883ZM10.9988 18.5841H10.8907C10.9613 18.5575 11.0389 18.5575 11.1072 18.5841H10.9988ZM12.5658 18.4341C12.6316 18.3906 12.7117 18.3737 12.7893 18.3883C12.7269 18.4022 12.6644 18.4146 12.6034 18.4267C12.5908 18.4292 12.5782 18.4317 12.5658 18.4341ZM14.1774 17.9406C14.2338 17.8802 14.3137 17.8463 14.3938 17.844C14.3233 17.8779 14.2502 17.9116 14.1774 17.9406ZM15.6619 17.1232C15.7066 17.053 15.7771 17.0022 15.8595 16.983C15.8005 17.0263 15.7414 17.0676 15.6824 17.1089L15.6619 17.1232ZM16.956 16.0178C16.9865 15.9356 17.0477 15.8678 17.1278 15.8315C17.0712 15.8945 17.0147 15.955 16.956 16.0178ZM18.0076 14.6706C18.0194 14.5763 18.0711 14.4893 18.151 14.4359C18.1041 14.5159 18.057 14.5957 18.0076 14.6706ZM18.7769 13.1372C18.7651 13.0332 18.8028 12.9315 18.878 12.8615C18.8611 12.909 18.8435 12.9564 18.8259 13.0038C18.8094 13.0482 18.7929 13.0927 18.7769 13.1372ZM19.1086 12.4141L18.8004 12.6003C18.5721 12.7382 18.4663 13.0284 18.5534 13.2871L18.6686 13.6354C18.6968 13.7175 18.6898 13.8048 18.6545 13.882C18.6192 13.9595 18.5534 14.0175 18.4733 14.0465L18.1346 14.165C17.8828 14.2544 17.7253 14.5132 17.7581 14.7865L17.8027 15.1518C17.8239 15.3284 17.7017 15.4904 17.5298 15.5122L17.1745 15.5581C16.911 15.592 16.704 15.8169 16.6852 16.0878L16.6569 16.4531C16.6499 16.5402 16.6123 16.6176 16.5488 16.6733C16.4853 16.729 16.4029 16.758 16.3205 16.7507L15.9652 16.7217C15.6993 16.6999 15.4547 16.8766 15.3818 17.1401L15.283 17.4932C15.2595 17.5754 15.2076 17.6456 15.1323 17.6868C15.0595 17.7279 14.9746 17.7375 14.8924 17.7158L14.5489 17.6142C14.2924 17.5393 14.0172 17.6601 13.8949 17.902L13.7302 18.2285C13.6926 18.3059 13.6266 18.3614 13.5467 18.3881C13.4668 18.4148 13.3819 18.405 13.3068 18.3663L12.9892 18.1969C12.7539 18.0712 12.4597 18.1317 12.2929 18.3444L12.0671 18.6299C11.9564 18.7677 11.7589 18.7895 11.6248 18.6758L11.3471 18.4436C11.2436 18.3566 11.1188 18.313 10.9918 18.313C10.8648 18.313 10.7401 18.3566 10.6365 18.4436L10.3588 18.6758C10.2247 18.7895 10.0272 18.7677 9.91655 18.6299L9.69073 18.3444C9.52367 18.1315 9.22956 18.0711 8.99441 18.1969L8.67915 18.3663C8.60382 18.4075 8.51914 18.4148 8.43922 18.3881C8.3593 18.3614 8.29333 18.3059 8.25574 18.2285L8.09097 17.9044C7.96871 17.6625 7.69333 17.5417 7.437 17.6166L7.09352 17.7181C7.01359 17.7423 6.92875 17.7326 6.85358 17.6891C6.78072 17.6479 6.72656 17.5779 6.70293 17.4956L6.60413 17.1425C6.53127 16.8788 6.28411 16.7046 6.0207 16.7241L5.6654 16.7531C5.58072 16.7603 5.50063 16.7313 5.43712 16.6756C5.37361 16.62 5.33603 16.5402 5.32897 16.4555L5.30074 16.0902C5.27957 15.8169 5.07492 15.5944 4.81138 15.5604L4.45607 15.5145C4.28425 15.4928 4.16198 15.3306 4.18315 15.1542L4.22779 14.7889C4.26078 14.5179 4.10307 14.2568 3.85132 14.1673L3.51259 14.0489C3.43267 14.0199 3.36916 13.9618 3.33141 13.8844C3.29383 13.807 3.28907 13.7199 3.3173 13.6377L3.43251 13.2895C3.51948 13.0307 3.41363 12.7429 3.18552 12.6027L2.87732 12.4164C2.84679 12.397 2.81856 12.3729 2.79493 12.3462H3.91483C4.1454 13.0839 4.48414 13.7781 4.92183 14.4118C5.37116 15.0623 5.91472 15.6357 6.53571 16.1146C7.16393 16.5983 7.86025 16.9758 8.6014 17.2346C9.36846 17.5007 10.1707 17.6361 10.9871 17.6361C11.8035 17.6361 12.6082 17.5007 13.3728 17.2346C14.1139 16.9758 14.8079 16.5985 15.4385 16.1146C16.0596 15.6357 16.603 15.0626 17.0524 14.4118C17.4899 13.7781 17.8288 13.0815 18.0594 12.3462H19.1793C19.1676 12.3705 19.1416 12.3947 19.1086 12.4141Z" stroke="#6AA74D" stroke-width="0.6" mask="url(#path-1-outside-1_2757_29)"/>
<path d="M3 10.9999V8.8999H3.96C4.152 8.8999 4.317 8.9309 4.455 8.9929C4.595 9.0549 4.703 9.1449 4.779 9.2629C4.855 9.3789 4.893 9.5169 4.893 9.6769C4.893 9.8349 4.855 9.9719 4.779 10.0879C4.703 10.2019 4.595 10.2899 4.455 10.3519C4.317 10.4119 4.152 10.4419 3.96 10.4419H3.33L3.594 10.1929V10.9999H3ZM4.299 10.9999L3.777 10.2349H4.41L4.935 10.9999H4.299ZM3.594 10.2559L3.33 9.9829H3.924C4.048 9.9829 4.14 9.9559 4.2 9.9019C4.262 9.8479 4.293 9.7729 4.293 9.6769C4.293 9.5789 4.262 9.5029 4.2 9.4489C4.14 9.3949 4.048 9.3679 3.924 9.3679H3.33L3.594 9.0949V10.2559Z" fill="#6AA74D"/>
<path d="M7.9267 9.7129H8.9017V10.1569H7.9267V9.7129ZM7.9687 10.5409H9.0667V10.9999H7.3807V8.8999H9.0277V9.3589H7.9687V10.5409Z" fill="#6AA74D"/>
<path d="M11.5563 10.9999V8.8999H12.5163C12.7083 8.8999 12.8733 8.9309 13.0113 8.9929C13.1513 9.0549 13.2593 9.1449 13.3353 9.2629C13.4113 9.3789 13.4493 9.5169 13.4493 9.6769C13.4493 9.8349 13.4113 9.9719 13.3353 10.0879C13.2593 10.2019 13.1513 10.2899 13.0113 10.3519C12.8733 10.4119 12.7083 10.4419 12.5163 10.4419H11.8863L12.1503 10.1929V10.9999H11.5563ZM12.8553 10.9999L12.3333 10.2349H12.9663L13.4913 10.9999H12.8553ZM12.1503 10.2559L11.8863 9.9829H12.4803C12.6043 9.9829 12.6963 9.9559 12.7563 9.9019C12.8183 9.8479 12.8493 9.7729 12.8493 9.6769C12.8493 9.5789 12.8183 9.5029 12.7563 9.4489C12.6963 9.3949 12.6043 9.3679 12.4803 9.3679H11.8863L12.1503 9.0949V10.2559Z" fill="#6AA74D"/>
<path d="M15.685 10.9999L16.612 8.8999H17.197L18.127 10.9999H17.509L16.783 9.1909H17.017L16.291 10.9999H15.685ZM16.192 10.5919L16.345 10.1539H17.371L17.524 10.5919H16.192Z" fill="#6AA74D"/>
</svg>
