<svg width="22" height="18" viewBox="0 0 22 18" fill="none" xmlns="http://www.w3.org/2000/svg">
<path d="M7.44831 4.92637L7.44839 4.92621L7.84128 4.15875L5.26131 4.1589L3.31543 7.9589H5.89562L6.45697 6.86465C6.50853 6.75195 6.60452 6.66541 6.72181 6.62399L6.72187 6.62397C6.84019 6.58226 6.97084 6.58972 7.08338 6.64467L7.08346 6.6447C7.19607 6.69979 7.28168 6.79778 7.319 6.91705C7.35584 7.03481 7.34225 7.16207 7.28162 7.26958L6.92971 7.95889L9.50989 7.95874L11.4558 4.15873H8.87564L8.27476 5.33254L7.44831 4.92637ZM7.44831 4.92637C7.33322 5.1522 7.42824 5.4248 7.65634 5.53568M7.44831 4.92637L7.65634 5.53568M7.65634 5.53568C7.88315 5.64611 8.16008 5.55703 8.27471 5.33263L7.65634 5.53568ZM18.6847 4.15875L18.1037 5.2956L18.0928 5.31704V5.31939C17.9986 5.5387 18.0931 5.79274 18.3093 5.90121L18.3093 5.90123L18.3112 5.90215C18.3745 5.93222 18.4439 5.94858 18.5145 5.94941L18.5158 5.94941C18.6893 5.9492 18.8489 5.85324 18.9276 5.69968L18.8386 5.6541L18.9276 5.69967L19.7189 4.15416H20.1772V7.95891H17.7733L17.9398 7.63395L17.9733 7.56846L17.9661 7.56138C18.0214 7.35623 17.9229 7.13715 17.7252 7.04074C17.5067 6.93395 17.2397 7.01265 17.1182 7.22287L17.1181 7.22281L17.1159 7.22711L16.7391 7.95891H14.1588L16.1047 4.1589L18.6847 4.15875ZM1.36138 8.86468H2.10484V16.6471C2.10484 16.8996 2.31357 17.1 2.56622 17.1H4.97587C5.22852 17.1 5.43724 16.8996 5.43724 16.6471V8.86468H16.5626L16.5628 16.6471C16.5628 16.8996 16.7715 17.1 17.0241 17.1H19.4338C19.6864 17.1 19.8952 16.8996 19.8952 16.6471V8.86468H20.6386C20.8913 8.86468 21.1 8.66424 21.1 8.4118V3.70586C21.1 3.45342 20.8913 3.25299 20.6386 3.25299H19.8952V1.35288C19.8952 1.10043 19.6864 0.9 19.4338 0.9H17.0241C16.7715 0.9 16.5628 1.10043 16.5628 1.35288V3.25299H5.4374L5.43724 1.35288C5.43724 1.35288 5.43724 1.35287 5.43724 1.35287C5.43724 1.10043 5.22852 0.9 4.97587 0.9H2.56622C2.31357 0.9 2.10484 1.10043 2.10484 1.35288V3.25299H1.36138C1.10872 3.25299 0.9 3.45342 0.9 3.70586V8.4118C0.9 8.66424 1.10872 8.86468 1.36138 8.86468ZM1.82276 4.15874H4.22668L2.2808 7.95876L1.82271 7.95888L1.82276 4.15874ZM4.51429 1.80577V3.25281H3.02758V1.80577H4.51429ZM18.9722 1.80577V3.25281H17.4855V1.80577H18.9722ZM17.4855 16.1942V8.86468H18.9722L18.9723 16.1942H17.4855ZM12.4901 4.1589L15.0701 4.15875L13.1242 7.95875L10.5443 7.9589L12.4901 4.1589ZM3.02767 16.1942V8.86468H4.51438L4.51454 16.1942H3.02767Z" fill="#6AA74D" stroke="#6AA74D" stroke-width="0.2"/>
</svg>
